G04 Layer: BottomLayer*
G04 EasyEDA v6.4.24, 2021-09-25T18:25:05+02:00*
G04 d15503250396465d85bfe37af418053a,f5a38c858c354eb5b90fd3f81420cce3,10*
G04 Gerber Generator version 0.2*
G04 Scale: 100 percent, Rotated: No, Reflected: No *
G04 Dimensions in millimeters *
G04 leading zeros omitted , absolute positions ,4 integer and 5 decimal *
%FSLAX45Y45*%
%MOMM*%

%ADD10C,0.2540*%
%ADD11C,0.5080*%
%ADD12C,0.1500*%
%ADD15C,0.6000*%
%ADD16C,0.6096*%
%ADD17C,1.5000*%
%ADD30C,1.0000*%
%ADD31C,1.5240*%
%ADD32R,1.5000X1.5000*%

%LPD*%
G36*
X2260955Y-590143D02*
G01*
X2256637Y-589178D01*
X2253132Y-586536D01*
X2251100Y-582625D01*
X2249830Y-577697D01*
X2245664Y-568858D01*
X2240076Y-560832D01*
X2233168Y-553923D01*
X2225141Y-548335D01*
X2216302Y-544169D01*
X2206853Y-541680D01*
X2198776Y-540969D01*
X2195322Y-540054D01*
X2192477Y-538022D01*
X2169769Y-515366D01*
X2167483Y-511809D01*
X2166823Y-507644D01*
X2167940Y-503529D01*
X2170582Y-500278D01*
X2174341Y-498348D01*
X2177999Y-497382D01*
X2186787Y-493268D01*
X2194763Y-487680D01*
X2201621Y-480872D01*
X2207158Y-472897D01*
X2211273Y-464108D01*
X2212695Y-458825D01*
X2214727Y-454914D01*
X2218182Y-452221D01*
X2222500Y-451256D01*
X2226818Y-452221D01*
X2230272Y-454914D01*
X2232304Y-458825D01*
X2233726Y-464108D01*
X2237841Y-472897D01*
X2243378Y-480872D01*
X2250236Y-487680D01*
X2258212Y-493268D01*
X2267000Y-497382D01*
X2276348Y-499872D01*
X2286000Y-500735D01*
X2295652Y-499872D01*
X2304999Y-497382D01*
X2313787Y-493268D01*
X2321763Y-487680D01*
X2328621Y-480872D01*
X2334158Y-472897D01*
X2338273Y-464108D01*
X2340762Y-454761D01*
X2341676Y-444652D01*
X2341676Y-353568D01*
X2340762Y-343458D01*
X2338273Y-334060D01*
X2337409Y-332232D01*
X2336444Y-328269D01*
X2337104Y-324256D01*
X2339289Y-320852D01*
X2342642Y-318566D01*
X2346604Y-317754D01*
X2727502Y-317754D01*
X2731262Y-318465D01*
X2734513Y-320548D01*
X2736748Y-323697D01*
X2737612Y-327456D01*
X2737053Y-331266D01*
X2735427Y-335889D01*
X2734818Y-341477D01*
X2767787Y-341477D01*
X2767787Y-327914D01*
X2768549Y-324002D01*
X2770784Y-320751D01*
X2774086Y-318516D01*
X2777947Y-317754D01*
X2797860Y-317754D01*
X2801721Y-318516D01*
X2805023Y-320751D01*
X2807208Y-324002D01*
X2808020Y-327914D01*
X2808020Y-341477D01*
X2814574Y-341477D01*
X2818485Y-342290D01*
X2821787Y-344474D01*
X2823972Y-347776D01*
X2824734Y-351637D01*
X2824734Y-356514D01*
X2823972Y-360426D01*
X2821787Y-363728D01*
X2818485Y-365912D01*
X2814574Y-366674D01*
X2808020Y-366674D01*
X2808020Y-406501D01*
X2814574Y-406501D01*
X2818485Y-407263D01*
X2821787Y-409498D01*
X2823972Y-412750D01*
X2824734Y-416661D01*
X2824734Y-421538D01*
X2823972Y-425450D01*
X2821787Y-428701D01*
X2818485Y-430936D01*
X2814574Y-431698D01*
X2808020Y-431698D01*
X2808020Y-435762D01*
X2807208Y-439674D01*
X2805023Y-442976D01*
X2801721Y-445160D01*
X2797860Y-445922D01*
X2777947Y-445770D01*
X2774086Y-444957D01*
X2770784Y-442772D01*
X2768549Y-439470D01*
X2767787Y-435609D01*
X2767787Y-431698D01*
X2734818Y-431698D01*
X2735529Y-437896D01*
X2735122Y-442061D01*
X2733090Y-445719D01*
X2729788Y-448208D01*
X2726740Y-449630D01*
X2722829Y-450596D01*
X2718816Y-449986D01*
X2715361Y-447801D01*
X2713075Y-444449D01*
X2712262Y-438962D01*
X2670454Y-438962D01*
X2670454Y-476758D01*
X2669692Y-480669D01*
X2667457Y-483971D01*
X2664155Y-486156D01*
X2660294Y-486918D01*
X2622905Y-486918D01*
X2619044Y-486156D01*
X2615742Y-483971D01*
X2613507Y-480669D01*
X2612745Y-476758D01*
X2612745Y-438962D01*
X2570937Y-438962D01*
X2570937Y-452018D01*
X2571648Y-458317D01*
X2573528Y-463702D01*
X2576576Y-468579D01*
X2580640Y-472592D01*
X2582875Y-474014D01*
X2585770Y-476808D01*
X2587396Y-480568D01*
X2587396Y-484632D01*
X2585770Y-488391D01*
X2582875Y-491185D01*
X2580640Y-492607D01*
X2576576Y-496620D01*
X2573528Y-501497D01*
X2571445Y-507441D01*
X2569311Y-510997D01*
X2565958Y-513384D01*
X2561082Y-514248D01*
X2557373Y-513537D01*
X2554122Y-511454D01*
X2551887Y-508406D01*
X2550464Y-505358D01*
X2544876Y-497332D01*
X2537968Y-490423D01*
X2529941Y-484835D01*
X2521102Y-480669D01*
X2511653Y-478180D01*
X2501900Y-477316D01*
X2492146Y-478180D01*
X2482697Y-480669D01*
X2473858Y-484835D01*
X2465832Y-490423D01*
X2458923Y-497332D01*
X2453335Y-505358D01*
X2449169Y-514197D01*
X2446680Y-523646D01*
X2445969Y-531723D01*
X2445054Y-535178D01*
X2443022Y-538022D01*
X2437028Y-544017D01*
X2431948Y-550214D01*
X2428087Y-557479D01*
X2426055Y-560070D01*
X2423363Y-561898D01*
X2420213Y-562813D01*
X2413101Y-563575D01*
X2407716Y-565454D01*
X2402840Y-568502D01*
X2398776Y-572566D01*
X2395728Y-577392D01*
X2393645Y-583336D01*
X2391511Y-586892D01*
X2388158Y-589280D01*
X2384094Y-590143D01*
G37*

%LPC*%
G36*
X2734818Y-406501D02*
G01*
X2767787Y-406501D01*
X2767787Y-366674D01*
X2734818Y-366674D01*
X2735427Y-372313D01*
X2737358Y-377698D01*
X2739542Y-381203D01*
X2740914Y-384708D01*
X2740914Y-388467D01*
X2739542Y-392023D01*
X2737358Y-395478D01*
X2735427Y-400913D01*
G37*
G36*
X2670454Y-386232D02*
G01*
X2712262Y-386232D01*
X2712262Y-373176D01*
X2711551Y-366928D01*
X2709672Y-361492D01*
X2706624Y-356666D01*
X2702560Y-352602D01*
X2697683Y-349554D01*
X2692298Y-347675D01*
X2686050Y-346964D01*
X2670454Y-346964D01*
G37*
G36*
X2570937Y-386232D02*
G01*
X2612745Y-386232D01*
X2612745Y-346964D01*
X2597150Y-346964D01*
X2590901Y-347675D01*
X2585516Y-349554D01*
X2580640Y-352602D01*
X2576576Y-356666D01*
X2573528Y-361492D01*
X2571648Y-366928D01*
X2570937Y-373176D01*
G37*

%LPD*%
G36*
X3468014Y-843127D02*
G01*
X3464153Y-842365D01*
X3460851Y-840181D01*
X3234588Y-613918D01*
X3232251Y-610362D01*
X3231642Y-606145D01*
X3232759Y-602081D01*
X3235452Y-598779D01*
X3239160Y-595833D01*
X3242157Y-594156D01*
X3245510Y-593598D01*
X3343148Y-593598D01*
X3351123Y-592836D01*
X3358286Y-590651D01*
X3364941Y-587095D01*
X3371138Y-582015D01*
X3443071Y-510082D01*
X3448151Y-503885D01*
X3451707Y-497281D01*
X3453841Y-490118D01*
X3454704Y-480974D01*
X3455771Y-477316D01*
X3458057Y-474268D01*
X3461359Y-472338D01*
X3465118Y-471728D01*
X3468827Y-472592D01*
X3471976Y-474726D01*
X3478580Y-481279D01*
X3483508Y-485241D01*
X3485794Y-486308D01*
X3488537Y-488289D01*
X3490518Y-491083D01*
X3491636Y-493318D01*
X3495548Y-498246D01*
X3534257Y-536956D01*
X3539185Y-540918D01*
X3542690Y-542594D01*
X3545433Y-544525D01*
X3547414Y-547319D01*
X3549091Y-550824D01*
X3553002Y-555752D01*
X3558032Y-560730D01*
X3594404Y-524357D01*
X3593134Y-520192D01*
X3593744Y-515874D01*
X3596081Y-512216D01*
X3635603Y-472744D01*
X3639261Y-470357D01*
X3643579Y-469798D01*
X3647694Y-471017D01*
X3684066Y-434644D01*
X3679088Y-429666D01*
X3675430Y-426720D01*
X3672840Y-423672D01*
X3671671Y-419862D01*
X3672027Y-415848D01*
X3673906Y-412343D01*
X3676751Y-408889D01*
X3680307Y-402285D01*
X3682492Y-395071D01*
X3683254Y-387096D01*
X3683254Y-337616D01*
X3684015Y-333705D01*
X3686251Y-330403D01*
X3691331Y-325323D01*
X3694887Y-322986D01*
X3699103Y-322376D01*
X3703167Y-323494D01*
X3706469Y-326186D01*
X3708044Y-328168D01*
X3717340Y-337413D01*
X3746855Y-307898D01*
X3735019Y-296011D01*
X3732784Y-292709D01*
X3732022Y-288798D01*
X3732784Y-284937D01*
X3735019Y-281635D01*
X3761435Y-255219D01*
X3764737Y-252984D01*
X3768598Y-252221D01*
X3772509Y-252984D01*
X3775811Y-255219D01*
X3787698Y-267055D01*
X3817213Y-237540D01*
X3813200Y-233476D01*
X3811015Y-230225D01*
X3810254Y-226314D01*
X3811015Y-222402D01*
X3813200Y-219151D01*
X3816502Y-216916D01*
X3820414Y-216154D01*
X3853383Y-216154D01*
X3857294Y-216916D01*
X3860596Y-219151D01*
X3985717Y-344271D01*
X3991914Y-349351D01*
X3998518Y-352907D01*
X4005732Y-355092D01*
X4013708Y-355854D01*
X4476089Y-355854D01*
X4480306Y-356768D01*
X4483760Y-359308D01*
X4485843Y-363067D01*
X4486148Y-367385D01*
X4482287Y-377647D01*
X4481474Y-385775D01*
X4480458Y-389382D01*
X4478223Y-392328D01*
X4475073Y-394309D01*
X4471365Y-394970D01*
X4456684Y-394970D01*
X4448708Y-395732D01*
X4441494Y-397916D01*
X4434890Y-401472D01*
X4428693Y-406552D01*
X4342485Y-492759D01*
X4339285Y-494944D01*
X4335424Y-495757D01*
X4331614Y-495046D01*
X4328312Y-492963D01*
X4326077Y-489762D01*
X4283354Y-489762D01*
X4283354Y-527558D01*
X4282592Y-531469D01*
X4280357Y-534771D01*
X4277055Y-536956D01*
X4273194Y-537718D01*
X4235805Y-537718D01*
X4231944Y-536956D01*
X4228642Y-534771D01*
X4226407Y-531469D01*
X4225645Y-527558D01*
X4225645Y-489762D01*
X4183837Y-489762D01*
X4183837Y-502818D01*
X4184548Y-509117D01*
X4186428Y-514502D01*
X4189476Y-519379D01*
X4193540Y-523392D01*
X4195724Y-524814D01*
X4198670Y-527608D01*
X4200296Y-531368D01*
X4200296Y-535432D01*
X4198670Y-539191D01*
X4195724Y-541985D01*
X4193540Y-543407D01*
X4189476Y-547420D01*
X4186428Y-552297D01*
X4184548Y-557682D01*
X4183837Y-563981D01*
X4183837Y-590296D01*
X4183075Y-594207D01*
X4180890Y-597509D01*
X4159300Y-619048D01*
X4155998Y-621284D01*
X4152087Y-622046D01*
X4142638Y-622046D01*
X4138472Y-621182D01*
X4135069Y-618693D01*
X4132986Y-615035D01*
X4132529Y-610819D01*
X4133850Y-606806D01*
X4136136Y-602792D01*
X4140250Y-592277D01*
X4142790Y-581253D01*
X4143349Y-573836D01*
X4099356Y-573836D01*
X4099356Y-611886D01*
X4098594Y-615797D01*
X4096359Y-619048D01*
X4093057Y-621284D01*
X4089196Y-622046D01*
X4046829Y-622046D01*
X4042918Y-621284D01*
X4039615Y-619048D01*
X4037431Y-615797D01*
X4036669Y-611886D01*
X4036669Y-573836D01*
X4019753Y-573836D01*
X4016552Y-573328D01*
X4013708Y-571855D01*
X4011422Y-569518D01*
X4005376Y-560832D01*
X3998468Y-553923D01*
X3990441Y-548335D01*
X3981602Y-544169D01*
X3972153Y-541680D01*
X3962400Y-540816D01*
X3952646Y-541680D01*
X3943197Y-544169D01*
X3934358Y-548335D01*
X3926332Y-553923D01*
X3924706Y-555548D01*
X3921404Y-557784D01*
X3917492Y-558546D01*
X3888689Y-558546D01*
X3880713Y-559308D01*
X3873550Y-561492D01*
X3866946Y-565048D01*
X3860749Y-570128D01*
X3847185Y-583692D01*
X3843578Y-586028D01*
X3839413Y-586689D01*
X3835298Y-585571D01*
X3832047Y-582879D01*
X3830980Y-581507D01*
X3826001Y-576529D01*
X3788816Y-613714D01*
X3789019Y-617118D01*
X3788105Y-620420D01*
X3786124Y-623214D01*
X3746601Y-662736D01*
X3743807Y-664718D01*
X3740505Y-665683D01*
X3737051Y-665429D01*
X3723690Y-678789D01*
X3720388Y-681024D01*
X3716528Y-681786D01*
X3711194Y-681786D01*
X3707333Y-681024D01*
X3704031Y-678789D01*
X3692296Y-667105D01*
X3690112Y-663803D01*
X3689350Y-659942D01*
X3690112Y-656031D01*
X3692296Y-652729D01*
X3707536Y-637489D01*
X3706266Y-633323D01*
X3706876Y-629056D01*
X3709212Y-625398D01*
X3748735Y-585876D01*
X3752392Y-583539D01*
X3756710Y-582930D01*
X3760876Y-584149D01*
X3797249Y-547776D01*
X3792270Y-542798D01*
X3788918Y-540156D01*
X3786225Y-536854D01*
X3785108Y-532739D01*
X3785768Y-528574D01*
X3788054Y-525018D01*
X3792423Y-521716D01*
X3796334Y-520954D01*
X3806951Y-520954D01*
X3814927Y-520192D01*
X3822141Y-518007D01*
X3828745Y-514451D01*
X3834942Y-509371D01*
X3855669Y-488594D01*
X3859174Y-486359D01*
X3863238Y-485648D01*
X3867302Y-486664D01*
X3872890Y-489356D01*
X3878478Y-490626D01*
X3884218Y-490626D01*
X3889806Y-489356D01*
X3894988Y-486867D01*
X3899915Y-482955D01*
X3962755Y-420116D01*
X3966667Y-415188D01*
X3969156Y-410006D01*
X3970426Y-404418D01*
X3970426Y-398678D01*
X3969156Y-393090D01*
X3966667Y-387959D01*
X3962755Y-383032D01*
X3906977Y-327253D01*
X3902049Y-323342D01*
X3896868Y-320852D01*
X3891279Y-319582D01*
X3885539Y-319582D01*
X3883050Y-320141D01*
X3878935Y-320243D01*
X3875176Y-318719D01*
X3872280Y-315823D01*
X3870756Y-312064D01*
X3870858Y-307949D01*
X3871417Y-305460D01*
X3871417Y-299720D01*
X3870147Y-294132D01*
X3867658Y-288950D01*
X3863746Y-284022D01*
X3854500Y-274777D01*
X3824935Y-304342D01*
X3851706Y-331063D01*
X3853891Y-334365D01*
X3854653Y-338277D01*
X3853891Y-342138D01*
X3851706Y-345440D01*
X3825240Y-371906D01*
X3821937Y-374091D01*
X3818077Y-374853D01*
X3814165Y-374091D01*
X3810863Y-371906D01*
X3784142Y-345135D01*
X3754577Y-374700D01*
X3763822Y-383946D01*
X3768750Y-387858D01*
X3773932Y-390347D01*
X3779520Y-391617D01*
X3785260Y-391617D01*
X3787749Y-391058D01*
X3791864Y-390956D01*
X3795623Y-392480D01*
X3798519Y-395376D01*
X3800043Y-399135D01*
X3799941Y-403250D01*
X3799382Y-405739D01*
X3799382Y-411480D01*
X3800652Y-417068D01*
X3803396Y-422808D01*
X3804412Y-426821D01*
X3803700Y-430936D01*
X3801414Y-434390D01*
X3794556Y-441248D01*
X3791254Y-443484D01*
X3787343Y-444246D01*
X3776726Y-444246D01*
X3768750Y-445008D01*
X3761536Y-447192D01*
X3754932Y-450748D01*
X3748735Y-455828D01*
X3734003Y-470560D01*
X3730447Y-472846D01*
X3726281Y-473506D01*
X3722166Y-472389D01*
X3718864Y-469696D01*
X3717798Y-468376D01*
X3712819Y-463397D01*
X3675634Y-500532D01*
X3675887Y-503986D01*
X3674922Y-507288D01*
X3672941Y-510082D01*
X3633419Y-549605D01*
X3630625Y-551586D01*
X3627323Y-552500D01*
X3623919Y-552297D01*
X3586734Y-589483D01*
X3591712Y-594461D01*
X3600399Y-600862D01*
X3602380Y-603859D01*
X3603193Y-607314D01*
X3601974Y-619048D01*
X3601974Y-668832D01*
X3602736Y-676808D01*
X3604920Y-684022D01*
X3608476Y-690626D01*
X3613556Y-696823D01*
X3655923Y-739190D01*
X3658158Y-742645D01*
X3658870Y-746658D01*
X3657955Y-750671D01*
X3655669Y-755497D01*
X3653180Y-764946D01*
X3652316Y-774700D01*
X3653180Y-784453D01*
X3655669Y-793902D01*
X3659835Y-802741D01*
X3665423Y-810768D01*
X3672332Y-817676D01*
X3684574Y-826058D01*
X3686606Y-829411D01*
X3687267Y-833221D01*
X3686454Y-837031D01*
X3684219Y-840282D01*
X3680968Y-842416D01*
X3677107Y-843127D01*
G37*

%LPC*%
G36*
X4099356Y-456133D02*
G01*
X4143349Y-456133D01*
X4142790Y-448716D01*
X4140250Y-437692D01*
X4136136Y-427177D01*
X4130497Y-417372D01*
X4123436Y-408533D01*
X4115155Y-400862D01*
X4105808Y-394512D01*
X4099356Y-391414D01*
G37*
G36*
X3992676Y-456133D02*
G01*
X4036669Y-456133D01*
X4036669Y-391414D01*
X4030167Y-394512D01*
X4020870Y-400862D01*
X4012590Y-408533D01*
X4005529Y-417372D01*
X3999890Y-427177D01*
X3995724Y-437692D01*
X3993235Y-448716D01*
G37*
G36*
X4183837Y-437083D02*
G01*
X4225645Y-437083D01*
X4225645Y-397764D01*
X4210050Y-397764D01*
X4203801Y-398475D01*
X4198416Y-400354D01*
X4193540Y-403402D01*
X4189476Y-407466D01*
X4186428Y-412292D01*
X4184548Y-417728D01*
X4183837Y-423976D01*
G37*
G36*
X4283354Y-437083D02*
G01*
X4325162Y-437083D01*
X4325162Y-423976D01*
X4324451Y-417728D01*
X4322572Y-412292D01*
X4319524Y-407466D01*
X4315460Y-403402D01*
X4310583Y-400354D01*
X4305198Y-398475D01*
X4298950Y-397764D01*
X4283354Y-397764D01*
G37*

%LPD*%
G36*
X2274824Y-1015746D02*
G01*
X2270912Y-1014984D01*
X2267610Y-1012748D01*
X2265426Y-1009497D01*
X2264664Y-1005586D01*
X2264664Y-991463D01*
X2224836Y-991463D01*
X2220925Y-990701D01*
X2217623Y-988466D01*
X2215438Y-985164D01*
X2214676Y-981303D01*
X2214676Y-912926D01*
X2215438Y-909015D01*
X2217623Y-905713D01*
X2220925Y-903528D01*
X2224836Y-902766D01*
X2264664Y-902766D01*
X2264664Y-849934D01*
X2258212Y-852932D01*
X2250236Y-858519D01*
X2243378Y-865327D01*
X2237841Y-873302D01*
X2233726Y-882091D01*
X2232304Y-887374D01*
X2230272Y-891286D01*
X2226818Y-893978D01*
X2222500Y-894943D01*
X2218182Y-893978D01*
X2214727Y-891286D01*
X2212695Y-887374D01*
X2211273Y-882091D01*
X2207158Y-873302D01*
X2201621Y-865327D01*
X2200351Y-864057D01*
X2198116Y-860806D01*
X2197354Y-856894D01*
X2197354Y-851408D01*
X2196592Y-843432D01*
X2194407Y-836218D01*
X2190851Y-829614D01*
X2185771Y-823417D01*
X2067712Y-705358D01*
X2065528Y-702106D01*
X2064766Y-698195D01*
X2065528Y-694283D01*
X2067712Y-691032D01*
X2074976Y-683768D01*
X2080564Y-675741D01*
X2084730Y-666902D01*
X2085746Y-662940D01*
X2087676Y-659180D01*
X2090978Y-656539D01*
X2095042Y-655421D01*
X2099208Y-656082D01*
X2102764Y-658418D01*
X2195017Y-750671D01*
X2201926Y-756361D01*
X2204923Y-759968D01*
X2211832Y-766876D01*
X2219858Y-772464D01*
X2228697Y-776630D01*
X2238146Y-779119D01*
X2247900Y-779983D01*
X2257653Y-779119D01*
X2267102Y-776630D01*
X2275941Y-772464D01*
X2283968Y-766876D01*
X2290876Y-759968D01*
X2296464Y-751941D01*
X2300630Y-743102D01*
X2303119Y-733653D01*
X2303983Y-723900D01*
X2303119Y-714146D01*
X2300630Y-704697D01*
X2296464Y-695858D01*
X2290876Y-687832D01*
X2287219Y-684174D01*
X2285034Y-680923D01*
X2284272Y-677011D01*
X2285034Y-673100D01*
X2287219Y-669848D01*
X2290521Y-667613D01*
X2294432Y-666851D01*
X2384094Y-666851D01*
X2388158Y-667715D01*
X2391511Y-670102D01*
X2393645Y-673658D01*
X2395728Y-679602D01*
X2398776Y-684479D01*
X2402840Y-688492D01*
X2405075Y-689914D01*
X2407970Y-692708D01*
X2409596Y-696468D01*
X2409596Y-700532D01*
X2407970Y-704291D01*
X2405075Y-707085D01*
X2402840Y-708507D01*
X2398776Y-712520D01*
X2395728Y-717397D01*
X2393848Y-722782D01*
X2393137Y-729081D01*
X2393137Y-742137D01*
X2434945Y-742137D01*
X2434945Y-704342D01*
X2435707Y-700430D01*
X2437942Y-697128D01*
X2441244Y-694944D01*
X2445105Y-694182D01*
X2482494Y-694182D01*
X2486355Y-694944D01*
X2489657Y-697128D01*
X2491892Y-700430D01*
X2492654Y-704342D01*
X2492654Y-742137D01*
X2534462Y-742137D01*
X2534462Y-729081D01*
X2533751Y-722782D01*
X2531872Y-717397D01*
X2528824Y-712520D01*
X2524760Y-708507D01*
X2522575Y-707085D01*
X2519629Y-704291D01*
X2518003Y-700532D01*
X2518003Y-696468D01*
X2519629Y-692708D01*
X2522575Y-689914D01*
X2524760Y-688492D01*
X2528824Y-684479D01*
X2531872Y-679602D01*
X2533751Y-674217D01*
X2534462Y-667918D01*
X2534462Y-601116D01*
X2535224Y-597204D01*
X2537409Y-593953D01*
X2540711Y-591718D01*
X2544622Y-590956D01*
X2561894Y-590956D01*
X2565958Y-591820D01*
X2569311Y-594207D01*
X2571445Y-597763D01*
X2573528Y-603707D01*
X2576576Y-608533D01*
X2580640Y-612597D01*
X2585516Y-615645D01*
X2590901Y-617524D01*
X2597150Y-618236D01*
X2686050Y-618236D01*
X2692298Y-617524D01*
X2697683Y-615645D01*
X2702560Y-612597D01*
X2706624Y-608533D01*
X2709672Y-603707D01*
X2711551Y-598271D01*
X2712262Y-592023D01*
X2712262Y-573481D01*
X2713024Y-569620D01*
X2715209Y-566318D01*
X2756103Y-525424D01*
X2759405Y-523240D01*
X2763316Y-522478D01*
X2787396Y-522478D01*
X2789885Y-522274D01*
X2814828Y-522274D01*
X2821076Y-521563D01*
X2826512Y-519633D01*
X2831338Y-516585D01*
X2834030Y-513892D01*
X2837180Y-511809D01*
X2840837Y-510946D01*
X2850946Y-512267D01*
X2914853Y-512267D01*
X2924962Y-510946D01*
X2928620Y-511809D01*
X2931769Y-513892D01*
X2937306Y-519074D01*
X2938983Y-522071D01*
X2939542Y-525424D01*
X2939542Y-573786D01*
X2938780Y-577697D01*
X2936544Y-580948D01*
X2933293Y-583184D01*
X2929382Y-583946D01*
X2921508Y-583946D01*
X2913532Y-584708D01*
X2906318Y-586892D01*
X2899714Y-590448D01*
X2893517Y-595528D01*
X2768396Y-720648D01*
X2765094Y-722884D01*
X2761183Y-723646D01*
X2629408Y-723646D01*
X2621432Y-724408D01*
X2614218Y-726592D01*
X2607614Y-730148D01*
X2601417Y-735228D01*
X2544775Y-791870D01*
X2541473Y-794054D01*
X2537612Y-794867D01*
X2492654Y-794867D01*
X2492654Y-839825D01*
X2491892Y-843686D01*
X2489657Y-846988D01*
X2348179Y-988466D01*
X2344877Y-990701D01*
X2341016Y-991463D01*
X2307336Y-991463D01*
X2307336Y-1005586D01*
X2306574Y-1009497D01*
X2304389Y-1012748D01*
X2301087Y-1014984D01*
X2297176Y-1015746D01*
G37*

%LPC*%
G36*
X2307336Y-902766D02*
G01*
X2341676Y-902766D01*
X2340762Y-891438D01*
X2338273Y-882091D01*
X2334158Y-873302D01*
X2328621Y-865327D01*
X2321763Y-858519D01*
X2313787Y-852932D01*
X2307336Y-849934D01*
G37*
G36*
X2419350Y-834136D02*
G01*
X2434945Y-834136D01*
X2434945Y-794867D01*
X2393137Y-794867D01*
X2393137Y-807923D01*
X2393848Y-814171D01*
X2395728Y-819607D01*
X2398776Y-824433D01*
X2402840Y-828497D01*
X2407716Y-831545D01*
X2413101Y-833424D01*
G37*

%LPD*%
G36*
X4495800Y-1777746D02*
G01*
X4491939Y-1776984D01*
X4488637Y-1774748D01*
X4486402Y-1771497D01*
X4485640Y-1767586D01*
X4485640Y-1630578D01*
X4484928Y-1624330D01*
X4483049Y-1618894D01*
X4480001Y-1614068D01*
X4475937Y-1610004D01*
X4471111Y-1606956D01*
X4465675Y-1605076D01*
X4459427Y-1604365D01*
X4330496Y-1604365D01*
X4324248Y-1605076D01*
X4318863Y-1606956D01*
X4313986Y-1610004D01*
X4309922Y-1614068D01*
X4306874Y-1618894D01*
X4304995Y-1624330D01*
X4304284Y-1630578D01*
X4304284Y-1651507D01*
X4303522Y-1655419D01*
X4301337Y-1658670D01*
X4298035Y-1660906D01*
X4294124Y-1661668D01*
X3992422Y-1661668D01*
X3988511Y-1660906D01*
X3985209Y-1658670D01*
X3983024Y-1655419D01*
X3982262Y-1651507D01*
X3983024Y-1647596D01*
X3985209Y-1644345D01*
X4076903Y-1552651D01*
X4080205Y-1550416D01*
X4084116Y-1549654D01*
X4596892Y-1549654D01*
X4604867Y-1548892D01*
X4612081Y-1546707D01*
X4618685Y-1543151D01*
X4624882Y-1538071D01*
X4656836Y-1506118D01*
X4660087Y-1503934D01*
X4663998Y-1503172D01*
X4699406Y-1503172D01*
X4705705Y-1502460D01*
X4711090Y-1500581D01*
X4715967Y-1497482D01*
X4720031Y-1493469D01*
X4723079Y-1488592D01*
X4724958Y-1483207D01*
X4725670Y-1476908D01*
X4725670Y-1426210D01*
X4726432Y-1422349D01*
X4728616Y-1419047D01*
X4731918Y-1416862D01*
X4735830Y-1416050D01*
X4739690Y-1416862D01*
X4742992Y-1419047D01*
X4750765Y-1426819D01*
X4756962Y-1431899D01*
X4763566Y-1435455D01*
X4767122Y-1436522D01*
X4770882Y-1438605D01*
X4773422Y-1442059D01*
X4774336Y-1446225D01*
X4774336Y-1476908D01*
X4775047Y-1483207D01*
X4776927Y-1488592D01*
X4779975Y-1493469D01*
X4784039Y-1497482D01*
X4788916Y-1500581D01*
X4794300Y-1502460D01*
X4800549Y-1503172D01*
X4899406Y-1503172D01*
X4905705Y-1502460D01*
X4911090Y-1500581D01*
X4915966Y-1497482D01*
X4920030Y-1493469D01*
X4923078Y-1488592D01*
X4924958Y-1483207D01*
X4925669Y-1476908D01*
X4925669Y-1448562D01*
X4926431Y-1444650D01*
X4928616Y-1441399D01*
X4931918Y-1439164D01*
X4935829Y-1438402D01*
X4949444Y-1438402D01*
X4957419Y-1437640D01*
X4964633Y-1435455D01*
X4971237Y-1431899D01*
X4977434Y-1426819D01*
X5005171Y-1399082D01*
X5006340Y-1397660D01*
X5009540Y-1395069D01*
X5013502Y-1393952D01*
X5017617Y-1394510D01*
X5021122Y-1396695D01*
X5023510Y-1400048D01*
X5024323Y-1404112D01*
X5024323Y-1476908D01*
X5025034Y-1483207D01*
X5026964Y-1488592D01*
X5030012Y-1493469D01*
X5034026Y-1497482D01*
X5038902Y-1500581D01*
X5042204Y-1501698D01*
X5045760Y-1503832D01*
X5048148Y-1507236D01*
X5049012Y-1511300D01*
X5049012Y-1542084D01*
X5048250Y-1545945D01*
X5046014Y-1549247D01*
X4949291Y-1645970D01*
X4945989Y-1648206D01*
X4942128Y-1648968D01*
X4705858Y-1648968D01*
X4701997Y-1648206D01*
X4698695Y-1645970D01*
X4696460Y-1642719D01*
X4695698Y-1638807D01*
X4695698Y-1630578D01*
X4694986Y-1624330D01*
X4693107Y-1618894D01*
X4690059Y-1614068D01*
X4685995Y-1610004D01*
X4681169Y-1606956D01*
X4675733Y-1605076D01*
X4669485Y-1604365D01*
X4540554Y-1604365D01*
X4534306Y-1605076D01*
X4528921Y-1606956D01*
X4524044Y-1610004D01*
X4519980Y-1614068D01*
X4516932Y-1618894D01*
X4515053Y-1624330D01*
X4514342Y-1630578D01*
X4514342Y-1767586D01*
X4513580Y-1771497D01*
X4511395Y-1774748D01*
X4508093Y-1776984D01*
X4504182Y-1777746D01*
G37*

%LPD*%
G36*
X6304127Y-1790446D02*
G01*
X6300368Y-1789734D01*
X6297117Y-1787652D01*
X6294882Y-1784502D01*
X6294018Y-1780743D01*
X6294983Y-1775663D01*
X6295694Y-1769414D01*
X6295694Y-1630578D01*
X6294983Y-1624330D01*
X6293104Y-1618894D01*
X6290056Y-1614068D01*
X6285992Y-1610004D01*
X6281166Y-1606956D01*
X6275730Y-1605076D01*
X6269482Y-1604365D01*
X6261201Y-1604365D01*
X6257340Y-1603603D01*
X6254038Y-1601368D01*
X6251803Y-1598117D01*
X6251041Y-1594205D01*
X6251041Y-1511300D01*
X6251905Y-1507236D01*
X6254292Y-1503832D01*
X6257848Y-1501698D01*
X6261100Y-1500581D01*
X6265976Y-1497482D01*
X6269990Y-1493469D01*
X6273038Y-1488592D01*
X6274968Y-1483207D01*
X6275679Y-1476908D01*
X6275679Y-1323086D01*
X6274968Y-1316786D01*
X6273038Y-1311402D01*
X6269990Y-1306525D01*
X6265976Y-1302512D01*
X6261100Y-1299464D01*
X6255715Y-1297533D01*
X6249416Y-1296822D01*
X6158077Y-1296822D01*
X6154166Y-1296060D01*
X6150864Y-1293876D01*
X6148679Y-1290574D01*
X6147917Y-1286662D01*
X6148171Y-1165504D01*
X6149035Y-1161440D01*
X6151473Y-1158087D01*
X6154978Y-1155954D01*
X6158687Y-1154633D01*
X6163564Y-1151585D01*
X6167628Y-1147572D01*
X6170676Y-1142695D01*
X6172555Y-1137310D01*
X6173266Y-1131011D01*
X6173266Y-977188D01*
X6172555Y-970889D01*
X6170676Y-965504D01*
X6167628Y-960628D01*
X6163564Y-956614D01*
X6158687Y-953566D01*
X6155385Y-952398D01*
X6151829Y-950264D01*
X6149441Y-946861D01*
X6148578Y-942797D01*
X6148578Y-878027D01*
X6148374Y-873353D01*
X6147816Y-868984D01*
X6146850Y-864616D01*
X6145479Y-860348D01*
X6143802Y-856234D01*
X6141720Y-852322D01*
X6139332Y-848563D01*
X6136640Y-845007D01*
X6133490Y-841552D01*
X5981141Y-689203D01*
X5977686Y-686054D01*
X5974130Y-683361D01*
X5970371Y-680974D01*
X5966460Y-678891D01*
X5962345Y-677214D01*
X5958078Y-675843D01*
X5953709Y-674878D01*
X5949391Y-674319D01*
X5941568Y-674116D01*
X5938012Y-673354D01*
X5934964Y-671423D01*
X5932779Y-668578D01*
X5929833Y-659434D01*
X5926785Y-654608D01*
X5922721Y-650544D01*
X5917895Y-647496D01*
X5912459Y-645617D01*
X5906211Y-644906D01*
X5691428Y-644906D01*
X5685180Y-645617D01*
X5679744Y-647496D01*
X5674918Y-650544D01*
X5670854Y-654608D01*
X5667806Y-659434D01*
X5665927Y-664870D01*
X5665216Y-671118D01*
X5665216Y-779221D01*
X5665927Y-785469D01*
X5667806Y-790905D01*
X5670854Y-795731D01*
X5674918Y-799795D01*
X5679744Y-802843D01*
X5685180Y-804722D01*
X5691428Y-805434D01*
X5906211Y-805434D01*
X5912459Y-804722D01*
X5917895Y-802843D01*
X5922670Y-799795D01*
X5927699Y-794715D01*
X5931001Y-792480D01*
X5934913Y-791667D01*
X5938824Y-792429D01*
X5942126Y-794613D01*
X6043472Y-896010D01*
X6045708Y-899312D01*
X6046470Y-903173D01*
X6046470Y-942848D01*
X6045606Y-946912D01*
X6043218Y-950315D01*
X6039662Y-952449D01*
X6036513Y-953566D01*
X6031636Y-956614D01*
X6027572Y-960628D01*
X6024524Y-965504D01*
X6022644Y-970889D01*
X6021933Y-977188D01*
X6021933Y-1131011D01*
X6022644Y-1137310D01*
X6024524Y-1142695D01*
X6027572Y-1147572D01*
X6031636Y-1151585D01*
X6036513Y-1154633D01*
X6039307Y-1155649D01*
X6042863Y-1157782D01*
X6045250Y-1161186D01*
X6046063Y-1165250D01*
X6045809Y-1286713D01*
X6045047Y-1290574D01*
X6042812Y-1293876D01*
X6039510Y-1296060D01*
X6035649Y-1296822D01*
X5950559Y-1296822D01*
X5944311Y-1297533D01*
X5938875Y-1299464D01*
X5934049Y-1302512D01*
X5929985Y-1306525D01*
X5926937Y-1311402D01*
X5925058Y-1316786D01*
X5924346Y-1323086D01*
X5924346Y-1351483D01*
X5923584Y-1355394D01*
X5921349Y-1358696D01*
X5918098Y-1360881D01*
X5914186Y-1361643D01*
X5835802Y-1361643D01*
X5831941Y-1360881D01*
X5828639Y-1358696D01*
X5826404Y-1355394D01*
X5825642Y-1351483D01*
X5825642Y-1327150D01*
X5826302Y-1323594D01*
X5828182Y-1320495D01*
X5831027Y-1318209D01*
X5837885Y-1314551D01*
X5843676Y-1309776D01*
X5848451Y-1303985D01*
X5852007Y-1297381D01*
X5854141Y-1290218D01*
X5855004Y-1281277D01*
X5855766Y-1278280D01*
X5857392Y-1275638D01*
X5859729Y-1273606D01*
X5862574Y-1271828D01*
X5866587Y-1267764D01*
X5869635Y-1262888D01*
X5871565Y-1257503D01*
X5872276Y-1251254D01*
X5872276Y-1122375D01*
X5871565Y-1116126D01*
X5869635Y-1110691D01*
X5866587Y-1105865D01*
X5862574Y-1101801D01*
X5857697Y-1098753D01*
X5852312Y-1096873D01*
X5846013Y-1096162D01*
X5787186Y-1096162D01*
X5780887Y-1096873D01*
X5775502Y-1098753D01*
X5770626Y-1101801D01*
X5766612Y-1105865D01*
X5763564Y-1110691D01*
X5761634Y-1116126D01*
X5760923Y-1122375D01*
X5760923Y-1242974D01*
X5759958Y-1247343D01*
X5757214Y-1250848D01*
X5751017Y-1255928D01*
X5723229Y-1283716D01*
X5718149Y-1289913D01*
X5715050Y-1294333D01*
X5711952Y-1296212D01*
X5708345Y-1296822D01*
X5700572Y-1296822D01*
X5696254Y-1297330D01*
X5692241Y-1296974D01*
X5688685Y-1295146D01*
X5686145Y-1292047D01*
X5683351Y-1286814D01*
X5678271Y-1280617D01*
X5640882Y-1243228D01*
X5634685Y-1238148D01*
X5628081Y-1234592D01*
X5620867Y-1232408D01*
X5612892Y-1231646D01*
X5461508Y-1231646D01*
X5453532Y-1232408D01*
X5446318Y-1234592D01*
X5439714Y-1238148D01*
X5433517Y-1243228D01*
X5396128Y-1280617D01*
X5391048Y-1286814D01*
X5387492Y-1293418D01*
X5385308Y-1300683D01*
X5383326Y-1304340D01*
X5380024Y-1306880D01*
X5375960Y-1307896D01*
X5371896Y-1307236D01*
X5368391Y-1304950D01*
X5365953Y-1302512D01*
X5361127Y-1299464D01*
X5355691Y-1297533D01*
X5349443Y-1296822D01*
X5250586Y-1296822D01*
X5244287Y-1297533D01*
X5242052Y-1298346D01*
X5238546Y-1298905D01*
X5234990Y-1298194D01*
X5231942Y-1296365D01*
X5229758Y-1293520D01*
X5226151Y-1286814D01*
X5221071Y-1280617D01*
X5183682Y-1243228D01*
X5177485Y-1238148D01*
X5170881Y-1234592D01*
X5163667Y-1232408D01*
X5155692Y-1231646D01*
X5017008Y-1231646D01*
X5009032Y-1232408D01*
X5001818Y-1234592D01*
X4995214Y-1238148D01*
X4989017Y-1243228D01*
X4951628Y-1280617D01*
X4946548Y-1286814D01*
X4942992Y-1293418D01*
X4940808Y-1300632D01*
X4940401Y-1304848D01*
X4939182Y-1308811D01*
X4936439Y-1311960D01*
X4932629Y-1313738D01*
X4928463Y-1313840D01*
X4924602Y-1312265D01*
X4921707Y-1309268D01*
X4920030Y-1306525D01*
X4915966Y-1302512D01*
X4911090Y-1299464D01*
X4905705Y-1297533D01*
X4899406Y-1296822D01*
X4800549Y-1296822D01*
X4794605Y-1297533D01*
X4790643Y-1297178D01*
X4787087Y-1295298D01*
X4784547Y-1292199D01*
X4781651Y-1286814D01*
X4776571Y-1280617D01*
X4739182Y-1243228D01*
X4732985Y-1238148D01*
X4726381Y-1234592D01*
X4719167Y-1232408D01*
X4711192Y-1231646D01*
X4559808Y-1231646D01*
X4551832Y-1232408D01*
X4544618Y-1234592D01*
X4538014Y-1238148D01*
X4531817Y-1243228D01*
X4494428Y-1280617D01*
X4489348Y-1286814D01*
X4485792Y-1293418D01*
X4484014Y-1299413D01*
X4481982Y-1303070D01*
X4478731Y-1305610D01*
X4474667Y-1306626D01*
X4470603Y-1305915D01*
X4467098Y-1303629D01*
X4465929Y-1302512D01*
X4461103Y-1299464D01*
X4455718Y-1297584D01*
X4448403Y-1296771D01*
X4444746Y-1295704D01*
X4441799Y-1293368D01*
X4439869Y-1290066D01*
X4439310Y-1286306D01*
X4440123Y-1282649D01*
X4442256Y-1279499D01*
X4549343Y-1172514D01*
X4552594Y-1170381D01*
X4556353Y-1169568D01*
X4560214Y-1170228D01*
X4571796Y-1174699D01*
X4584852Y-1177848D01*
X4598263Y-1179169D01*
X4611674Y-1178712D01*
X4624933Y-1176477D01*
X4637786Y-1172514D01*
X4649978Y-1166825D01*
X4661306Y-1159611D01*
X4671568Y-1150924D01*
X4680559Y-1140968D01*
X4688179Y-1129893D01*
X4694224Y-1117904D01*
X4698644Y-1105204D01*
X4701336Y-1091996D01*
X4702251Y-1078585D01*
X4701336Y-1065174D01*
X4698644Y-1052017D01*
X4694224Y-1039317D01*
X4688179Y-1027328D01*
X4680559Y-1016253D01*
X4671568Y-1006246D01*
X4661306Y-997610D01*
X4649978Y-990346D01*
X4637786Y-984707D01*
X4624933Y-980694D01*
X4611674Y-978458D01*
X4598263Y-978001D01*
X4584852Y-979373D01*
X4571796Y-982471D01*
X4559249Y-987298D01*
X4547463Y-993800D01*
X4536643Y-1001776D01*
X4526991Y-1011123D01*
X4518660Y-1021638D01*
X4511802Y-1033221D01*
X4506518Y-1045616D01*
X4502962Y-1058570D01*
X4501591Y-1068933D01*
X4500168Y-1072896D01*
X4497222Y-1075944D01*
X4493310Y-1077569D01*
X4489094Y-1077417D01*
X4485284Y-1075537D01*
X4482541Y-1072286D01*
X4481372Y-1068222D01*
X4481220Y-1066088D01*
X4478578Y-1052880D01*
X4474159Y-1040180D01*
X4468114Y-1028192D01*
X4460494Y-1017117D01*
X4451451Y-1007160D01*
X4441190Y-998474D01*
X4429861Y-991260D01*
X4417669Y-985570D01*
X4404817Y-981608D01*
X4391558Y-979373D01*
X4378147Y-978916D01*
X4364786Y-980236D01*
X4351680Y-983386D01*
X4339132Y-988212D01*
X4327347Y-994664D01*
X4316526Y-1002639D01*
X4306874Y-1011986D01*
X4298543Y-1022553D01*
X4291685Y-1034084D01*
X4286453Y-1046480D01*
X4282897Y-1059434D01*
X4281119Y-1072743D01*
X4281119Y-1086205D01*
X4282897Y-1099515D01*
X4283811Y-1102969D01*
X4284167Y-1106525D01*
X4283252Y-1109929D01*
X4281220Y-1112824D01*
X4266336Y-1127709D01*
X4263136Y-1129893D01*
X4259326Y-1130655D01*
X4255516Y-1129995D01*
X4252214Y-1127963D01*
X4249978Y-1124813D01*
X4249013Y-1121054D01*
X4249572Y-1117193D01*
X4254144Y-1103985D01*
X4256836Y-1090828D01*
X4257751Y-1077417D01*
X4256836Y-1064006D01*
X4254144Y-1050798D01*
X4249724Y-1038098D01*
X4243679Y-1026109D01*
X4236059Y-1015034D01*
X4227068Y-1005078D01*
X4216806Y-996391D01*
X4205478Y-989126D01*
X4193286Y-983487D01*
X4180433Y-979525D01*
X4167174Y-977290D01*
X4153763Y-976833D01*
X4140352Y-978153D01*
X4127296Y-981303D01*
X4114749Y-986129D01*
X4102963Y-992581D01*
X4092143Y-1000556D01*
X4082491Y-1009903D01*
X4074160Y-1020470D01*
X4067301Y-1032002D01*
X4062018Y-1044397D01*
X4058462Y-1057351D01*
X4056684Y-1070660D01*
X4056684Y-1084122D01*
X4058462Y-1097432D01*
X4062018Y-1110386D01*
X4067301Y-1122781D01*
X4068267Y-1124458D01*
X4069638Y-1128674D01*
X4069079Y-1133094D01*
X4066743Y-1136853D01*
X4030776Y-1172768D01*
X4027525Y-1174953D01*
X4023614Y-1175715D01*
X4019702Y-1174953D01*
X4016451Y-1172768D01*
X4014215Y-1169466D01*
X4013454Y-1165555D01*
X4013454Y-1064158D01*
X4012692Y-1056182D01*
X4010507Y-1049020D01*
X4007764Y-1043940D01*
X4006646Y-1040485D01*
X4006799Y-1036878D01*
X4007510Y-1033983D01*
X4007510Y-1028242D01*
X4006189Y-1022654D01*
X4003700Y-1017473D01*
X3999788Y-1012545D01*
X3957929Y-970737D01*
X3955745Y-967384D01*
X3954983Y-963421D01*
X3955796Y-959510D01*
X3958082Y-956208D01*
X3961434Y-954074D01*
X3965397Y-953363D01*
X4047794Y-955700D01*
X4663795Y-955700D01*
X4667656Y-956462D01*
X4670958Y-958646D01*
X4726381Y-1014069D01*
X4728565Y-1017371D01*
X4729327Y-1021232D01*
X4729327Y-1129792D01*
X4730140Y-1137158D01*
X4732274Y-1143762D01*
X4735779Y-1149858D01*
X4739335Y-1154023D01*
X4776774Y-1191463D01*
X4782566Y-1196136D01*
X4788763Y-1199286D01*
X4795570Y-1201115D01*
X4801006Y-1201572D01*
X5282692Y-1201572D01*
X5290058Y-1200759D01*
X5296662Y-1198626D01*
X5302758Y-1195120D01*
X5306923Y-1191564D01*
X5312867Y-1185621D01*
X5316169Y-1183436D01*
X5320030Y-1182674D01*
X5372354Y-1182674D01*
X5378602Y-1181963D01*
X5383987Y-1180033D01*
X5388864Y-1176985D01*
X5392928Y-1172972D01*
X5395976Y-1168095D01*
X5397855Y-1162710D01*
X5398566Y-1156411D01*
X5398566Y-1002588D01*
X5397855Y-996289D01*
X5395976Y-990904D01*
X5392928Y-986028D01*
X5388864Y-982014D01*
X5383987Y-978966D01*
X5378602Y-977036D01*
X5372354Y-976325D01*
X5273446Y-976325D01*
X5267198Y-977036D01*
X5261813Y-978966D01*
X5256936Y-982014D01*
X5252872Y-986028D01*
X5249824Y-990904D01*
X5247944Y-996289D01*
X5247233Y-1002588D01*
X5247233Y-1125067D01*
X5246471Y-1128979D01*
X5244287Y-1132281D01*
X5240985Y-1134465D01*
X5237073Y-1135227D01*
X5098745Y-1135227D01*
X5094579Y-1134364D01*
X5091176Y-1131874D01*
X5089042Y-1128166D01*
X5088636Y-1123950D01*
X5088636Y-1108354D01*
X5049367Y-1108354D01*
X5049367Y-1125067D01*
X5048554Y-1128979D01*
X5046370Y-1132281D01*
X5043068Y-1134465D01*
X5039207Y-1135227D01*
X5006797Y-1135227D01*
X5002936Y-1134465D01*
X4999634Y-1132281D01*
X4997399Y-1128979D01*
X4996637Y-1125067D01*
X4996637Y-1108354D01*
X4958842Y-1108354D01*
X4954930Y-1107592D01*
X4951628Y-1105357D01*
X4949444Y-1102055D01*
X4948682Y-1098194D01*
X4948682Y-1060805D01*
X4949444Y-1056944D01*
X4951628Y-1053642D01*
X4954930Y-1051407D01*
X4958842Y-1050645D01*
X4996637Y-1050645D01*
X4996637Y-1008837D01*
X4983581Y-1008837D01*
X4977282Y-1009548D01*
X4971897Y-1011428D01*
X4967020Y-1014476D01*
X4963007Y-1018540D01*
X4961585Y-1020724D01*
X4958791Y-1023670D01*
X4955032Y-1025296D01*
X4950968Y-1025296D01*
X4947208Y-1023670D01*
X4944414Y-1020724D01*
X4942992Y-1018540D01*
X4938979Y-1014476D01*
X4934102Y-1011428D01*
X4928158Y-1009345D01*
X4924602Y-1007211D01*
X4922215Y-1003858D01*
X4921351Y-999794D01*
X4921351Y-920800D01*
X4920589Y-912825D01*
X4918405Y-905662D01*
X4914849Y-899058D01*
X4909769Y-892860D01*
X4905654Y-888746D01*
X4903724Y-886053D01*
X4902758Y-882853D01*
X4903825Y-865886D01*
X4902911Y-852474D01*
X4900269Y-839317D01*
X4895850Y-826617D01*
X4889804Y-814628D01*
X4882184Y-803554D01*
X4873142Y-793546D01*
X4862880Y-784910D01*
X4851552Y-777646D01*
X4839360Y-772007D01*
X4826508Y-767994D01*
X4813249Y-765759D01*
X4799838Y-765302D01*
X4786477Y-766673D01*
X4773371Y-769772D01*
X4760823Y-774598D01*
X4749038Y-781100D01*
X4738217Y-789076D01*
X4728565Y-798423D01*
X4720234Y-808939D01*
X4713376Y-820521D01*
X4708144Y-832916D01*
X4707382Y-835660D01*
X4705350Y-839520D01*
X4701844Y-842213D01*
X4697577Y-843127D01*
X4633214Y-843127D01*
X4629302Y-842365D01*
X4626051Y-840181D01*
X4623816Y-836879D01*
X4623054Y-832967D01*
X4623054Y-719226D01*
X4623816Y-715314D01*
X4626051Y-712012D01*
X4629302Y-709828D01*
X4633214Y-709066D01*
X4661611Y-709066D01*
X4667910Y-708355D01*
X4673295Y-706475D01*
X4678172Y-703427D01*
X4682185Y-699363D01*
X4685233Y-694486D01*
X4687163Y-689102D01*
X4687874Y-682853D01*
X4687874Y-583946D01*
X4687163Y-577697D01*
X4685233Y-572312D01*
X4682185Y-567436D01*
X4678172Y-563372D01*
X4673295Y-560324D01*
X4667910Y-558444D01*
X4661611Y-557733D01*
X4507788Y-557733D01*
X4501489Y-558444D01*
X4496104Y-560324D01*
X4491228Y-563372D01*
X4487214Y-567436D01*
X4484166Y-572312D01*
X4482236Y-577697D01*
X4481525Y-583946D01*
X4481525Y-682853D01*
X4482236Y-689102D01*
X4484166Y-694486D01*
X4487214Y-699363D01*
X4491228Y-703427D01*
X4496104Y-706475D01*
X4501489Y-708355D01*
X4507788Y-709066D01*
X4536186Y-709066D01*
X4540097Y-709828D01*
X4543348Y-712012D01*
X4545584Y-715314D01*
X4546346Y-719226D01*
X4546346Y-832967D01*
X4545584Y-836879D01*
X4543348Y-840181D01*
X4540097Y-842365D01*
X4536186Y-843127D01*
X4014724Y-843127D01*
X4007307Y-843889D01*
X3950106Y-855116D01*
X3946906Y-855218D01*
X3925011Y-852525D01*
X3921810Y-851560D01*
X3919067Y-849579D01*
X3904843Y-835355D01*
X3895344Y-844854D01*
X3892854Y-846632D01*
X3889959Y-847648D01*
X3886911Y-847750D01*
X3861358Y-844550D01*
X3857091Y-843026D01*
X3853942Y-839825D01*
X3852519Y-835558D01*
X3853027Y-831087D01*
X3855415Y-827278D01*
X3876090Y-806602D01*
X3849166Y-779678D01*
X3813048Y-815746D01*
X3818026Y-820724D01*
X3823411Y-825042D01*
X3826052Y-828243D01*
X3827221Y-832205D01*
X3826662Y-836320D01*
X3824528Y-839876D01*
X3821125Y-842314D01*
X3817061Y-843127D01*
X3739692Y-843127D01*
X3735832Y-842416D01*
X3732580Y-840282D01*
X3730345Y-837031D01*
X3729532Y-833221D01*
X3730193Y-829411D01*
X3732225Y-826058D01*
X3744468Y-817676D01*
X3751376Y-810768D01*
X3756964Y-802741D01*
X3760114Y-796086D01*
X3762095Y-793191D01*
X3769106Y-786180D01*
X3772408Y-783996D01*
X3776268Y-783234D01*
X3780180Y-783996D01*
X3784295Y-787044D01*
X3820668Y-750671D01*
X3819448Y-746506D01*
X3820058Y-742188D01*
X3822395Y-738530D01*
X3861917Y-699008D01*
X3865575Y-696671D01*
X3869842Y-696061D01*
X3874008Y-697331D01*
X3910380Y-660958D01*
X3905402Y-655980D01*
X3902151Y-653338D01*
X3899509Y-650138D01*
X3898341Y-646176D01*
X3898900Y-642061D01*
X3901033Y-638505D01*
X3904437Y-636117D01*
X3908501Y-635254D01*
X3917492Y-635254D01*
X3921404Y-636016D01*
X3924706Y-638251D01*
X3926332Y-639876D01*
X3934358Y-645464D01*
X3943197Y-649630D01*
X3952646Y-652119D01*
X3960723Y-652830D01*
X3964178Y-653745D01*
X3967022Y-655777D01*
X3998417Y-687171D01*
X4004614Y-692251D01*
X4011218Y-695807D01*
X4018432Y-697992D01*
X4026408Y-698754D01*
X4171696Y-698754D01*
X4179671Y-697992D01*
X4186885Y-695807D01*
X4193489Y-692251D01*
X4199686Y-687171D01*
X4214825Y-672033D01*
X4218127Y-669798D01*
X4221988Y-669036D01*
X4298950Y-669036D01*
X4305198Y-668324D01*
X4310583Y-666445D01*
X4315460Y-663397D01*
X4319524Y-659333D01*
X4322572Y-654507D01*
X4324451Y-649071D01*
X4325162Y-642823D01*
X4325162Y-622808D01*
X4325924Y-618896D01*
X4328109Y-615594D01*
X4464558Y-479196D01*
X4467656Y-477062D01*
X4471365Y-476250D01*
X4475073Y-476808D01*
X4478324Y-478688D01*
X4480712Y-481634D01*
X4481830Y-485241D01*
X4482236Y-489102D01*
X4484166Y-494487D01*
X4487214Y-499364D01*
X4491228Y-503428D01*
X4496104Y-506476D01*
X4501489Y-508355D01*
X4507788Y-509066D01*
X4661611Y-509066D01*
X4667910Y-508355D01*
X4673295Y-506476D01*
X4678172Y-503428D01*
X4682185Y-499364D01*
X4685233Y-494487D01*
X4687163Y-489102D01*
X4687874Y-481939D01*
X4688636Y-478028D01*
X4690821Y-474726D01*
X4694123Y-472541D01*
X4698034Y-471779D01*
X4713986Y-471779D01*
X4717897Y-472541D01*
X4721148Y-474726D01*
X4723384Y-478028D01*
X4724146Y-481939D01*
X4724146Y-596392D01*
X4724908Y-604367D01*
X4727092Y-611581D01*
X4730648Y-618185D01*
X4735728Y-624382D01*
X4823917Y-712571D01*
X4830114Y-717651D01*
X4836718Y-721207D01*
X4843932Y-723392D01*
X4851908Y-724154D01*
X5003292Y-724154D01*
X5011267Y-723392D01*
X5018481Y-721207D01*
X5025085Y-717651D01*
X5031282Y-712571D01*
X5073954Y-669899D01*
X5076952Y-667816D01*
X5080508Y-666953D01*
X5084114Y-667410D01*
X5090566Y-669391D01*
X5103825Y-671626D01*
X5117236Y-672084D01*
X5130647Y-670712D01*
X5143703Y-667613D01*
X5156250Y-662787D01*
X5168036Y-656336D01*
X5178856Y-648360D01*
X5188508Y-639013D01*
X5196840Y-628446D01*
X5203698Y-616864D01*
X5208981Y-604520D01*
X5212537Y-591566D01*
X5214315Y-578205D01*
X5214315Y-564794D01*
X5212537Y-551434D01*
X5208981Y-538480D01*
X5203698Y-526135D01*
X5196840Y-514553D01*
X5188508Y-503986D01*
X5178856Y-494639D01*
X5168036Y-486664D01*
X5156250Y-480212D01*
X5143703Y-475386D01*
X5130647Y-472287D01*
X5117236Y-470916D01*
X5103825Y-471373D01*
X5090566Y-473608D01*
X5077714Y-477570D01*
X5065522Y-483260D01*
X5054193Y-490474D01*
X5043932Y-499160D01*
X5034940Y-509117D01*
X5027320Y-520192D01*
X5021275Y-532231D01*
X5016855Y-544931D01*
X5014163Y-558088D01*
X5013756Y-564388D01*
X5012791Y-568045D01*
X5010556Y-571093D01*
X5007356Y-573125D01*
X5003596Y-573836D01*
X4963363Y-573836D01*
X4963363Y-637286D01*
X4962601Y-641197D01*
X4960366Y-644448D01*
X4957064Y-646684D01*
X4953203Y-647446D01*
X4910785Y-647446D01*
X4906924Y-646684D01*
X4903622Y-644448D01*
X4901438Y-641197D01*
X4900625Y-637286D01*
X4900625Y-573836D01*
X4856683Y-573836D01*
X4857242Y-581253D01*
X4859731Y-592277D01*
X4863846Y-602792D01*
X4869535Y-612597D01*
X4876546Y-621436D01*
X4885690Y-629818D01*
X4888026Y-633069D01*
X4888941Y-636981D01*
X4888230Y-640994D01*
X4886045Y-644347D01*
X4882743Y-646633D01*
X4878781Y-647446D01*
X4871516Y-647446D01*
X4867605Y-646684D01*
X4864303Y-644448D01*
X4803851Y-583996D01*
X4801616Y-580694D01*
X4800854Y-576783D01*
X4800854Y-464616D01*
X4801616Y-460705D01*
X4803851Y-457403D01*
X4850028Y-411226D01*
X4853482Y-408940D01*
X4857597Y-408279D01*
X4861610Y-409244D01*
X4864912Y-411784D01*
X4866894Y-415442D01*
X4867300Y-419557D01*
X4865979Y-423519D01*
X4863846Y-427177D01*
X4859731Y-437692D01*
X4857242Y-448716D01*
X4856683Y-456133D01*
X4900625Y-456133D01*
X4900625Y-416814D01*
X4901438Y-412902D01*
X4903622Y-409651D01*
X4906924Y-407416D01*
X4910785Y-406654D01*
X4953203Y-406654D01*
X4957064Y-407416D01*
X4960366Y-409651D01*
X4962601Y-412902D01*
X4963363Y-416814D01*
X4963363Y-456133D01*
X5007356Y-456133D01*
X5006797Y-448716D01*
X5004257Y-437692D01*
X5000142Y-427177D01*
X4997094Y-421893D01*
X4995773Y-417880D01*
X4996230Y-413664D01*
X4998313Y-410006D01*
X5001768Y-407517D01*
X5005882Y-406654D01*
X5100726Y-406654D01*
X5108702Y-405892D01*
X5115864Y-403707D01*
X5122468Y-400151D01*
X5128666Y-395071D01*
X5241137Y-282651D01*
X5244439Y-280416D01*
X5248300Y-279654D01*
X5342890Y-279654D01*
X5346750Y-280416D01*
X5350052Y-282651D01*
X5352288Y-285902D01*
X5353050Y-289814D01*
X5353050Y-305816D01*
X5353761Y-312064D01*
X5355640Y-317500D01*
X5358688Y-322326D01*
X5362752Y-326390D01*
X5367578Y-329438D01*
X5373014Y-331368D01*
X5379262Y-332028D01*
X5568137Y-332028D01*
X5574385Y-331368D01*
X5579821Y-329438D01*
X5584647Y-326390D01*
X5588711Y-322326D01*
X5591657Y-318719D01*
X5594654Y-317042D01*
X5598007Y-316484D01*
X5655818Y-316484D01*
X5659424Y-317144D01*
X5662574Y-319074D01*
X5664809Y-321970D01*
X5667806Y-331165D01*
X5670854Y-335991D01*
X5674918Y-340055D01*
X5679744Y-343103D01*
X5685180Y-344982D01*
X5691428Y-345694D01*
X5906211Y-345694D01*
X5912459Y-344982D01*
X5917895Y-343103D01*
X5922721Y-340055D01*
X5926785Y-335991D01*
X5929833Y-331165D01*
X5931712Y-325729D01*
X5932424Y-319481D01*
X5932424Y-211378D01*
X5930849Y-200456D01*
X5931763Y-196697D01*
X5933998Y-193548D01*
X5937250Y-191465D01*
X5941009Y-190754D01*
X6037783Y-190754D01*
X6041694Y-191516D01*
X6044996Y-193751D01*
X6105448Y-254203D01*
X6107684Y-257505D01*
X6108446Y-261416D01*
X6108446Y-634492D01*
X6109208Y-642467D01*
X6111392Y-649681D01*
X6114948Y-656285D01*
X6120028Y-662482D01*
X6397548Y-940003D01*
X6399784Y-943305D01*
X6400546Y-947216D01*
X6400546Y-1694992D01*
X6399784Y-1698904D01*
X6397548Y-1702206D01*
X6395923Y-1703832D01*
X6390335Y-1711858D01*
X6386169Y-1720697D01*
X6383680Y-1730146D01*
X6382816Y-1739900D01*
X6383680Y-1749653D01*
X6386169Y-1759102D01*
X6390335Y-1767941D01*
X6394856Y-1774443D01*
X6396583Y-1778507D01*
X6396380Y-1782927D01*
X6394348Y-1786839D01*
X6390843Y-1789480D01*
X6386576Y-1790446D01*
G37*

%LPC*%
G36*
X5379262Y-652068D02*
G01*
X5419852Y-652068D01*
X5419852Y-602742D01*
X5353050Y-602742D01*
X5353050Y-625805D01*
X5353761Y-632104D01*
X5355640Y-637489D01*
X5358688Y-642366D01*
X5362752Y-646430D01*
X5367578Y-649478D01*
X5373014Y-651357D01*
G37*
G36*
X5527548Y-652068D02*
G01*
X5568137Y-652068D01*
X5574385Y-651357D01*
X5579821Y-649478D01*
X5584647Y-646430D01*
X5588711Y-642366D01*
X5591759Y-637489D01*
X5593638Y-632104D01*
X5594350Y-625805D01*
X5594350Y-602742D01*
X5527548Y-602742D01*
G37*
G36*
X3929989Y-752703D02*
G01*
X3966057Y-716635D01*
X3961079Y-711657D01*
X3956151Y-707694D01*
X3953865Y-706628D01*
X3951122Y-704646D01*
X3949141Y-701852D01*
X3948023Y-699617D01*
X3944112Y-694690D01*
X3939133Y-689660D01*
X3903014Y-725779D01*
G37*
G36*
X5247233Y-780389D02*
G01*
X5291531Y-780389D01*
X5291531Y-722325D01*
X5273446Y-722325D01*
X5267198Y-723036D01*
X5261813Y-724966D01*
X5256936Y-728014D01*
X5252872Y-732028D01*
X5249824Y-736904D01*
X5247944Y-742289D01*
X5247233Y-748588D01*
G37*
G36*
X5354269Y-780389D02*
G01*
X5398566Y-780389D01*
X5398566Y-748588D01*
X5397855Y-742289D01*
X5395976Y-736904D01*
X5392928Y-732028D01*
X5388864Y-728014D01*
X5383987Y-724966D01*
X5378602Y-723036D01*
X5372354Y-722325D01*
X5354269Y-722325D01*
G37*
G36*
X3982212Y-804976D02*
G01*
X3999788Y-787450D01*
X4003700Y-782523D01*
X4006189Y-777341D01*
X4007510Y-771753D01*
X4007510Y-766013D01*
X4006189Y-760425D01*
X4003700Y-755294D01*
X3999788Y-750366D01*
X3994810Y-745337D01*
X3958691Y-781456D01*
G37*
G36*
X5013248Y-819759D02*
G01*
X5070043Y-819759D01*
X5070043Y-762965D01*
X5039461Y-762965D01*
X5033213Y-763676D01*
X5027777Y-765556D01*
X5022951Y-768604D01*
X5018887Y-772668D01*
X5015839Y-777494D01*
X5013960Y-782929D01*
X5013248Y-789178D01*
G37*
G36*
X5859170Y-460400D02*
G01*
X5932424Y-460400D01*
X5932424Y-439978D01*
X5931712Y-433730D01*
X5929833Y-428294D01*
X5926785Y-423468D01*
X5922721Y-419404D01*
X5917895Y-416356D01*
X5912459Y-414477D01*
X5906211Y-413766D01*
X5859170Y-413766D01*
G37*
G36*
X5665216Y-460400D02*
G01*
X5738520Y-460400D01*
X5738520Y-413766D01*
X5691428Y-413766D01*
X5685180Y-414477D01*
X5679744Y-416356D01*
X5674918Y-419404D01*
X5670854Y-423468D01*
X5667806Y-428294D01*
X5665927Y-433730D01*
X5665216Y-439978D01*
G37*
G36*
X5157724Y-819759D02*
G01*
X5214569Y-819759D01*
X5214569Y-789178D01*
X5213858Y-782929D01*
X5211978Y-777494D01*
X5208930Y-772668D01*
X5204866Y-768604D01*
X5199989Y-765556D01*
X5194604Y-763676D01*
X5188305Y-762965D01*
X5157724Y-762965D01*
G37*
G36*
X5855970Y-907948D02*
G01*
X5890260Y-907948D01*
X5890260Y-856132D01*
X5882182Y-856132D01*
X5875883Y-856843D01*
X5870498Y-858723D01*
X5865622Y-861771D01*
X5861608Y-865835D01*
X5858560Y-870712D01*
X5856630Y-876096D01*
X5855970Y-882396D01*
G37*
G36*
X5932932Y-907948D02*
G01*
X5967272Y-907948D01*
X5967272Y-882396D01*
X5966561Y-876096D01*
X5964682Y-870712D01*
X5961583Y-865835D01*
X5957570Y-861771D01*
X5952693Y-858723D01*
X5947308Y-856843D01*
X5941009Y-856132D01*
X5932932Y-856132D01*
G37*
G36*
X5273446Y-928674D02*
G01*
X5291531Y-928674D01*
X5291531Y-870610D01*
X5247233Y-870610D01*
X5247233Y-902411D01*
X5247944Y-908710D01*
X5249824Y-914095D01*
X5252872Y-918971D01*
X5256936Y-922985D01*
X5261813Y-926033D01*
X5267198Y-927963D01*
G37*
G36*
X5353050Y-530047D02*
G01*
X5419852Y-530047D01*
X5419852Y-480771D01*
X5379262Y-480771D01*
X5373014Y-481431D01*
X5367578Y-483362D01*
X5362752Y-486409D01*
X5358688Y-490423D01*
X5355640Y-495300D01*
X5353761Y-500684D01*
X5353050Y-506984D01*
G37*
G36*
X5354269Y-928674D02*
G01*
X5372354Y-928674D01*
X5378602Y-927963D01*
X5383987Y-926033D01*
X5388864Y-922985D01*
X5392928Y-918971D01*
X5395976Y-914095D01*
X5397855Y-908710D01*
X5398566Y-902411D01*
X5398566Y-870610D01*
X5354269Y-870610D01*
G37*
G36*
X5527548Y-530047D02*
G01*
X5594350Y-530047D01*
X5594350Y-506984D01*
X5593638Y-500684D01*
X5591759Y-495300D01*
X5588711Y-490423D01*
X5584647Y-486409D01*
X5579821Y-483362D01*
X5574385Y-481431D01*
X5568137Y-480771D01*
X5527548Y-480771D01*
G37*
G36*
X5039461Y-964234D02*
G01*
X5070043Y-964234D01*
X5070043Y-907440D01*
X5013248Y-907440D01*
X5013248Y-938021D01*
X5013960Y-944270D01*
X5015839Y-949706D01*
X5018887Y-954532D01*
X5022951Y-958596D01*
X5027777Y-961644D01*
X5033213Y-963523D01*
G37*
G36*
X5157724Y-964234D02*
G01*
X5188305Y-964234D01*
X5194604Y-963523D01*
X5199989Y-961644D01*
X5204866Y-958596D01*
X5208930Y-954532D01*
X5211978Y-949706D01*
X5213858Y-944270D01*
X5214569Y-938021D01*
X5214569Y-907440D01*
X5157724Y-907440D01*
G37*
G36*
X6221933Y-1008989D02*
G01*
X6266230Y-1008989D01*
X6266230Y-950925D01*
X6248146Y-950925D01*
X6241897Y-951636D01*
X6236512Y-953566D01*
X6231636Y-956614D01*
X6227572Y-960628D01*
X6224524Y-965504D01*
X6222644Y-970889D01*
X6221933Y-977188D01*
G37*
G36*
X6328968Y-1008989D02*
G01*
X6373266Y-1008989D01*
X6373266Y-977188D01*
X6372555Y-970889D01*
X6370675Y-965504D01*
X6367627Y-960628D01*
X6363563Y-956614D01*
X6358686Y-953566D01*
X6353302Y-951636D01*
X6347053Y-950925D01*
X6328968Y-950925D01*
G37*
G36*
X5932932Y-1037437D02*
G01*
X5941009Y-1037437D01*
X5947308Y-1036726D01*
X5952693Y-1034846D01*
X5957570Y-1031798D01*
X5961583Y-1027734D01*
X5964682Y-1022908D01*
X5966561Y-1017473D01*
X5967272Y-1011224D01*
X5967272Y-985672D01*
X5932932Y-985672D01*
G37*
G36*
X5882182Y-1037437D02*
G01*
X5890260Y-1037437D01*
X5890260Y-985672D01*
X5855970Y-985672D01*
X5855970Y-1011224D01*
X5856630Y-1017473D01*
X5858560Y-1022908D01*
X5861608Y-1027734D01*
X5865622Y-1031798D01*
X5870498Y-1034846D01*
X5875883Y-1036726D01*
G37*
G36*
X5049367Y-1050645D02*
G01*
X5088636Y-1050645D01*
X5088636Y-1035050D01*
X5087924Y-1028801D01*
X5086045Y-1023416D01*
X5082997Y-1018540D01*
X5078933Y-1014476D01*
X5074107Y-1011428D01*
X5068671Y-1009548D01*
X5062423Y-1008837D01*
X5049367Y-1008837D01*
G37*
G36*
X6248146Y-1157274D02*
G01*
X6266230Y-1157274D01*
X6266230Y-1099210D01*
X6221933Y-1099210D01*
X6221933Y-1131011D01*
X6222644Y-1137310D01*
X6224524Y-1142695D01*
X6227572Y-1147572D01*
X6231636Y-1151585D01*
X6236512Y-1154633D01*
X6241897Y-1156563D01*
G37*
G36*
X5859170Y-574294D02*
G01*
X5906211Y-574294D01*
X5912459Y-573582D01*
X5917895Y-571703D01*
X5922721Y-568655D01*
X5926785Y-564591D01*
X5929833Y-559765D01*
X5931712Y-554329D01*
X5932424Y-548081D01*
X5932424Y-527710D01*
X5859170Y-527710D01*
G37*
G36*
X6328968Y-1157274D02*
G01*
X6347053Y-1157274D01*
X6353302Y-1156563D01*
X6358686Y-1154633D01*
X6363563Y-1151585D01*
X6367627Y-1147572D01*
X6370675Y-1142695D01*
X6372555Y-1137310D01*
X6373266Y-1131011D01*
X6373266Y-1099210D01*
X6328968Y-1099210D01*
G37*
G36*
X5473446Y-1182674D02*
G01*
X5572353Y-1182674D01*
X5578602Y-1181963D01*
X5583986Y-1180033D01*
X5588863Y-1176985D01*
X5592927Y-1172972D01*
X5595975Y-1168095D01*
X5597855Y-1162710D01*
X5598566Y-1156411D01*
X5598566Y-1140714D01*
X5599328Y-1136802D01*
X5601512Y-1133551D01*
X5604814Y-1131316D01*
X5608726Y-1130554D01*
X5689092Y-1130554D01*
X5697067Y-1129792D01*
X5704281Y-1127607D01*
X5710885Y-1124051D01*
X5717082Y-1118971D01*
X5748375Y-1087678D01*
X5753455Y-1081481D01*
X5757011Y-1074877D01*
X5759196Y-1067663D01*
X5759958Y-1059688D01*
X5759958Y-1042212D01*
X5760516Y-1038860D01*
X5762193Y-1035862D01*
X5764733Y-1033576D01*
X5767578Y-1031798D01*
X5771591Y-1027734D01*
X5774639Y-1022908D01*
X5776569Y-1017473D01*
X5777230Y-1011224D01*
X5777230Y-882396D01*
X5776569Y-876096D01*
X5774639Y-870712D01*
X5771591Y-865835D01*
X5767578Y-861771D01*
X5762701Y-858723D01*
X5757316Y-856843D01*
X5751017Y-856132D01*
X5692190Y-856132D01*
X5685891Y-856843D01*
X5680506Y-858723D01*
X5675630Y-861771D01*
X5671616Y-865835D01*
X5668568Y-870712D01*
X5666638Y-876096D01*
X5665927Y-882396D01*
X5665927Y-1011224D01*
X5666638Y-1017473D01*
X5668568Y-1022908D01*
X5671616Y-1027734D01*
X5675630Y-1031798D01*
X5679897Y-1035253D01*
X5681522Y-1038453D01*
X5681929Y-1042060D01*
X5681065Y-1045616D01*
X5678982Y-1048562D01*
X5676696Y-1050848D01*
X5673394Y-1053084D01*
X5669483Y-1053846D01*
X5608726Y-1053846D01*
X5604814Y-1053084D01*
X5601512Y-1050848D01*
X5599328Y-1047597D01*
X5598566Y-1043686D01*
X5598566Y-1002588D01*
X5597855Y-996289D01*
X5595975Y-990904D01*
X5592927Y-986028D01*
X5588863Y-982014D01*
X5583986Y-978966D01*
X5578602Y-977036D01*
X5571439Y-976325D01*
X5567527Y-975563D01*
X5564225Y-973378D01*
X5562041Y-970076D01*
X5561279Y-966165D01*
X5561279Y-938834D01*
X5562041Y-934923D01*
X5564225Y-931621D01*
X5567527Y-929436D01*
X5578602Y-927963D01*
X5583986Y-926033D01*
X5588863Y-922985D01*
X5592927Y-918971D01*
X5595975Y-914095D01*
X5597855Y-908710D01*
X5598566Y-902411D01*
X5598566Y-748588D01*
X5597855Y-742289D01*
X5595975Y-736904D01*
X5592927Y-732028D01*
X5588863Y-728014D01*
X5583986Y-724966D01*
X5578602Y-723036D01*
X5572353Y-722325D01*
X5473446Y-722325D01*
X5467197Y-723036D01*
X5461812Y-724966D01*
X5456936Y-728014D01*
X5452872Y-732028D01*
X5449824Y-736904D01*
X5447944Y-742289D01*
X5447233Y-748588D01*
X5447233Y-902411D01*
X5447944Y-908710D01*
X5449824Y-914095D01*
X5452872Y-918971D01*
X5456936Y-922985D01*
X5461812Y-926033D01*
X5467197Y-927963D01*
X5474411Y-928674D01*
X5478272Y-929436D01*
X5481574Y-931621D01*
X5483758Y-934923D01*
X5484571Y-938834D01*
X5484571Y-966165D01*
X5483758Y-970076D01*
X5481574Y-973378D01*
X5478272Y-975563D01*
X5467197Y-977036D01*
X5461812Y-978966D01*
X5456936Y-982014D01*
X5452872Y-986028D01*
X5449824Y-990904D01*
X5447944Y-996289D01*
X5447233Y-1002588D01*
X5447233Y-1156411D01*
X5447944Y-1162710D01*
X5449824Y-1168095D01*
X5452872Y-1172972D01*
X5456936Y-1176985D01*
X5461812Y-1180033D01*
X5467197Y-1181963D01*
G37*
G36*
X5691428Y-574294D02*
G01*
X5738520Y-574294D01*
X5738520Y-527710D01*
X5665216Y-527710D01*
X5665216Y-548081D01*
X5665927Y-554329D01*
X5667806Y-559765D01*
X5670854Y-564591D01*
X5674918Y-568655D01*
X5679744Y-571703D01*
X5685180Y-573582D01*
G37*

%LPD*%
G36*
X1000404Y-1974342D02*
G01*
X956360Y-1973376D01*
X913028Y-1970430D01*
X869899Y-1965604D01*
X827024Y-1958848D01*
X784453Y-1950212D01*
X742340Y-1939645D01*
X700735Y-1927250D01*
X659739Y-1912975D01*
X619404Y-1896922D01*
X579831Y-1879092D01*
X541070Y-1859483D01*
X503224Y-1838198D01*
X466394Y-1815236D01*
X430580Y-1790649D01*
X395935Y-1764487D01*
X362458Y-1736801D01*
X330301Y-1707692D01*
X299415Y-1677162D01*
X269951Y-1645259D01*
X241909Y-1612087D01*
X215392Y-1577695D01*
X190449Y-1542186D01*
X167081Y-1505559D01*
X145389Y-1467967D01*
X125425Y-1429410D01*
X107137Y-1390040D01*
X103022Y-1379982D01*
X102260Y-1376222D01*
X102920Y-1372412D01*
X105003Y-1369161D01*
X108102Y-1366926D01*
X133299Y-1351432D01*
X157683Y-1333957D01*
X180746Y-1314754D01*
X202438Y-1294028D01*
X222605Y-1271828D01*
X241198Y-1248257D01*
X258013Y-1223416D01*
X273100Y-1197457D01*
X286258Y-1170482D01*
X297535Y-1142695D01*
X306781Y-1114145D01*
X314045Y-1085037D01*
X319176Y-1055471D01*
X322275Y-1025601D01*
X323240Y-995629D01*
X322072Y-965657D01*
X318820Y-935786D01*
X313436Y-906271D01*
X306019Y-877214D01*
X296570Y-848715D01*
X285140Y-820978D01*
X271780Y-794105D01*
X256540Y-768248D01*
X239521Y-743559D01*
X220827Y-720090D01*
X200507Y-697992D01*
X178714Y-677418D01*
X155498Y-658368D01*
X131013Y-641045D01*
X109169Y-627735D01*
X106476Y-625398D01*
X104800Y-622198D01*
X104292Y-618642D01*
X105105Y-615137D01*
X109778Y-604012D01*
X128219Y-564946D01*
X148336Y-526745D01*
X170129Y-489458D01*
X193598Y-453186D01*
X218592Y-417982D01*
X245160Y-383946D01*
X273202Y-351078D01*
X302666Y-319532D01*
X333502Y-289306D01*
X365658Y-260451D01*
X399034Y-233070D01*
X433628Y-207213D01*
X469290Y-182880D01*
X506018Y-160172D01*
X543712Y-139090D01*
X582320Y-119735D01*
X621741Y-102108D01*
X661924Y-86207D01*
X702716Y-72136D01*
X744118Y-59842D01*
X786028Y-49428D01*
X828395Y-40894D01*
X871016Y-34239D01*
X913942Y-29464D01*
X957071Y-26619D01*
X1000404Y-25654D01*
X4017568Y-25654D01*
X4021734Y-26568D01*
X4025188Y-29108D01*
X4027271Y-32816D01*
X4027627Y-37084D01*
X4026255Y-41097D01*
X4023309Y-44196D01*
X4020870Y-45872D01*
X4012590Y-53543D01*
X4005529Y-62382D01*
X3999890Y-72186D01*
X3995724Y-82702D01*
X3993235Y-93624D01*
X4036669Y-93624D01*
X4036669Y-35814D01*
X4037431Y-31902D01*
X4039615Y-28651D01*
X4042918Y-26416D01*
X4046829Y-25654D01*
X4089196Y-25654D01*
X4093057Y-26416D01*
X4096359Y-28651D01*
X4098594Y-31902D01*
X4099356Y-35814D01*
X4099356Y-93624D01*
X4142790Y-93624D01*
X4140250Y-82702D01*
X4136136Y-72186D01*
X4130497Y-62382D01*
X4123436Y-53543D01*
X4115155Y-45872D01*
X4112717Y-44196D01*
X4109770Y-41097D01*
X4108348Y-37084D01*
X4108754Y-32816D01*
X4110837Y-29108D01*
X4114241Y-26568D01*
X4118457Y-25654D01*
X4881575Y-25654D01*
X4885740Y-26568D01*
X4889195Y-29108D01*
X4891278Y-32816D01*
X4891633Y-37084D01*
X4890211Y-41097D01*
X4887264Y-44196D01*
X4884826Y-45872D01*
X4876546Y-53543D01*
X4869535Y-62382D01*
X4863846Y-72186D01*
X4859731Y-82702D01*
X4857242Y-93624D01*
X4900625Y-93624D01*
X4900625Y-35814D01*
X4901438Y-31902D01*
X4903622Y-28651D01*
X4906924Y-26416D01*
X4910785Y-25654D01*
X4953203Y-25654D01*
X4957064Y-26416D01*
X4960366Y-28651D01*
X4962601Y-31902D01*
X4963363Y-35814D01*
X4963363Y-93624D01*
X5006746Y-93624D01*
X5004257Y-82702D01*
X5000142Y-72186D01*
X4994503Y-62382D01*
X4987442Y-53543D01*
X4979162Y-45872D01*
X4976723Y-44196D01*
X4973777Y-41097D01*
X4972354Y-37084D01*
X4972710Y-32816D01*
X4974844Y-29108D01*
X4978247Y-26568D01*
X4982413Y-25654D01*
X6593840Y-25654D01*
X6597751Y-26416D01*
X6601002Y-28651D01*
X6603238Y-31902D01*
X6604000Y-35814D01*
X6604000Y-167386D01*
X6603238Y-171297D01*
X6601002Y-174548D01*
X6597751Y-176784D01*
X6593840Y-177546D01*
X6591808Y-177546D01*
X6583832Y-178308D01*
X6576618Y-180492D01*
X6570014Y-184048D01*
X6564223Y-188823D01*
X6559448Y-194614D01*
X6555892Y-201218D01*
X6553708Y-208432D01*
X6552946Y-216408D01*
X6552946Y-286969D01*
X6552082Y-291084D01*
X6549542Y-294538D01*
X6545884Y-296621D01*
X6541668Y-297027D01*
X6532219Y-293827D01*
X6525971Y-293116D01*
X6478930Y-293116D01*
X6478930Y-400050D01*
X6542785Y-400050D01*
X6546697Y-400812D01*
X6549948Y-403047D01*
X6552184Y-406298D01*
X6552946Y-410209D01*
X6552946Y-577850D01*
X6552184Y-581761D01*
X6549948Y-585012D01*
X6546697Y-587248D01*
X6542785Y-588010D01*
X6478930Y-588010D01*
X6478930Y-694944D01*
X6525971Y-694944D01*
X6532219Y-694232D01*
X6541668Y-691032D01*
X6545884Y-691438D01*
X6549542Y-693521D01*
X6552082Y-696976D01*
X6552946Y-701090D01*
X6552946Y-873455D01*
X6552184Y-877366D01*
X6549948Y-880668D01*
X6546697Y-882853D01*
X6542785Y-883615D01*
X6538874Y-882853D01*
X6535623Y-880668D01*
X6361226Y-706272D01*
X6359042Y-702970D01*
X6358280Y-699109D01*
X6358280Y-588010D01*
X6284976Y-588010D01*
X6284976Y-605485D01*
X6284214Y-609396D01*
X6281978Y-612698D01*
X6278727Y-614883D01*
X6274816Y-615645D01*
X6270904Y-614883D01*
X6267653Y-612698D01*
X6264351Y-609396D01*
X6262116Y-606094D01*
X6261354Y-602183D01*
X6261354Y-241808D01*
X6260592Y-233832D01*
X6258407Y-226618D01*
X6254851Y-220014D01*
X6249771Y-213817D01*
X6110782Y-74828D01*
X6104585Y-69748D01*
X6097981Y-66192D01*
X6090767Y-64008D01*
X6082792Y-63246D01*
X5194808Y-63246D01*
X5186832Y-64008D01*
X5179618Y-66192D01*
X5173014Y-69748D01*
X5166817Y-74828D01*
X5019243Y-222402D01*
X5015992Y-224586D01*
X5012131Y-225399D01*
X5008270Y-224637D01*
X5004968Y-222504D01*
X5002733Y-219252D01*
X5001920Y-215392D01*
X5002580Y-211531D01*
X5004257Y-207264D01*
X5006746Y-196342D01*
X4963363Y-196342D01*
X4963363Y-218186D01*
X4962601Y-222097D01*
X4960366Y-225348D01*
X4957064Y-227584D01*
X4953203Y-228346D01*
X4910785Y-228346D01*
X4906924Y-227584D01*
X4903622Y-225348D01*
X4901438Y-222097D01*
X4900625Y-218186D01*
X4900625Y-196342D01*
X4857242Y-196342D01*
X4859731Y-207264D01*
X4862576Y-214477D01*
X4863236Y-218338D01*
X4862423Y-222199D01*
X4860239Y-225399D01*
X4856937Y-227584D01*
X4853076Y-228346D01*
X4146905Y-228346D01*
X4143044Y-227584D01*
X4139793Y-225399D01*
X4137558Y-222199D01*
X4136745Y-218338D01*
X4137456Y-214477D01*
X4140250Y-207264D01*
X4142790Y-196342D01*
X4099356Y-196342D01*
X4099356Y-218186D01*
X4098594Y-222097D01*
X4096359Y-225348D01*
X4093057Y-227584D01*
X4089196Y-228346D01*
X4058716Y-228346D01*
X4054805Y-227584D01*
X4051503Y-225348D01*
X4039615Y-213512D01*
X4037431Y-210210D01*
X4036669Y-206298D01*
X4036669Y-196342D01*
X4026712Y-196342D01*
X4022801Y-195580D01*
X4019499Y-193344D01*
X3926382Y-100228D01*
X3920185Y-95148D01*
X3913581Y-91592D01*
X3906367Y-89408D01*
X3898392Y-88646D01*
X3747008Y-88646D01*
X3739032Y-89408D01*
X3731818Y-91592D01*
X3725214Y-95148D01*
X3719017Y-100228D01*
X3701592Y-117652D01*
X3698341Y-119837D01*
X3694531Y-120650D01*
X3690670Y-119938D01*
X3687419Y-117805D01*
X3685133Y-114655D01*
X3681425Y-106375D01*
X3675126Y-96672D01*
X3667455Y-88036D01*
X3658514Y-80670D01*
X3648557Y-74726D01*
X3637838Y-70408D01*
X3626561Y-67767D01*
X3614978Y-66852D01*
X3603447Y-67767D01*
X3592169Y-70408D01*
X3581450Y-74726D01*
X3571494Y-80670D01*
X3562553Y-88036D01*
X3554882Y-96672D01*
X3548583Y-106375D01*
X3543808Y-116941D01*
X3540760Y-128117D01*
X3539439Y-139598D01*
X3539896Y-151180D01*
X3542080Y-162560D01*
X3545992Y-173431D01*
X3551529Y-183591D01*
X3558540Y-192836D01*
X3566871Y-200863D01*
X3576370Y-207517D01*
X3587343Y-212953D01*
X3590391Y-215239D01*
X3592372Y-218541D01*
X3592982Y-222300D01*
X3592169Y-226060D01*
X3590036Y-229260D01*
X3554628Y-264617D01*
X3549548Y-270814D01*
X3545992Y-277418D01*
X3543808Y-284632D01*
X3543046Y-292608D01*
X3543046Y-301752D01*
X3542334Y-305460D01*
X3540353Y-308660D01*
X3537305Y-310896D01*
X3533800Y-312572D01*
X3528872Y-316484D01*
X3471976Y-373380D01*
X3468725Y-375564D01*
X3464814Y-376377D01*
X3460902Y-375564D01*
X3457651Y-373380D01*
X3455415Y-370078D01*
X3454654Y-366217D01*
X3454654Y-202793D01*
X3455619Y-198475D01*
X3456330Y-197002D01*
X3458819Y-187553D01*
X3459683Y-177800D01*
X3458819Y-168046D01*
X3456330Y-158597D01*
X3452164Y-149758D01*
X3446576Y-141732D01*
X3439668Y-134823D01*
X3431641Y-129235D01*
X3422802Y-125069D01*
X3413353Y-122580D01*
X3403600Y-121716D01*
X3393846Y-122580D01*
X3384397Y-125069D01*
X3375558Y-129235D01*
X3367532Y-134823D01*
X3360623Y-141732D01*
X3355035Y-149758D01*
X3350869Y-158597D01*
X3348380Y-168046D01*
X3347516Y-177800D01*
X3348380Y-187553D01*
X3350869Y-197002D01*
X3355035Y-205841D01*
X3360623Y-213867D01*
X3367532Y-220776D01*
X3373628Y-225044D01*
X3375914Y-227279D01*
X3377437Y-230124D01*
X3377946Y-233324D01*
X3377946Y-366217D01*
X3377184Y-370078D01*
X3374948Y-373380D01*
X3371697Y-375564D01*
X3367786Y-376377D01*
X3363874Y-375564D01*
X3360623Y-373380D01*
X3303727Y-316484D01*
X3298799Y-312572D01*
X3293618Y-310083D01*
X3288029Y-308813D01*
X3277971Y-309219D01*
X3274669Y-308305D01*
X3271926Y-306324D01*
X3198469Y-232867D01*
X3196234Y-229412D01*
X3195523Y-225348D01*
X3196488Y-221335D01*
X3198977Y-218033D01*
X3202584Y-216001D01*
X3213252Y-212648D01*
X3223666Y-207517D01*
X3233115Y-200863D01*
X3241446Y-192836D01*
X3248456Y-183591D01*
X3253994Y-173431D01*
X3257905Y-162560D01*
X3260140Y-151180D01*
X3260547Y-139598D01*
X3259226Y-128117D01*
X3256178Y-116941D01*
X3251453Y-106375D01*
X3245154Y-96672D01*
X3237433Y-88036D01*
X3228492Y-80670D01*
X3218535Y-74726D01*
X3207816Y-70408D01*
X3196539Y-67767D01*
X3185007Y-66852D01*
X3173476Y-67767D01*
X3162198Y-70408D01*
X3151428Y-74726D01*
X3141472Y-80670D01*
X3132582Y-88036D01*
X3124860Y-96672D01*
X3118561Y-106375D01*
X3113836Y-116941D01*
X3110738Y-128117D01*
X3109417Y-139598D01*
X3109874Y-151180D01*
X3112058Y-162560D01*
X3115970Y-173431D01*
X3116986Y-175209D01*
X3118154Y-179222D01*
X3117646Y-183388D01*
X3115513Y-186944D01*
X3112109Y-189382D01*
X3108045Y-190246D01*
X2991967Y-190246D01*
X2987852Y-189382D01*
X2984500Y-186944D01*
X2982366Y-183388D01*
X2981858Y-179222D01*
X2983026Y-175209D01*
X2983992Y-173431D01*
X2987903Y-162560D01*
X2990138Y-151180D01*
X2990545Y-139598D01*
X2989224Y-128117D01*
X2986176Y-116941D01*
X2981452Y-106375D01*
X2975152Y-96672D01*
X2967431Y-88036D01*
X2958490Y-80670D01*
X2948533Y-74726D01*
X2937814Y-70408D01*
X2926537Y-67767D01*
X2915005Y-66852D01*
X2903474Y-67767D01*
X2892196Y-70408D01*
X2881426Y-74726D01*
X2871470Y-80670D01*
X2862580Y-88036D01*
X2854858Y-96672D01*
X2848559Y-106375D01*
X2843834Y-116941D01*
X2840736Y-128117D01*
X2840329Y-131826D01*
X2838907Y-135991D01*
X2835808Y-139141D01*
X2831693Y-140716D01*
X2818892Y-139446D01*
X2750007Y-139446D01*
X2746095Y-138684D01*
X2742793Y-136448D01*
X2741168Y-134823D01*
X2733141Y-129235D01*
X2724302Y-125069D01*
X2714853Y-122580D01*
X2705100Y-121716D01*
X2695346Y-122580D01*
X2685897Y-125069D01*
X2677058Y-129235D01*
X2669032Y-134823D01*
X2662123Y-141732D01*
X2656535Y-149758D01*
X2652369Y-158597D01*
X2649880Y-168046D01*
X2649016Y-177800D01*
X2649880Y-187553D01*
X2652369Y-197002D01*
X2656535Y-205841D01*
X2662123Y-213867D01*
X2669032Y-220776D01*
X2671622Y-222554D01*
X2674518Y-225653D01*
X2675890Y-229717D01*
X2675483Y-233934D01*
X2673350Y-237642D01*
X2669946Y-240131D01*
X2665780Y-241046D01*
X2102916Y-241046D01*
X2099005Y-240284D01*
X2095703Y-238048D01*
X2052167Y-194513D01*
X2049830Y-190804D01*
X2049221Y-186486D01*
X2049983Y-177800D01*
X2049119Y-168046D01*
X2046630Y-158597D01*
X2042464Y-149758D01*
X2036876Y-141732D01*
X2029968Y-134823D01*
X2021941Y-129235D01*
X2013102Y-125069D01*
X2003653Y-122580D01*
X1993900Y-121716D01*
X1984146Y-122580D01*
X1974697Y-125069D01*
X1965858Y-129235D01*
X1957832Y-134823D01*
X1950923Y-141732D01*
X1945335Y-149758D01*
X1941169Y-158597D01*
X1938680Y-168046D01*
X1937816Y-177800D01*
X1938680Y-187553D01*
X1941169Y-197002D01*
X1943150Y-201168D01*
X1944116Y-205130D01*
X1943404Y-209143D01*
X1941271Y-212547D01*
X1937918Y-214833D01*
X1933956Y-215646D01*
X1836826Y-215646D01*
X1832914Y-214884D01*
X1829612Y-212648D01*
X1827428Y-209296D01*
X1826666Y-205333D01*
X1827530Y-201472D01*
X1829816Y-198170D01*
X1835353Y-192836D01*
X1842363Y-183591D01*
X1847900Y-173431D01*
X1851812Y-162560D01*
X1854047Y-151180D01*
X1854454Y-139598D01*
X1853133Y-128117D01*
X1850085Y-116941D01*
X1845360Y-106375D01*
X1839061Y-96672D01*
X1831339Y-88036D01*
X1822399Y-80670D01*
X1812442Y-74726D01*
X1801723Y-70408D01*
X1790446Y-67767D01*
X1778914Y-66852D01*
X1767332Y-67767D01*
X1756105Y-70408D01*
X1745335Y-74726D01*
X1735378Y-80670D01*
X1726438Y-88036D01*
X1718767Y-96672D01*
X1712468Y-106375D01*
X1707743Y-116941D01*
X1704644Y-128066D01*
X1703273Y-140665D01*
X1701850Y-144729D01*
X1698904Y-147878D01*
X1694891Y-149555D01*
X1690573Y-149352D01*
X1686712Y-147370D01*
X1684985Y-145948D01*
X1678381Y-142392D01*
X1671167Y-140208D01*
X1663192Y-139446D01*
X1646326Y-139446D01*
X1642414Y-138684D01*
X1639112Y-136448D01*
X1636928Y-133197D01*
X1636166Y-129285D01*
X1636166Y-88188D01*
X1635455Y-81889D01*
X1633575Y-76504D01*
X1630527Y-71628D01*
X1626463Y-67614D01*
X1621586Y-64566D01*
X1616202Y-62636D01*
X1609953Y-61925D01*
X1511046Y-61925D01*
X1504797Y-62636D01*
X1499412Y-64566D01*
X1494536Y-67614D01*
X1490472Y-71628D01*
X1487424Y-76504D01*
X1485544Y-81889D01*
X1484833Y-88188D01*
X1484833Y-242011D01*
X1485544Y-248310D01*
X1487424Y-253695D01*
X1490472Y-258571D01*
X1494536Y-262585D01*
X1499412Y-265633D01*
X1504797Y-267563D01*
X1512011Y-268274D01*
X1515872Y-269036D01*
X1519174Y-271221D01*
X1521358Y-274523D01*
X1522171Y-278434D01*
X1522171Y-333451D01*
X1521358Y-337312D01*
X1519174Y-340614D01*
X1434287Y-425500D01*
X1427581Y-434035D01*
X1423568Y-436016D01*
X1419148Y-436118D01*
X1415084Y-434289D01*
X1403604Y-425754D01*
X1372717Y-405384D01*
X1340815Y-386638D01*
X1307896Y-369671D01*
X1274165Y-354533D01*
X1239672Y-341172D01*
X1204468Y-329692D01*
X1168755Y-320141D01*
X1132535Y-312521D01*
X1095959Y-306832D01*
X1059129Y-303123D01*
X1022197Y-301447D01*
X985164Y-301701D01*
X948232Y-303987D01*
X911453Y-308203D01*
X874979Y-314452D01*
X838911Y-322580D01*
X803300Y-332689D01*
X798576Y-334314D01*
X794918Y-334873D01*
X791362Y-334111D01*
X788314Y-332079D01*
X786130Y-329184D01*
X772109Y-300380D01*
X771093Y-296367D01*
X771753Y-292252D01*
X774039Y-288747D01*
X786384Y-276402D01*
X789686Y-274218D01*
X793546Y-273456D01*
X880008Y-273456D01*
X886307Y-272745D01*
X891692Y-270865D01*
X896569Y-267817D01*
X900582Y-263753D01*
X903681Y-258876D01*
X905560Y-253492D01*
X906271Y-247243D01*
X906271Y-108356D01*
X905560Y-102108D01*
X903681Y-96672D01*
X900582Y-91846D01*
X896569Y-87782D01*
X891692Y-84734D01*
X886307Y-82854D01*
X880008Y-82143D01*
X761187Y-82143D01*
X754888Y-82854D01*
X749503Y-84734D01*
X744626Y-87782D01*
X740613Y-91846D01*
X737565Y-96672D01*
X735634Y-102108D01*
X734923Y-108356D01*
X734923Y-179222D01*
X734161Y-183134D01*
X731672Y-186740D01*
X728472Y-188874D01*
X724712Y-189738D01*
X720953Y-189077D01*
X717651Y-187096D01*
X715365Y-183997D01*
X713689Y-180644D01*
X710336Y-175310D01*
X706272Y-171297D01*
X701395Y-168300D01*
X695960Y-166420D01*
X690270Y-165811D01*
X684580Y-166471D01*
X678637Y-168554D01*
X542696Y-234899D01*
X537362Y-238252D01*
X533349Y-242316D01*
X530301Y-247192D01*
X528421Y-252628D01*
X527812Y-258317D01*
X528523Y-264007D01*
X530606Y-269951D01*
X628751Y-471170D01*
X632104Y-476453D01*
X633882Y-478231D01*
X636270Y-481888D01*
X636879Y-486156D01*
X635660Y-490321D01*
X632866Y-493572D01*
X609904Y-510844D01*
X583082Y-533501D01*
X557580Y-557580D01*
X533501Y-583082D01*
X510844Y-609904D01*
X489762Y-637946D01*
X470255Y-667156D01*
X452424Y-697382D01*
X436321Y-728522D01*
X421995Y-760577D01*
X409448Y-793343D01*
X398780Y-826820D01*
X390042Y-860755D01*
X383184Y-895197D01*
X378307Y-929944D01*
X375310Y-964895D01*
X374345Y-999998D01*
X375310Y-1035100D01*
X378307Y-1070051D01*
X383184Y-1104798D01*
X390042Y-1139240D01*
X398780Y-1173175D01*
X409448Y-1206652D01*
X421995Y-1239418D01*
X436321Y-1271473D01*
X452424Y-1302613D01*
X470255Y-1332839D01*
X489762Y-1362049D01*
X510844Y-1390091D01*
X533501Y-1416913D01*
X557580Y-1442415D01*
X583082Y-1466494D01*
X609904Y-1489151D01*
X637946Y-1510233D01*
X667156Y-1529740D01*
X697382Y-1547571D01*
X728522Y-1563674D01*
X760577Y-1578000D01*
X793343Y-1590548D01*
X826820Y-1601216D01*
X860755Y-1609953D01*
X895197Y-1616811D01*
X929944Y-1621688D01*
X964895Y-1624685D01*
X999998Y-1625650D01*
X1035100Y-1624685D01*
X1070051Y-1621688D01*
X1104798Y-1616811D01*
X1139240Y-1609953D01*
X1172921Y-1601266D01*
X1177239Y-1601114D01*
X1181201Y-1602740D01*
X1184148Y-1605838D01*
X1185570Y-1609902D01*
X1185722Y-1611579D01*
X1187856Y-1617522D01*
X1209497Y-1661820D01*
X1261059Y-1636674D01*
X1238300Y-1590040D01*
X1237284Y-1586077D01*
X1237894Y-1582115D01*
X1240028Y-1578660D01*
X1243279Y-1576273D01*
X1271473Y-1563674D01*
X1303934Y-1546809D01*
X1307896Y-1545488D01*
X1312062Y-1545844D01*
X1315669Y-1547825D01*
X1318260Y-1551076D01*
X1340967Y-1597710D01*
X1392580Y-1572564D01*
X1370939Y-1528216D01*
X1367586Y-1522882D01*
X1366266Y-1521612D01*
X1363929Y-1518005D01*
X1363319Y-1513687D01*
X1364488Y-1509572D01*
X1367332Y-1506270D01*
X1390091Y-1489151D01*
X1416913Y-1466494D01*
X1442415Y-1442415D01*
X1466494Y-1416913D01*
X1489151Y-1390091D01*
X1510233Y-1362049D01*
X1529740Y-1332839D01*
X1547571Y-1302613D01*
X1563674Y-1271473D01*
X1578000Y-1239418D01*
X1590548Y-1206652D01*
X1601216Y-1173175D01*
X1609953Y-1139240D01*
X1616811Y-1104798D01*
X1621688Y-1070051D01*
X1624685Y-1035100D01*
X1625650Y-999998D01*
X1624685Y-964895D01*
X1621688Y-929944D01*
X1616811Y-895197D01*
X1609953Y-860755D01*
X1601216Y-826820D01*
X1590548Y-793343D01*
X1583639Y-775360D01*
X1582978Y-771296D01*
X1583994Y-767334D01*
X1586484Y-764032D01*
X1590090Y-762050D01*
X1594154Y-761593D01*
X1600708Y-762254D01*
X1979675Y-762254D01*
X1983943Y-763219D01*
X1987448Y-765860D01*
X1989480Y-769772D01*
X1989683Y-774192D01*
X1987956Y-778256D01*
X1983435Y-784758D01*
X1979269Y-793597D01*
X1976780Y-803046D01*
X1975916Y-812800D01*
X1976780Y-822553D01*
X1979269Y-832002D01*
X1983435Y-840841D01*
X1989023Y-848868D01*
X1990293Y-850087D01*
X1992477Y-853389D01*
X1993239Y-857300D01*
X1992477Y-861161D01*
X1983841Y-873302D01*
X1979726Y-882091D01*
X1978304Y-887374D01*
X1976272Y-891286D01*
X1972818Y-893978D01*
X1968500Y-894943D01*
X1964182Y-893978D01*
X1960727Y-891286D01*
X1958695Y-887374D01*
X1957273Y-882091D01*
X1953158Y-873302D01*
X1947621Y-865327D01*
X1940763Y-858519D01*
X1932787Y-852932D01*
X1923999Y-848817D01*
X1914652Y-846328D01*
X1905000Y-845464D01*
X1895348Y-846328D01*
X1886000Y-848817D01*
X1877212Y-852932D01*
X1869236Y-858519D01*
X1862378Y-865327D01*
X1856841Y-873302D01*
X1852726Y-882091D01*
X1850237Y-891438D01*
X1849323Y-901547D01*
X1849323Y-958494D01*
X1848612Y-962253D01*
X1846529Y-965504D01*
X1843379Y-967740D01*
X1839620Y-968603D01*
X1829511Y-967333D01*
X1675688Y-967333D01*
X1669389Y-968044D01*
X1664004Y-969924D01*
X1659128Y-972972D01*
X1655114Y-977036D01*
X1652066Y-981913D01*
X1650136Y-987298D01*
X1649425Y-993546D01*
X1649425Y-1092454D01*
X1650136Y-1098702D01*
X1652066Y-1104087D01*
X1655114Y-1108964D01*
X1659128Y-1113028D01*
X1664004Y-1116076D01*
X1669389Y-1117955D01*
X1675688Y-1118666D01*
X1829511Y-1118666D01*
X1835810Y-1117955D01*
X1841195Y-1116076D01*
X1846072Y-1113028D01*
X1850085Y-1108964D01*
X1853133Y-1104087D01*
X1855063Y-1098702D01*
X1855774Y-1091539D01*
X1856536Y-1087628D01*
X1858721Y-1084326D01*
X1862023Y-1082141D01*
X1865934Y-1081379D01*
X1873808Y-1081379D01*
X1877669Y-1082141D01*
X1880971Y-1084326D01*
X1928317Y-1131671D01*
X1934514Y-1136751D01*
X1941118Y-1140307D01*
X1948332Y-1142492D01*
X1956307Y-1143254D01*
X2361692Y-1143254D01*
X2369667Y-1142492D01*
X2376881Y-1140307D01*
X2383485Y-1136751D01*
X2389682Y-1131671D01*
X2667203Y-854151D01*
X2670505Y-851916D01*
X2674416Y-851153D01*
X2786583Y-851153D01*
X2790494Y-851916D01*
X2793796Y-854151D01*
X2870911Y-931265D01*
X2877108Y-936345D01*
X2887878Y-942035D01*
X2890418Y-945337D01*
X2891434Y-949350D01*
X2890723Y-953465D01*
X2888437Y-956919D01*
X2832811Y-1012545D01*
X2828899Y-1017473D01*
X2826410Y-1022654D01*
X2825140Y-1028242D01*
X2825343Y-1037844D01*
X2824226Y-1041298D01*
X2821940Y-1044143D01*
X2818841Y-1045971D01*
X2815285Y-1046632D01*
X2708960Y-1046632D01*
X2705049Y-1045870D01*
X2701747Y-1043635D01*
X2635199Y-977087D01*
X2630271Y-973175D01*
X2625140Y-970686D01*
X2619552Y-969416D01*
X2613812Y-969416D01*
X2608224Y-970686D01*
X2603042Y-973175D01*
X2598115Y-977087D01*
X2528214Y-1046987D01*
X2524302Y-1051915D01*
X2521813Y-1057097D01*
X2520543Y-1062685D01*
X2520543Y-1068425D01*
X2521813Y-1074013D01*
X2524302Y-1079144D01*
X2528214Y-1084072D01*
X2637028Y-1192885D01*
X2641955Y-1196797D01*
X2647086Y-1199286D01*
X2652674Y-1200556D01*
X2658414Y-1200556D01*
X2664002Y-1199286D01*
X2669184Y-1196797D01*
X2674112Y-1192885D01*
X2740660Y-1126337D01*
X2743962Y-1124102D01*
X2747873Y-1123340D01*
X2835706Y-1123340D01*
X2843682Y-1122578D01*
X2850845Y-1120394D01*
X2857449Y-1116838D01*
X2863646Y-1111758D01*
X2872282Y-1103122D01*
X2875838Y-1100836D01*
X2880055Y-1100175D01*
X2884119Y-1101293D01*
X2887421Y-1103985D01*
X2888488Y-1105357D01*
X2927197Y-1144016D01*
X2932125Y-1147978D01*
X2935579Y-1149654D01*
X2938373Y-1151636D01*
X2940354Y-1154379D01*
X2942031Y-1157884D01*
X2945942Y-1162812D01*
X2984652Y-1201521D01*
X2989580Y-1205433D01*
X2991866Y-1206550D01*
X2994660Y-1208532D01*
X2996590Y-1211275D01*
X2997708Y-1213561D01*
X3001619Y-1218488D01*
X3006598Y-1223467D01*
X3043783Y-1186281D01*
X3043580Y-1182878D01*
X3044494Y-1179576D01*
X3046476Y-1176782D01*
X3085998Y-1137259D01*
X3088792Y-1135278D01*
X3092094Y-1134364D01*
X3095548Y-1134567D01*
X3132683Y-1097381D01*
X3127705Y-1092403D01*
X3122777Y-1088491D01*
X3120491Y-1087374D01*
X3117748Y-1085392D01*
X3115767Y-1082649D01*
X3114700Y-1080363D01*
X3110738Y-1075436D01*
X3072028Y-1036726D01*
X3067100Y-1032814D01*
X3063646Y-1031138D01*
X3060954Y-1029258D01*
X3059023Y-1026668D01*
X3056331Y-1021486D01*
X3055366Y-1018794D01*
X3055213Y-1015949D01*
X3055772Y-1009497D01*
X3055772Y-957732D01*
X3056534Y-953871D01*
X3058718Y-950569D01*
X3096615Y-912672D01*
X3099866Y-910488D01*
X3103626Y-909675D01*
X3107436Y-910336D01*
X3110738Y-912418D01*
X3119323Y-925068D01*
X3126232Y-931976D01*
X3134258Y-937564D01*
X3143097Y-941730D01*
X3152546Y-944219D01*
X3162300Y-945083D01*
X3172053Y-944219D01*
X3181502Y-941730D01*
X3190341Y-937564D01*
X3198368Y-931976D01*
X3205175Y-925118D01*
X3208477Y-922934D01*
X3212388Y-922172D01*
X3271367Y-922172D01*
X3275228Y-922934D01*
X3278530Y-925118D01*
X3328974Y-975563D01*
X3334765Y-980236D01*
X3340963Y-983386D01*
X3347770Y-985215D01*
X3353206Y-985672D01*
X3619601Y-985672D01*
X3623462Y-986434D01*
X3626764Y-988618D01*
X3711143Y-1072997D01*
X3713429Y-1076553D01*
X3714089Y-1080719D01*
X3712972Y-1084834D01*
X3710279Y-1088085D01*
X3704894Y-1092403D01*
X3666185Y-1131112D01*
X3662222Y-1136040D01*
X3660546Y-1139545D01*
X3658615Y-1142288D01*
X3655822Y-1144270D01*
X3652316Y-1145946D01*
X3647389Y-1149858D01*
X3608679Y-1188567D01*
X3604768Y-1193495D01*
X3603701Y-1195781D01*
X3601720Y-1198575D01*
X3598926Y-1200505D01*
X3596640Y-1201623D01*
X3591712Y-1205534D01*
X3553002Y-1244244D01*
X3549091Y-1249172D01*
X3547414Y-1252677D01*
X3545433Y-1255471D01*
X3542690Y-1257401D01*
X3539185Y-1259078D01*
X3534257Y-1263040D01*
X3495548Y-1301750D01*
X3491636Y-1306677D01*
X3490518Y-1308912D01*
X3488537Y-1311706D01*
X3485794Y-1313688D01*
X3483508Y-1314754D01*
X3478580Y-1318717D01*
X3471976Y-1325270D01*
X3468725Y-1327505D01*
X3464814Y-1328267D01*
X3460902Y-1327505D01*
X3457651Y-1325270D01*
X3455415Y-1321968D01*
X3454654Y-1318107D01*
X3454654Y-1314907D01*
X3455415Y-1310995D01*
X3457651Y-1307693D01*
X3459276Y-1306068D01*
X3464864Y-1298041D01*
X3469030Y-1289202D01*
X3471519Y-1279753D01*
X3472383Y-1270000D01*
X3471519Y-1260246D01*
X3469030Y-1250797D01*
X3464864Y-1241958D01*
X3459276Y-1233932D01*
X3452368Y-1227023D01*
X3444341Y-1221435D01*
X3435502Y-1217269D01*
X3426053Y-1214780D01*
X3416300Y-1213916D01*
X3406546Y-1214780D01*
X3397097Y-1217269D01*
X3388258Y-1221435D01*
X3380232Y-1227023D01*
X3378606Y-1228648D01*
X3375304Y-1230884D01*
X3371392Y-1231646D01*
X3330701Y-1231646D01*
X3322726Y-1232408D01*
X3315512Y-1234592D01*
X3308908Y-1238148D01*
X3302711Y-1243228D01*
X3297428Y-1248511D01*
X3293872Y-1250848D01*
X3289655Y-1251508D01*
X3285591Y-1250391D01*
X3282289Y-1247698D01*
X3279597Y-1244244D01*
X3240887Y-1205534D01*
X3235960Y-1201623D01*
X3233674Y-1200505D01*
X3230880Y-1198575D01*
X3228898Y-1195781D01*
X3227832Y-1193495D01*
X3223920Y-1188567D01*
X3185210Y-1149858D01*
X3180283Y-1145946D01*
X3176778Y-1144270D01*
X3173984Y-1142288D01*
X3172053Y-1139545D01*
X3170377Y-1136040D01*
X3166414Y-1131112D01*
X3161436Y-1126134D01*
X3125063Y-1162507D01*
X3126333Y-1166672D01*
X3125724Y-1170940D01*
X3123387Y-1174597D01*
X3083864Y-1214120D01*
X3080207Y-1216456D01*
X3075889Y-1217066D01*
X3071723Y-1215847D01*
X3035350Y-1252220D01*
X3040329Y-1257198D01*
X3045256Y-1261110D01*
X3048762Y-1262786D01*
X3051556Y-1264767D01*
X3053486Y-1267561D01*
X3055162Y-1271016D01*
X3059125Y-1275943D01*
X3091840Y-1308658D01*
X3094177Y-1312316D01*
X3094786Y-1316634D01*
X3093516Y-1320749D01*
X3090672Y-1324051D01*
X3086709Y-1325829D01*
X3081121Y-1325473D01*
X3075381Y-1325473D01*
X3069793Y-1326743D01*
X3064611Y-1329232D01*
X3059684Y-1333144D01*
X3048660Y-1344168D01*
X3076498Y-1371955D01*
X3108604Y-1339850D01*
X3111906Y-1337614D01*
X3115818Y-1336852D01*
X3119678Y-1337614D01*
X3122980Y-1339850D01*
X3145891Y-1362710D01*
X3148076Y-1366012D01*
X3148838Y-1369923D01*
X3148076Y-1373784D01*
X3145891Y-1377086D01*
X3113735Y-1409242D01*
X3132378Y-1427886D01*
X3134563Y-1431188D01*
X3135325Y-1435049D01*
X3135325Y-1451305D01*
X3134563Y-1455166D01*
X3132378Y-1458468D01*
X3114040Y-1476806D01*
X3110738Y-1478991D01*
X3106877Y-1479753D01*
X3102965Y-1478991D01*
X3099663Y-1476806D01*
X3072942Y-1450035D01*
X3043377Y-1479600D01*
X3052622Y-1488846D01*
X3057550Y-1492758D01*
X3062732Y-1495247D01*
X3068320Y-1496517D01*
X3074060Y-1496517D01*
X3076549Y-1495958D01*
X3080664Y-1495856D01*
X3084423Y-1497380D01*
X3087319Y-1500276D01*
X3088843Y-1504035D01*
X3088741Y-1508150D01*
X3088182Y-1510639D01*
X3088182Y-1516380D01*
X3089452Y-1521968D01*
X3092094Y-1527556D01*
X3093110Y-1531670D01*
X3092348Y-1535785D01*
X3090011Y-1539290D01*
X3086404Y-1541526D01*
X3082239Y-1542084D01*
X3078175Y-1540916D01*
X3075381Y-1539392D01*
X3068167Y-1537208D01*
X3060192Y-1536446D01*
X2748788Y-1536446D01*
X2744876Y-1535684D01*
X2741574Y-1533448D01*
X2739390Y-1530197D01*
X2738628Y-1526286D01*
X2739390Y-1522374D01*
X2741574Y-1519123D01*
X2805785Y-1454912D01*
X2809697Y-1449984D01*
X2812186Y-1444802D01*
X2813456Y-1439214D01*
X2813456Y-1433474D01*
X2812186Y-1427886D01*
X2809697Y-1422755D01*
X2805785Y-1417828D01*
X2696972Y-1309014D01*
X2692044Y-1305102D01*
X2686913Y-1302613D01*
X2681325Y-1301343D01*
X2675585Y-1301343D01*
X2669997Y-1302613D01*
X2664815Y-1305102D01*
X2659227Y-1309674D01*
X2655976Y-1311859D01*
X2652064Y-1312621D01*
X2648153Y-1311859D01*
X2644902Y-1309674D01*
X2607665Y-1272489D01*
X2605379Y-1268984D01*
X2604719Y-1264818D01*
X2605786Y-1260754D01*
X2609037Y-1254252D01*
X2610256Y-1248714D01*
X2610256Y-1242974D01*
X2608986Y-1237386D01*
X2606497Y-1232255D01*
X2602585Y-1227328D01*
X2493772Y-1118514D01*
X2488844Y-1114602D01*
X2483713Y-1112113D01*
X2478125Y-1110843D01*
X2472385Y-1110843D01*
X2466797Y-1112113D01*
X2461615Y-1114602D01*
X2456688Y-1118514D01*
X2386787Y-1188415D01*
X2382875Y-1193342D01*
X2380386Y-1198524D01*
X2379116Y-1204112D01*
X2379116Y-1209852D01*
X2380386Y-1215440D01*
X2382875Y-1220571D01*
X2386787Y-1225499D01*
X2495600Y-1334312D01*
X2500528Y-1338224D01*
X2505659Y-1340713D01*
X2511247Y-1341983D01*
X2516987Y-1341983D01*
X2522575Y-1340713D01*
X2527757Y-1338224D01*
X2532684Y-1334312D01*
X2539695Y-1327302D01*
X2542946Y-1325118D01*
X2546858Y-1324356D01*
X2550769Y-1325118D01*
X2554020Y-1327302D01*
X2590647Y-1363929D01*
X2592832Y-1367180D01*
X2593594Y-1371092D01*
X2592832Y-1375003D01*
X2586075Y-1383842D01*
X2583586Y-1389024D01*
X2582316Y-1394612D01*
X2582316Y-1400352D01*
X2583586Y-1405940D01*
X2586075Y-1411071D01*
X2589987Y-1415999D01*
X2610104Y-1436116D01*
X2612288Y-1439418D01*
X2613050Y-1443278D01*
X2612288Y-1447190D01*
X2610104Y-1450492D01*
X2519324Y-1541221D01*
X2515108Y-1544878D01*
X2510840Y-1545894D01*
X2506573Y-1544980D01*
X2503017Y-1542389D01*
X2500934Y-1538528D01*
X2499004Y-1531823D01*
X2497378Y-1527810D01*
X2495296Y-1523898D01*
X2492908Y-1520139D01*
X2490216Y-1516583D01*
X2487066Y-1513128D01*
X2444445Y-1470507D01*
X2440990Y-1467358D01*
X2437434Y-1464665D01*
X2433675Y-1462278D01*
X2429764Y-1460195D01*
X2425649Y-1458518D01*
X2421382Y-1457147D01*
X2417013Y-1456182D01*
X2412644Y-1455623D01*
X2407970Y-1455420D01*
X2314194Y-1455420D01*
X2310130Y-1454556D01*
X2306777Y-1452168D01*
X2304592Y-1448612D01*
X2303475Y-1445310D01*
X2300427Y-1440434D01*
X2296363Y-1436370D01*
X2291486Y-1433322D01*
X2286101Y-1431442D01*
X2279853Y-1430731D01*
X2080971Y-1430731D01*
X2074722Y-1431442D01*
X2069287Y-1433322D01*
X2064461Y-1436370D01*
X2060397Y-1440434D01*
X2057349Y-1445310D01*
X2055469Y-1450695D01*
X2054758Y-1456944D01*
X2054758Y-1555851D01*
X2055469Y-1562100D01*
X2057349Y-1567484D01*
X2060397Y-1572361D01*
X2064461Y-1576425D01*
X2069287Y-1579473D01*
X2074722Y-1581353D01*
X2080971Y-1582064D01*
X2279853Y-1582064D01*
X2286101Y-1581353D01*
X2291486Y-1579473D01*
X2296363Y-1576425D01*
X2300427Y-1572361D01*
X2303475Y-1567484D01*
X2304542Y-1564335D01*
X2306726Y-1560779D01*
X2310079Y-1558391D01*
X2314143Y-1557528D01*
X2382824Y-1557528D01*
X2386685Y-1558290D01*
X2389987Y-1560525D01*
X2392476Y-1562963D01*
X2394661Y-1566265D01*
X2395423Y-1570177D01*
X2395423Y-1697024D01*
X2396134Y-1703273D01*
X2398064Y-1708708D01*
X2401112Y-1713534D01*
X2405126Y-1717598D01*
X2410002Y-1720646D01*
X2415387Y-1722526D01*
X2421686Y-1723237D01*
X2480513Y-1723237D01*
X2486812Y-1722526D01*
X2496261Y-1719224D01*
X2500528Y-1719529D01*
X2504287Y-1721612D01*
X2506827Y-1725066D01*
X2507742Y-1729282D01*
X2507742Y-1777187D01*
X2507183Y-1780539D01*
X2505506Y-1783537D01*
X2502966Y-1785823D01*
X2500122Y-1787601D01*
X2496108Y-1791665D01*
X2493060Y-1796491D01*
X2491130Y-1801926D01*
X2490470Y-1808175D01*
X2490470Y-1937004D01*
X2491130Y-1943303D01*
X2493060Y-1948688D01*
X2496108Y-1953564D01*
X2499563Y-1957019D01*
X2501747Y-1960321D01*
X2502509Y-1964182D01*
X2501747Y-1968093D01*
X2499563Y-1971395D01*
X2496261Y-1973580D01*
X2492349Y-1974342D01*
X2409850Y-1974342D01*
X2405938Y-1973580D01*
X2402636Y-1971395D01*
X2400452Y-1968093D01*
X2399690Y-1964182D01*
X2400452Y-1960321D01*
X2402636Y-1957019D01*
X2406091Y-1953564D01*
X2409139Y-1948688D01*
X2411069Y-1943303D01*
X2411730Y-1937004D01*
X2411730Y-1911451D01*
X2377440Y-1911451D01*
X2377440Y-1964182D01*
X2376678Y-1968093D01*
X2374493Y-1971395D01*
X2371191Y-1973580D01*
X2367280Y-1974342D01*
X2344928Y-1974342D01*
X2341016Y-1973580D01*
X2337714Y-1971395D01*
X2335530Y-1968093D01*
X2334768Y-1964182D01*
X2334768Y-1911451D01*
X2300427Y-1911451D01*
X2300427Y-1937004D01*
X2301138Y-1943303D01*
X2303068Y-1948688D01*
X2306116Y-1953564D01*
X2309520Y-1957019D01*
X2311755Y-1960321D01*
X2312517Y-1964182D01*
X2311755Y-1968093D01*
X2309520Y-1971395D01*
X2306269Y-1973580D01*
X2302357Y-1974342D01*
G37*

%LPC*%
G36*
X2479192Y-217881D02*
G01*
X2490774Y-217881D01*
X2502204Y-216154D01*
X2513279Y-212648D01*
X2523642Y-207517D01*
X2533091Y-200863D01*
X2541473Y-192836D01*
X2548483Y-183591D01*
X2554020Y-173431D01*
X2557932Y-162560D01*
X2560116Y-151180D01*
X2560574Y-139598D01*
X2559253Y-128117D01*
X2556154Y-116941D01*
X2551430Y-106375D01*
X2545130Y-96672D01*
X2537460Y-88036D01*
X2528519Y-80670D01*
X2518562Y-74726D01*
X2507792Y-70408D01*
X2496566Y-67767D01*
X2484983Y-66852D01*
X2473452Y-67767D01*
X2462174Y-70408D01*
X2451455Y-74726D01*
X2441498Y-80670D01*
X2432558Y-88036D01*
X2424836Y-96672D01*
X2418537Y-106375D01*
X2413812Y-116941D01*
X2410764Y-128117D01*
X2409444Y-139598D01*
X2409850Y-151180D01*
X2412085Y-162560D01*
X2415997Y-173431D01*
X2421534Y-183591D01*
X2428544Y-192836D01*
X2436876Y-200863D01*
X2446375Y-207517D01*
X2456738Y-212648D01*
X2467762Y-216154D01*
G37*
G36*
X1101191Y-273456D02*
G01*
X1220012Y-273456D01*
X1226312Y-272745D01*
X1231696Y-270865D01*
X1236573Y-267817D01*
X1240586Y-263753D01*
X1243634Y-258927D01*
X1245565Y-253492D01*
X1246276Y-247243D01*
X1246276Y-226314D01*
X1247038Y-222402D01*
X1249222Y-219151D01*
X1252524Y-216916D01*
X1256436Y-216154D01*
X1274673Y-216154D01*
X1278585Y-216916D01*
X1281887Y-219151D01*
X1284071Y-222402D01*
X1284833Y-226314D01*
X1284833Y-242011D01*
X1285544Y-248310D01*
X1287424Y-253695D01*
X1290472Y-258571D01*
X1294536Y-262585D01*
X1299413Y-265633D01*
X1304798Y-267563D01*
X1311046Y-268274D01*
X1409954Y-268274D01*
X1416202Y-267563D01*
X1421587Y-265633D01*
X1426464Y-262585D01*
X1430528Y-258571D01*
X1433576Y-253695D01*
X1435455Y-248310D01*
X1436166Y-242011D01*
X1436166Y-88188D01*
X1435455Y-81889D01*
X1433576Y-76504D01*
X1430528Y-71628D01*
X1426464Y-67614D01*
X1421587Y-64566D01*
X1416202Y-62636D01*
X1409954Y-61925D01*
X1311046Y-61925D01*
X1304798Y-62636D01*
X1299413Y-64566D01*
X1294536Y-67614D01*
X1290472Y-71628D01*
X1287424Y-76504D01*
X1285544Y-81889D01*
X1284833Y-88188D01*
X1284833Y-129285D01*
X1284071Y-133197D01*
X1281887Y-136448D01*
X1278585Y-138684D01*
X1274673Y-139446D01*
X1256436Y-139446D01*
X1252524Y-138684D01*
X1249222Y-136448D01*
X1247038Y-133197D01*
X1246276Y-129285D01*
X1246276Y-108356D01*
X1245565Y-102108D01*
X1243634Y-96723D01*
X1240586Y-91846D01*
X1236573Y-87782D01*
X1231696Y-84734D01*
X1226312Y-82854D01*
X1220012Y-82143D01*
X1101191Y-82143D01*
X1094892Y-82854D01*
X1089507Y-84734D01*
X1084630Y-87782D01*
X1080617Y-91846D01*
X1077569Y-96723D01*
X1075639Y-102108D01*
X1074928Y-108356D01*
X1074928Y-247243D01*
X1075639Y-253492D01*
X1077569Y-258927D01*
X1080617Y-263753D01*
X1084630Y-267817D01*
X1089507Y-270865D01*
X1094892Y-272745D01*
G37*
G36*
X1580997Y-1922068D02*
G01*
X1779879Y-1922068D01*
X1786128Y-1921357D01*
X1791512Y-1919478D01*
X1796389Y-1916430D01*
X1800453Y-1912366D01*
X1803501Y-1907489D01*
X1805381Y-1902104D01*
X1806092Y-1895856D01*
X1806092Y-1796948D01*
X1805381Y-1790700D01*
X1803501Y-1785315D01*
X1800453Y-1780438D01*
X1796389Y-1776374D01*
X1791512Y-1773326D01*
X1786128Y-1771446D01*
X1779879Y-1770735D01*
X1580997Y-1770735D01*
X1574749Y-1771446D01*
X1569313Y-1773326D01*
X1564487Y-1776374D01*
X1560423Y-1780438D01*
X1557375Y-1785315D01*
X1555496Y-1790700D01*
X1554784Y-1796948D01*
X1554784Y-1895856D01*
X1555496Y-1902104D01*
X1557375Y-1907489D01*
X1560423Y-1912366D01*
X1564487Y-1916430D01*
X1569313Y-1919478D01*
X1574749Y-1921357D01*
G37*
G36*
X2133600Y-1884883D02*
G01*
X2143353Y-1884019D01*
X2152802Y-1881530D01*
X2161641Y-1877364D01*
X2169668Y-1871776D01*
X2176576Y-1864868D01*
X2182164Y-1856841D01*
X2186330Y-1848002D01*
X2188819Y-1838553D01*
X2189683Y-1828800D01*
X2188819Y-1819046D01*
X2186330Y-1809597D01*
X2182164Y-1800758D01*
X2176576Y-1792732D01*
X2169668Y-1785823D01*
X2161641Y-1780235D01*
X2154986Y-1777085D01*
X2152091Y-1775104D01*
X1847443Y-1470456D01*
X1843989Y-1467307D01*
X1840484Y-1464564D01*
X1836724Y-1462176D01*
X1832762Y-1460144D01*
X1828647Y-1458417D01*
X1824431Y-1457096D01*
X1820265Y-1456182D01*
X1813356Y-1455521D01*
X1809648Y-1454454D01*
X1806651Y-1452118D01*
X1804720Y-1448765D01*
X1803501Y-1445310D01*
X1800453Y-1440434D01*
X1796389Y-1436370D01*
X1791512Y-1433322D01*
X1786128Y-1431442D01*
X1779879Y-1430731D01*
X1580997Y-1430731D01*
X1574749Y-1431442D01*
X1569313Y-1433322D01*
X1564487Y-1436370D01*
X1560423Y-1440434D01*
X1557375Y-1445310D01*
X1555496Y-1450695D01*
X1554784Y-1456944D01*
X1554784Y-1555851D01*
X1555496Y-1562100D01*
X1557375Y-1567484D01*
X1560423Y-1572361D01*
X1564487Y-1576425D01*
X1569313Y-1579473D01*
X1574749Y-1581353D01*
X1580997Y-1582064D01*
X1779879Y-1582064D01*
X1786128Y-1581353D01*
X1791512Y-1579473D01*
X1797253Y-1575866D01*
X1800402Y-1574546D01*
X1803806Y-1574342D01*
X1807108Y-1575308D01*
X1809851Y-1577238D01*
X2079904Y-1847291D01*
X2081885Y-1850186D01*
X2085035Y-1856841D01*
X2090623Y-1864868D01*
X2097532Y-1871776D01*
X2105558Y-1877364D01*
X2114397Y-1881530D01*
X2123846Y-1884019D01*
G37*
G36*
X2300427Y-1833727D02*
G01*
X2334768Y-1833727D01*
X2334768Y-1781962D01*
X2326690Y-1781962D01*
X2320391Y-1782673D01*
X2315006Y-1784553D01*
X2310130Y-1787601D01*
X2306116Y-1791665D01*
X2303068Y-1796491D01*
X2301138Y-1801926D01*
X2300427Y-1808175D01*
G37*
G36*
X2377440Y-1833727D02*
G01*
X2411730Y-1833727D01*
X2411730Y-1808175D01*
X2411069Y-1801926D01*
X2409139Y-1796491D01*
X2406091Y-1791665D01*
X2402078Y-1787601D01*
X2397201Y-1784553D01*
X2391816Y-1782673D01*
X2385517Y-1781962D01*
X2377440Y-1781962D01*
G37*
G36*
X1309420Y-1833575D02*
G01*
X1315110Y-1832914D01*
X1321054Y-1830781D01*
X1349095Y-1817116D01*
X1315974Y-1749196D01*
X1264361Y-1774393D01*
X1286002Y-1818690D01*
X1289354Y-1824024D01*
X1293418Y-1828088D01*
X1298295Y-1831086D01*
X1303731Y-1832965D01*
G37*
G36*
X2203094Y-217881D02*
G01*
X2214676Y-217881D01*
X2226106Y-216154D01*
X2237181Y-212648D01*
X2247544Y-207517D01*
X2256993Y-200863D01*
X2265375Y-192836D01*
X2272385Y-183591D01*
X2277922Y-173431D01*
X2281834Y-162560D01*
X2284018Y-151180D01*
X2284476Y-139598D01*
X2283155Y-128117D01*
X2280056Y-116941D01*
X2275332Y-106375D01*
X2269032Y-96672D01*
X2261362Y-88036D01*
X2252421Y-80670D01*
X2242464Y-74726D01*
X2231694Y-70408D01*
X2220468Y-67767D01*
X2208885Y-66852D01*
X2197354Y-67767D01*
X2186076Y-70408D01*
X2175357Y-74726D01*
X2165400Y-80670D01*
X2156460Y-88036D01*
X2148738Y-96672D01*
X2142439Y-106375D01*
X2137714Y-116941D01*
X2134666Y-128117D01*
X2133346Y-139598D01*
X2133752Y-151180D01*
X2135987Y-162560D01*
X2139899Y-173431D01*
X2145436Y-183591D01*
X2152446Y-192836D01*
X2160778Y-200863D01*
X2170277Y-207517D01*
X2180640Y-212648D01*
X2191664Y-216154D01*
G37*
G36*
X1429004Y-1778152D02*
G01*
X1456994Y-1764487D01*
X1462328Y-1761083D01*
X1466342Y-1757019D01*
X1469390Y-1752142D01*
X1471269Y-1746757D01*
X1471879Y-1741017D01*
X1471168Y-1735328D01*
X1469085Y-1729435D01*
X1447444Y-1685086D01*
X1395882Y-1710232D01*
G37*
G36*
X6284976Y-400050D02*
G01*
X6358280Y-400050D01*
X6358280Y-293116D01*
X6311188Y-293116D01*
X6304940Y-293827D01*
X6299504Y-295706D01*
X6294678Y-298754D01*
X6290614Y-302818D01*
X6287566Y-307644D01*
X6285687Y-313080D01*
X6284976Y-319328D01*
G37*
G36*
X2829610Y-1221435D02*
G01*
X2860903Y-1190091D01*
X2838399Y-1167587D01*
X2833471Y-1163675D01*
X2828340Y-1161186D01*
X2822752Y-1159916D01*
X2817012Y-1159916D01*
X2811424Y-1161186D01*
X2806242Y-1163675D01*
X2801315Y-1167587D01*
X2788513Y-1180388D01*
G37*
G36*
X3006090Y-1442313D02*
G01*
X3035655Y-1412798D01*
X3007868Y-1384960D01*
X2996844Y-1395984D01*
X2992932Y-1400911D01*
X2990443Y-1406093D01*
X2989173Y-1411681D01*
X2989173Y-1417421D01*
X2990443Y-1423009D01*
X2992932Y-1428140D01*
X2996844Y-1433068D01*
G37*
G36*
X2855874Y-1391056D02*
G01*
X2861614Y-1391056D01*
X2867202Y-1389786D01*
X2872384Y-1387297D01*
X2877312Y-1383385D01*
X2890062Y-1370584D01*
X2849016Y-1329537D01*
X2817723Y-1360881D01*
X2840228Y-1383385D01*
X2845155Y-1387297D01*
X2850286Y-1389786D01*
G37*
G36*
X2934411Y-1326286D02*
G01*
X2947212Y-1313484D01*
X2951124Y-1308557D01*
X2953613Y-1303375D01*
X2954883Y-1297787D01*
X2954883Y-1292047D01*
X2953613Y-1286459D01*
X2951124Y-1281328D01*
X2947212Y-1276400D01*
X2924708Y-1253896D01*
X2893364Y-1285189D01*
G37*
G36*
X1675688Y-1318666D02*
G01*
X1829511Y-1318666D01*
X1835810Y-1317955D01*
X1841195Y-1316075D01*
X1846072Y-1313027D01*
X1850085Y-1308963D01*
X1853133Y-1304086D01*
X1853996Y-1301648D01*
X1856181Y-1298092D01*
X1859584Y-1295654D01*
X1863648Y-1294841D01*
X1981352Y-1295501D01*
X1985568Y-1296466D01*
X1987397Y-1297330D01*
X1996846Y-1299819D01*
X2006600Y-1300683D01*
X2016353Y-1299819D01*
X2025802Y-1297330D01*
X2034641Y-1293164D01*
X2042668Y-1287576D01*
X2049576Y-1280668D01*
X2055164Y-1272641D01*
X2059330Y-1263802D01*
X2061819Y-1254353D01*
X2062683Y-1244600D01*
X2061819Y-1234846D01*
X2059330Y-1225397D01*
X2055164Y-1216558D01*
X2049576Y-1208532D01*
X2042668Y-1201623D01*
X2034641Y-1196035D01*
X2025802Y-1191869D01*
X2016353Y-1189380D01*
X2006600Y-1188516D01*
X1996846Y-1189380D01*
X1987397Y-1191869D01*
X1986229Y-1192428D01*
X1981860Y-1193393D01*
X1864106Y-1192733D01*
X1860042Y-1191869D01*
X1856689Y-1189482D01*
X1854555Y-1185926D01*
X1853133Y-1181912D01*
X1850085Y-1177036D01*
X1846072Y-1172972D01*
X1841195Y-1169924D01*
X1835810Y-1168044D01*
X1829511Y-1167333D01*
X1675688Y-1167333D01*
X1669389Y-1168044D01*
X1664004Y-1169924D01*
X1659128Y-1172972D01*
X1655114Y-1177036D01*
X1652066Y-1181912D01*
X1650136Y-1187297D01*
X1649425Y-1193546D01*
X1649425Y-1292453D01*
X1650136Y-1298702D01*
X1652066Y-1304086D01*
X1655114Y-1308963D01*
X1659128Y-1313027D01*
X1664004Y-1316075D01*
X1669389Y-1317955D01*
G37*
G36*
X2753918Y-1297076D02*
G01*
X2785262Y-1265783D01*
X2744216Y-1224737D01*
X2731414Y-1237488D01*
X2727502Y-1242415D01*
X2725013Y-1247597D01*
X2723743Y-1253185D01*
X2723743Y-1258925D01*
X2725013Y-1264513D01*
X2727502Y-1269644D01*
X2731414Y-1274572D01*
G37*

%LPD*%
G36*
X4314698Y-1974342D02*
G01*
X4310837Y-1973580D01*
X4307535Y-1971395D01*
X4305350Y-1968093D01*
X4304538Y-1964182D01*
X4305350Y-1960321D01*
X4307535Y-1957019D01*
X4343603Y-1920951D01*
X4346905Y-1918716D01*
X4350816Y-1917954D01*
X4438192Y-1917954D01*
X4442104Y-1918716D01*
X4445406Y-1920951D01*
X4447032Y-1922576D01*
X4455058Y-1928164D01*
X4463897Y-1932330D01*
X4473346Y-1934819D01*
X4483100Y-1935683D01*
X4492853Y-1934819D01*
X4502302Y-1932330D01*
X4511141Y-1928164D01*
X4519168Y-1922576D01*
X4526076Y-1915668D01*
X4531664Y-1907641D01*
X4535830Y-1898802D01*
X4538319Y-1889353D01*
X4539183Y-1879600D01*
X4538319Y-1869846D01*
X4537659Y-1867255D01*
X4537354Y-1863547D01*
X4538421Y-1859991D01*
X4540656Y-1857044D01*
X4543806Y-1855114D01*
X4547463Y-1854454D01*
X4965192Y-1854454D01*
X4973167Y-1853692D01*
X4980381Y-1851507D01*
X4986985Y-1847951D01*
X4993182Y-1842871D01*
X5086959Y-1749094D01*
X5090261Y-1746910D01*
X5094122Y-1746097D01*
X5098034Y-1746910D01*
X5101336Y-1749094D01*
X5103520Y-1752396D01*
X5104282Y-1756257D01*
X5104282Y-1769414D01*
X5104993Y-1775663D01*
X5106873Y-1781098D01*
X5109921Y-1785924D01*
X5113985Y-1789988D01*
X5118862Y-1793036D01*
X5124246Y-1794916D01*
X5130495Y-1795627D01*
X5133848Y-1795627D01*
X5137759Y-1796389D01*
X5141010Y-1798624D01*
X5143246Y-1801926D01*
X5144008Y-1805787D01*
X5144008Y-1841296D01*
X5144160Y-1845614D01*
X5144820Y-1850389D01*
X5145684Y-1854403D01*
X5147106Y-1858975D01*
X5148681Y-1862785D01*
X5150866Y-1867052D01*
X5153050Y-1870506D01*
X5155996Y-1874316D01*
X5158892Y-1877517D01*
X5221325Y-1940712D01*
X5225034Y-1944116D01*
X5228234Y-1946605D01*
X5232298Y-1949196D01*
X5235905Y-1951126D01*
X5240324Y-1952955D01*
X5245252Y-1954479D01*
X5248859Y-1956460D01*
X5251399Y-1959660D01*
X5252415Y-1963623D01*
X5251805Y-1967687D01*
X5249672Y-1971192D01*
X5246319Y-1973529D01*
X5242306Y-1974342D01*
G37*

%LPD*%
D10*
X2697988Y-1416812D02*
G01*
X2546095Y-1568704D01*
X2546095Y-1872487D01*
D11*
X2356104Y-1872589D02*
G01*
X2216911Y-1872487D01*
X2184400Y-1905000D01*
X1993900Y-1905000D01*
X1816100Y-1727200D01*
X1382268Y-1727200D01*
X1328420Y-1673352D01*
X2180336Y-1506473D02*
G01*
X2408174Y-1506473D01*
X2451100Y-1549400D01*
X2451100Y-1632712D01*
X1680413Y-1506397D02*
G01*
X1811197Y-1506397D01*
X2133600Y-1828800D01*
D10*
X1160602Y-177800D02*
G01*
X1360495Y-177800D01*
X3861815Y-1061720D02*
G01*
X3912615Y-1112520D01*
X3912615Y-1163320D01*
X3760215Y-1315720D01*
X3759200Y-1346200D01*
X2971800Y-1892300D02*
G01*
X2971800Y-1905000D01*
X4051300Y-1905000D01*
X4102100Y-1854200D01*
X3149600Y-1828800D02*
G01*
X3175000Y-1854200D01*
X3987800Y-1854200D01*
X4051300Y-1790700D01*
X4152900Y-1790700D01*
X4216400Y-1854200D01*
X4229100Y-1854200D01*
D11*
X5100065Y-1400047D02*
G01*
X5100065Y-1567434D01*
X4967477Y-1700021D01*
X4605020Y-1700021D01*
X6205029Y-1699999D02*
G01*
X6200000Y-1694969D01*
X6200000Y-1399999D01*
X5549900Y-1398270D02*
G01*
X5549900Y-1485900D01*
X5422900Y-1612900D01*
X5422900Y-1681987D01*
X5405120Y-1700021D01*
X5195061Y-1700021D02*
G01*
X5195061Y-1841500D01*
X5257800Y-1905000D01*
X5397500Y-1905000D01*
X5397500Y-1905000D02*
G01*
X8026400Y-1905000D01*
X3084068Y-1174750D02*
G01*
X3009900Y-1252981D01*
X3009900Y-1282700D01*
D10*
X2717800Y-1866900D02*
G01*
X2781300Y-1866900D01*
X2870200Y-1955800D01*
X4254500Y-1955800D01*
X4330700Y-1879600D01*
X4470400Y-1879600D01*
D11*
X820597Y-177800D02*
G01*
X812800Y-177800D01*
X673100Y-317500D01*
X671319Y-325884D01*
D10*
X2501900Y-533400D02*
G01*
X2463800Y-571500D01*
X2463800Y-628495D01*
X2286000Y-947165D02*
G01*
X2380234Y-947165D01*
X2463800Y-863600D01*
X2463800Y-768604D01*
X2235200Y-812800D02*
G01*
X2286000Y-863600D01*
X2286000Y-876300D01*
X2286000Y-947092D01*
X3403600Y-177800D02*
G01*
X3416300Y-190500D01*
X3416300Y-482605D01*
X3343645Y-555246D01*
X3240272Y-555246D01*
X3197100Y-512061D01*
X2197100Y-596900D02*
G01*
X2228697Y-628497D01*
X2463800Y-628497D01*
X3416300Y-1270000D02*
G01*
X3416300Y-1460500D01*
D11*
X8300008Y-1325016D02*
G01*
X8300008Y-1143000D01*
X8674100Y-768908D01*
X8674100Y-723900D01*
X5602477Y-1905000D02*
G01*
X5689600Y-1905000D01*
X5689600Y-1765300D01*
X5754877Y-1700021D01*
X5994908Y-1700021D01*
D10*
X3635502Y-512063D02*
G01*
X3708400Y-439165D01*
X3708400Y-383539D01*
X3785870Y-306070D01*
X3884929Y-405129D02*
G01*
X3807459Y-482600D01*
X3776218Y-482600D01*
X3691127Y-567689D01*
X3748531Y-625094D02*
G01*
X3875531Y-498094D01*
X3933952Y-498094D01*
X3962400Y-469900D01*
X3962400Y-469900D02*
G01*
X3987800Y-444500D01*
X3987800Y-368300D01*
X3886200Y-266700D01*
X3825240Y-266700D01*
X3785870Y-306070D01*
X3416300Y-1270000D02*
G01*
X3330193Y-1270000D01*
X3254756Y-1345437D01*
X3691102Y-567743D02*
G01*
X3640302Y-618543D01*
X3640302Y-669343D01*
X3691102Y-720143D01*
X3764965Y-720143D01*
X3804234Y-680874D01*
D11*
X3795872Y-689236D02*
G01*
X3745072Y-740036D01*
X3743063Y-740036D01*
X3708400Y-774700D01*
X5798820Y-468629D02*
G01*
X5652775Y-468629D01*
X5580385Y-541020D01*
X5473700Y-541020D01*
D10*
X4394961Y-1700021D02*
G01*
X3988561Y-1700021D01*
X3886961Y-1801621D01*
X3719322Y-1801621D01*
X3695700Y-1778000D01*
X3695700Y-1727200D01*
X3668522Y-1700021D01*
X3594861Y-1700021D01*
X5194300Y-1701800D02*
G01*
X5080000Y-1701800D01*
X4965700Y-1816100D01*
X4432300Y-1816100D01*
X4394200Y-1778000D01*
X4394200Y-1701800D01*
D11*
X8668511Y-1478787D02*
G01*
X8574277Y-1384300D01*
X8484615Y-1384300D01*
X8299958Y-1568957D01*
X8299958Y-1575054D01*
D10*
X3917391Y-1005967D02*
G01*
X3975100Y-1063675D01*
X3975100Y-1193800D01*
X3886200Y-1282700D01*
D12*
X3949700Y-889000D02*
G01*
X3848100Y-876300D01*
X3450081Y-876300D01*
X3141472Y-567689D01*
D10*
X3917441Y-794004D02*
G01*
X3975100Y-736600D01*
X3975100Y-723900D01*
X3937000Y-685800D01*
X3914140Y-685800D01*
X3861815Y-738378D01*
X3635502Y-512063D02*
G01*
X3635502Y-517397D01*
X3530600Y-622300D01*
X3530600Y-736600D01*
X3632200Y-838200D01*
X3759200Y-838200D01*
X3859022Y-738378D01*
X3861815Y-738378D01*
X3310381Y-399034D02*
G01*
X3139947Y-228600D01*
X2870200Y-228600D01*
X2819400Y-177800D01*
X2705100Y-177800D01*
X3254756Y-454660D02*
G01*
X3079495Y-279400D01*
X2082800Y-279400D01*
X1993900Y-190500D01*
X1993900Y-177800D01*
X2787904Y-354101D02*
G01*
X2764002Y-330200D01*
X2476500Y-330200D01*
X2425700Y-381000D01*
X2425700Y-444500D01*
X2977895Y-484098D02*
G01*
X2977895Y-630430D01*
X3028441Y-680976D01*
X3028441Y-680973D02*
G01*
X2969768Y-622300D01*
X2921000Y-622300D01*
X2781300Y-762000D01*
X2628900Y-762000D01*
X2336800Y-1054100D01*
X2044700Y-1054100D01*
X2032000Y-1041400D01*
X2032000Y-947165D01*
X2787898Y-328698D02*
G01*
X2787904Y-328706D01*
X2787904Y-419100D01*
X2977895Y-354076D02*
G01*
X3046475Y-354076D01*
X3073400Y-381000D01*
X3073400Y-482600D01*
X3041395Y-515620D01*
X3041395Y-582676D01*
X3084068Y-624839D01*
X2641600Y-412597D02*
G01*
X2648102Y-419100D01*
X2787904Y-419100D01*
X2787904Y-484098D02*
G01*
X2743200Y-484098D01*
X2674696Y-552602D01*
X2641600Y-552602D01*
X5816600Y-1186812D02*
G01*
X5816600Y-1282700D01*
X5778500Y-1282700D01*
X5750001Y-1311198D01*
X5750001Y-1399997D01*
X5749991Y-1400004D02*
G01*
X6000005Y-1400004D01*
D11*
X5245100Y-635000D02*
G01*
X5322895Y-712795D01*
X5322895Y-774700D01*
X5245100Y-635000D02*
G01*
X5379694Y-635000D01*
X5473700Y-540994D01*
D10*
X3804234Y-680872D02*
G01*
X3888206Y-596900D01*
X3962400Y-596900D01*
X5228209Y-241300D02*
G01*
X5101209Y-368300D01*
X4838700Y-368300D01*
X4773599Y-433400D01*
X4660900Y-433400D01*
X4068013Y-514985D02*
G01*
X4022928Y-469900D01*
X3962400Y-469900D01*
X3962400Y-596900D02*
G01*
X4025900Y-660400D01*
X4172204Y-660400D01*
X4229100Y-603504D01*
X5522904Y-800100D02*
G01*
X5522899Y-1054100D01*
X4157218Y-1064768D02*
G01*
X4157218Y-1100581D01*
X3911600Y-1346200D01*
X3848100Y-1346200D01*
X3784600Y-1409700D01*
X3644900Y-1409700D01*
X3581400Y-1346200D01*
X3577843Y-1345437D01*
X4381500Y-1066800D02*
G01*
X4254500Y-1193800D01*
X4140200Y-1193800D01*
X3937000Y-1397000D01*
X3873500Y-1397000D01*
X3797300Y-1473200D01*
X3594100Y-1473200D01*
X3522218Y-1401063D01*
D11*
X4951729Y-495300D02*
G01*
X4931918Y-514857D01*
D10*
X4199890Y-1400047D02*
G01*
X4099052Y-1400047D01*
X4000500Y-1498600D01*
X3937000Y-1498600D01*
X3860800Y-1574800D01*
X3530600Y-1574800D01*
X3405377Y-1700021D01*
X3005074Y-1700021D01*
X4601718Y-1066037D02*
G01*
X4397502Y-1270000D01*
X4140200Y-1270000D01*
X3962400Y-1447800D01*
X3898900Y-1447800D01*
X3822700Y-1524000D01*
X3365500Y-1524000D01*
X3310381Y-1468881D01*
X3310381Y-1401063D01*
X3009900Y-1282700D02*
G01*
X3009900Y-1346200D01*
X3074700Y-1411000D01*
X3254654Y-1345412D02*
G01*
X3173699Y-1426367D01*
X3173699Y-1509999D01*
D11*
X2235200Y-1270000D02*
G01*
X2235200Y-1320800D01*
X2159000Y-1397000D01*
X2006600Y-1397000D01*
X1549400Y-1397000D02*
G01*
X1574800Y-1397000D01*
X1879600Y-1397000D01*
X2006600Y-1397000D01*
D10*
X2032000Y-399034D02*
G01*
X2032000Y-304800D01*
X1981200Y-254000D01*
X1739900Y-254000D01*
X1663700Y-177800D01*
X1560576Y-177800D01*
X2032000Y-947089D02*
G01*
X2032000Y-812800D01*
X2032000Y-399034D02*
G01*
X2032000Y-431800D01*
X2197100Y-596900D01*
X1968500Y-533400D02*
G01*
X2032000Y-533400D01*
X2222500Y-723900D01*
X2247900Y-723900D01*
X1739889Y-1043000D02*
G01*
X1905000Y-1043000D01*
D11*
X2006600Y-1244600D02*
G01*
X1739900Y-1243076D01*
X2839313Y-1275486D02*
G01*
X3002686Y-1275486D01*
X3009900Y-1282700D01*
D10*
X2636113Y-1084986D02*
G01*
X2836189Y-1084986D01*
X2915208Y-1005967D01*
X2494686Y-1226413D02*
G01*
X2507386Y-1226413D01*
X2697886Y-1416913D01*
X1600200Y-723900D02*
G01*
X2032000Y-723900D01*
X2159000Y-850900D01*
X2159000Y-947165D01*
X1542188Y-424588D02*
G01*
X1560499Y-406278D01*
X1560499Y-165100D01*
X1683611Y-566011D02*
G01*
X1765300Y-647700D01*
X2032000Y-647700D01*
X3594861Y-1700021D02*
G01*
X3494277Y-1700021D01*
X3441700Y-1752600D01*
X3136900Y-1752600D01*
X3060700Y-1828800D01*
X2832100Y-1828800D01*
X2795015Y-1791715D01*
X2795015Y-1700021D01*
D11*
X6097524Y-1003300D02*
G01*
X6096000Y-1651000D01*
X6046977Y-1700021D01*
X5994908Y-1700021D01*
D10*
X2628900Y-1612900D02*
G01*
X2667000Y-1574800D01*
X3060700Y-1574800D01*
X3136900Y-1651000D01*
X3251200Y-1651000D01*
X3289300Y-1612900D01*
X3289300Y-1549400D01*
X4828590Y-865911D02*
G01*
X4882997Y-920318D01*
X4882997Y-1079500D01*
X4660900Y-433323D02*
G01*
X4456175Y-433323D01*
X4285995Y-603504D01*
X4229100Y-603504D01*
D11*
X5473700Y-541020D02*
G01*
X5377179Y-444500D01*
X4931918Y-444500D01*
X4931918Y-514857D01*
D10*
X5075681Y-850900D02*
G01*
X5075681Y-812800D01*
X5322824Y-812800D01*
X5322824Y-800100D01*
X4660900Y-433323D02*
G01*
X4751324Y-433323D01*
X4762500Y-444500D01*
X4762500Y-596900D01*
X4851400Y-685800D01*
X5003800Y-685800D01*
X5088381Y-601218D01*
X5088381Y-571500D01*
X5023002Y-1079500D02*
G01*
X5088509Y-1013993D01*
X5088509Y-863600D01*
X4229100Y-463397D02*
G01*
X4119603Y-463397D01*
X4068018Y-514982D01*
X4400041Y-1400047D02*
G01*
X4492752Y-1400047D01*
X4521200Y-1371600D01*
X4521200Y-1308100D01*
X4559300Y-1270000D01*
X4711700Y-1270000D01*
X4749800Y-1308100D01*
X4749800Y-1371600D01*
X4778247Y-1400047D01*
X4849875Y-1400047D01*
X4849875Y-1400047D02*
G01*
X4949952Y-1400047D01*
X4978400Y-1371600D01*
X4978400Y-1308100D01*
X5016500Y-1270000D01*
X5156200Y-1270000D01*
X5194300Y-1308100D01*
X5194300Y-1371600D01*
X5222747Y-1400047D01*
X5299963Y-1400047D01*
X5299963Y-1400047D02*
G01*
X5394452Y-1400047D01*
X5422900Y-1371600D01*
X5422900Y-1308100D01*
X5461000Y-1270000D01*
X5613400Y-1270000D01*
X5651500Y-1308100D01*
X5651500Y-1371600D01*
X5679947Y-1400047D01*
X5750052Y-1400047D01*
X4649977Y-1400047D02*
G01*
X4649977Y-1458721D01*
X4597400Y-1511300D01*
X4064000Y-1511300D01*
X3875277Y-1700021D01*
X3804920Y-1700021D01*
X2501900Y-533400D02*
G01*
X2521102Y-552602D01*
X2641600Y-552602D01*
X3084068Y-625094D02*
G01*
X3134868Y-675894D01*
X3134868Y-764031D01*
X2994406Y-904494D01*
X2898393Y-904494D01*
X2806700Y-812800D01*
X2654300Y-812800D01*
X2362200Y-1104900D01*
X1955800Y-1104900D01*
X1905000Y-1054100D01*
X1905000Y-947165D01*
D12*
X3804158Y-1119123D02*
G01*
X3637534Y-952500D01*
X3352800Y-952500D01*
X3289300Y-889000D01*
X3162300Y-889000D01*
D11*
X6097524Y-1003300D02*
G01*
X6097524Y-877823D01*
X5944870Y-725170D01*
X5798820Y-725170D01*
X6418579Y-494029D02*
G01*
X6418579Y-185420D01*
X6489700Y-114300D01*
X8064500Y-114300D01*
X5798820Y-468629D02*
G01*
X5798820Y-495300D01*
X5981700Y-495300D01*
X6070600Y-584200D01*
X6070600Y-698500D01*
X6297675Y-925576D01*
X6297675Y-1003300D01*
X5798820Y-265429D02*
G01*
X5518150Y-265429D01*
X5473700Y-220979D01*
D12*
X5322824Y-1079500D02*
G01*
X5322824Y-1128776D01*
X5283200Y-1168400D01*
X4800600Y-1168400D01*
X4762500Y-1130300D01*
X4762500Y-1003300D01*
X4681727Y-922528D01*
X4047743Y-922528D01*
X3759200Y-914400D01*
X3378200Y-914400D01*
X3289300Y-825500D01*
X3136900Y-825500D01*
X3022600Y-939800D01*
X3022600Y-1009904D01*
X2970784Y-1061720D01*
D10*
X5522975Y-1054100D02*
G01*
X5522975Y-1092200D01*
X5689600Y-1092200D01*
X5721604Y-1060195D01*
X5721604Y-946912D01*
X5473700Y-566420D02*
G01*
X5582920Y-566420D01*
X5638800Y-622300D01*
X5638800Y-787400D01*
X5689600Y-838200D01*
X5880100Y-838200D01*
X5911595Y-869695D01*
X5911595Y-946912D01*
X5228081Y-241300D02*
G01*
X5473700Y-241300D01*
X5473700Y-220979D01*
X4584700Y-633476D02*
G01*
X4584700Y-876300D01*
D12*
X4828540Y-865886D02*
G01*
X4828540Y-876300D01*
X4014215Y-876300D01*
X3949700Y-889000D01*
D10*
X3577843Y-454660D02*
G01*
X3644900Y-387604D01*
X3644900Y-317500D01*
X3784600Y-177800D01*
X3873500Y-177800D01*
X4013200Y-317500D01*
X5054600Y-317500D01*
X5219700Y-152400D01*
X6057900Y-152400D01*
X6146800Y-241300D01*
X6146800Y-635000D01*
X6438900Y-927100D01*
X6438900Y-1739900D01*
X3522218Y-399034D02*
G01*
X3581400Y-339852D01*
X3581400Y-292100D01*
X3746500Y-127000D01*
X3898900Y-127000D01*
X4038600Y-266700D01*
X5029200Y-266700D01*
X5194300Y-101600D01*
X6083300Y-101600D01*
X6223000Y-241300D01*
X6223000Y-622300D01*
X6515100Y-914400D01*
X6515100Y-1765300D01*
X6451600Y-1828800D01*
X5842000Y-1828800D01*
X5803900Y-1790700D01*
X5791200Y-1790700D01*
D17*
X5113909Y-571500D02*
G01*
X5113909Y-571500D01*
D15*
X2286000Y-901090D02*
G01*
X2286000Y-993089D01*
X2159000Y-901090D02*
G01*
X2159000Y-993089D01*
X2032000Y-901090D02*
G01*
X2032000Y-993089D01*
X1905000Y-901090D02*
G01*
X1905000Y-993089D01*
X2286000Y-353110D02*
G01*
X2286000Y-445112D01*
X2159000Y-353110D02*
G01*
X2159000Y-445112D01*
X2032000Y-353110D02*
G01*
X2032000Y-445112D01*
X1905000Y-353110D02*
G01*
X1905000Y-445112D01*
D17*
G01*
X4381500Y-1079500D03*
G01*
X4803190Y-865911D03*
G01*
X4601590Y-1078611D03*
G01*
X4157090Y-1077391D03*
D32*
G01*
X5113909Y-863600D03*
G36*
X3547412Y-334243D02*
G01*
X3457608Y-424047D01*
X3497122Y-463560D01*
X3586924Y-373758D01*
G37*
G36*
X3603089Y-389923D02*
G01*
X3513287Y-479724D01*
X3552799Y-519236D01*
X3642601Y-429435D01*
G37*
G36*
X3660564Y-447395D02*
G01*
X3570759Y-537197D01*
X3610274Y-576712D01*
X3700076Y-486907D01*
G37*
G36*
X3716240Y-503072D02*
G01*
X3626436Y-592876D01*
X3665951Y-632388D01*
X3755753Y-542587D01*
G37*
G36*
X3773713Y-560547D02*
G01*
X3683911Y-650349D01*
X3723424Y-689863D01*
X3813228Y-600059D01*
G37*
G36*
X3829392Y-616224D02*
G01*
X3739588Y-706026D01*
X3779103Y-745540D01*
X3868905Y-655736D01*
G37*
G36*
X3886865Y-673699D02*
G01*
X3797063Y-763501D01*
X3836576Y-803013D01*
X3926377Y-713211D01*
G37*
G36*
X3942542Y-729376D02*
G01*
X3852740Y-819177D01*
X3892252Y-858692D01*
X3982057Y-768888D01*
G37*
G36*
X3892252Y-941308D02*
G01*
X3852740Y-980823D01*
X3942542Y-1070625D01*
X3982057Y-1031112D01*
G37*
G36*
X3836576Y-996988D02*
G01*
X3797063Y-1036500D01*
X3886865Y-1126302D01*
X3926377Y-1086789D01*
G37*
G36*
X3779103Y-1054460D02*
G01*
X3739588Y-1093975D01*
X3829392Y-1183777D01*
X3868905Y-1144264D01*
G37*
G36*
X3723424Y-1110137D02*
G01*
X3683911Y-1149652D01*
X3773713Y-1239453D01*
X3813228Y-1199941D01*
G37*
G36*
X3665951Y-1167612D02*
G01*
X3626436Y-1207124D01*
X3716240Y-1296929D01*
X3755753Y-1257414D01*
G37*
G36*
X3610274Y-1223289D02*
G01*
X3570759Y-1262804D01*
X3660564Y-1352605D01*
X3700076Y-1313093D01*
G37*
G36*
X3552799Y-1280764D02*
G01*
X3513287Y-1320276D01*
X3603089Y-1410078D01*
X3642601Y-1370566D01*
G37*
G36*
X3497122Y-1336441D02*
G01*
X3457608Y-1375953D01*
X3547412Y-1465757D01*
X3586924Y-1426243D01*
G37*
G36*
X3335477Y-1336441D02*
G01*
X3245675Y-1426243D01*
X3285187Y-1465757D01*
X3374991Y-1375953D01*
G37*
G36*
X3279800Y-1280764D02*
G01*
X3189998Y-1370566D01*
X3229510Y-1410078D01*
X3319312Y-1320276D01*
G37*
G36*
X3222325Y-1223289D02*
G01*
X3132523Y-1313093D01*
X3172035Y-1352605D01*
X3261840Y-1262804D01*
G37*
G36*
X3166648Y-1167612D02*
G01*
X3076846Y-1257414D01*
X3116359Y-1296929D01*
X3206163Y-1207124D01*
G37*
G36*
X3109175Y-1110137D02*
G01*
X3019371Y-1199941D01*
X3058886Y-1239453D01*
X3148688Y-1149652D01*
G37*
G36*
X3053496Y-1054460D02*
G01*
X2963694Y-1144264D01*
X3003207Y-1183777D01*
X3093011Y-1093975D01*
G37*
G36*
X2996023Y-996988D02*
G01*
X2906222Y-1086789D01*
X2945734Y-1126302D01*
X3035536Y-1036500D01*
G37*
G36*
X2940347Y-941308D02*
G01*
X2850542Y-1031112D01*
X2890057Y-1070625D01*
X2979859Y-980823D01*
G37*
G36*
X2890057Y-729376D02*
G01*
X2850542Y-768888D01*
X2940347Y-858692D01*
X2979859Y-819177D01*
G37*
G36*
X2945734Y-673699D02*
G01*
X2906222Y-713211D01*
X2996023Y-803013D01*
X3035536Y-763501D01*
G37*
G36*
X3003207Y-616224D02*
G01*
X2963694Y-655736D01*
X3053496Y-745540D01*
X3093011Y-706026D01*
G37*
G36*
X3058886Y-560547D02*
G01*
X3019371Y-600059D01*
X3109175Y-689863D01*
X3148688Y-650349D01*
G37*
G36*
X3116359Y-503072D02*
G01*
X3076846Y-542587D01*
X3166648Y-632388D01*
X3206163Y-592876D01*
G37*
G36*
X3172035Y-447395D02*
G01*
X3132523Y-486907D01*
X3222325Y-576712D01*
X3261840Y-537197D01*
G37*
G36*
X3229510Y-389923D02*
G01*
X3189998Y-429435D01*
X3279800Y-519236D01*
X3319312Y-479724D01*
G37*
G36*
X3285187Y-334243D02*
G01*
X3245675Y-373758D01*
X3335477Y-463560D01*
X3374991Y-424047D01*
G37*
G36*
X2386098Y-1937598D02*
G01*
X2386096Y-1807598D01*
X2326098Y-1807598D01*
X2326098Y-1937598D01*
G37*
G36*
X2481099Y-1697598D02*
G01*
X2481102Y-1567599D01*
X2421097Y-1567599D01*
X2421100Y-1697598D01*
G37*
G36*
X2576101Y-1937598D02*
G01*
X2576101Y-1807598D01*
X2516103Y-1807598D01*
X2516101Y-1937598D01*
G37*
G36*
X8688057Y-1568846D02*
G01*
X8758765Y-1498135D01*
X8649164Y-1388534D01*
X8578453Y-1459242D01*
G37*
G36*
X8546635Y-1710265D02*
G01*
X8617346Y-1639557D01*
X8507742Y-1529953D01*
X8437034Y-1600664D01*
G37*
G36*
X5881601Y-881801D02*
G01*
X5881603Y-1011801D01*
X5941601Y-1011801D01*
X5941601Y-881801D01*
G37*
G36*
X5786600Y-1121801D02*
G01*
X5786597Y-1251800D01*
X5846602Y-1251800D01*
X5846599Y-1121801D01*
G37*
G36*
X5691598Y-881801D02*
G01*
X5691598Y-1011801D01*
X5751596Y-1011801D01*
X5751598Y-881801D01*
G37*
G36*
X6347599Y-976599D02*
G01*
X6247599Y-976599D01*
X6247599Y-1131600D01*
X6347599Y-1131600D01*
G37*
G36*
X6147600Y-976599D02*
G01*
X6047600Y-976599D01*
X6047600Y-1131600D01*
X6147600Y-1131600D01*
G37*
G36*
X5929947Y-1769976D02*
G01*
X6059995Y-1769976D01*
X6059995Y-1630022D01*
X5929947Y-1630022D01*
G37*
G36*
X6140005Y-1769976D02*
G01*
X6270053Y-1769976D01*
X6270053Y-1630022D01*
X6140005Y-1630022D01*
G37*
G36*
X5129946Y-1769976D02*
G01*
X5259994Y-1769976D01*
X5259994Y-1630022D01*
X5129946Y-1630022D01*
G37*
G36*
X5340004Y-1769976D02*
G01*
X5470052Y-1769976D01*
X5470052Y-1630022D01*
X5340004Y-1630022D01*
G37*
G36*
X4329948Y-1769976D02*
G01*
X4459996Y-1769976D01*
X4459996Y-1630022D01*
X4329948Y-1630022D01*
G37*
G36*
X4540006Y-1769976D02*
G01*
X4670054Y-1769976D01*
X4670054Y-1630022D01*
X4540006Y-1630022D01*
G37*
G36*
X3529947Y-1769976D02*
G01*
X3659995Y-1769976D01*
X3659995Y-1630022D01*
X3529947Y-1630022D01*
G37*
G36*
X3740005Y-1769976D02*
G01*
X3870053Y-1769976D01*
X3870053Y-1630022D01*
X3740005Y-1630022D01*
G37*
G36*
X2729946Y-1769976D02*
G01*
X2859994Y-1769976D01*
X2859994Y-1630022D01*
X2729946Y-1630022D01*
G37*
G36*
X2940004Y-1769976D02*
G01*
X3070052Y-1769976D01*
X3070052Y-1630022D01*
X2940004Y-1630022D01*
G37*
G36*
X5472899Y-1157000D02*
G01*
X5572899Y-1157000D01*
X5572899Y-1001999D01*
X5472899Y-1001999D01*
G37*
G36*
X5272900Y-1157000D02*
G01*
X5372900Y-1157000D01*
X5372900Y-1001999D01*
X5272900Y-1001999D01*
G37*
G36*
X6150000Y-1477500D02*
G01*
X6250000Y-1477500D01*
X6250000Y-1322499D01*
X6150000Y-1322499D01*
G37*
G36*
X5950000Y-1477500D02*
G01*
X6050000Y-1477500D01*
X6050000Y-1322499D01*
X5950000Y-1322499D01*
G37*
G36*
X5599998Y-1322499D02*
G01*
X5499999Y-1322499D01*
X5499999Y-1477500D01*
X5599998Y-1477500D01*
G37*
G36*
X5799998Y-1322499D02*
G01*
X5699998Y-1322499D01*
X5699998Y-1477500D01*
X5799998Y-1477500D01*
G37*
G36*
X5149999Y-1322499D02*
G01*
X5050000Y-1322499D01*
X5050000Y-1477500D01*
X5149999Y-1477500D01*
G37*
G36*
X5349999Y-1322499D02*
G01*
X5249999Y-1322499D01*
X5249999Y-1477500D01*
X5349999Y-1477500D01*
G37*
G36*
X4700000Y-1322499D02*
G01*
X4600000Y-1322499D01*
X4600000Y-1477500D01*
X4700000Y-1477500D01*
G37*
G36*
X4900000Y-1322499D02*
G01*
X4800000Y-1322499D01*
X4800000Y-1477500D01*
X4900000Y-1477500D01*
G37*
G36*
X4249999Y-1322499D02*
G01*
X4149999Y-1322499D01*
X4149999Y-1477500D01*
X4249999Y-1477500D01*
G37*
G36*
X4449998Y-1322499D02*
G01*
X4349998Y-1322499D01*
X4349998Y-1477500D01*
X4449998Y-1477500D01*
G37*
G36*
X5568701Y-626399D02*
G01*
X5568701Y-506399D01*
X5378698Y-506399D01*
X5378698Y-626399D01*
G37*
G36*
X5568701Y-306384D02*
G01*
X5568701Y-186385D01*
X5378698Y-186385D01*
X5378698Y-306384D01*
G37*
G36*
X5472899Y-903000D02*
G01*
X5572899Y-903000D01*
X5572899Y-747999D01*
X5472899Y-747999D01*
G37*
G36*
X5272900Y-903000D02*
G01*
X5372900Y-903000D01*
X5372900Y-747999D01*
X5272900Y-747999D01*
G37*
G36*
X1410500Y-87599D02*
G01*
X1310500Y-87599D01*
X1310500Y-242600D01*
X1410500Y-242600D01*
G37*
G36*
X1610499Y-87599D02*
G01*
X1510499Y-87599D01*
X1510499Y-242600D01*
X1610499Y-242600D01*
G37*
G36*
X760600Y-247799D02*
G01*
X880600Y-247799D01*
X880600Y-107800D01*
X760600Y-107800D01*
G37*
G36*
X1100599Y-247799D02*
G01*
X1220599Y-247799D01*
X1220599Y-107800D01*
X1100599Y-107800D01*
G37*
G36*
X1580413Y-1556400D02*
G01*
X1780412Y-1556400D01*
X1780412Y-1456400D01*
X1580413Y-1456400D01*
G37*
G36*
X2080412Y-1556400D02*
G01*
X2280411Y-1556400D01*
X2280411Y-1456400D01*
X2080412Y-1456400D01*
G37*
G36*
X1580413Y-1896399D02*
G01*
X1780412Y-1896399D01*
X1780412Y-1796399D01*
X1580413Y-1796399D01*
G37*
G36*
X3725799Y-309638D02*
G01*
X3782367Y-366207D01*
X3846007Y-302567D01*
X3789438Y-245998D01*
G37*
G36*
X3824792Y-408632D02*
G01*
X3881361Y-465201D01*
X3945000Y-401561D01*
X3888432Y-344992D01*
G37*
G36*
X2418798Y-588500D02*
G01*
X2418798Y-668500D01*
X2508801Y-668500D01*
X2508801Y-588500D01*
G37*
G36*
X2418798Y-728499D02*
G01*
X2418798Y-808499D01*
X2508801Y-808499D01*
X2508801Y-728499D01*
G37*
G36*
X5906770Y-779779D02*
G01*
X5906770Y-670560D01*
X5690870Y-670560D01*
X5690870Y-779779D01*
G37*
G36*
X5906770Y-548639D02*
G01*
X5906770Y-439420D01*
X5690870Y-439420D01*
X5690870Y-548639D01*
G37*
G36*
X5906770Y-320039D02*
G01*
X5906770Y-210820D01*
X5690870Y-210820D01*
X5690870Y-320039D01*
G37*
G36*
X6526529Y-669289D02*
G01*
X6526529Y-318770D01*
X6310629Y-318770D01*
X6310629Y-669289D01*
G37*
G36*
X2950392Y-406603D02*
G01*
X2950392Y-431596D01*
X3005409Y-431596D01*
X3005409Y-406603D01*
G37*
G36*
X2950392Y-341602D02*
G01*
X2950392Y-366595D01*
X3005409Y-366595D01*
X3005409Y-341602D01*
G37*
G36*
X2760390Y-341602D02*
G01*
X2760390Y-366595D01*
X2815407Y-366595D01*
X2815407Y-341602D01*
G37*
G36*
X2760390Y-406603D02*
G01*
X2760390Y-431596D01*
X2815407Y-431596D01*
X2815407Y-406603D01*
G37*
G36*
X2760390Y-471604D02*
G01*
X2760390Y-496597D01*
X2815407Y-496597D01*
X2815407Y-471604D01*
G37*
G36*
X2950392Y-471604D02*
G01*
X2950392Y-496597D01*
X3005409Y-496597D01*
X3005409Y-471604D01*
G37*
G36*
X2850400Y-351599D02*
G01*
X2850400Y-486600D01*
X2915399Y-486600D01*
X2915399Y-351599D01*
G37*
G36*
X789028Y-393616D02*
G01*
X690392Y-191386D01*
X553417Y-258193D01*
X652051Y-460423D01*
G37*
G36*
X1446270Y-1741167D02*
G01*
X1347637Y-1538940D01*
X1210663Y-1605747D01*
X1309296Y-1807974D01*
G37*
G36*
X4662200Y-483400D02*
G01*
X4662200Y-383400D01*
X4507199Y-383400D01*
X4507199Y-483400D01*
G37*
G36*
X4662200Y-683399D02*
G01*
X4662200Y-583399D01*
X4507199Y-583399D01*
X4507199Y-683399D01*
G37*
G36*
X2686601Y-592599D02*
G01*
X2686601Y-512599D01*
X2596598Y-512599D01*
X2596598Y-592599D01*
G37*
G36*
X2686601Y-452600D02*
G01*
X2686601Y-372600D01*
X2596598Y-372600D01*
X2596598Y-452600D01*
G37*
G36*
X3233800Y-1506461D02*
G01*
X3177232Y-1449892D01*
X3113592Y-1513532D01*
X3170161Y-1570101D01*
G37*
G36*
X3134807Y-1407467D02*
G01*
X3078238Y-1350898D01*
X3014599Y-1414538D01*
X3071167Y-1471107D01*
G37*
G36*
X5062999Y-1034498D02*
G01*
X4982999Y-1034498D01*
X4982999Y-1124501D01*
X5062999Y-1124501D01*
G37*
G36*
X4923000Y-1034498D02*
G01*
X4843000Y-1034498D01*
X4843000Y-1124501D01*
X4923000Y-1124501D01*
G37*
G36*
X1593453Y-585457D02*
G01*
X1664164Y-656165D01*
X1773765Y-546564D01*
X1703057Y-475853D01*
G37*
G36*
X1452034Y-444035D02*
G01*
X1522742Y-514746D01*
X1632346Y-405142D01*
X1561635Y-334434D01*
G37*
G36*
X2475242Y-1136253D02*
G01*
X2404534Y-1206964D01*
X2514135Y-1316565D01*
X2584846Y-1245857D01*
G37*
G36*
X2616664Y-994834D02*
G01*
X2545953Y-1065542D01*
X2655557Y-1175146D01*
X2726265Y-1104435D01*
G37*
G36*
X2678442Y-1326753D02*
G01*
X2607734Y-1397464D01*
X2717335Y-1507065D01*
X2788046Y-1436357D01*
G37*
G36*
X2819864Y-1185334D02*
G01*
X2749153Y-1256042D01*
X2858757Y-1365646D01*
X2929465Y-1294935D01*
G37*
G36*
X1830100Y-1093000D02*
G01*
X1830100Y-993000D01*
X1675099Y-993000D01*
X1675099Y-1093000D01*
G37*
G36*
X1830100Y-1292999D02*
G01*
X1830100Y-1192999D01*
X1675099Y-1192999D01*
X1675099Y-1292999D01*
G37*
G36*
X4209498Y-423400D02*
G01*
X4209498Y-503400D01*
X4299501Y-503400D01*
X4299501Y-423400D01*
G37*
G36*
X4209498Y-563399D02*
G01*
X4209498Y-643399D01*
X4299501Y-643399D01*
X4299501Y-563399D01*
G37*
D11*
G75*
G01*
X8064500Y-114300D02*
G02*
X8674100Y-723900I0J-609600D01*
G75*
G01*
X8013700Y-1905000D02*
G03*
X8558065Y-1645077I0J700001D01*
D12*
G75*
G01*
X1328471Y-1673454D02*
G03*
X1295400Y-1706524I0J-33070D01*
D11*
G75*
G01*
X1308100Y-1612900D02*
G03*
X1540960Y-1400030I-378289J647610D01*
D10*
G75*
G01*
X749300Y-393700D02*
G02*
X1601688Y-723219I259502J-595953D01*
D30*
G01*
X2208911Y-142519D03*
G01*
X1778888Y-142519D03*
G01*
X2915031Y-142519D03*
G01*
X2485009Y-142519D03*
G01*
X3615004Y-142519D03*
G01*
X3184982Y-142519D03*
D31*
G01*
X8300008Y-1575003D03*
G01*
X8300008Y-1325016D03*
G01*
X8300008Y-775004D03*
G01*
X8300008Y-525018D03*
D16*
G01*
X1993900Y-177800D03*
G01*
X2705100Y-177800D03*
G01*
X3403600Y-177800D03*
G01*
X2717800Y-1866900D03*
G01*
X4483100Y-1879600D03*
G01*
X2971800Y-1892300D03*
G01*
X4102100Y-1854200D03*
G01*
X3149600Y-1828800D03*
G01*
X4229100Y-1854200D03*
G01*
X2628900Y-1612900D03*
G01*
X3289300Y-1549400D03*
G01*
X3162300Y-889000D03*
G01*
X6438900Y-1739900D03*
G01*
X5791200Y-1790700D03*
G01*
X2235200Y-1270000D03*
G01*
X2006600Y-1397000D03*
G01*
X2197100Y-596900D03*
G01*
X2501900Y-533400D03*
G01*
X3962400Y-596900D03*
G01*
X2247900Y-723900D03*
G01*
X1968500Y-533400D03*
G01*
X5397500Y-1905000D03*
G01*
X3009900Y-1282700D03*
G01*
X3886200Y-1282700D03*
G01*
X3759200Y-1346200D03*
G01*
X3708400Y-774700D03*
G01*
X3416300Y-1270000D03*
G01*
X3416300Y-1460500D03*
G01*
X2425700Y-444500D03*
G01*
X2235200Y-812800D03*
G01*
X5245100Y-635000D03*
G01*
X3962400Y-469900D03*
G01*
X2133600Y-1828800D03*
G01*
X2032000Y-812800D03*
G01*
X2032000Y-647700D03*
G01*
X2006600Y-1244600D03*
G01*
X4991100Y-1498600D03*
G01*
X4991100Y-1892300D03*
G01*
X2273300Y-1689100D03*
G01*
X469900Y-1638300D03*
G01*
X393700Y-482600D03*
D30*
X4068013Y-184983D02*
G01*
X4068013Y-104983D01*
X4931994Y-184983D02*
G01*
X4931994Y-104983D01*
X4068013Y-569986D02*
G01*
X4068013Y-459986D01*
X4931994Y-569986D02*
G01*
X4931994Y-459986D01*
M02*
