G04 Layer: TopSolderMaskLayer*
G04 EasyEDA v6.4.24, 2021-09-25T18:25:05+02:00*
G04 d15503250396465d85bfe37af418053a,f5a38c858c354eb5b90fd3f81420cce3,10*
G04 Gerber Generator version 0.2*
G04 Scale: 100 percent, Rotated: No, Reflected: No *
G04 Dimensions in millimeters *
G04 leading zeros omitted , absolute positions ,4 integer and 5 decimal *
%FSLAX45Y45*%
%MOMM*%

%ADD52C,1.2032*%
%ADD53C,0.8032*%
%ADD54C,1.7032*%
%ADD63R,1.5032X1.2032*%
%ADD64C,1.2000*%
%ADD65C,1.7272*%

%LPD*%
D52*
X4068013Y-184983D02*
G01*
X4068013Y-104983D01*
X4931994Y-184983D02*
G01*
X4931994Y-104983D01*
X4068013Y-569986D02*
G01*
X4068013Y-459986D01*
X4931994Y-569986D02*
G01*
X4931994Y-459986D01*
D53*
X2319980Y-1485900D02*
G01*
X2439979Y-1485900D01*
X2319980Y-1358900D02*
G01*
X2439979Y-1358900D01*
X2319980Y-1231900D02*
G01*
X2439979Y-1231900D01*
X2319980Y-1104900D02*
G01*
X2439979Y-1104900D01*
X2319980Y-977900D02*
G01*
X2439979Y-977900D01*
X2319980Y-850900D02*
G01*
X2439979Y-850900D01*
X2319980Y-723900D02*
G01*
X2439979Y-723900D01*
X2319980Y-596900D02*
G01*
X2439979Y-596900D01*
X1725620Y-1485900D02*
G01*
X1845619Y-1485900D01*
X1725620Y-1358900D02*
G01*
X1845619Y-1358900D01*
X1725620Y-1231900D02*
G01*
X1845619Y-1231900D01*
X1725620Y-1104900D02*
G01*
X1845619Y-1104900D01*
X1725620Y-977900D02*
G01*
X1845619Y-977900D01*
X1725620Y-850900D02*
G01*
X1845619Y-850900D01*
X1725620Y-723900D02*
G01*
X1845619Y-723900D01*
X1725620Y-596900D02*
G01*
X1845619Y-596900D01*
X2717800Y-1646880D02*
G01*
X2717800Y-1766879D01*
X2844800Y-1646880D02*
G01*
X2844800Y-1766879D01*
X2971800Y-1646880D02*
G01*
X2971800Y-1766879D01*
X3098800Y-1646880D02*
G01*
X3098800Y-1766879D01*
X3225800Y-1646880D02*
G01*
X3225800Y-1766879D01*
X3352800Y-1646880D02*
G01*
X3352800Y-1766879D01*
X3479800Y-1646880D02*
G01*
X3479800Y-1766879D01*
X3606800Y-1646880D02*
G01*
X3606800Y-1766879D01*
X2717800Y-1052520D02*
G01*
X2717800Y-1172519D01*
X2844800Y-1052520D02*
G01*
X2844800Y-1172519D01*
X2971800Y-1052520D02*
G01*
X2971800Y-1172519D01*
X3098800Y-1052520D02*
G01*
X3098800Y-1172519D01*
X3225800Y-1052520D02*
G01*
X3225800Y-1172519D01*
X3352800Y-1052520D02*
G01*
X3352800Y-1172519D01*
X3479800Y-1052520D02*
G01*
X3479800Y-1172519D01*
X3606800Y-1052520D02*
G01*
X3606800Y-1172519D01*
X3848100Y-1646880D02*
G01*
X3848100Y-1766879D01*
X3975100Y-1646880D02*
G01*
X3975100Y-1766879D01*
X4102100Y-1646880D02*
G01*
X4102100Y-1766879D01*
X4229100Y-1646880D02*
G01*
X4229100Y-1766879D01*
X4356100Y-1646880D02*
G01*
X4356100Y-1766879D01*
X4483100Y-1646880D02*
G01*
X4483100Y-1766879D01*
X4610100Y-1646880D02*
G01*
X4610100Y-1766879D01*
X4737100Y-1646880D02*
G01*
X4737100Y-1766879D01*
X3848100Y-1052520D02*
G01*
X3848100Y-1172519D01*
X3975100Y-1052520D02*
G01*
X3975100Y-1172519D01*
X4102100Y-1052520D02*
G01*
X4102100Y-1172519D01*
X4229100Y-1052520D02*
G01*
X4229100Y-1172519D01*
X4356100Y-1052520D02*
G01*
X4356100Y-1172519D01*
X4483100Y-1052520D02*
G01*
X4483100Y-1172519D01*
X4610100Y-1052520D02*
G01*
X4610100Y-1172519D01*
X4737100Y-1052520D02*
G01*
X4737100Y-1172519D01*
D54*
G01*
X1028700Y-203200D03*
G01*
X1295400Y-203200D03*
G01*
X762000Y-203200D03*
G01*
X762000Y-1775002D03*
G01*
X1028700Y-1775002D03*
G01*
X1295400Y-1775002D03*
G01*
X1562100Y-1775002D03*
G01*
X1562100Y-203200D03*
G01*
X2717800Y-685800D03*
G01*
X2882900Y-863600D03*
G01*
X2971800Y-685800D03*
G01*
X3225800Y-660400D03*
G01*
X3352800Y-863600D03*
G01*
X3479800Y-660400D03*
G01*
X3606800Y-863600D03*
G01*
X5003800Y-1320800D03*
G01*
X5003800Y-1092200D03*
G01*
X5003800Y-863600D03*
G01*
X4749800Y-863600D03*
G01*
X4470400Y-863600D03*
G01*
X4216400Y-863600D03*
G01*
X3975100Y-863600D03*
G36*
X5160009Y-363728D02*
G01*
X5160009Y-93471D01*
X5330190Y-93471D01*
X5330190Y-363728D01*
G37*
G36*
X1949958Y-1718818D02*
G01*
X1949958Y-1608581D01*
X2050288Y-1608581D01*
X2050288Y-1718818D01*
G37*
G36*
X2089911Y-1718818D02*
G01*
X2089911Y-1608581D01*
X2190241Y-1608581D01*
X2190241Y-1718818D01*
G37*
G36*
X3334258Y-1947418D02*
G01*
X3334258Y-1837181D01*
X3434588Y-1837181D01*
X3434588Y-1947418D01*
G37*
G36*
X3474211Y-1947418D02*
G01*
X3474211Y-1837181D01*
X3574541Y-1837181D01*
X3574541Y-1947418D01*
G37*
G36*
X4859781Y-1618487D02*
G01*
X4859781Y-1518157D01*
X4970018Y-1518157D01*
X4970018Y-1618487D01*
G37*
G36*
X4859781Y-1758442D02*
G01*
X4859781Y-1658112D01*
X4970018Y-1658112D01*
X4970018Y-1758442D01*
G37*
G36*
X5745988Y-531876D02*
G01*
X5745988Y-386587D01*
X5836411Y-386587D01*
X5836411Y-531876D01*
G37*
G36*
X5840984Y-781812D02*
G01*
X5840984Y-636523D01*
X5931408Y-636523D01*
X5931408Y-781812D01*
G37*
G36*
X5650991Y-781812D02*
G01*
X5650991Y-636523D01*
X5741415Y-636523D01*
X5741415Y-781812D01*
G37*
G36*
X5733288Y-1268476D02*
G01*
X5733288Y-1123187D01*
X5823711Y-1123187D01*
X5823711Y-1268476D01*
G37*
G36*
X5828284Y-1518412D02*
G01*
X5828284Y-1373123D01*
X5918708Y-1373123D01*
X5918708Y-1518412D01*
G37*
G36*
X5638291Y-1518412D02*
G01*
X5638291Y-1373123D01*
X5728715Y-1373123D01*
X5728715Y-1518412D01*
G37*
G36*
X5487670Y-1176273D02*
G01*
X5487670Y-1055878D01*
X5662929Y-1055878D01*
X5662929Y-1176273D01*
G37*
G36*
X5487670Y-976121D02*
G01*
X5487670Y-855726D01*
X5662929Y-855726D01*
X5662929Y-976121D01*
G37*
G36*
X5487670Y-388873D02*
G01*
X5487670Y-268478D01*
X5662929Y-268478D01*
X5662929Y-388873D01*
G37*
G36*
X5487670Y-188721D02*
G01*
X5487670Y-68326D01*
X5662929Y-68326D01*
X5662929Y-188721D01*
G37*
G36*
X5472429Y-1646681D02*
G01*
X5387340Y-1561592D01*
X5511291Y-1437639D01*
X5596381Y-1522729D01*
G37*
G36*
X5613908Y-1788160D02*
G01*
X5528818Y-1703070D01*
X5652770Y-1579118D01*
X5737859Y-1664207D01*
G37*
G36*
X6037325Y-1802129D02*
G01*
X6037325Y-1626870D01*
X6157722Y-1626870D01*
X6157722Y-1802129D01*
G37*
G36*
X6237477Y-1802129D02*
G01*
X6237477Y-1626870D01*
X6357874Y-1626870D01*
X6357874Y-1802129D01*
G37*
G36*
X6338570Y-388873D02*
G01*
X6338570Y-268478D01*
X6513829Y-268478D01*
X6513829Y-388873D01*
G37*
G36*
X6338570Y-188721D02*
G01*
X6338570Y-68326D01*
X6513829Y-68326D01*
X6513829Y-188721D01*
G37*
G36*
X6338570Y-1176273D02*
G01*
X6338570Y-1055878D01*
X6513829Y-1055878D01*
X6513829Y-1176273D01*
G37*
G36*
X6338570Y-976121D02*
G01*
X6338570Y-855726D01*
X6513829Y-855726D01*
X6513829Y-976121D01*
G37*
G36*
X6152388Y-858012D02*
G01*
X6152388Y-712723D01*
X6242811Y-712723D01*
X6242811Y-858012D01*
G37*
G36*
X6057391Y-608076D02*
G01*
X6057391Y-462787D01*
X6147815Y-462787D01*
X6147815Y-608076D01*
G37*
G36*
X6247384Y-608076D02*
G01*
X6247384Y-462787D01*
X6337808Y-462787D01*
X6337808Y-608076D01*
G37*
G36*
X6152388Y-1268476D02*
G01*
X6152388Y-1123187D01*
X6242811Y-1123187D01*
X6242811Y-1268476D01*
G37*
G36*
X6247384Y-1518412D02*
G01*
X6247384Y-1373123D01*
X6337808Y-1373123D01*
X6337808Y-1518412D01*
G37*
G36*
X6057391Y-1518412D02*
G01*
X6057391Y-1373123D01*
X6147815Y-1373123D01*
X6147815Y-1518412D01*
G37*
G36*
X1778762Y-342645D02*
G01*
X1778762Y-202437D01*
X1869186Y-202437D01*
X1869186Y-342645D01*
G37*
G36*
X2118613Y-342645D02*
G01*
X2118613Y-202437D01*
X2209038Y-202437D01*
X2209038Y-342645D01*
G37*
G36*
X2138679Y-92710D02*
G01*
X2138679Y-2286D01*
X2268981Y-2286D01*
X2268981Y-92710D01*
G37*
G36*
X1718818Y-92710D02*
G01*
X1718818Y-2286D01*
X1849120Y-2286D01*
X1849120Y-92710D01*
G37*
D63*
G01*
X1993900Y-302488D03*
D64*
G01*
X2208911Y-142519D03*
G01*
X1778888Y-142519D03*
G36*
X2484881Y-342645D02*
G01*
X2484881Y-202437D01*
X2575052Y-202437D01*
X2575052Y-342645D01*
G37*
G36*
X2824734Y-342645D02*
G01*
X2824734Y-202437D01*
X2915158Y-202437D01*
X2915158Y-342645D01*
G37*
G36*
X2844800Y-92710D02*
G01*
X2844800Y-2286D01*
X2975102Y-2286D01*
X2975102Y-92710D01*
G37*
G36*
X2424938Y-92710D02*
G01*
X2424938Y-2286D01*
X2555240Y-2286D01*
X2555240Y-92710D01*
G37*
D63*
G01*
X2699994Y-302488D03*
D64*
G01*
X2915031Y-142519D03*
G01*
X2485009Y-142519D03*
G36*
X3184906Y-342645D02*
G01*
X3184906Y-202437D01*
X3275075Y-202437D01*
X3275075Y-342645D01*
G37*
G36*
X3524758Y-342645D02*
G01*
X3524758Y-202437D01*
X3615181Y-202437D01*
X3615181Y-342645D01*
G37*
G36*
X3544824Y-92710D02*
G01*
X3544824Y-2286D01*
X3675125Y-2286D01*
X3675125Y-92710D01*
G37*
G36*
X3124961Y-92710D02*
G01*
X3124961Y-2286D01*
X3255263Y-2286D01*
X3255263Y-92710D01*
G37*
G36*
X3324859Y-362712D02*
G01*
X3324859Y-242315D01*
X3475227Y-242315D01*
X3475227Y-362712D01*
G37*
G01*
X3615004Y-142519D03*
G01*
X3184982Y-142519D03*
D65*
G01*
X8300008Y-1575003D03*
G01*
X8300008Y-1325016D03*
G01*
X8300008Y-775004D03*
G01*
X8300008Y-525018D03*
G36*
X4719827Y-625094D02*
G01*
X4719827Y-484886D01*
X4830063Y-484886D01*
X4830063Y-625094D01*
G37*
G36*
X4601718Y-625094D02*
G01*
X4601718Y-484886D01*
X4702047Y-484886D01*
X4702047Y-625094D01*
G37*
G36*
X4504943Y-625094D02*
G01*
X4504943Y-484886D01*
X4595113Y-484886D01*
X4595113Y-625094D01*
G37*
G36*
X4404868Y-625094D02*
G01*
X4404868Y-484886D01*
X4495038Y-484886D01*
X4495038Y-625094D01*
G37*
G36*
X4297934Y-625094D02*
G01*
X4297934Y-484886D01*
X4398263Y-484886D01*
X4398263Y-625094D01*
G37*
G36*
X4169918Y-625094D02*
G01*
X4169918Y-484886D01*
X4280154Y-484886D01*
X4280154Y-625094D01*
G37*
G36*
X5783072Y-351789D02*
G01*
X5783072Y-181610D01*
X6053327Y-181610D01*
X6053327Y-351789D01*
G37*
G36*
X5871972Y-1075689D02*
G01*
X5871972Y-905510D01*
X6142227Y-905510D01*
X6142227Y-1075689D01*
G37*
M02*
