G04 Layer: BottomPasteMaskLayer*
G04 EasyEDA v6.4.24, 2021-09-25T18:25:05+02:00*
G04 d15503250396465d85bfe37af418053a,f5a38c858c354eb5b90fd3f81420cce3,10*
G04 Gerber Generator version 0.2*
G04 Scale: 100 percent, Rotated: No, Reflected: No *
G04 Dimensions in millimeters *
G04 leading zeros omitted , absolute positions ,4 integer and 5 decimal *
%FSLAX45Y45*%
%MOMM*%

%ADD15C,0.6000*%
%ADD17C,1.5000*%
%ADD32R,1.5000X1.5000*%

%LPD*%
D17*
X5113909Y-571500D02*
G01*
X5113909Y-571500D01*
D15*
X2286000Y-901090D02*
G01*
X2286000Y-993089D01*
X2159000Y-901090D02*
G01*
X2159000Y-993089D01*
X2032000Y-901090D02*
G01*
X2032000Y-993089D01*
X1905000Y-901090D02*
G01*
X1905000Y-993089D01*
X2286000Y-353110D02*
G01*
X2286000Y-445112D01*
X2159000Y-353110D02*
G01*
X2159000Y-445112D01*
X2032000Y-353110D02*
G01*
X2032000Y-445112D01*
X1905000Y-353110D02*
G01*
X1905000Y-445112D01*
D17*
G01*
X4381500Y-1079500D03*
G01*
X4803190Y-865911D03*
G01*
X4601590Y-1078611D03*
G01*
X4157090Y-1077391D03*
D32*
G01*
X5113909Y-863600D03*
G36*
X3547412Y-334243D02*
G01*
X3457608Y-424047D01*
X3497122Y-463560D01*
X3586924Y-373758D01*
G37*
G36*
X3603089Y-389923D02*
G01*
X3513287Y-479724D01*
X3552799Y-519236D01*
X3642601Y-429435D01*
G37*
G36*
X3660564Y-447395D02*
G01*
X3570759Y-537197D01*
X3610274Y-576712D01*
X3700076Y-486907D01*
G37*
G36*
X3716240Y-503072D02*
G01*
X3626436Y-592876D01*
X3665951Y-632388D01*
X3755753Y-542587D01*
G37*
G36*
X3773713Y-560547D02*
G01*
X3683911Y-650349D01*
X3723424Y-689863D01*
X3813228Y-600059D01*
G37*
G36*
X3829392Y-616224D02*
G01*
X3739588Y-706026D01*
X3779103Y-745540D01*
X3868905Y-655736D01*
G37*
G36*
X3886865Y-673699D02*
G01*
X3797063Y-763501D01*
X3836576Y-803013D01*
X3926377Y-713211D01*
G37*
G36*
X3942542Y-729376D02*
G01*
X3852740Y-819177D01*
X3892252Y-858692D01*
X3982057Y-768888D01*
G37*
G36*
X3892252Y-941308D02*
G01*
X3852740Y-980823D01*
X3942542Y-1070625D01*
X3982057Y-1031112D01*
G37*
G36*
X3836576Y-996988D02*
G01*
X3797063Y-1036500D01*
X3886865Y-1126302D01*
X3926377Y-1086789D01*
G37*
G36*
X3779103Y-1054460D02*
G01*
X3739588Y-1093975D01*
X3829392Y-1183777D01*
X3868905Y-1144264D01*
G37*
G36*
X3723424Y-1110137D02*
G01*
X3683911Y-1149652D01*
X3773713Y-1239453D01*
X3813228Y-1199941D01*
G37*
G36*
X3665951Y-1167612D02*
G01*
X3626436Y-1207124D01*
X3716240Y-1296929D01*
X3755753Y-1257414D01*
G37*
G36*
X3610274Y-1223289D02*
G01*
X3570759Y-1262804D01*
X3660564Y-1352605D01*
X3700076Y-1313093D01*
G37*
G36*
X3552799Y-1280764D02*
G01*
X3513287Y-1320276D01*
X3603089Y-1410078D01*
X3642601Y-1370566D01*
G37*
G36*
X3497122Y-1336441D02*
G01*
X3457608Y-1375953D01*
X3547412Y-1465757D01*
X3586924Y-1426243D01*
G37*
G36*
X3335477Y-1336441D02*
G01*
X3245675Y-1426243D01*
X3285187Y-1465757D01*
X3374991Y-1375953D01*
G37*
G36*
X3279800Y-1280764D02*
G01*
X3189998Y-1370566D01*
X3229510Y-1410078D01*
X3319312Y-1320276D01*
G37*
G36*
X3222325Y-1223289D02*
G01*
X3132523Y-1313093D01*
X3172035Y-1352605D01*
X3261840Y-1262804D01*
G37*
G36*
X3166648Y-1167612D02*
G01*
X3076846Y-1257414D01*
X3116359Y-1296929D01*
X3206163Y-1207124D01*
G37*
G36*
X3109175Y-1110137D02*
G01*
X3019371Y-1199941D01*
X3058886Y-1239453D01*
X3148688Y-1149652D01*
G37*
G36*
X3053496Y-1054460D02*
G01*
X2963694Y-1144264D01*
X3003207Y-1183777D01*
X3093011Y-1093975D01*
G37*
G36*
X2996023Y-996988D02*
G01*
X2906222Y-1086789D01*
X2945734Y-1126302D01*
X3035536Y-1036500D01*
G37*
G36*
X2940347Y-941308D02*
G01*
X2850542Y-1031112D01*
X2890057Y-1070625D01*
X2979859Y-980823D01*
G37*
G36*
X2890057Y-729376D02*
G01*
X2850542Y-768888D01*
X2940347Y-858692D01*
X2979859Y-819177D01*
G37*
G36*
X2945734Y-673699D02*
G01*
X2906222Y-713211D01*
X2996023Y-803013D01*
X3035536Y-763501D01*
G37*
G36*
X3003207Y-616224D02*
G01*
X2963694Y-655736D01*
X3053496Y-745540D01*
X3093011Y-706026D01*
G37*
G36*
X3058886Y-560547D02*
G01*
X3019371Y-600059D01*
X3109175Y-689863D01*
X3148688Y-650349D01*
G37*
G36*
X3116359Y-503072D02*
G01*
X3076846Y-542587D01*
X3166648Y-632388D01*
X3206163Y-592876D01*
G37*
G36*
X3172035Y-447395D02*
G01*
X3132523Y-486907D01*
X3222325Y-576712D01*
X3261840Y-537197D01*
G37*
G36*
X3229510Y-389923D02*
G01*
X3189998Y-429435D01*
X3279800Y-519236D01*
X3319312Y-479724D01*
G37*
G36*
X3285187Y-334243D02*
G01*
X3245675Y-373758D01*
X3335477Y-463560D01*
X3374991Y-424047D01*
G37*
G36*
X2386098Y-1937598D02*
G01*
X2386096Y-1807598D01*
X2326098Y-1807598D01*
X2326098Y-1937598D01*
G37*
G36*
X2481099Y-1697598D02*
G01*
X2481102Y-1567599D01*
X2421097Y-1567599D01*
X2421100Y-1697598D01*
G37*
G36*
X2576101Y-1937598D02*
G01*
X2576101Y-1807598D01*
X2516103Y-1807598D01*
X2516101Y-1937598D01*
G37*
G36*
X8688057Y-1568846D02*
G01*
X8758765Y-1498135D01*
X8649164Y-1388534D01*
X8578453Y-1459242D01*
G37*
G36*
X8546635Y-1710265D02*
G01*
X8617346Y-1639557D01*
X8507742Y-1529953D01*
X8437034Y-1600664D01*
G37*
G36*
X5881601Y-881801D02*
G01*
X5881603Y-1011801D01*
X5941601Y-1011801D01*
X5941601Y-881801D01*
G37*
G36*
X5786600Y-1121801D02*
G01*
X5786597Y-1251800D01*
X5846602Y-1251800D01*
X5846599Y-1121801D01*
G37*
G36*
X5691598Y-881801D02*
G01*
X5691598Y-1011801D01*
X5751596Y-1011801D01*
X5751598Y-881801D01*
G37*
G36*
X6347599Y-976599D02*
G01*
X6247599Y-976599D01*
X6247599Y-1131600D01*
X6347599Y-1131600D01*
G37*
G36*
X6147600Y-976599D02*
G01*
X6047600Y-976599D01*
X6047600Y-1131600D01*
X6147600Y-1131600D01*
G37*
G36*
X5929947Y-1769976D02*
G01*
X6059995Y-1769976D01*
X6059995Y-1630022D01*
X5929947Y-1630022D01*
G37*
G36*
X6140005Y-1769976D02*
G01*
X6270053Y-1769976D01*
X6270053Y-1630022D01*
X6140005Y-1630022D01*
G37*
G36*
X5129946Y-1769976D02*
G01*
X5259994Y-1769976D01*
X5259994Y-1630022D01*
X5129946Y-1630022D01*
G37*
G36*
X5340004Y-1769976D02*
G01*
X5470052Y-1769976D01*
X5470052Y-1630022D01*
X5340004Y-1630022D01*
G37*
G36*
X4329948Y-1769976D02*
G01*
X4459996Y-1769976D01*
X4459996Y-1630022D01*
X4329948Y-1630022D01*
G37*
G36*
X4540006Y-1769976D02*
G01*
X4670054Y-1769976D01*
X4670054Y-1630022D01*
X4540006Y-1630022D01*
G37*
G36*
X3529947Y-1769976D02*
G01*
X3659995Y-1769976D01*
X3659995Y-1630022D01*
X3529947Y-1630022D01*
G37*
G36*
X3740005Y-1769976D02*
G01*
X3870053Y-1769976D01*
X3870053Y-1630022D01*
X3740005Y-1630022D01*
G37*
G36*
X2729946Y-1769976D02*
G01*
X2859994Y-1769976D01*
X2859994Y-1630022D01*
X2729946Y-1630022D01*
G37*
G36*
X2940004Y-1769976D02*
G01*
X3070052Y-1769976D01*
X3070052Y-1630022D01*
X2940004Y-1630022D01*
G37*
G36*
X5472899Y-1157000D02*
G01*
X5572899Y-1157000D01*
X5572899Y-1001999D01*
X5472899Y-1001999D01*
G37*
G36*
X5272900Y-1157000D02*
G01*
X5372900Y-1157000D01*
X5372900Y-1001999D01*
X5272900Y-1001999D01*
G37*
G36*
X6150000Y-1477500D02*
G01*
X6250000Y-1477500D01*
X6250000Y-1322499D01*
X6150000Y-1322499D01*
G37*
G36*
X5950000Y-1477500D02*
G01*
X6050000Y-1477500D01*
X6050000Y-1322499D01*
X5950000Y-1322499D01*
G37*
G36*
X5599998Y-1322499D02*
G01*
X5499999Y-1322499D01*
X5499999Y-1477500D01*
X5599998Y-1477500D01*
G37*
G36*
X5799998Y-1322499D02*
G01*
X5699998Y-1322499D01*
X5699998Y-1477500D01*
X5799998Y-1477500D01*
G37*
G36*
X5149999Y-1322499D02*
G01*
X5050000Y-1322499D01*
X5050000Y-1477500D01*
X5149999Y-1477500D01*
G37*
G36*
X5349999Y-1322499D02*
G01*
X5249999Y-1322499D01*
X5249999Y-1477500D01*
X5349999Y-1477500D01*
G37*
G36*
X4700000Y-1322499D02*
G01*
X4600000Y-1322499D01*
X4600000Y-1477500D01*
X4700000Y-1477500D01*
G37*
G36*
X4900000Y-1322499D02*
G01*
X4800000Y-1322499D01*
X4800000Y-1477500D01*
X4900000Y-1477500D01*
G37*
G36*
X4249999Y-1322499D02*
G01*
X4149999Y-1322499D01*
X4149999Y-1477500D01*
X4249999Y-1477500D01*
G37*
G36*
X4449998Y-1322499D02*
G01*
X4349998Y-1322499D01*
X4349998Y-1477500D01*
X4449998Y-1477500D01*
G37*
G36*
X5568701Y-626399D02*
G01*
X5568701Y-506399D01*
X5378698Y-506399D01*
X5378698Y-626399D01*
G37*
G36*
X5568701Y-306384D02*
G01*
X5568701Y-186385D01*
X5378698Y-186385D01*
X5378698Y-306384D01*
G37*
G36*
X5472899Y-903000D02*
G01*
X5572899Y-903000D01*
X5572899Y-747999D01*
X5472899Y-747999D01*
G37*
G36*
X5272900Y-903000D02*
G01*
X5372900Y-903000D01*
X5372900Y-747999D01*
X5272900Y-747999D01*
G37*
G36*
X1410500Y-87599D02*
G01*
X1310500Y-87599D01*
X1310500Y-242600D01*
X1410500Y-242600D01*
G37*
G36*
X1610499Y-87599D02*
G01*
X1510499Y-87599D01*
X1510499Y-242600D01*
X1610499Y-242600D01*
G37*
G36*
X760600Y-247799D02*
G01*
X880600Y-247799D01*
X880600Y-107800D01*
X760600Y-107800D01*
G37*
G36*
X1100599Y-247799D02*
G01*
X1220599Y-247799D01*
X1220599Y-107800D01*
X1100599Y-107800D01*
G37*
G36*
X1580413Y-1556400D02*
G01*
X1780412Y-1556400D01*
X1780412Y-1456400D01*
X1580413Y-1456400D01*
G37*
G36*
X2080412Y-1556400D02*
G01*
X2280411Y-1556400D01*
X2280411Y-1456400D01*
X2080412Y-1456400D01*
G37*
G36*
X1580413Y-1896399D02*
G01*
X1780412Y-1896399D01*
X1780412Y-1796399D01*
X1580413Y-1796399D01*
G37*
G36*
X3725799Y-309638D02*
G01*
X3782367Y-366207D01*
X3846007Y-302567D01*
X3789438Y-245998D01*
G37*
G36*
X3824792Y-408632D02*
G01*
X3881361Y-465201D01*
X3945000Y-401561D01*
X3888432Y-344992D01*
G37*
G36*
X2418798Y-588500D02*
G01*
X2418798Y-668500D01*
X2508801Y-668500D01*
X2508801Y-588500D01*
G37*
G36*
X2418798Y-728499D02*
G01*
X2418798Y-808499D01*
X2508801Y-808499D01*
X2508801Y-728499D01*
G37*
G36*
X5906770Y-779779D02*
G01*
X5906770Y-670560D01*
X5690870Y-670560D01*
X5690870Y-779779D01*
G37*
G36*
X5906770Y-548639D02*
G01*
X5906770Y-439420D01*
X5690870Y-439420D01*
X5690870Y-548639D01*
G37*
G36*
X5906770Y-320039D02*
G01*
X5906770Y-210820D01*
X5690870Y-210820D01*
X5690870Y-320039D01*
G37*
G36*
X6526529Y-669289D02*
G01*
X6526529Y-318770D01*
X6310629Y-318770D01*
X6310629Y-669289D01*
G37*
G36*
X2950392Y-406603D02*
G01*
X2950392Y-431596D01*
X3005409Y-431596D01*
X3005409Y-406603D01*
G37*
G36*
X2950392Y-341602D02*
G01*
X2950392Y-366595D01*
X3005409Y-366595D01*
X3005409Y-341602D01*
G37*
G36*
X2760390Y-341602D02*
G01*
X2760390Y-366595D01*
X2815407Y-366595D01*
X2815407Y-341602D01*
G37*
G36*
X2760390Y-406603D02*
G01*
X2760390Y-431596D01*
X2815407Y-431596D01*
X2815407Y-406603D01*
G37*
G36*
X2760390Y-471604D02*
G01*
X2760390Y-496597D01*
X2815407Y-496597D01*
X2815407Y-471604D01*
G37*
G36*
X2950392Y-471604D02*
G01*
X2950392Y-496597D01*
X3005409Y-496597D01*
X3005409Y-471604D01*
G37*
G36*
X2850400Y-351599D02*
G01*
X2850400Y-486600D01*
X2915399Y-486600D01*
X2915399Y-351599D01*
G37*
G36*
X789028Y-393616D02*
G01*
X690392Y-191386D01*
X553417Y-258193D01*
X652051Y-460423D01*
G37*
G36*
X1446270Y-1741167D02*
G01*
X1347637Y-1538940D01*
X1210663Y-1605747D01*
X1309296Y-1807974D01*
G37*
G36*
X4662200Y-483400D02*
G01*
X4662200Y-383400D01*
X4507199Y-383400D01*
X4507199Y-483400D01*
G37*
G36*
X4662200Y-683399D02*
G01*
X4662200Y-583399D01*
X4507199Y-583399D01*
X4507199Y-683399D01*
G37*
G36*
X2686601Y-592599D02*
G01*
X2686601Y-512599D01*
X2596598Y-512599D01*
X2596598Y-592599D01*
G37*
G36*
X2686601Y-452600D02*
G01*
X2686601Y-372600D01*
X2596598Y-372600D01*
X2596598Y-452600D01*
G37*
G36*
X3233800Y-1506461D02*
G01*
X3177232Y-1449892D01*
X3113592Y-1513532D01*
X3170161Y-1570101D01*
G37*
G36*
X3134807Y-1407467D02*
G01*
X3078238Y-1350898D01*
X3014599Y-1414538D01*
X3071167Y-1471107D01*
G37*
G36*
X5062999Y-1034498D02*
G01*
X4982999Y-1034498D01*
X4982999Y-1124501D01*
X5062999Y-1124501D01*
G37*
G36*
X4923000Y-1034498D02*
G01*
X4843000Y-1034498D01*
X4843000Y-1124501D01*
X4923000Y-1124501D01*
G37*
G36*
X1593453Y-585457D02*
G01*
X1664164Y-656165D01*
X1773765Y-546564D01*
X1703057Y-475853D01*
G37*
G36*
X1452034Y-444035D02*
G01*
X1522742Y-514746D01*
X1632346Y-405142D01*
X1561635Y-334434D01*
G37*
G36*
X2475242Y-1136253D02*
G01*
X2404534Y-1206964D01*
X2514135Y-1316565D01*
X2584846Y-1245857D01*
G37*
G36*
X2616664Y-994834D02*
G01*
X2545953Y-1065542D01*
X2655557Y-1175146D01*
X2726265Y-1104435D01*
G37*
G36*
X2678442Y-1326753D02*
G01*
X2607734Y-1397464D01*
X2717335Y-1507065D01*
X2788046Y-1436357D01*
G37*
G36*
X2819864Y-1185334D02*
G01*
X2749153Y-1256042D01*
X2858757Y-1365646D01*
X2929465Y-1294935D01*
G37*
G36*
X1830100Y-1093000D02*
G01*
X1830100Y-993000D01*
X1675099Y-993000D01*
X1675099Y-1093000D01*
G37*
G36*
X1830100Y-1292999D02*
G01*
X1830100Y-1192999D01*
X1675099Y-1192999D01*
X1675099Y-1292999D01*
G37*
G36*
X4209498Y-423400D02*
G01*
X4209498Y-503400D01*
X4299501Y-503400D01*
X4299501Y-423400D01*
G37*
G36*
X4209498Y-563399D02*
G01*
X4209498Y-643399D01*
X4299501Y-643399D01*
X4299501Y-563399D01*
G37*
M02*
