G04 Layer: TopPasteMaskLayer*
G04 EasyEDA v6.4.24, 2021-09-25T18:25:05+02:00*
G04 d15503250396465d85bfe37af418053a,f5a38c858c354eb5b90fd3f81420cce3,10*
G04 Gerber Generator version 0.2*
G04 Scale: 100 percent, Rotated: No, Reflected: No *
G04 Dimensions in millimeters *
G04 leading zeros omitted , absolute positions ,4 integer and 5 decimal *
%FSLAX45Y45*%
%MOMM*%

%ADD15C,0.6000*%
%ADD17C,1.5000*%
%ADD20R,0.9000X0.8000*%
%ADD21R,0.7000X1.2500*%
%ADD22R,1.5500X1.0000*%
%ADD23R,1.0000X1.5500*%
%ADD24R,0.7000X1.2000*%
%ADD25R,1.1000X0.7000*%
%ADD26R,1.3000X1.0000*%
%ADD27R,0.9000X1.2000*%
%ADD28R,0.8000X1.2000*%
%ADD29R,2.5000X1.5000*%

%LPD*%
D15*
X2319980Y-1485900D02*
G01*
X2439979Y-1485900D01*
X2319980Y-1358900D02*
G01*
X2439979Y-1358900D01*
X2319980Y-1231900D02*
G01*
X2439979Y-1231900D01*
X2319980Y-1104900D02*
G01*
X2439979Y-1104900D01*
X2319980Y-977900D02*
G01*
X2439979Y-977900D01*
X2319980Y-850900D02*
G01*
X2439979Y-850900D01*
X2319980Y-723900D02*
G01*
X2439979Y-723900D01*
X2319980Y-596900D02*
G01*
X2439979Y-596900D01*
X1725620Y-1485900D02*
G01*
X1845619Y-1485900D01*
X1725620Y-1358900D02*
G01*
X1845619Y-1358900D01*
X1725620Y-1231900D02*
G01*
X1845619Y-1231900D01*
X1725620Y-1104900D02*
G01*
X1845619Y-1104900D01*
X1725620Y-977900D02*
G01*
X1845619Y-977900D01*
X1725620Y-850900D02*
G01*
X1845619Y-850900D01*
X1725620Y-723900D02*
G01*
X1845619Y-723900D01*
X1725620Y-596900D02*
G01*
X1845619Y-596900D01*
X2717800Y-1646880D02*
G01*
X2717800Y-1766879D01*
X2844800Y-1646880D02*
G01*
X2844800Y-1766879D01*
X2971800Y-1646880D02*
G01*
X2971800Y-1766879D01*
X3098800Y-1646880D02*
G01*
X3098800Y-1766879D01*
X3225800Y-1646880D02*
G01*
X3225800Y-1766879D01*
X3352800Y-1646880D02*
G01*
X3352800Y-1766879D01*
X3479800Y-1646880D02*
G01*
X3479800Y-1766879D01*
X3606800Y-1646880D02*
G01*
X3606800Y-1766879D01*
X2717800Y-1052520D02*
G01*
X2717800Y-1172519D01*
X2844800Y-1052520D02*
G01*
X2844800Y-1172519D01*
X2971800Y-1052520D02*
G01*
X2971800Y-1172519D01*
X3098800Y-1052520D02*
G01*
X3098800Y-1172519D01*
X3225800Y-1052520D02*
G01*
X3225800Y-1172519D01*
X3352800Y-1052520D02*
G01*
X3352800Y-1172519D01*
X3479800Y-1052520D02*
G01*
X3479800Y-1172519D01*
X3606800Y-1052520D02*
G01*
X3606800Y-1172519D01*
X3848100Y-1646880D02*
G01*
X3848100Y-1766879D01*
X3975100Y-1646880D02*
G01*
X3975100Y-1766879D01*
X4102100Y-1646880D02*
G01*
X4102100Y-1766879D01*
X4229100Y-1646880D02*
G01*
X4229100Y-1766879D01*
X4356100Y-1646880D02*
G01*
X4356100Y-1766879D01*
X4483100Y-1646880D02*
G01*
X4483100Y-1766879D01*
X4610100Y-1646880D02*
G01*
X4610100Y-1766879D01*
X4737100Y-1646880D02*
G01*
X4737100Y-1766879D01*
X3848100Y-1052520D02*
G01*
X3848100Y-1172519D01*
X3975100Y-1052520D02*
G01*
X3975100Y-1172519D01*
X4102100Y-1052520D02*
G01*
X4102100Y-1172519D01*
X4229100Y-1052520D02*
G01*
X4229100Y-1172519D01*
X4356100Y-1052520D02*
G01*
X4356100Y-1172519D01*
X4483100Y-1052520D02*
G01*
X4483100Y-1172519D01*
X4610100Y-1052520D02*
G01*
X4610100Y-1172519D01*
X4737100Y-1052520D02*
G01*
X4737100Y-1172519D01*
D17*
G01*
X1028700Y-203200D03*
G01*
X1295400Y-203200D03*
G01*
X762000Y-203200D03*
G01*
X762000Y-1775002D03*
G01*
X1028700Y-1775002D03*
G01*
X1295400Y-1775002D03*
G01*
X1562100Y-1775002D03*
G01*
X1562100Y-203200D03*
G01*
X2717800Y-685800D03*
G01*
X2882900Y-863600D03*
G01*
X2971800Y-685800D03*
G01*
X3225800Y-660400D03*
G01*
X3352800Y-863600D03*
G01*
X3479800Y-660400D03*
G01*
X3606800Y-863600D03*
G01*
X5003800Y-1320800D03*
G01*
X5003800Y-1092200D03*
G01*
X5003800Y-863600D03*
G01*
X4749800Y-863600D03*
G01*
X4470400Y-863600D03*
G01*
X4216400Y-863600D03*
G01*
X3975100Y-863600D03*
G36*
X5170098Y-103598D02*
G01*
X5320098Y-103598D01*
X5320098Y-353601D01*
X5170098Y-353601D01*
G37*
G36*
X1960100Y-1618698D02*
G01*
X2040100Y-1618698D01*
X2040100Y-1708701D01*
X1960100Y-1708701D01*
G37*
G36*
X2100099Y-1618698D02*
G01*
X2180099Y-1618698D01*
X2180099Y-1708701D01*
X2100099Y-1708701D01*
G37*
G36*
X3344400Y-1847298D02*
G01*
X3424400Y-1847298D01*
X3424400Y-1937301D01*
X3344400Y-1937301D01*
G37*
G36*
X3484399Y-1847298D02*
G01*
X3564399Y-1847298D01*
X3564399Y-1937301D01*
X3484399Y-1937301D01*
G37*
D20*
G01*
X4914900Y-1568297D03*
G01*
X4914900Y-1708302D03*
D21*
G01*
X5791200Y-459231D03*
G01*
X5886195Y-709168D03*
G01*
X5696204Y-709168D03*
G01*
X5778500Y-1195831D03*
G01*
X5873495Y-1445768D03*
G01*
X5683504Y-1445768D03*
D22*
G01*
X5575300Y-1115999D03*
G01*
X5575300Y-916000D03*
G01*
X5575300Y-328599D03*
G01*
X5575300Y-128600D03*
G36*
X5472442Y-1632346D02*
G01*
X5401734Y-1561635D01*
X5511335Y-1452034D01*
X5582046Y-1522742D01*
G37*
G36*
X5613864Y-1773765D02*
G01*
X5543153Y-1703057D01*
X5652757Y-1593453D01*
X5723465Y-1664164D01*
G37*
D23*
G01*
X6097600Y-1714500D03*
G01*
X6297599Y-1714500D03*
D22*
G01*
X6426200Y-328599D03*
G01*
X6426200Y-128600D03*
G01*
X6426200Y-1115999D03*
G01*
X6426200Y-916000D03*
G36*
X6162598Y-722868D02*
G01*
X6232601Y-722868D01*
X6232601Y-847867D01*
X6162598Y-847867D01*
G37*
G36*
X6067602Y-472932D02*
G01*
X6137605Y-472932D01*
X6137605Y-597931D01*
X6067602Y-597931D01*
G37*
G36*
X6257594Y-472932D02*
G01*
X6327597Y-472932D01*
X6327597Y-597931D01*
X6257594Y-597931D01*
G37*
D21*
G01*
X6197600Y-1195831D03*
G01*
X6292595Y-1445768D03*
G01*
X6102604Y-1445768D03*
G36*
X1788899Y-212501D02*
G01*
X1858901Y-212501D01*
X1858901Y-332501D01*
X1788899Y-332501D01*
G37*
G36*
X2128898Y-212501D02*
G01*
X2198900Y-212501D01*
X2198900Y-332501D01*
X2128898Y-332501D01*
G37*
D25*
G01*
X2203907Y-47497D03*
G01*
X1783892Y-47497D03*
D26*
G01*
X1993900Y-302488D03*
G36*
X2494998Y-212501D02*
G01*
X2565001Y-212501D01*
X2565001Y-332501D01*
X2494998Y-332501D01*
G37*
G36*
X2834998Y-212501D02*
G01*
X2905000Y-212501D01*
X2905000Y-332501D01*
X2834998Y-332501D01*
G37*
D25*
G01*
X2910001Y-47497D03*
G01*
X2490012Y-47497D03*
D26*
G01*
X2699994Y-302488D03*
G36*
X3194999Y-212501D02*
G01*
X3265002Y-212501D01*
X3265002Y-332501D01*
X3194999Y-332501D01*
G37*
G36*
X3534999Y-212501D02*
G01*
X3605001Y-212501D01*
X3605001Y-332501D01*
X3534999Y-332501D01*
G37*
D25*
G01*
X3610000Y-47497D03*
G01*
X3190011Y-47497D03*
D26*
G01*
X3399993Y-302488D03*
D27*
G01*
X4774996Y-554989D03*
D28*
G01*
X4652009Y-554989D03*
D24*
G01*
X4550003Y-554989D03*
G01*
X4450003Y-554989D03*
D28*
G01*
X4347997Y-554989D03*
D27*
G01*
X4225010Y-554989D03*
D29*
G01*
X5918200Y-266700D03*
G01*
X6007100Y-990600D03*
M02*
