G04 Layer: TopSolderMaskLayer*
G04 EasyEDA v6.5.1, 2022-03-27 10:56:42*
G04 f4f8d14073c14480b57db79f537dda5a,f5a38c858c354eb5b90fd3f81420cce3,10*
G04 Gerber Generator version 0.2*
G04 Scale: 100 percent, Rotated: No, Reflected: No *
G04 Dimensions in millimeters *
G04 leading zeros omitted , absolute positions ,4 integer and 5 decimal *
%FSLAX45Y45*%
%MOMM*%

%ADD32C,1.2032*%
%ADD33C,1.2040*%

%LPD*%
G36*
X2443988Y-527812D02*
G01*
X2443988Y-382523D01*
X2534411Y-382523D01*
X2534411Y-527812D01*
G37*
G36*
X2348991Y-277876D02*
G01*
X2348991Y-132587D01*
X2439415Y-132587D01*
X2439415Y-277876D01*
G37*
G36*
X2538984Y-277876D02*
G01*
X2538984Y-132587D01*
X2629408Y-132587D01*
X2629408Y-277876D01*
G37*
G36*
X2634488Y-1823212D02*
G01*
X2634488Y-1732787D01*
X2779775Y-1732787D01*
X2779775Y-1823212D01*
G37*
G36*
X2884424Y-1728215D02*
G01*
X2884424Y-1637792D01*
X3029711Y-1637792D01*
X3029711Y-1728215D01*
G37*
G36*
X2884424Y-1918207D02*
G01*
X2884424Y-1827784D01*
X3029711Y-1827784D01*
X3029711Y-1918207D01*
G37*
G36*
X856234Y-1671320D02*
G01*
X792479Y-1607565D01*
X895095Y-1504695D01*
X959104Y-1568704D01*
G37*
G36*
X746760Y-1915160D02*
G01*
X683005Y-1851405D01*
X785621Y-1748536D01*
X849629Y-1812544D01*
G37*
G36*
X612394Y-1780794D02*
G01*
X548639Y-1717039D01*
X651255Y-1614170D01*
X715263Y-1678178D01*
G37*
G36*
X576834Y-1391920D02*
G01*
X513079Y-1328165D01*
X615695Y-1225295D01*
X679704Y-1289304D01*
G37*
G36*
X467360Y-1635760D02*
G01*
X403605Y-1572005D01*
X506221Y-1469136D01*
X570229Y-1533144D01*
G37*
G36*
X332994Y-1501394D02*
G01*
X269239Y-1437639D01*
X371855Y-1334770D01*
X435863Y-1398778D01*
G37*
G36*
X3701288Y-515112D02*
G01*
X3701288Y-369823D01*
X3791711Y-369823D01*
X3791711Y-515112D01*
G37*
G36*
X3606291Y-265176D02*
G01*
X3606291Y-119887D01*
X3696715Y-119887D01*
X3696715Y-265176D01*
G37*
G36*
X3796284Y-265176D02*
G01*
X3796284Y-119887D01*
X3886708Y-119887D01*
X3886708Y-265176D01*
G37*
G36*
X4082288Y-1277112D02*
G01*
X4082288Y-1131823D01*
X4172711Y-1131823D01*
X4172711Y-1277112D01*
G37*
G36*
X3987291Y-1027176D02*
G01*
X3987291Y-881887D01*
X4077715Y-881887D01*
X4077715Y-1027176D01*
G37*
G36*
X4177284Y-1027176D02*
G01*
X4177284Y-881887D01*
X4267708Y-881887D01*
X4267708Y-1027176D01*
G37*
G36*
X1364487Y-1835912D02*
G01*
X1364487Y-1745487D01*
X1509776Y-1745487D01*
X1509776Y-1835912D01*
G37*
G36*
X1614423Y-1740915D02*
G01*
X1614423Y-1650492D01*
X1759712Y-1650492D01*
X1759712Y-1740915D01*
G37*
G36*
X1614423Y-1930907D02*
G01*
X1614423Y-1840484D01*
X1759712Y-1840484D01*
X1759712Y-1930907D01*
G37*
G36*
X3663188Y-1785112D02*
G01*
X3663188Y-1694687D01*
X3808475Y-1694687D01*
X3808475Y-1785112D01*
G37*
G36*
X3913124Y-1690115D02*
G01*
X3913124Y-1599692D01*
X4058411Y-1599692D01*
X4058411Y-1690115D01*
G37*
G36*
X3913124Y-1880107D02*
G01*
X3913124Y-1789684D01*
X4058411Y-1789684D01*
X4058411Y-1880107D01*
G37*
G36*
X500887Y-616712D02*
G01*
X500887Y-471423D01*
X591312Y-471423D01*
X591312Y-616712D01*
G37*
G36*
X405892Y-366776D02*
G01*
X405892Y-221487D01*
X496315Y-221487D01*
X496315Y-366776D01*
G37*
G36*
X595884Y-366776D02*
G01*
X595884Y-221487D01*
X686307Y-221487D01*
X686307Y-366776D01*
G37*
G36*
X1580387Y-350012D02*
G01*
X1580387Y-259587D01*
X1725676Y-259587D01*
X1725676Y-350012D01*
G37*
G36*
X1830323Y-255015D02*
G01*
X1830323Y-164592D01*
X1975611Y-164592D01*
X1975611Y-255015D01*
G37*
G36*
X1830323Y-445007D02*
G01*
X1830323Y-354584D01*
X1975611Y-354584D01*
X1975611Y-445007D01*
G37*
G36*
X2393188Y-1471676D02*
G01*
X2393188Y-1326387D01*
X2483611Y-1326387D01*
X2483611Y-1471676D01*
G37*
G36*
X2488184Y-1721612D02*
G01*
X2488184Y-1576323D01*
X2578608Y-1576323D01*
X2578608Y-1721612D01*
G37*
G36*
X2298191Y-1721612D02*
G01*
X2298191Y-1576323D01*
X2388615Y-1576323D01*
X2388615Y-1721612D01*
G37*
G36*
X6495288Y-1674876D02*
G01*
X6495288Y-1529587D01*
X6585711Y-1529587D01*
X6585711Y-1674876D01*
G37*
G36*
X6590284Y-1924812D02*
G01*
X6590284Y-1779523D01*
X6680708Y-1779523D01*
X6680708Y-1924812D01*
G37*
G36*
X6400291Y-1924812D02*
G01*
X6400291Y-1779523D01*
X6490715Y-1779523D01*
X6490715Y-1924812D01*
G37*
G36*
X6122924Y-273812D02*
G01*
X6122924Y-183387D01*
X6268211Y-183387D01*
X6268211Y-273812D01*
G37*
G36*
X5872988Y-368807D02*
G01*
X5872988Y-278384D01*
X6018275Y-278384D01*
X6018275Y-368807D01*
G37*
G36*
X5872988Y-178815D02*
G01*
X5872988Y-88392D01*
X6018275Y-88392D01*
X6018275Y-178815D01*
G37*
G36*
X6634988Y-286512D02*
G01*
X6634988Y-196087D01*
X6780275Y-196087D01*
X6780275Y-286512D01*
G37*
G36*
X6884924Y-191515D02*
G01*
X6884924Y-101092D01*
X7030211Y-101092D01*
X7030211Y-191515D01*
G37*
G36*
X6884924Y-381507D02*
G01*
X6884924Y-291084D01*
X7030211Y-291084D01*
X7030211Y-381507D01*
G37*
G36*
X7219188Y-1662176D02*
G01*
X7219188Y-1516887D01*
X7309611Y-1516887D01*
X7309611Y-1662176D01*
G37*
G36*
X7314184Y-1912112D02*
G01*
X7314184Y-1766823D01*
X7404608Y-1766823D01*
X7404608Y-1912112D01*
G37*
G36*
X7124191Y-1912112D02*
G01*
X7124191Y-1766823D01*
X7214615Y-1766823D01*
X7214615Y-1912112D01*
G37*
G36*
X5199888Y-1687576D02*
G01*
X5199888Y-1542287D01*
X5290311Y-1542287D01*
X5290311Y-1687576D01*
G37*
G36*
X5294884Y-1937512D02*
G01*
X5294884Y-1792223D01*
X5385308Y-1792223D01*
X5385308Y-1937512D01*
G37*
G36*
X5104891Y-1937512D02*
G01*
X5104891Y-1792223D01*
X5195315Y-1792223D01*
X5195315Y-1937512D01*
G37*
G36*
X8082788Y-1662176D02*
G01*
X8082788Y-1516887D01*
X8173211Y-1516887D01*
X8173211Y-1662176D01*
G37*
G36*
X8177784Y-1912112D02*
G01*
X8177784Y-1766823D01*
X8268208Y-1766823D01*
X8268208Y-1912112D01*
G37*
G36*
X7987791Y-1912112D02*
G01*
X7987791Y-1766823D01*
X8078215Y-1766823D01*
X8078215Y-1912112D01*
G37*
G36*
X8402065Y-1315720D02*
G01*
X8299195Y-1213104D01*
X8363204Y-1149095D01*
X8465820Y-1251965D01*
G37*
G36*
X8645906Y-1425194D02*
G01*
X8543036Y-1322578D01*
X8607043Y-1258570D01*
X8709659Y-1361439D01*
G37*
G36*
X8511540Y-1559560D02*
G01*
X8408670Y-1456944D01*
X8472677Y-1392936D01*
X8575293Y-1495805D01*
G37*
G36*
X4802124Y-680212D02*
G01*
X4802124Y-589787D01*
X4947411Y-589787D01*
X4947411Y-680212D01*
G37*
G36*
X4552188Y-775207D02*
G01*
X4552188Y-684784D01*
X4697475Y-684784D01*
X4697475Y-775207D01*
G37*
G36*
X4552188Y-585215D02*
G01*
X4552188Y-494792D01*
X4697475Y-494792D01*
X4697475Y-585215D01*
G37*
G36*
X6923024Y-921512D02*
G01*
X6923024Y-831087D01*
X7068311Y-831087D01*
X7068311Y-921512D01*
G37*
G36*
X6673088Y-1016507D02*
G01*
X6673088Y-926084D01*
X6818375Y-926084D01*
X6818375Y-1016507D01*
G37*
G36*
X6673088Y-826515D02*
G01*
X6673088Y-736092D01*
X6818375Y-736092D01*
X6818375Y-826515D01*
G37*
G36*
X4979924Y-1416812D02*
G01*
X4979924Y-1326387D01*
X5125211Y-1326387D01*
X5125211Y-1416812D01*
G37*
G36*
X4729988Y-1511807D02*
G01*
X4729988Y-1421384D01*
X4875275Y-1421384D01*
X4875275Y-1511807D01*
G37*
G36*
X4729988Y-1321815D02*
G01*
X4729988Y-1231392D01*
X4875275Y-1231392D01*
X4875275Y-1321815D01*
G37*
G36*
X7904988Y-286512D02*
G01*
X7904988Y-196087D01*
X8050275Y-196087D01*
X8050275Y-286512D01*
G37*
G36*
X8154924Y-191515D02*
G01*
X8154924Y-101092D01*
X8300211Y-101092D01*
X8300211Y-191515D01*
G37*
G36*
X8154924Y-381507D02*
G01*
X8154924Y-291084D01*
X8300211Y-291084D01*
X8300211Y-381507D01*
G37*
D32*
G01*
X1694510Y-999997D03*
G01*
X805510Y-999997D03*
G01*
X1656410Y-809497D03*
G01*
X843610Y-809497D03*
G01*
X843610Y-1190497D03*
G01*
X1643710Y-1190497D03*
G01*
X1529410Y-1355597D03*
G01*
X970610Y-1355597D03*
G01*
X1351610Y-1431797D03*
G01*
X1148410Y-1444497D03*
D33*
G01*
X1351610Y-568197D03*
D32*
G01*
X1148410Y-568197D03*
G01*
X970610Y-644397D03*
G01*
X3694506Y-999997D03*
G01*
X2805506Y-999997D03*
G01*
X3656406Y-809497D03*
G01*
X2843606Y-809497D03*
G01*
X2843606Y-1190497D03*
G01*
X3643706Y-1190497D03*
G01*
X3529406Y-1355597D03*
G01*
X2970606Y-1355597D03*
G01*
X3351606Y-1431797D03*
G01*
X3148406Y-1444497D03*
D33*
G01*
X3351606Y-568197D03*
D32*
G01*
X3148406Y-568197D03*
G01*
X2970606Y-644397D03*
G01*
X6194501Y-999997D03*
G01*
X5305501Y-999997D03*
G01*
X6156401Y-809497D03*
G01*
X5343601Y-809497D03*
G01*
X5343601Y-1190497D03*
G01*
X6143701Y-1190497D03*
G01*
X6029401Y-1355597D03*
G01*
X5470601Y-1355597D03*
G01*
X5851601Y-1431797D03*
G01*
X5648401Y-1444497D03*
D33*
G01*
X5851601Y-568197D03*
D32*
G01*
X5648401Y-568197D03*
G01*
X5470601Y-644397D03*
G01*
X8194497Y-999997D03*
G01*
X7305497Y-999997D03*
G01*
X8156397Y-809497D03*
G01*
X7343597Y-809497D03*
G01*
X7343597Y-1190497D03*
G01*
X8143697Y-1190497D03*
G01*
X8029397Y-1355597D03*
G01*
X7470597Y-1355597D03*
G01*
X7851597Y-1431797D03*
G01*
X7648397Y-1444497D03*
D33*
G01*
X7851597Y-568197D03*
D32*
G01*
X7648397Y-568197D03*
G01*
X7470597Y-644397D03*
G36*
X2089911Y-1868678D02*
G01*
X2089911Y-1738121D01*
X2210308Y-1738121D01*
X2210308Y-1868678D01*
G37*
G36*
X1929892Y-1868678D02*
G01*
X1929892Y-1738121D01*
X2050288Y-1738121D01*
X2050288Y-1868678D01*
G37*
G36*
X2780791Y-268478D02*
G01*
X2780791Y-137921D01*
X2901188Y-137921D01*
X2901188Y-268478D01*
G37*
G36*
X2940811Y-268478D02*
G01*
X2940811Y-137921D01*
X3061208Y-137921D01*
X3061208Y-268478D01*
G37*
G36*
X3149091Y-1881378D02*
G01*
X3149091Y-1750821D01*
X3269488Y-1750821D01*
X3269488Y-1881378D01*
G37*
G36*
X3309111Y-1881378D02*
G01*
X3309111Y-1750821D01*
X3429508Y-1750821D01*
X3429508Y-1881378D01*
G37*
G36*
X3987291Y-255778D02*
G01*
X3987291Y-125221D01*
X4107688Y-125221D01*
X4107688Y-255778D01*
G37*
G36*
X4147311Y-255778D02*
G01*
X4147311Y-125221D01*
X4267708Y-125221D01*
X4267708Y-255778D01*
G37*
G36*
X4138422Y-749807D02*
G01*
X4138422Y-629412D01*
X4268977Y-629412D01*
X4268977Y-749807D01*
G37*
G36*
X4138422Y-589787D02*
G01*
X4138422Y-469392D01*
X4268977Y-469392D01*
X4268977Y-589787D01*
G37*
G36*
X1162812Y-1919478D02*
G01*
X1162812Y-1788921D01*
X1283207Y-1788921D01*
X1283207Y-1919478D01*
G37*
G36*
X1002792Y-1919478D02*
G01*
X1002792Y-1788921D01*
X1123187Y-1788921D01*
X1123187Y-1919478D01*
G37*
G36*
X4151122Y-1892807D02*
G01*
X4151122Y-1772412D01*
X4281677Y-1772412D01*
X4281677Y-1892807D01*
G37*
G36*
X4151122Y-1732787D02*
G01*
X4151122Y-1612392D01*
X4281677Y-1612392D01*
X4281677Y-1732787D01*
G37*
G36*
X812292Y-255778D02*
G01*
X812292Y-125221D01*
X932687Y-125221D01*
X932687Y-255778D01*
G37*
G36*
X972312Y-255778D02*
G01*
X972312Y-125221D01*
X1092707Y-125221D01*
X1092707Y-255778D01*
G37*
G36*
X6103111Y-1855978D02*
G01*
X6103111Y-1725421D01*
X6223508Y-1725421D01*
X6223508Y-1855978D01*
G37*
G36*
X5943091Y-1855978D02*
G01*
X5943091Y-1725421D01*
X6063488Y-1725421D01*
X6063488Y-1855978D01*
G37*
G36*
X8354822Y-361187D02*
G01*
X8354822Y-240792D01*
X8485377Y-240792D01*
X8485377Y-361187D01*
G37*
G36*
X8354822Y-521207D02*
G01*
X8354822Y-400812D01*
X8485377Y-400812D01*
X8485377Y-521207D01*
G37*
G36*
X4532122Y-1334007D02*
G01*
X4532122Y-1213612D01*
X4662677Y-1213612D01*
X4662677Y-1334007D01*
G37*
G36*
X4532122Y-1173987D02*
G01*
X4532122Y-1053592D01*
X4662677Y-1053592D01*
X4662677Y-1173987D01*
G37*
G36*
X6674611Y-649478D02*
G01*
X6674611Y-518921D01*
X6795008Y-518921D01*
X6795008Y-649478D01*
G37*
G36*
X6514591Y-649478D02*
G01*
X6514591Y-518921D01*
X6634988Y-518921D01*
X6634988Y-649478D01*
G37*
G36*
X4634991Y-268478D02*
G01*
X4634991Y-137921D01*
X4755388Y-137921D01*
X4755388Y-268478D01*
G37*
G36*
X4795011Y-268478D02*
G01*
X4795011Y-137921D01*
X4915408Y-137921D01*
X4915408Y-268478D01*
G37*
G36*
X8594597Y-1683004D02*
G01*
X8502395Y-1590802D01*
X8587486Y-1505712D01*
X8679688Y-1597913D01*
G37*
G36*
X8481313Y-1796287D02*
G01*
X8389111Y-1704086D01*
X8474202Y-1618995D01*
X8566404Y-1711197D01*
G37*
G36*
X7754111Y-1906778D02*
G01*
X7754111Y-1776221D01*
X7874508Y-1776221D01*
X7874508Y-1906778D01*
G37*
G36*
X7594091Y-1906778D02*
G01*
X7594091Y-1776221D01*
X7714488Y-1776221D01*
X7714488Y-1906778D01*
G37*
G36*
X4845811Y-1894078D02*
G01*
X4845811Y-1763521D01*
X4966208Y-1763521D01*
X4966208Y-1894078D01*
G37*
G36*
X4685791Y-1894078D02*
G01*
X4685791Y-1763521D01*
X4806188Y-1763521D01*
X4806188Y-1894078D01*
G37*
G36*
X6843522Y-1580387D02*
G01*
X6843522Y-1459992D01*
X6974077Y-1459992D01*
X6974077Y-1580387D01*
G37*
G36*
X6843522Y-1740407D02*
G01*
X6843522Y-1620012D01*
X6974077Y-1620012D01*
X6974077Y-1740407D01*
G37*
G36*
X7124191Y-395478D02*
G01*
X7124191Y-264921D01*
X7244588Y-264921D01*
X7244588Y-395478D01*
G37*
G36*
X7284211Y-395478D02*
G01*
X7284211Y-264921D01*
X7404608Y-264921D01*
X7404608Y-395478D01*
G37*
G36*
X5645911Y-230378D02*
G01*
X5645911Y-99821D01*
X5766308Y-99821D01*
X5766308Y-230378D01*
G37*
G36*
X5485891Y-230378D02*
G01*
X5485891Y-99821D01*
X5606288Y-99821D01*
X5606288Y-230378D01*
G37*
G36*
X1967991Y-700278D02*
G01*
X1967991Y-569721D01*
X2088388Y-569721D01*
X2088388Y-700278D01*
G37*
G36*
X2128011Y-700278D02*
G01*
X2128011Y-569721D01*
X2248408Y-569721D01*
X2248408Y-700278D01*
G37*
G36*
X417321Y-1041907D02*
G01*
X417321Y-921512D01*
X547878Y-921512D01*
X547878Y-1041907D01*
G37*
G36*
X417321Y-881887D02*
G01*
X417321Y-761492D01*
X547878Y-761492D01*
X547878Y-881887D01*
G37*
G36*
X2249170Y-1039621D02*
G01*
X2249170Y-919226D01*
X2424429Y-919226D01*
X2424429Y-1039621D01*
G37*
G36*
X2249170Y-1239773D02*
G01*
X2249170Y-1119378D01*
X2424429Y-1119378D01*
X2424429Y-1239773D01*
G37*
G36*
X6452870Y-1255521D02*
G01*
X6452870Y-1135126D01*
X6628129Y-1135126D01*
X6628129Y-1255521D01*
G37*
G36*
X6452870Y-1455673D02*
G01*
X6452870Y-1335278D01*
X6628129Y-1335278D01*
X6628129Y-1455673D01*
G37*
M02*
