G04 Layer: TopPasteMaskLayer*
G04 EasyEDA v6.5.1, 2022-03-27 10:56:42*
G04 f4f8d14073c14480b57db79f537dda5a,f5a38c858c354eb5b90fd3f81420cce3,10*
G04 Gerber Generator version 0.2*
G04 Scale: 100 percent, Rotated: No, Reflected: No *
G04 Dimensions in millimeters *
G04 leading zeros omitted , absolute positions ,4 integer and 5 decimal *
%FSLAX45Y45*%
%MOMM*%

%ADD15R,0.7000X1.2500*%
%ADD16R,1.2500X0.7000*%
%ADD17R,1.0000X1.1000*%
%ADD18R,1.1000X1.0000*%
%ADD19R,1.5500X1.0000*%

%LPD*%
G36*
X2454198Y-392671D02*
G01*
X2524201Y-392671D01*
X2524201Y-517667D01*
X2454198Y-517667D01*
G37*
G36*
X2359202Y-142732D02*
G01*
X2429205Y-142732D01*
X2429207Y-267731D01*
X2359202Y-267731D01*
G37*
G36*
X2549194Y-142732D02*
G01*
X2619197Y-142732D01*
X2619197Y-267731D01*
X2549192Y-267731D01*
G37*
D16*
G01*
X2707131Y-1778000D03*
G01*
X2957068Y-1683004D03*
G01*
X2957068Y-1872995D03*
G36*
X856322Y-1656976D02*
G01*
X806823Y-1607477D01*
X895210Y-1519090D01*
X944709Y-1568589D01*
G37*
G36*
X746762Y-1900880D02*
G01*
X697263Y-1851383D01*
X785649Y-1762993D01*
X835149Y-1812493D01*
G37*
G36*
X612416Y-1766536D02*
G01*
X562919Y-1717037D01*
X651306Y-1628650D01*
X700806Y-1678150D01*
G37*
G36*
X576922Y-1377576D02*
G01*
X527423Y-1328077D01*
X615810Y-1239690D01*
X665309Y-1289189D01*
G37*
G36*
X467362Y-1621480D02*
G01*
X417863Y-1571983D01*
X506249Y-1483593D01*
X555749Y-1533093D01*
G37*
G36*
X333016Y-1487136D02*
G01*
X283519Y-1437637D01*
X371906Y-1349250D01*
X421406Y-1398750D01*
G37*
G36*
X3711498Y-379968D02*
G01*
X3781501Y-379968D01*
X3781501Y-504967D01*
X3711498Y-504967D01*
G37*
G36*
X3616502Y-130032D02*
G01*
X3686505Y-130032D01*
X3686505Y-255031D01*
X3616502Y-255031D01*
G37*
G36*
X3806494Y-130032D02*
G01*
X3876497Y-130032D01*
X3876497Y-255031D01*
X3806494Y-255031D01*
G37*
G36*
X4092498Y-1141971D02*
G01*
X4162501Y-1141971D01*
X4162501Y-1266967D01*
X4092498Y-1266967D01*
G37*
G36*
X3997502Y-892032D02*
G01*
X4067505Y-892032D01*
X4067507Y-1017031D01*
X3997502Y-1017031D01*
G37*
G36*
X4187494Y-892032D02*
G01*
X4257497Y-892032D01*
X4257497Y-1017031D01*
X4187492Y-1017031D01*
G37*
G01*
X1437131Y-1790700D03*
G01*
X1687068Y-1695704D03*
G01*
X1687068Y-1885695D03*
G01*
X3735831Y-1739900D03*
G01*
X3985768Y-1644904D03*
G01*
X3985768Y-1834895D03*
G36*
X511098Y-481571D02*
G01*
X581101Y-481571D01*
X581101Y-606567D01*
X511098Y-606567D01*
G37*
G36*
X416102Y-231632D02*
G01*
X486105Y-231632D01*
X486107Y-356631D01*
X416102Y-356631D01*
G37*
G36*
X606094Y-231632D02*
G01*
X676097Y-231632D01*
X676097Y-356631D01*
X606092Y-356631D01*
G37*
G01*
X1653031Y-304800D03*
G01*
X1902968Y-209804D03*
G01*
X1902968Y-399795D03*
D15*
G01*
X2438400Y-1399031D03*
G01*
X2533395Y-1648968D03*
G01*
X2343404Y-1648968D03*
G01*
X6540500Y-1602231D03*
G01*
X6635495Y-1852168D03*
G01*
X6445504Y-1852168D03*
D16*
G01*
X6195568Y-228600D03*
G01*
X5945631Y-323595D03*
G01*
X5945631Y-133604D03*
G01*
X6707631Y-241300D03*
G01*
X6957568Y-146304D03*
G01*
X6957568Y-336295D03*
D15*
G01*
X7264400Y-1589531D03*
G01*
X7359395Y-1839468D03*
G01*
X7169404Y-1839468D03*
G01*
X5245100Y-1614931D03*
G01*
X5340095Y-1864868D03*
G01*
X5150104Y-1864868D03*
G01*
X8128000Y-1589531D03*
G01*
X8222995Y-1839468D03*
G01*
X8033004Y-1839468D03*
G36*
X8451476Y-1251877D02*
G01*
X8401977Y-1301376D01*
X8313590Y-1212989D01*
X8363089Y-1163490D01*
G37*
G36*
X8695380Y-1361437D02*
G01*
X8645883Y-1410936D01*
X8557493Y-1322550D01*
X8606993Y-1273050D01*
G37*
G36*
X8561036Y-1495783D02*
G01*
X8511537Y-1545280D01*
X8423150Y-1456893D01*
X8472650Y-1407393D01*
G37*
D16*
G01*
X4874768Y-635000D03*
G01*
X4624831Y-729995D03*
G01*
X4624831Y-540004D03*
G01*
X6995668Y-876300D03*
G01*
X6745731Y-971295D03*
G01*
X6745731Y-781304D03*
G01*
X5052568Y-1371600D03*
G01*
X4802631Y-1466595D03*
G01*
X4802631Y-1276604D03*
G01*
X7977631Y-241300D03*
G01*
X8227568Y-146304D03*
G01*
X8227568Y-336295D03*
G36*
X2100107Y-1748398D02*
G01*
X2200107Y-1748398D01*
X2200107Y-1858401D01*
X2100107Y-1858401D01*
G37*
G36*
X1940107Y-1748398D02*
G01*
X2040107Y-1748398D01*
X2040107Y-1858401D01*
X1940107Y-1858401D01*
G37*
D17*
G01*
X2840990Y-203200D03*
G01*
X3000984Y-203200D03*
G01*
X3209290Y-1816100D03*
G01*
X3369284Y-1816100D03*
G01*
X4047490Y-190500D03*
G01*
X4207484Y-190500D03*
D18*
G01*
X4203700Y-689610D03*
G01*
X4203700Y-529615D03*
G36*
X1173007Y-1799198D02*
G01*
X1273007Y-1799198D01*
X1273007Y-1909201D01*
X1173007Y-1909201D01*
G37*
G36*
X1013007Y-1799198D02*
G01*
X1113007Y-1799198D01*
X1113007Y-1909201D01*
X1013007Y-1909201D01*
G37*
G01*
X4216400Y-1832610D03*
G01*
X4216400Y-1672615D03*
D17*
G01*
X872489Y-190500D03*
G01*
X1032484Y-190500D03*
G36*
X6113307Y-1735698D02*
G01*
X6213307Y-1735698D01*
X6213307Y-1845701D01*
X6113307Y-1845701D01*
G37*
G36*
X5953307Y-1735698D02*
G01*
X6053307Y-1735698D01*
X6053307Y-1845701D01*
X5953307Y-1845701D01*
G37*
D18*
G01*
X8420100Y-300989D03*
G01*
X8420100Y-460984D03*
G01*
X4597400Y-1273810D03*
G01*
X4597400Y-1113815D03*
G36*
X6684807Y-529198D02*
G01*
X6784807Y-529198D01*
X6784807Y-639201D01*
X6684807Y-639201D01*
G37*
G36*
X6524807Y-529198D02*
G01*
X6624807Y-529198D01*
X6624807Y-639201D01*
X6524807Y-639201D01*
G37*
D17*
G01*
X4695190Y-203200D03*
G01*
X4855184Y-203200D03*
G36*
X8516726Y-1590890D02*
G01*
X8587437Y-1520179D01*
X8665220Y-1597962D01*
X8594509Y-1668673D01*
G37*
G36*
X8403590Y-1704027D02*
G01*
X8474301Y-1633316D01*
X8552083Y-1711098D01*
X8481372Y-1781810D01*
G37*
G36*
X7764307Y-1786498D02*
G01*
X7864307Y-1786498D01*
X7864307Y-1896501D01*
X7764307Y-1896501D01*
G37*
G36*
X7604307Y-1786498D02*
G01*
X7704307Y-1786498D01*
X7704307Y-1896501D01*
X7604307Y-1896501D01*
G37*
G36*
X4856007Y-1773798D02*
G01*
X4956007Y-1773798D01*
X4956007Y-1883801D01*
X4856007Y-1883801D01*
G37*
G36*
X4696007Y-1773798D02*
G01*
X4796007Y-1773798D01*
X4796007Y-1883801D01*
X4696007Y-1883801D01*
G37*
D18*
G01*
X6908800Y-1520189D03*
G01*
X6908800Y-1680184D03*
D17*
G01*
X7184390Y-330200D03*
G01*
X7344384Y-330200D03*
G36*
X5656107Y-110098D02*
G01*
X5756107Y-110098D01*
X5756107Y-220101D01*
X5656107Y-220101D01*
G37*
G36*
X5496107Y-110098D02*
G01*
X5596107Y-110098D01*
X5596107Y-220101D01*
X5496107Y-220101D01*
G37*
G01*
X2028190Y-635000D03*
G01*
X2188184Y-635000D03*
D18*
G01*
X482600Y-981710D03*
G01*
X482600Y-821715D03*
D19*
G01*
X2336800Y-979500D03*
G01*
X2336800Y-1179499D03*
G01*
X6540500Y-1195400D03*
G01*
X6540500Y-1395399D03*
M02*
