G04 Layer: BottomLayer*
G04 EasyEDA v6.4.24, 2021-09-25T18:24:48+02:00*
G04 92b9668f88874301bfa8342a5f0d0e57,f5a38c858c354eb5b90fd3f81420cce3,10*
G04 Gerber Generator version 0.2*
G04 Scale: 100 percent, Rotated: No, Reflected: No *
G04 Dimensions in millimeters *
G04 leading zeros omitted , absolute positions ,4 integer and 5 decimal *
%FSLAX45Y45*%
%MOMM*%

%ADD10C,0.2540*%
%ADD11C,0.1500*%
%ADD12C,0.6096*%
%ADD13C,0.6100*%
%ADD14C,0.6050*%
%ADD20C,1.0000*%
%ADD22C,1.5000*%

%LPD*%
G36*
X3339998Y-169113D02*
G01*
X3336086Y-168300D01*
X3332835Y-166116D01*
X3210001Y-43434D01*
X3207664Y-40182D01*
X3206800Y-36271D01*
X3207512Y-32308D01*
X3209696Y-28956D01*
X3212998Y-26720D01*
X3216960Y-25908D01*
X3626764Y-25908D01*
X3631082Y-26873D01*
X3634587Y-29565D01*
X3636568Y-33426D01*
X3636772Y-37846D01*
X3635095Y-41910D01*
X3631844Y-44856D01*
X3627628Y-46177D01*
X3624173Y-46482D01*
X3607917Y-49784D01*
X3592118Y-54914D01*
X3576980Y-61823D01*
X3562756Y-70408D01*
X3549599Y-80518D01*
X3537712Y-92100D01*
X3527196Y-105003D01*
X3520541Y-115316D01*
X3518255Y-117805D01*
X3515309Y-119430D01*
X3512007Y-119989D01*
X3501542Y-119989D01*
X3498697Y-119583D01*
X3496056Y-118414D01*
X3490214Y-114655D01*
X3477971Y-108966D01*
X3465118Y-105003D01*
X3451809Y-102717D01*
X3438347Y-102311D01*
X3424885Y-103632D01*
X3411778Y-106781D01*
X3399180Y-111607D01*
X3387394Y-118110D01*
X3376523Y-126085D01*
X3366820Y-135483D01*
X3358438Y-146050D01*
X3351580Y-157683D01*
X3349345Y-162915D01*
X3347161Y-166166D01*
X3343859Y-168351D01*
G37*

%LPD*%
G36*
X7939786Y-457149D02*
G01*
X7935874Y-456387D01*
X7932572Y-454151D01*
X7930388Y-450850D01*
X7929625Y-446989D01*
X7929625Y-416610D01*
X7930388Y-412750D01*
X7932572Y-409448D01*
X7935874Y-407212D01*
X7939786Y-406450D01*
X7943646Y-407212D01*
X7946948Y-409448D01*
X7955381Y-423214D01*
X7957058Y-425196D01*
X7958886Y-428294D01*
X7959496Y-431800D01*
X7958886Y-435305D01*
X7957058Y-438404D01*
X7955381Y-440385D01*
X7946948Y-454151D01*
X7943646Y-456387D01*
G37*

%LPD*%
G36*
X6371742Y-462889D02*
G01*
X6368897Y-462483D01*
X6366256Y-461314D01*
X6360414Y-457555D01*
X6343650Y-449580D01*
X6341160Y-446278D01*
X6340144Y-442264D01*
X6340856Y-438200D01*
X6343091Y-434695D01*
X6379362Y-398475D01*
X6382613Y-396290D01*
X6386525Y-395528D01*
X6451092Y-395528D01*
X6455105Y-396341D01*
X6458458Y-398678D01*
X6460591Y-402132D01*
X6461252Y-406146D01*
X6460236Y-410108D01*
X6457746Y-413359D01*
X6454190Y-415340D01*
X6447840Y-417372D01*
X6442456Y-419608D01*
X6437122Y-422249D01*
X6432042Y-425297D01*
X6427114Y-428701D01*
X6422491Y-432409D01*
X6418021Y-436575D01*
X6394704Y-459892D01*
X6391402Y-462127D01*
X6387541Y-462889D01*
G37*

%LPD*%
G36*
X3058261Y-483362D02*
G01*
X3054553Y-482447D01*
X3051454Y-480212D01*
X3049371Y-477012D01*
X3048609Y-473252D01*
X3048558Y-457403D01*
X3047695Y-448360D01*
X3047288Y-445871D01*
X3045104Y-437032D01*
X3044291Y-434593D01*
X3040786Y-426161D01*
X3039668Y-423926D01*
X3034944Y-416102D01*
X3033471Y-414020D01*
X3027680Y-407009D01*
X2944672Y-323951D01*
X2942488Y-320649D01*
X2941726Y-316788D01*
X2942488Y-312877D01*
X2944672Y-309575D01*
X2947974Y-307390D01*
X2951886Y-306628D01*
X2994609Y-306628D01*
X2998470Y-307390D01*
X3001772Y-309575D01*
X3067405Y-375208D01*
X3069640Y-378510D01*
X3070402Y-382422D01*
X3070402Y-471982D01*
X3069488Y-476199D01*
X3066846Y-479704D01*
X3065373Y-480923D01*
X3062071Y-482854D01*
G37*

%LPD*%
G36*
X7558278Y-483362D02*
G01*
X7554569Y-482447D01*
X7551420Y-480263D01*
X7549337Y-477012D01*
X7548625Y-473252D01*
X7548575Y-457403D01*
X7547711Y-448360D01*
X7547305Y-445871D01*
X7544308Y-434593D01*
X7540802Y-426161D01*
X7534960Y-416102D01*
X7533487Y-414020D01*
X7527645Y-407009D01*
X7444689Y-323951D01*
X7442504Y-320649D01*
X7441692Y-316788D01*
X7442504Y-312877D01*
X7444689Y-309575D01*
X7447991Y-307390D01*
X7451852Y-306628D01*
X7494574Y-306628D01*
X7498486Y-307390D01*
X7501737Y-309575D01*
X7567422Y-375259D01*
X7569606Y-378510D01*
X7570368Y-382422D01*
X7570368Y-471982D01*
X7569453Y-476250D01*
X7566812Y-479704D01*
X7565390Y-480923D01*
X7562037Y-482854D01*
G37*

%LPD*%
G36*
X7749540Y-496366D02*
G01*
X7745323Y-495300D01*
X7741920Y-492607D01*
X7737449Y-487019D01*
X7729474Y-479298D01*
X7727188Y-475996D01*
X7726425Y-472033D01*
X7726375Y-343154D01*
X7725511Y-334060D01*
X7722870Y-322732D01*
X7722108Y-320294D01*
X7718602Y-311861D01*
X7712760Y-301802D01*
X7711287Y-299720D01*
X7705445Y-292709D01*
X7609789Y-196951D01*
X7607553Y-193649D01*
X7606792Y-189788D01*
X7607553Y-185877D01*
X7609789Y-182575D01*
X7613091Y-180390D01*
X7616952Y-179628D01*
X7621574Y-179628D01*
X7625486Y-180390D01*
X7628788Y-182575D01*
X7770622Y-324408D01*
X7772806Y-327710D01*
X7773568Y-331622D01*
X7773568Y-471982D01*
X7772653Y-476250D01*
X7770063Y-479704D01*
X7767726Y-481685D01*
X7757363Y-493064D01*
X7753807Y-495604D01*
G37*

%LPD*%
G36*
X3249523Y-496366D02*
G01*
X3245307Y-495300D01*
X3241903Y-492607D01*
X3237433Y-487019D01*
X3229508Y-479348D01*
X3227222Y-475996D01*
X3226409Y-472033D01*
X3226358Y-343154D01*
X3225495Y-334060D01*
X3225088Y-331571D01*
X3222904Y-322732D01*
X3222091Y-320294D01*
X3218586Y-311861D01*
X3217468Y-309626D01*
X3212744Y-301802D01*
X3211271Y-299720D01*
X3205480Y-292709D01*
X3109772Y-196951D01*
X3107588Y-193649D01*
X3106826Y-189788D01*
X3107588Y-185877D01*
X3109772Y-182575D01*
X3113074Y-180390D01*
X3116986Y-179628D01*
X3121456Y-179628D01*
X3125368Y-180390D01*
X3128619Y-182575D01*
X3270554Y-324510D01*
X3272739Y-327761D01*
X3273501Y-331673D01*
X3273501Y-472033D01*
X3272586Y-476300D01*
X3269945Y-479755D01*
X3267710Y-481685D01*
X3257346Y-493064D01*
X3253790Y-495604D01*
G37*

%LPD*%
G36*
X1736852Y-556971D02*
G01*
X1732991Y-556209D01*
X1729689Y-554024D01*
X1727454Y-550722D01*
X1726692Y-546811D01*
X1727454Y-542950D01*
X1729689Y-539648D01*
X1870862Y-398475D01*
X1874113Y-396290D01*
X1878025Y-395528D01*
X2514650Y-395528D01*
X2518714Y-396392D01*
X2522118Y-398780D01*
X2524252Y-402386D01*
X2524760Y-406552D01*
X2523540Y-410565D01*
X2520848Y-413715D01*
X2508199Y-423418D01*
X2496312Y-435000D01*
X2486964Y-446481D01*
X2483459Y-449224D01*
X2479090Y-450189D01*
X2383942Y-450189D01*
X2381097Y-449783D01*
X2378456Y-448614D01*
X2372614Y-444855D01*
X2360371Y-439166D01*
X2347518Y-435203D01*
X2334209Y-432917D01*
X2320747Y-432511D01*
X2307285Y-433832D01*
X2294178Y-436981D01*
X2281580Y-441807D01*
X2269794Y-448309D01*
X2258923Y-456285D01*
X2249220Y-465683D01*
X2240838Y-476250D01*
X2233980Y-487883D01*
X2228697Y-500278D01*
X2225141Y-513283D01*
X2223363Y-526643D01*
X2223363Y-540156D01*
X2224074Y-545490D01*
X2223719Y-549757D01*
X2221636Y-553516D01*
X2218182Y-556056D01*
X2214016Y-556971D01*
G37*

%LPD*%
G36*
X6713626Y-582371D02*
G01*
X6709511Y-581507D01*
X6706108Y-579069D01*
X6703974Y-575411D01*
X6703517Y-571246D01*
X6704787Y-567232D01*
X6709156Y-559511D01*
X6715607Y-544169D01*
X6720331Y-528269D01*
X6723125Y-511860D01*
X6724091Y-495300D01*
X6723125Y-478739D01*
X6720331Y-462330D01*
X6715607Y-446430D01*
X6709156Y-431088D01*
X6700977Y-416661D01*
X6697370Y-411632D01*
X6695592Y-407568D01*
X6695744Y-403148D01*
X6697776Y-399186D01*
X6701281Y-396494D01*
X6705600Y-395528D01*
X6832447Y-395528D01*
X6836664Y-396443D01*
X6840118Y-399034D01*
X6842201Y-402793D01*
X6842506Y-407111D01*
X6840981Y-411175D01*
X6832904Y-423773D01*
X6825589Y-438658D01*
X6820001Y-454304D01*
X6816242Y-470509D01*
X6814362Y-486968D01*
X6814362Y-503631D01*
X6816242Y-520090D01*
X6820001Y-536295D01*
X6825589Y-551942D01*
X6832853Y-566724D01*
X6834327Y-570788D01*
X6834022Y-575106D01*
X6831990Y-578866D01*
X6828536Y-581456D01*
X6824319Y-582371D01*
G37*

%LPD*%
G36*
X1150061Y-709371D02*
G01*
X1146149Y-708609D01*
X1142288Y-705815D01*
X1140104Y-702564D01*
X1139291Y-698754D01*
X1140002Y-694893D01*
X1142136Y-691591D01*
X1145336Y-689356D01*
X1149146Y-688492D01*
X1153617Y-688340D01*
X1157681Y-689051D01*
X1161846Y-692048D01*
X1164082Y-695350D01*
X1164844Y-699211D01*
X1164082Y-703122D01*
X1161846Y-706424D01*
X1158544Y-708609D01*
X1154684Y-709371D01*
G37*

%LPD*%
G36*
X2713177Y-824788D02*
G01*
X2709316Y-824026D01*
X2706014Y-821842D01*
X2579166Y-695096D01*
X2576931Y-691692D01*
X2576220Y-687628D01*
X2577134Y-683615D01*
X2579624Y-680313D01*
X2583180Y-678281D01*
X2587244Y-677773D01*
X2599334Y-678840D01*
X2615946Y-678383D01*
X2632405Y-675995D01*
X2648458Y-671779D01*
X2663952Y-665734D01*
X2678633Y-658012D01*
X2692349Y-648614D01*
X2704896Y-637743D01*
X2716123Y-625500D01*
X2725877Y-612038D01*
X2734056Y-597611D01*
X2740507Y-582269D01*
X2745232Y-566369D01*
X2748026Y-549960D01*
X2748991Y-533400D01*
X2748026Y-516839D01*
X2745232Y-500430D01*
X2740507Y-484530D01*
X2734056Y-469188D01*
X2725877Y-454761D01*
X2716123Y-441299D01*
X2704896Y-429056D01*
X2692349Y-418185D01*
X2686304Y-414070D01*
X2683357Y-410972D01*
X2681986Y-406908D01*
X2682341Y-402691D01*
X2684424Y-398932D01*
X2687878Y-396392D01*
X2692044Y-395528D01*
X2791409Y-395528D01*
X2795270Y-396290D01*
X2798572Y-398475D01*
X2889605Y-489508D01*
X2891840Y-492810D01*
X2892602Y-496722D01*
X2892602Y-548182D01*
X2891688Y-552450D01*
X2889046Y-555904D01*
X2886710Y-557885D01*
X2876753Y-568858D01*
X2868168Y-580999D01*
X2861157Y-594055D01*
X2855772Y-607872D01*
X2852166Y-622249D01*
X2850337Y-636981D01*
X2850337Y-651814D01*
X2852166Y-666546D01*
X2854706Y-676554D01*
X2854909Y-680313D01*
X2853791Y-683869D01*
X2851454Y-686765D01*
X2848203Y-688644D01*
X2844495Y-689203D01*
X2839872Y-689051D01*
X2825140Y-690422D01*
X2810611Y-693623D01*
X2796641Y-698550D01*
X2783332Y-705154D01*
X2770987Y-713333D01*
X2759710Y-722985D01*
X2749753Y-733958D01*
X2741168Y-746048D01*
X2734157Y-759155D01*
X2728772Y-772972D01*
X2725166Y-787349D01*
X2723337Y-802081D01*
X2723337Y-814628D01*
X2722575Y-818540D01*
X2720340Y-821842D01*
X2717088Y-824026D01*
G37*

%LPD*%
G36*
X7213193Y-824839D02*
G01*
X7209281Y-824077D01*
X7205980Y-821893D01*
X7024370Y-640232D01*
X7022236Y-637133D01*
X7021423Y-633425D01*
X7021982Y-629716D01*
X7023862Y-626414D01*
X7026808Y-624078D01*
X7034733Y-619912D01*
X7048449Y-610514D01*
X7060996Y-599643D01*
X7072223Y-587400D01*
X7075627Y-582676D01*
X7077913Y-580440D01*
X7080707Y-579018D01*
X7083856Y-578510D01*
X7115251Y-578510D01*
X7117791Y-578815D01*
X7120178Y-579780D01*
X7133031Y-586892D01*
X7145578Y-591718D01*
X7158685Y-594868D01*
X7172147Y-596188D01*
X7185609Y-595782D01*
X7198918Y-593496D01*
X7211771Y-589534D01*
X7224014Y-583844D01*
X7235393Y-576580D01*
X7245705Y-567893D01*
X7254748Y-557885D01*
X7262368Y-546760D01*
X7268464Y-534720D01*
X7272883Y-521970D01*
X7275575Y-508762D01*
X7276490Y-495300D01*
X7275575Y-481838D01*
X7272883Y-468630D01*
X7268464Y-455879D01*
X7262368Y-443839D01*
X7254748Y-432714D01*
X7245705Y-422706D01*
X7234681Y-413461D01*
X7232142Y-410209D01*
X7231075Y-406247D01*
X7231684Y-402183D01*
X7233818Y-398678D01*
X7237171Y-396341D01*
X7241184Y-395528D01*
X7291374Y-395528D01*
X7295286Y-396290D01*
X7298588Y-398475D01*
X7389622Y-489508D01*
X7391806Y-492810D01*
X7392568Y-496722D01*
X7392568Y-548182D01*
X7391653Y-552450D01*
X7389063Y-555904D01*
X7386726Y-557885D01*
X7376718Y-568858D01*
X7368133Y-580999D01*
X7361123Y-594055D01*
X7355789Y-607872D01*
X7352182Y-622249D01*
X7350353Y-636981D01*
X7350353Y-651814D01*
X7352182Y-666546D01*
X7354671Y-676554D01*
X7354925Y-680313D01*
X7353757Y-683869D01*
X7351420Y-686765D01*
X7348220Y-688644D01*
X7344511Y-689203D01*
X7339888Y-689051D01*
X7325106Y-690422D01*
X7310628Y-693623D01*
X7296658Y-698550D01*
X7283348Y-705154D01*
X7271003Y-713333D01*
X7259726Y-722985D01*
X7249718Y-733958D01*
X7241133Y-746048D01*
X7234123Y-759155D01*
X7228789Y-772972D01*
X7225182Y-787349D01*
X7223353Y-802081D01*
X7223353Y-814679D01*
X7222540Y-818591D01*
X7220356Y-821893D01*
X7217054Y-824077D01*
G37*

%LPD*%
G36*
X1789582Y-920292D02*
G01*
X1785569Y-919632D01*
X1782114Y-917448D01*
X1774596Y-910183D01*
X1772361Y-906881D01*
X1771497Y-902969D01*
X1772259Y-899058D01*
X1774443Y-895705D01*
X1777746Y-893470D01*
X1781657Y-892708D01*
X1788617Y-892708D01*
X1792325Y-893419D01*
X1795525Y-895400D01*
X1797761Y-898448D01*
X1798777Y-902055D01*
X1799336Y-909370D01*
X1798828Y-913384D01*
X1796796Y-916940D01*
X1793493Y-919327D01*
G37*

%LPD*%
G36*
X924509Y-921969D02*
G01*
X920394Y-921105D01*
X916990Y-918667D01*
X914908Y-915060D01*
X914400Y-910894D01*
X915619Y-906881D01*
X918413Y-903732D01*
X921969Y-900988D01*
X932637Y-890676D01*
X941933Y-879094D01*
X949756Y-866495D01*
X955954Y-853033D01*
X960475Y-838911D01*
X963168Y-824331D01*
X964082Y-809498D01*
X963168Y-794715D01*
X960475Y-780135D01*
X959764Y-778002D01*
X959307Y-774293D01*
X960221Y-770686D01*
X962406Y-767638D01*
X965504Y-765556D01*
X969162Y-764794D01*
X975868Y-764540D01*
X979881Y-765251D01*
X983335Y-767537D01*
X1060348Y-844448D01*
X1067358Y-850290D01*
X1069441Y-851763D01*
X1079500Y-857605D01*
X1087932Y-861110D01*
X1099210Y-864057D01*
X1101699Y-864514D01*
X1110792Y-865378D01*
X1260348Y-865428D01*
X1264208Y-866190D01*
X1267510Y-868375D01*
X1269746Y-871677D01*
X1270508Y-875588D01*
X1269746Y-879449D01*
X1267510Y-882751D01*
X1231239Y-919022D01*
X1227988Y-921207D01*
X1224076Y-921969D01*
G37*

%LPD*%
G36*
X5424525Y-921969D02*
G01*
X5420410Y-921105D01*
X5417007Y-918667D01*
X5414873Y-915060D01*
X5414416Y-910894D01*
X5415635Y-906881D01*
X5418378Y-903732D01*
X5421985Y-900988D01*
X5432653Y-890676D01*
X5441950Y-879094D01*
X5449773Y-866495D01*
X5455970Y-853033D01*
X5460441Y-838911D01*
X5463184Y-824331D01*
X5464098Y-809498D01*
X5463184Y-794715D01*
X5460441Y-780135D01*
X5459780Y-778002D01*
X5459323Y-774293D01*
X5460238Y-770686D01*
X5462371Y-767638D01*
X5465521Y-765556D01*
X5469128Y-764794D01*
X5475884Y-764540D01*
X5479948Y-765251D01*
X5483402Y-767537D01*
X5543702Y-827786D01*
X5552948Y-835355D01*
X5562955Y-841298D01*
X5573776Y-845667D01*
X5585104Y-848360D01*
X5597093Y-849426D01*
X5770321Y-851357D01*
X5774182Y-852169D01*
X5777433Y-854354D01*
X5779617Y-857656D01*
X5780379Y-861568D01*
X5779566Y-865428D01*
X5777382Y-868680D01*
X5727039Y-919022D01*
X5723788Y-921207D01*
X5719876Y-921969D01*
G37*

%LPD*%
G36*
X2531770Y-925271D02*
G01*
X2527858Y-924509D01*
X2524607Y-922324D01*
X2522372Y-919022D01*
X2521610Y-915111D01*
X2521610Y-882650D01*
X2522372Y-878789D01*
X2524607Y-875487D01*
X2527858Y-873252D01*
X2531770Y-872490D01*
X2535631Y-873252D01*
X2538933Y-875487D01*
X2571445Y-907948D01*
X2573680Y-911250D01*
X2574442Y-915111D01*
X2573680Y-919022D01*
X2571445Y-922324D01*
X2568143Y-924509D01*
X2564282Y-925271D01*
G37*

%LPD*%
G36*
X7027570Y-925271D02*
G01*
X7023658Y-924509D01*
X7020407Y-922324D01*
X7018172Y-919022D01*
X7017410Y-915111D01*
X7017410Y-878484D01*
X7018172Y-874572D01*
X7020407Y-871270D01*
X7023658Y-869086D01*
X7027570Y-868324D01*
X7031481Y-869086D01*
X7034733Y-871270D01*
X7071410Y-907948D01*
X7073646Y-911250D01*
X7074408Y-915111D01*
X7073646Y-919022D01*
X7071410Y-922324D01*
X7068108Y-924509D01*
X7064248Y-925271D01*
G37*

%LPD*%
G36*
X7419035Y-948385D02*
G01*
X7415022Y-946810D01*
X7412075Y-943711D01*
X7403846Y-930402D01*
X7402068Y-928166D01*
X7400086Y-924255D01*
X7399985Y-919937D01*
X7401661Y-915924D01*
X7404862Y-912977D01*
X7410145Y-909929D01*
X7421981Y-900988D01*
X7432649Y-890676D01*
X7441946Y-879094D01*
X7449769Y-866495D01*
X7455966Y-853033D01*
X7460437Y-838911D01*
X7463180Y-824331D01*
X7464094Y-809498D01*
X7463180Y-794715D01*
X7460437Y-780135D01*
X7459776Y-778002D01*
X7459319Y-774293D01*
X7460234Y-770686D01*
X7462367Y-767638D01*
X7465517Y-765556D01*
X7469174Y-764794D01*
X7481722Y-764387D01*
X7496352Y-762101D01*
X7510627Y-758037D01*
X7524292Y-752246D01*
X7537145Y-744829D01*
X7548981Y-735888D01*
X7559649Y-725576D01*
X7568946Y-714044D01*
X7576769Y-701395D01*
X7582966Y-687933D01*
X7584287Y-683717D01*
X7586472Y-679958D01*
X7590028Y-677418D01*
X7594295Y-676656D01*
X7598511Y-677722D01*
X7601407Y-679145D01*
X7615428Y-684072D01*
X7629906Y-687273D01*
X7644688Y-688644D01*
X7659522Y-688187D01*
X7674152Y-685901D01*
X7688427Y-681837D01*
X7702092Y-676046D01*
X7714945Y-668629D01*
X7726781Y-659688D01*
X7737449Y-649376D01*
X7741920Y-643788D01*
X7745323Y-641096D01*
X7749540Y-640029D01*
X7753807Y-640791D01*
X7757363Y-643331D01*
X7767726Y-654710D01*
X7779003Y-664362D01*
X7791348Y-672541D01*
X7804607Y-679145D01*
X7818628Y-684072D01*
X7833106Y-687273D01*
X7847888Y-688644D01*
X7862722Y-688187D01*
X7877352Y-685901D01*
X7891627Y-681837D01*
X7905292Y-676046D01*
X7918145Y-668629D01*
X7929981Y-659688D01*
X7940649Y-649376D01*
X7949946Y-637794D01*
X7953603Y-633679D01*
X7957667Y-632104D01*
X7961985Y-632358D01*
X7965795Y-634390D01*
X7970977Y-638810D01*
X7980425Y-644601D01*
X7990636Y-648817D01*
X8001355Y-651408D01*
X8013039Y-652322D01*
X8016646Y-653338D01*
X8019694Y-655574D01*
X8021675Y-658774D01*
X8022386Y-662432D01*
X8022386Y-758494D01*
X8022590Y-764641D01*
X8023250Y-770534D01*
X8024317Y-776376D01*
X8025739Y-782116D01*
X8027619Y-787755D01*
X8029905Y-793242D01*
X8032546Y-798474D01*
X8034629Y-801878D01*
X8035747Y-804418D01*
X8036153Y-807212D01*
X8036153Y-816914D01*
X8037982Y-831646D01*
X8041589Y-846023D01*
X8046923Y-859840D01*
X8053933Y-872947D01*
X8062518Y-885037D01*
X8072526Y-896010D01*
X8083803Y-905662D01*
X8085328Y-906678D01*
X8088325Y-909726D01*
X8089747Y-913790D01*
X8089442Y-918057D01*
X8087359Y-921816D01*
X8083905Y-924356D01*
X8079689Y-925271D01*
X7477556Y-925321D01*
X7468463Y-926185D01*
X7457135Y-928827D01*
X7454696Y-929589D01*
X7446264Y-933094D01*
X7436205Y-938936D01*
X7434122Y-940409D01*
X7427163Y-946200D01*
X7423353Y-948182D01*
G37*

%LPD*%
G36*
X5880354Y-1010869D02*
G01*
X5876493Y-1010107D01*
X5873191Y-1007922D01*
X5870956Y-1004620D01*
X5870194Y-1000709D01*
X5870956Y-996848D01*
X5873191Y-993546D01*
X6024727Y-842010D01*
X6028080Y-839774D01*
X6031992Y-839012D01*
X6035903Y-839876D01*
X6039205Y-842111D01*
X6041390Y-845515D01*
X6046927Y-859840D01*
X6053937Y-872947D01*
X6062522Y-885037D01*
X6072530Y-896010D01*
X6083808Y-905662D01*
X6095593Y-913485D01*
X6098438Y-916330D01*
X6099962Y-920089D01*
X6099911Y-924102D01*
X6098286Y-927811D01*
X6092037Y-936548D01*
X6085027Y-949655D01*
X6079693Y-963472D01*
X6076086Y-977849D01*
X6074257Y-992581D01*
X6074257Y-1000709D01*
X6073444Y-1004620D01*
X6071260Y-1007922D01*
X6067958Y-1010107D01*
X6064097Y-1010869D01*
G37*

%LPD*%
G36*
X1384554Y-1010869D02*
G01*
X1380693Y-1010107D01*
X1377391Y-1007922D01*
X1375156Y-1004620D01*
X1374394Y-1000709D01*
X1375156Y-996848D01*
X1377391Y-993546D01*
X1525879Y-845007D01*
X1529232Y-842822D01*
X1533194Y-842060D01*
X1537106Y-842873D01*
X1540408Y-845159D01*
X1542542Y-848563D01*
X1546961Y-859840D01*
X1553972Y-872947D01*
X1562506Y-885037D01*
X1572514Y-896010D01*
X1583791Y-905662D01*
X1595577Y-913485D01*
X1598422Y-916330D01*
X1599946Y-920089D01*
X1599895Y-924102D01*
X1598269Y-927811D01*
X1592072Y-936548D01*
X1585061Y-949655D01*
X1579676Y-963472D01*
X1576070Y-977849D01*
X1574241Y-992581D01*
X1574241Y-1000709D01*
X1573479Y-1004620D01*
X1571244Y-1007922D01*
X1567942Y-1010107D01*
X1564081Y-1010869D01*
G37*

%LPD*%
G36*
X7502652Y-1115771D02*
G01*
X7498791Y-1115009D01*
X7495489Y-1112824D01*
X7493253Y-1109522D01*
X7492492Y-1105611D01*
X7493253Y-1101750D01*
X7495489Y-1098448D01*
X7509662Y-1084275D01*
X7512913Y-1082090D01*
X7516825Y-1081328D01*
X8058810Y-1081328D01*
X8062823Y-1082141D01*
X8066176Y-1084478D01*
X8068360Y-1087932D01*
X8068970Y-1091996D01*
X8067954Y-1095959D01*
X8065414Y-1099210D01*
X8059826Y-1103985D01*
X8052104Y-1112469D01*
X8048701Y-1114907D01*
X8044586Y-1115771D01*
G37*

%LPD*%
G36*
X3002686Y-1115771D02*
G01*
X2998774Y-1115009D01*
X2995472Y-1112824D01*
X2993288Y-1109522D01*
X2992526Y-1105611D01*
X2993288Y-1101750D01*
X2995472Y-1098448D01*
X3009646Y-1084275D01*
X3012948Y-1082090D01*
X3016808Y-1081328D01*
X3558844Y-1081328D01*
X3562858Y-1082141D01*
X3566210Y-1084478D01*
X3568344Y-1087932D01*
X3568954Y-1091996D01*
X3567937Y-1095959D01*
X3565448Y-1099210D01*
X3559810Y-1103985D01*
X3552088Y-1112469D01*
X3548684Y-1114907D01*
X3544570Y-1115771D01*
G37*

%LPD*%
G36*
X969162Y-1235252D02*
G01*
X965504Y-1234440D01*
X962406Y-1232357D01*
X960221Y-1229309D01*
X959307Y-1225702D01*
X959764Y-1221994D01*
X960475Y-1219911D01*
X963168Y-1205331D01*
X964082Y-1190498D01*
X963777Y-1185418D01*
X964437Y-1181201D01*
X966724Y-1177645D01*
X974496Y-1169873D01*
X977747Y-1167688D01*
X981659Y-1166926D01*
X1026160Y-1166926D01*
X1029969Y-1167638D01*
X1033221Y-1169771D01*
X1035456Y-1172972D01*
X1036269Y-1176782D01*
X1035659Y-1180642D01*
X1033576Y-1183944D01*
X1030478Y-1186281D01*
X1026058Y-1188313D01*
X1018387Y-1192936D01*
X1016304Y-1194409D01*
X1009294Y-1200251D01*
X977188Y-1232306D01*
X973734Y-1234541D01*
G37*

%LPD*%
G36*
X5469128Y-1235252D02*
G01*
X5465521Y-1234440D01*
X5462371Y-1232357D01*
X5460238Y-1229309D01*
X5459323Y-1225702D01*
X5459780Y-1221994D01*
X5460441Y-1219911D01*
X5463184Y-1205331D01*
X5464098Y-1190498D01*
X5463794Y-1185519D01*
X5464403Y-1181303D01*
X5466740Y-1177747D01*
X5474614Y-1169873D01*
X5477865Y-1167688D01*
X5481777Y-1166926D01*
X5526278Y-1166926D01*
X5530088Y-1167638D01*
X5533339Y-1169771D01*
X5535574Y-1172972D01*
X5536387Y-1176782D01*
X5535777Y-1180642D01*
X5533694Y-1183944D01*
X5530596Y-1186281D01*
X5526176Y-1188313D01*
X5518505Y-1192936D01*
X5516422Y-1194409D01*
X5509412Y-1200251D01*
X5477306Y-1232306D01*
X5473852Y-1234541D01*
G37*

%LPD*%
G36*
X2373325Y-1318971D02*
G01*
X2369413Y-1318209D01*
X2366162Y-1316024D01*
X2335987Y-1285849D01*
X2333752Y-1282547D01*
X2332990Y-1278686D01*
X2333752Y-1274775D01*
X2335987Y-1271473D01*
X2339289Y-1269288D01*
X2343150Y-1268526D01*
X2360472Y-1268526D01*
X2364384Y-1269288D01*
X2367635Y-1271473D01*
X2397810Y-1301648D01*
X2400046Y-1304950D01*
X2400808Y-1308811D01*
X2400046Y-1312722D01*
X2397810Y-1316024D01*
X2394508Y-1318209D01*
X2390648Y-1318971D01*
G37*

%LPD*%
G36*
X6792925Y-1318971D02*
G01*
X6789013Y-1318209D01*
X6785762Y-1316024D01*
X6761835Y-1292098D01*
X6759448Y-1288440D01*
X6758889Y-1284071D01*
X6760159Y-1279906D01*
X6763105Y-1276654D01*
X6767169Y-1273708D01*
X6770014Y-1272286D01*
X6773113Y-1271828D01*
X6796074Y-1271828D01*
X6799986Y-1272590D01*
X6803237Y-1274775D01*
X6830110Y-1301648D01*
X6832346Y-1304950D01*
X6833108Y-1308811D01*
X6832346Y-1312722D01*
X6830110Y-1316024D01*
X6826808Y-1318209D01*
X6822948Y-1318971D01*
G37*

%LPD*%
G36*
X840994Y-1343050D02*
G01*
X836777Y-1341780D01*
X833424Y-1338834D01*
X831697Y-1334719D01*
X830580Y-1328521D01*
X829360Y-1323594D01*
X829106Y-1319936D01*
X830122Y-1316482D01*
X832307Y-1313586D01*
X835406Y-1311656D01*
X838962Y-1310894D01*
X844600Y-1310792D01*
X848258Y-1311402D01*
X851458Y-1313281D01*
X853795Y-1316177D01*
X854913Y-1319733D01*
X854710Y-1323441D01*
X851357Y-1336090D01*
X849071Y-1339900D01*
X845413Y-1342390D01*
G37*

%LPD*%
G36*
X656031Y-1416558D02*
G01*
X652170Y-1415846D01*
X648868Y-1413713D01*
X628802Y-1394358D01*
X626567Y-1391158D01*
X625703Y-1387348D01*
X626364Y-1383487D01*
X628396Y-1380185D01*
X633323Y-1374800D01*
X636727Y-1370076D01*
X639013Y-1367840D01*
X641807Y-1366418D01*
X647141Y-1365910D01*
X651002Y-1366672D01*
X654304Y-1368907D01*
X663092Y-1377696D01*
X665327Y-1380998D01*
X666089Y-1384858D01*
X666089Y-1406398D01*
X665327Y-1410258D01*
X663143Y-1413560D01*
X659892Y-1415745D01*
G37*

%LPD*%
G36*
X6120942Y-1458671D02*
G01*
X6117031Y-1457909D01*
X6113678Y-1455674D01*
X6111494Y-1452321D01*
X6110782Y-1448409D01*
X6111595Y-1444498D01*
X6113830Y-1441246D01*
X6118758Y-1436471D01*
X6122009Y-1434338D01*
X6125819Y-1433626D01*
X6373672Y-1433626D01*
X6377584Y-1434388D01*
X6380835Y-1436573D01*
X6385610Y-1441348D01*
X6387846Y-1444650D01*
X6388608Y-1448511D01*
X6387846Y-1452422D01*
X6385610Y-1455724D01*
X6382308Y-1457909D01*
X6378448Y-1458671D01*
G37*

%LPD*%
G36*
X848614Y-1626107D02*
G01*
X844397Y-1626057D01*
X840536Y-1624279D01*
X837742Y-1621129D01*
X836472Y-1617116D01*
X836117Y-1613306D01*
X832510Y-1598523D01*
X832510Y-1381658D01*
X833374Y-1377594D01*
X835812Y-1374190D01*
X839368Y-1372057D01*
X843534Y-1371549D01*
X847496Y-1372717D01*
X850696Y-1375410D01*
X852525Y-1379169D01*
X855776Y-1392123D01*
X861161Y-1405940D01*
X868171Y-1419047D01*
X876706Y-1431137D01*
X886714Y-1442110D01*
X897991Y-1451762D01*
X910336Y-1459941D01*
X923645Y-1466545D01*
X926896Y-1467713D01*
X930452Y-1469847D01*
X932840Y-1473250D01*
X933653Y-1477314D01*
X933653Y-1561846D01*
X933907Y-1566011D01*
X933348Y-1569821D01*
X931468Y-1573174D01*
X928420Y-1575562D01*
X909878Y-1579981D01*
X897280Y-1584807D01*
X885494Y-1591310D01*
X874623Y-1599285D01*
X864920Y-1608683D01*
X856538Y-1619250D01*
X855319Y-1621332D01*
X852474Y-1624431D01*
G37*

%LPD*%
G36*
X1901342Y-1720189D02*
G01*
X1898497Y-1719783D01*
X1895856Y-1718614D01*
X1890014Y-1714855D01*
X1881835Y-1711045D01*
X1878634Y-1708759D01*
X1876602Y-1705457D01*
X1875942Y-1701596D01*
X1876755Y-1697786D01*
X1878990Y-1694586D01*
X1882241Y-1692402D01*
X1886102Y-1691690D01*
X2003196Y-1691690D01*
X2006904Y-1692402D01*
X2010156Y-1694434D01*
X2012391Y-1697482D01*
X2013305Y-1701139D01*
X2012848Y-1704949D01*
X2011070Y-1708251D01*
X2004364Y-1716481D01*
X2000859Y-1719224D01*
X1996490Y-1720189D01*
G37*

%LPD*%
G36*
X1000150Y-1974088D02*
G01*
X956157Y-1973072D01*
X912621Y-1970176D01*
X869289Y-1965248D01*
X826211Y-1958441D01*
X783488Y-1949704D01*
X741172Y-1939086D01*
X699363Y-1926539D01*
X658215Y-1912162D01*
X617728Y-1895906D01*
X578002Y-1877923D01*
X539089Y-1858162D01*
X501142Y-1836623D01*
X464210Y-1813458D01*
X428294Y-1788668D01*
X393547Y-1762302D01*
X360070Y-1734362D01*
X327812Y-1705000D01*
X296926Y-1674164D01*
X267462Y-1642008D01*
X239420Y-1608582D01*
X212953Y-1573936D01*
X188061Y-1538122D01*
X164744Y-1501241D01*
X143154Y-1463344D01*
X123291Y-1424482D01*
X105156Y-1384808D01*
X88849Y-1344371D01*
X74320Y-1303223D01*
X61671Y-1261465D01*
X50901Y-1219200D01*
X42062Y-1176528D01*
X35102Y-1133449D01*
X30073Y-1090117D01*
X27025Y-1046581D01*
X26111Y-1009954D01*
X26263Y-973886D01*
X28346Y-930960D01*
X32359Y-888187D01*
X38252Y-845616D01*
X45974Y-803351D01*
X55575Y-761492D01*
X67005Y-720039D01*
X80264Y-679145D01*
X95300Y-638911D01*
X112115Y-599338D01*
X130657Y-560578D01*
X150876Y-522681D01*
X172770Y-485698D01*
X196240Y-449681D01*
X221335Y-414782D01*
X247904Y-381000D01*
X275894Y-348437D01*
X305358Y-317144D01*
X336143Y-287172D01*
X368249Y-258571D01*
X401574Y-231444D01*
X436016Y-205790D01*
X471627Y-181660D01*
X508203Y-159156D01*
X545795Y-138277D01*
X584250Y-119126D01*
X623519Y-101600D01*
X663498Y-85902D01*
X704138Y-71932D01*
X745337Y-59791D01*
X787095Y-49479D01*
X829208Y-40995D01*
X871677Y-34391D01*
X914400Y-29667D01*
X957275Y-26873D01*
X1000404Y-25908D01*
X1759305Y-25908D01*
X1763268Y-26720D01*
X1766620Y-29006D01*
X1768805Y-32359D01*
X1769465Y-36322D01*
X1768551Y-40284D01*
X1766214Y-43535D01*
X1762912Y-46583D01*
X1364386Y-445058D01*
X1360982Y-447344D01*
X1356918Y-448056D01*
X1347876Y-447751D01*
X1333093Y-449122D01*
X1318615Y-452323D01*
X1304645Y-457250D01*
X1291336Y-463854D01*
X1278991Y-472033D01*
X1267714Y-481685D01*
X1257350Y-493064D01*
X1253794Y-495604D01*
X1249527Y-496366D01*
X1245311Y-495300D01*
X1241907Y-492607D01*
X1237437Y-487019D01*
X1226769Y-476707D01*
X1214932Y-467766D01*
X1202080Y-460349D01*
X1188415Y-454558D01*
X1174191Y-450494D01*
X1159510Y-448208D01*
X1144676Y-447751D01*
X1129893Y-449122D01*
X1115415Y-452323D01*
X1101445Y-457250D01*
X1088136Y-463854D01*
X1075791Y-472033D01*
X1064514Y-481685D01*
X1054506Y-492658D01*
X1045971Y-504748D01*
X1038910Y-517855D01*
X1034440Y-529437D01*
X1032256Y-532841D01*
X1028903Y-535127D01*
X1024940Y-535940D01*
X1020978Y-535127D01*
X1010666Y-530758D01*
X996391Y-526694D01*
X981710Y-524408D01*
X966876Y-523951D01*
X952093Y-525322D01*
X937615Y-528523D01*
X923645Y-533450D01*
X910336Y-540054D01*
X897991Y-548233D01*
X886714Y-557885D01*
X876706Y-568858D01*
X868171Y-580999D01*
X861161Y-594055D01*
X855776Y-607872D01*
X852169Y-622249D01*
X850341Y-636981D01*
X850341Y-651814D01*
X852169Y-666546D01*
X854659Y-676554D01*
X854913Y-680313D01*
X853795Y-683869D01*
X851458Y-686765D01*
X848207Y-688644D01*
X844499Y-689203D01*
X839876Y-689051D01*
X825093Y-690422D01*
X810615Y-693623D01*
X796645Y-698550D01*
X783336Y-705154D01*
X770991Y-713333D01*
X759714Y-722985D01*
X749706Y-733958D01*
X741172Y-746048D01*
X734161Y-759155D01*
X728776Y-772972D01*
X725170Y-787349D01*
X723341Y-802081D01*
X723341Y-816914D01*
X725170Y-831646D01*
X728776Y-846023D01*
X734161Y-859840D01*
X741172Y-872947D01*
X747369Y-881684D01*
X748995Y-885393D01*
X749046Y-889406D01*
X747522Y-893165D01*
X744677Y-896010D01*
X732891Y-903833D01*
X721614Y-913485D01*
X711606Y-924458D01*
X703072Y-936548D01*
X696061Y-949655D01*
X690676Y-963472D01*
X687070Y-977849D01*
X685241Y-992581D01*
X685241Y-1007414D01*
X687070Y-1022146D01*
X690676Y-1036523D01*
X696061Y-1050340D01*
X703072Y-1063447D01*
X711606Y-1075537D01*
X721614Y-1086510D01*
X732891Y-1096162D01*
X744677Y-1103985D01*
X747522Y-1106830D01*
X749046Y-1110589D01*
X748995Y-1114602D01*
X747369Y-1118311D01*
X741172Y-1127048D01*
X734161Y-1140155D01*
X728776Y-1153972D01*
X725170Y-1168349D01*
X723341Y-1183081D01*
X723341Y-1193444D01*
X722680Y-1197102D01*
X720750Y-1200251D01*
X717804Y-1202537D01*
X714248Y-1203553D01*
X710539Y-1203299D01*
X703427Y-1201369D01*
X697636Y-1200353D01*
X691743Y-1199692D01*
X685596Y-1199489D01*
X644956Y-1199489D01*
X641807Y-1198981D01*
X639013Y-1197559D01*
X636727Y-1195324D01*
X633323Y-1190599D01*
X622096Y-1178356D01*
X609549Y-1167485D01*
X595833Y-1158087D01*
X581152Y-1150366D01*
X565658Y-1144320D01*
X549605Y-1140104D01*
X533146Y-1137716D01*
X516534Y-1137259D01*
X499973Y-1138682D01*
X483717Y-1141984D01*
X467918Y-1147114D01*
X452780Y-1154023D01*
X438556Y-1162608D01*
X425399Y-1172718D01*
X413512Y-1184300D01*
X402996Y-1197203D01*
X394004Y-1211173D01*
X386689Y-1226058D01*
X381101Y-1241704D01*
X377342Y-1257909D01*
X375462Y-1274368D01*
X375462Y-1291031D01*
X377342Y-1307490D01*
X381101Y-1323695D01*
X386689Y-1339342D01*
X394004Y-1354226D01*
X402996Y-1368196D01*
X413512Y-1381099D01*
X425399Y-1392682D01*
X438556Y-1402791D01*
X452780Y-1411376D01*
X467918Y-1418285D01*
X476199Y-1420977D01*
X479704Y-1422958D01*
X482193Y-1426210D01*
X483209Y-1430172D01*
X482549Y-1434185D01*
X480364Y-1437640D01*
X477012Y-1439976D01*
X473049Y-1440789D01*
X440842Y-1440789D01*
X437997Y-1440383D01*
X435356Y-1439214D01*
X429514Y-1435455D01*
X417271Y-1429766D01*
X404418Y-1425803D01*
X391109Y-1423517D01*
X377647Y-1423111D01*
X364185Y-1424432D01*
X351078Y-1427581D01*
X338480Y-1432407D01*
X326694Y-1438910D01*
X315823Y-1446885D01*
X306120Y-1456283D01*
X297738Y-1466850D01*
X290880Y-1478483D01*
X285597Y-1490878D01*
X282041Y-1503883D01*
X280263Y-1517243D01*
X280263Y-1530756D01*
X282041Y-1544116D01*
X285597Y-1557121D01*
X290880Y-1569516D01*
X297738Y-1581150D01*
X306120Y-1591716D01*
X315823Y-1601114D01*
X326694Y-1609090D01*
X338480Y-1615592D01*
X351078Y-1620418D01*
X364185Y-1623568D01*
X377647Y-1624888D01*
X391109Y-1624482D01*
X404418Y-1622196D01*
X417271Y-1618234D01*
X429514Y-1612544D01*
X435356Y-1608785D01*
X437997Y-1607616D01*
X440842Y-1607210D01*
X483768Y-1607210D01*
X487578Y-1607972D01*
X490829Y-1610055D01*
X525932Y-1643989D01*
X534771Y-1651254D01*
X544322Y-1656892D01*
X548690Y-1658569D01*
X551992Y-1660753D01*
X554278Y-1664004D01*
X556158Y-1668272D01*
X562102Y-1677619D01*
X569671Y-1686204D01*
X641045Y-1755089D01*
X649884Y-1762404D01*
X659384Y-1767992D01*
X669696Y-1772056D01*
X680516Y-1774443D01*
X691540Y-1775155D01*
X702564Y-1774088D01*
X713232Y-1771294D01*
X723392Y-1766874D01*
X732739Y-1760931D01*
X741324Y-1753362D01*
X789330Y-1703628D01*
X791768Y-1701800D01*
X794258Y-1700428D01*
X803757Y-1693316D01*
X812190Y-1684883D01*
X819302Y-1675384D01*
X819962Y-1674114D01*
X822909Y-1670761D01*
X826973Y-1668983D01*
X831392Y-1669135D01*
X835355Y-1671167D01*
X838098Y-1674672D01*
X839063Y-1678990D01*
X839063Y-1683156D01*
X840841Y-1696516D01*
X844397Y-1709521D01*
X849680Y-1721916D01*
X856538Y-1733550D01*
X864920Y-1744116D01*
X874623Y-1753514D01*
X885494Y-1761489D01*
X897280Y-1767992D01*
X909878Y-1772818D01*
X918464Y-1774901D01*
X921054Y-1775917D01*
X923290Y-1777593D01*
X982319Y-1836572D01*
X984351Y-1838350D01*
X986383Y-1840788D01*
X987602Y-1843735D01*
X990701Y-1857095D01*
X996289Y-1872742D01*
X1003604Y-1887626D01*
X1012596Y-1901596D01*
X1023112Y-1914499D01*
X1034999Y-1926082D01*
X1048156Y-1936191D01*
X1062380Y-1944776D01*
X1077518Y-1951685D01*
X1085494Y-1954275D01*
X1089050Y-1956257D01*
X1091488Y-1959508D01*
X1092504Y-1963470D01*
X1091844Y-1967484D01*
X1089710Y-1970938D01*
X1086358Y-1973275D01*
X1082344Y-1974088D01*
G37*

%LPC*%
G36*
X301447Y-862888D02*
G01*
X314909Y-862482D01*
X328218Y-860196D01*
X341071Y-856234D01*
X353314Y-850544D01*
X364693Y-843280D01*
X375005Y-834593D01*
X384048Y-824585D01*
X391668Y-813460D01*
X397764Y-801420D01*
X402183Y-788670D01*
X404876Y-775462D01*
X405790Y-762000D01*
X405130Y-752805D01*
X405688Y-748792D01*
X407771Y-745286D01*
X411022Y-742899D01*
X414985Y-741984D01*
X418846Y-741883D01*
X435305Y-739495D01*
X451358Y-735279D01*
X466851Y-729234D01*
X481533Y-721512D01*
X495249Y-712114D01*
X507796Y-701243D01*
X519023Y-689000D01*
X528777Y-675538D01*
X536956Y-661111D01*
X543407Y-645769D01*
X548132Y-629869D01*
X550926Y-613460D01*
X551891Y-596900D01*
X550926Y-580339D01*
X548132Y-563930D01*
X543407Y-548030D01*
X536956Y-532688D01*
X528777Y-518261D01*
X519023Y-504799D01*
X507796Y-492556D01*
X495249Y-481685D01*
X481533Y-472287D01*
X466851Y-464566D01*
X451358Y-458520D01*
X435305Y-454304D01*
X418846Y-451916D01*
X402234Y-451459D01*
X385673Y-452882D01*
X369417Y-456184D01*
X353618Y-461314D01*
X338480Y-468223D01*
X324256Y-476808D01*
X311099Y-486918D01*
X299212Y-498500D01*
X288696Y-511403D01*
X279704Y-525373D01*
X272389Y-540258D01*
X266801Y-555904D01*
X263042Y-572109D01*
X261162Y-588568D01*
X261162Y-605231D01*
X262585Y-617626D01*
X262483Y-620674D01*
X261467Y-623519D01*
X259638Y-625957D01*
X246075Y-639521D01*
X241909Y-643991D01*
X238201Y-648614D01*
X234797Y-653542D01*
X231749Y-658622D01*
X229108Y-663956D01*
X226821Y-669442D01*
X224942Y-675081D01*
X223520Y-680821D01*
X222453Y-686663D01*
X221792Y-692505D01*
X221589Y-702259D01*
X221183Y-704799D01*
X220167Y-707186D01*
X214680Y-716483D01*
X209397Y-728878D01*
X205841Y-741883D01*
X204063Y-755243D01*
X204063Y-768756D01*
X205841Y-782116D01*
X209397Y-795121D01*
X214680Y-807516D01*
X221538Y-819150D01*
X229920Y-829716D01*
X239623Y-839114D01*
X250494Y-847090D01*
X262280Y-853592D01*
X274878Y-858418D01*
X287985Y-861568D01*
G37*
G36*
X1367434Y-348640D02*
G01*
X1384046Y-348183D01*
X1400505Y-345795D01*
X1416558Y-341579D01*
X1432052Y-335534D01*
X1446733Y-327812D01*
X1460449Y-318414D01*
X1472996Y-307543D01*
X1484223Y-295300D01*
X1493977Y-281838D01*
X1502156Y-267411D01*
X1508607Y-252069D01*
X1513332Y-236169D01*
X1516126Y-219760D01*
X1517091Y-203200D01*
X1516126Y-186639D01*
X1513332Y-170230D01*
X1508607Y-154330D01*
X1502156Y-138988D01*
X1493977Y-124561D01*
X1484223Y-111099D01*
X1472996Y-98856D01*
X1460449Y-87985D01*
X1446733Y-78587D01*
X1432052Y-70866D01*
X1416558Y-64820D01*
X1400505Y-60604D01*
X1384046Y-58216D01*
X1367434Y-57759D01*
X1350873Y-59182D01*
X1334617Y-62484D01*
X1318818Y-67614D01*
X1303680Y-74523D01*
X1289456Y-83108D01*
X1276299Y-93218D01*
X1264412Y-104800D01*
X1255064Y-116281D01*
X1251559Y-119024D01*
X1247190Y-119989D01*
X1240942Y-119989D01*
X1238097Y-119583D01*
X1235456Y-118414D01*
X1229614Y-114655D01*
X1217371Y-108966D01*
X1204518Y-105003D01*
X1191209Y-102717D01*
X1177747Y-102311D01*
X1164285Y-103632D01*
X1151178Y-106781D01*
X1138580Y-111607D01*
X1126794Y-118110D01*
X1115923Y-126085D01*
X1106220Y-135483D01*
X1097838Y-146050D01*
X1090980Y-157683D01*
X1085697Y-170078D01*
X1082141Y-183083D01*
X1080363Y-196443D01*
X1080363Y-209956D01*
X1082141Y-223316D01*
X1085697Y-236321D01*
X1090980Y-248716D01*
X1097838Y-260350D01*
X1106220Y-270916D01*
X1115923Y-280314D01*
X1126794Y-288290D01*
X1138580Y-294792D01*
X1151178Y-299618D01*
X1164285Y-302768D01*
X1177747Y-304088D01*
X1191209Y-303682D01*
X1204518Y-301396D01*
X1217371Y-297434D01*
X1229614Y-291744D01*
X1235456Y-287985D01*
X1238097Y-286816D01*
X1240942Y-286410D01*
X1247190Y-286410D01*
X1251559Y-287375D01*
X1255064Y-290118D01*
X1264412Y-301599D01*
X1276299Y-313182D01*
X1289456Y-323291D01*
X1303680Y-331876D01*
X1318818Y-338785D01*
X1334617Y-343916D01*
X1350873Y-347218D01*
G37*

%LPD*%
G36*
X1178966Y-1974088D02*
G01*
X1175054Y-1973325D01*
X1171752Y-1971090D01*
X1169568Y-1967738D01*
X1168806Y-1963826D01*
X1169619Y-1959914D01*
X1171905Y-1956612D01*
X1175258Y-1954479D01*
X1190752Y-1948434D01*
X1205433Y-1940712D01*
X1219149Y-1931314D01*
X1231696Y-1920443D01*
X1242923Y-1908200D01*
X1252677Y-1894738D01*
X1260856Y-1880311D01*
X1267307Y-1864969D01*
X1272032Y-1849069D01*
X1274826Y-1832660D01*
X1275791Y-1816100D01*
X1274826Y-1799539D01*
X1272032Y-1783130D01*
X1267307Y-1767230D01*
X1260856Y-1751888D01*
X1252677Y-1737461D01*
X1242923Y-1723999D01*
X1231696Y-1711756D01*
X1229106Y-1709521D01*
X1226616Y-1706270D01*
X1225600Y-1702307D01*
X1226261Y-1698294D01*
X1228394Y-1694840D01*
X1231747Y-1692503D01*
X1235760Y-1691690D01*
X1796643Y-1691690D01*
X1800555Y-1692452D01*
X1803857Y-1694688D01*
X1806092Y-1698040D01*
X1806803Y-1702003D01*
X1805939Y-1705864D01*
X1803654Y-1709166D01*
X1787194Y-1718310D01*
X1776323Y-1726285D01*
X1766620Y-1735683D01*
X1758238Y-1746250D01*
X1751380Y-1757883D01*
X1746097Y-1770278D01*
X1742541Y-1783283D01*
X1740763Y-1796643D01*
X1740763Y-1810156D01*
X1742541Y-1823516D01*
X1746097Y-1836521D01*
X1751380Y-1848916D01*
X1758238Y-1860550D01*
X1766620Y-1871116D01*
X1776323Y-1880514D01*
X1787194Y-1888489D01*
X1798980Y-1894992D01*
X1811578Y-1899818D01*
X1824685Y-1902968D01*
X1838147Y-1904288D01*
X1851609Y-1903882D01*
X1864918Y-1901596D01*
X1877771Y-1897634D01*
X1890014Y-1891944D01*
X1895856Y-1888185D01*
X1898497Y-1887016D01*
X1901342Y-1886610D01*
X1996490Y-1886610D01*
X2000859Y-1887575D01*
X2004364Y-1890318D01*
X2013712Y-1901799D01*
X2025599Y-1913382D01*
X2038756Y-1923491D01*
X2052980Y-1932076D01*
X2068118Y-1938985D01*
X2083917Y-1944116D01*
X2100173Y-1947418D01*
X2116734Y-1948840D01*
X2133346Y-1948383D01*
X2149805Y-1945995D01*
X2165858Y-1941779D01*
X2181352Y-1935734D01*
X2196033Y-1928012D01*
X2209749Y-1918614D01*
X2222296Y-1907743D01*
X2233523Y-1895500D01*
X2243277Y-1882038D01*
X2251456Y-1867611D01*
X2257907Y-1852269D01*
X2262632Y-1836369D01*
X2265426Y-1819960D01*
X2266391Y-1803400D01*
X2265426Y-1786839D01*
X2262632Y-1770430D01*
X2257907Y-1754530D01*
X2251456Y-1739188D01*
X2243277Y-1724761D01*
X2233523Y-1711299D01*
X2231136Y-1708708D01*
X2229104Y-1705406D01*
X2228494Y-1701546D01*
X2229358Y-1697736D01*
X2231542Y-1694535D01*
X2234793Y-1692402D01*
X2238654Y-1691690D01*
X3136290Y-1691690D01*
X3140506Y-1692605D01*
X3143961Y-1695196D01*
X3145993Y-1698955D01*
X3146348Y-1703273D01*
X3144824Y-1707337D01*
X3137204Y-1719173D01*
X3129889Y-1734057D01*
X3124301Y-1749704D01*
X3120542Y-1765909D01*
X3118662Y-1782368D01*
X3118662Y-1799031D01*
X3120542Y-1815490D01*
X3124301Y-1831695D01*
X3129889Y-1847342D01*
X3137204Y-1862226D01*
X3146196Y-1876196D01*
X3156712Y-1889099D01*
X3168599Y-1900682D01*
X3181756Y-1910791D01*
X3195980Y-1919376D01*
X3211118Y-1926285D01*
X3226917Y-1931416D01*
X3243173Y-1934718D01*
X3259734Y-1936140D01*
X3276346Y-1935683D01*
X3292805Y-1933295D01*
X3308858Y-1929079D01*
X3324351Y-1923034D01*
X3339033Y-1915312D01*
X3352749Y-1905914D01*
X3365296Y-1895043D01*
X3376523Y-1882800D01*
X3379927Y-1878075D01*
X3382213Y-1875840D01*
X3385007Y-1874418D01*
X3388156Y-1873910D01*
X3492601Y-1873910D01*
X3496411Y-1874672D01*
X3499662Y-1876755D01*
X3503523Y-1880514D01*
X3514394Y-1888489D01*
X3526180Y-1894992D01*
X3538778Y-1899818D01*
X3551885Y-1902968D01*
X3565347Y-1904288D01*
X3578809Y-1903882D01*
X3592118Y-1901596D01*
X3604971Y-1897634D01*
X3617214Y-1891944D01*
X3628593Y-1884680D01*
X3638905Y-1875993D01*
X3647948Y-1865985D01*
X3655568Y-1854860D01*
X3661664Y-1842820D01*
X3666083Y-1830070D01*
X3668776Y-1816862D01*
X3669690Y-1803400D01*
X3668776Y-1789938D01*
X3666083Y-1776730D01*
X3661664Y-1763979D01*
X3655568Y-1751939D01*
X3647948Y-1740814D01*
X3638905Y-1730806D01*
X3628593Y-1722120D01*
X3617214Y-1714855D01*
X3604971Y-1709166D01*
X3592118Y-1705203D01*
X3578809Y-1702917D01*
X3565347Y-1702511D01*
X3551936Y-1703832D01*
X3537915Y-1707184D01*
X3535527Y-1707489D01*
X3388156Y-1707489D01*
X3385007Y-1706981D01*
X3382213Y-1705559D01*
X3379927Y-1703324D01*
X3376523Y-1698599D01*
X3365296Y-1686356D01*
X3352749Y-1675485D01*
X3338423Y-1665732D01*
X3335426Y-1662480D01*
X3334054Y-1658264D01*
X3334613Y-1653895D01*
X3337001Y-1650136D01*
X3408832Y-1578203D01*
X3414674Y-1571193D01*
X3416147Y-1569110D01*
X3421989Y-1559052D01*
X3425494Y-1550619D01*
X3428441Y-1539341D01*
X3428898Y-1536852D01*
X3429762Y-1526997D01*
X3430727Y-1523492D01*
X3432810Y-1520596D01*
X3440633Y-1512976D01*
X3449929Y-1501444D01*
X3457752Y-1488795D01*
X3463950Y-1475333D01*
X3465271Y-1471117D01*
X3467455Y-1467358D01*
X3471011Y-1464818D01*
X3475278Y-1464056D01*
X3479495Y-1465122D01*
X3482441Y-1466545D01*
X3496411Y-1471472D01*
X3510940Y-1474673D01*
X3525672Y-1476044D01*
X3540506Y-1475587D01*
X3555187Y-1473301D01*
X3569462Y-1469237D01*
X3583127Y-1463446D01*
X3595979Y-1456029D01*
X3607815Y-1447088D01*
X3618433Y-1436776D01*
X3627729Y-1425194D01*
X3635552Y-1412595D01*
X3641750Y-1399133D01*
X3646271Y-1385011D01*
X3648964Y-1370431D01*
X3649878Y-1355598D01*
X3648964Y-1340815D01*
X3646271Y-1326235D01*
X3645458Y-1323695D01*
X3645052Y-1319377D01*
X3646525Y-1315262D01*
X3649573Y-1312164D01*
X3653637Y-1310589D01*
X3669487Y-1308201D01*
X3683762Y-1304137D01*
X3697427Y-1298346D01*
X3710279Y-1290929D01*
X3722115Y-1281988D01*
X3732733Y-1271676D01*
X3742029Y-1260094D01*
X3749852Y-1247495D01*
X3756050Y-1234033D01*
X3760571Y-1219911D01*
X3763264Y-1205331D01*
X3764178Y-1190498D01*
X3763264Y-1175715D01*
X3760571Y-1161135D01*
X3756050Y-1146962D01*
X3749852Y-1133500D01*
X3743198Y-1122730D01*
X3741724Y-1118616D01*
X3742131Y-1114298D01*
X3744315Y-1110538D01*
X3748227Y-1107846D01*
X3761079Y-1100429D01*
X3772915Y-1091488D01*
X3783533Y-1081176D01*
X3792829Y-1069594D01*
X3800652Y-1056995D01*
X3806850Y-1043533D01*
X3811371Y-1029411D01*
X3814064Y-1014831D01*
X3814978Y-999998D01*
X3814064Y-985215D01*
X3811371Y-970635D01*
X3806850Y-956462D01*
X3800652Y-943000D01*
X3792829Y-930402D01*
X3783533Y-918819D01*
X3772915Y-908507D01*
X3761079Y-899566D01*
X3755796Y-896518D01*
X3752596Y-893571D01*
X3750868Y-889609D01*
X3751021Y-885240D01*
X3752951Y-881329D01*
X3754729Y-879094D01*
X3762552Y-866495D01*
X3768750Y-853033D01*
X3773271Y-838911D01*
X3775964Y-824331D01*
X3776827Y-810361D01*
X3777742Y-806805D01*
X3779774Y-803808D01*
X3802735Y-780846D01*
X3806037Y-778611D01*
X3809949Y-777849D01*
X3813810Y-778611D01*
X3816045Y-779526D01*
X3826764Y-782116D01*
X3838194Y-783031D01*
X3937406Y-783031D01*
X3948836Y-782116D01*
X3959555Y-779526D01*
X3969816Y-775309D01*
X3979214Y-769518D01*
X3981196Y-767842D01*
X3984294Y-766013D01*
X3987800Y-765403D01*
X3991305Y-766013D01*
X3994404Y-767842D01*
X3996385Y-769518D01*
X4005783Y-775309D01*
X4016044Y-779526D01*
X4026763Y-782116D01*
X4038193Y-783031D01*
X4113936Y-783031D01*
X4117797Y-783793D01*
X4121099Y-785977D01*
X4132326Y-797204D01*
X4134764Y-801014D01*
X4135272Y-805484D01*
X4133850Y-809701D01*
X4128211Y-818896D01*
X4123994Y-829106D01*
X4121404Y-839876D01*
X4120489Y-851306D01*
X4120489Y-1002893D01*
X4121404Y-1014323D01*
X4123994Y-1025093D01*
X4128211Y-1035303D01*
X4134002Y-1044702D01*
X4141165Y-1053134D01*
X4149598Y-1060297D01*
X4158996Y-1066088D01*
X4169206Y-1070305D01*
X4179976Y-1072896D01*
X4191406Y-1073810D01*
X4342993Y-1073810D01*
X4354423Y-1072896D01*
X4365193Y-1070305D01*
X4375404Y-1066088D01*
X4384802Y-1060297D01*
X4393234Y-1053134D01*
X4400397Y-1044702D01*
X4406188Y-1035303D01*
X4410405Y-1025093D01*
X4412996Y-1014323D01*
X4413910Y-1002893D01*
X4413910Y-851306D01*
X4412996Y-839876D01*
X4410405Y-829106D01*
X4406188Y-818896D01*
X4400397Y-809498D01*
X4393234Y-801065D01*
X4384802Y-793902D01*
X4375404Y-788111D01*
X4365193Y-783894D01*
X4354423Y-781304D01*
X4348835Y-780846D01*
X4345635Y-780084D01*
X4342892Y-778306D01*
X4340809Y-775766D01*
X4337151Y-769366D01*
X4333798Y-764540D01*
X4330090Y-759917D01*
X4325924Y-755446D01*
X4211269Y-640791D01*
X4209084Y-637489D01*
X4208322Y-633628D01*
X4208322Y-557885D01*
X4207408Y-546455D01*
X4204817Y-535736D01*
X4200601Y-525526D01*
X4194810Y-516077D01*
X4187647Y-507644D01*
X4179214Y-500481D01*
X4169816Y-494690D01*
X4159554Y-490474D01*
X4148836Y-487883D01*
X4137406Y-486968D01*
X4038193Y-486968D01*
X4026763Y-487883D01*
X4016044Y-490474D01*
X4005783Y-494690D01*
X3996385Y-500481D01*
X3994404Y-502158D01*
X3991305Y-503986D01*
X3987800Y-504596D01*
X3984294Y-503986D01*
X3981196Y-502158D01*
X3979214Y-500481D01*
X3969816Y-494690D01*
X3959555Y-490474D01*
X3948836Y-487883D01*
X3937406Y-486968D01*
X3838194Y-486968D01*
X3826764Y-487883D01*
X3816045Y-490474D01*
X3805783Y-494690D01*
X3796385Y-500481D01*
X3787952Y-507644D01*
X3780790Y-516077D01*
X3774998Y-525526D01*
X3770782Y-535736D01*
X3768191Y-546455D01*
X3767277Y-557885D01*
X3767277Y-576732D01*
X3766515Y-580593D01*
X3764330Y-583895D01*
X3662070Y-686155D01*
X3658615Y-688390D01*
X3654551Y-689102D01*
X3652672Y-689051D01*
X3637940Y-690422D01*
X3623411Y-693623D01*
X3609441Y-698550D01*
X3596132Y-705154D01*
X3583787Y-713333D01*
X3572510Y-722985D01*
X3562553Y-733958D01*
X3553968Y-746048D01*
X3546957Y-759155D01*
X3541572Y-772972D01*
X3537965Y-787349D01*
X3536137Y-802081D01*
X3536137Y-816914D01*
X3537965Y-831646D01*
X3541572Y-846023D01*
X3546957Y-859840D01*
X3553968Y-872947D01*
X3562553Y-885037D01*
X3572510Y-896010D01*
X3583787Y-905662D01*
X3585311Y-906678D01*
X3588308Y-909726D01*
X3589782Y-913790D01*
X3589426Y-918057D01*
X3587343Y-921816D01*
X3583889Y-924356D01*
X3579672Y-925271D01*
X2977591Y-925321D01*
X2968498Y-926185D01*
X2957118Y-928827D01*
X2954731Y-929589D01*
X2946298Y-933094D01*
X2944012Y-934262D01*
X2936189Y-938936D01*
X2934157Y-940409D01*
X2927197Y-946200D01*
X2923336Y-948182D01*
X2919069Y-948385D01*
X2915056Y-946810D01*
X2912059Y-943711D01*
X2903829Y-930402D01*
X2902051Y-928166D01*
X2900121Y-924255D01*
X2899968Y-919937D01*
X2901696Y-915924D01*
X2904896Y-912977D01*
X2910179Y-909929D01*
X2922016Y-900988D01*
X2932633Y-890676D01*
X2941929Y-879094D01*
X2949752Y-866495D01*
X2955950Y-853033D01*
X2960471Y-838911D01*
X2963164Y-824331D01*
X2964078Y-809498D01*
X2963164Y-794715D01*
X2960471Y-780135D01*
X2959760Y-778002D01*
X2959303Y-774293D01*
X2960217Y-770686D01*
X2962402Y-767638D01*
X2965500Y-765556D01*
X2969158Y-764794D01*
X2981706Y-764387D01*
X2996387Y-762101D01*
X3010662Y-758037D01*
X3024327Y-752246D01*
X3037179Y-744829D01*
X3049016Y-735888D01*
X3059633Y-725576D01*
X3068929Y-714044D01*
X3076752Y-701395D01*
X3082950Y-687933D01*
X3084322Y-683717D01*
X3086455Y-679958D01*
X3090011Y-677418D01*
X3094278Y-676656D01*
X3098495Y-677722D01*
X3101441Y-679145D01*
X3115411Y-684072D01*
X3129889Y-687273D01*
X3144672Y-688644D01*
X3159506Y-688187D01*
X3174187Y-685901D01*
X3188462Y-681837D01*
X3202076Y-676046D01*
X3214928Y-668629D01*
X3226765Y-659688D01*
X3237433Y-649376D01*
X3241903Y-643788D01*
X3245307Y-641096D01*
X3249523Y-640029D01*
X3253790Y-640791D01*
X3257346Y-643331D01*
X3267710Y-654710D01*
X3278987Y-664362D01*
X3291332Y-672541D01*
X3304641Y-679145D01*
X3318611Y-684072D01*
X3333089Y-687273D01*
X3347872Y-688644D01*
X3362706Y-688187D01*
X3377387Y-685901D01*
X3391662Y-681837D01*
X3405276Y-676046D01*
X3418128Y-668629D01*
X3429965Y-659688D01*
X3440633Y-649376D01*
X3449929Y-637794D01*
X3457752Y-625195D01*
X3463950Y-611733D01*
X3468420Y-597611D01*
X3471164Y-583031D01*
X3472078Y-568198D01*
X3471164Y-553415D01*
X3468420Y-538835D01*
X3463950Y-524662D01*
X3457752Y-511200D01*
X3449929Y-498601D01*
X3440633Y-487019D01*
X3432606Y-479247D01*
X3430320Y-475945D01*
X3429558Y-471982D01*
X3429558Y-314248D01*
X3430270Y-310438D01*
X3432403Y-307187D01*
X3435604Y-304952D01*
X3439363Y-304088D01*
X3451809Y-303682D01*
X3465118Y-301396D01*
X3477971Y-297434D01*
X3490214Y-291744D01*
X3496056Y-287985D01*
X3498697Y-286816D01*
X3501542Y-286410D01*
X3531057Y-286410D01*
X3534867Y-287172D01*
X3538118Y-289306D01*
X3549599Y-300482D01*
X3562756Y-310591D01*
X3576980Y-319176D01*
X3592118Y-326085D01*
X3607917Y-331216D01*
X3624173Y-334518D01*
X3640734Y-335940D01*
X3657346Y-335483D01*
X3673805Y-333095D01*
X3689858Y-328879D01*
X3705351Y-322834D01*
X3720033Y-315112D01*
X3733749Y-305714D01*
X3746296Y-294843D01*
X3757523Y-282600D01*
X3767277Y-269138D01*
X3775456Y-254711D01*
X3781907Y-239369D01*
X3786632Y-223469D01*
X3789426Y-207060D01*
X3790391Y-190500D01*
X3789426Y-173939D01*
X3786632Y-157530D01*
X3781907Y-141630D01*
X3775456Y-126288D01*
X3767277Y-111861D01*
X3757523Y-98399D01*
X3746296Y-86156D01*
X3733749Y-75285D01*
X3720033Y-65887D01*
X3705351Y-58166D01*
X3689858Y-52120D01*
X3673805Y-47904D01*
X3661410Y-46126D01*
X3657346Y-44602D01*
X3654298Y-41554D01*
X3652824Y-37490D01*
X3653129Y-33223D01*
X3655161Y-29413D01*
X3658666Y-26822D01*
X3662883Y-25908D01*
X6259322Y-25908D01*
X6263284Y-26720D01*
X6266586Y-29006D01*
X6268770Y-32359D01*
X6269482Y-36322D01*
X6268567Y-40284D01*
X6266180Y-43535D01*
X6262878Y-46583D01*
X5864402Y-445058D01*
X5860948Y-447344D01*
X5856884Y-448056D01*
X5847892Y-447751D01*
X5833110Y-449122D01*
X5818632Y-452323D01*
X5804611Y-457250D01*
X5791352Y-463854D01*
X5778957Y-472033D01*
X5767730Y-481685D01*
X5757367Y-493064D01*
X5753811Y-495604D01*
X5749544Y-496366D01*
X5745327Y-495300D01*
X5741924Y-492607D01*
X5737453Y-487019D01*
X5726785Y-476707D01*
X5714949Y-467766D01*
X5702096Y-460349D01*
X5688431Y-454558D01*
X5674156Y-450494D01*
X5659526Y-448208D01*
X5644692Y-447751D01*
X5629910Y-449122D01*
X5615432Y-452323D01*
X5601411Y-457250D01*
X5588152Y-463854D01*
X5575757Y-472033D01*
X5564530Y-481685D01*
X5554522Y-492658D01*
X5545937Y-504748D01*
X5538927Y-517855D01*
X5534406Y-529437D01*
X5532272Y-532841D01*
X5528919Y-535127D01*
X5524957Y-535940D01*
X5520994Y-535127D01*
X5510631Y-530758D01*
X5496356Y-526694D01*
X5481726Y-524408D01*
X5466892Y-523951D01*
X5452110Y-525322D01*
X5437632Y-528523D01*
X5423611Y-533450D01*
X5410352Y-540054D01*
X5398008Y-548233D01*
X5386730Y-557885D01*
X5376722Y-568858D01*
X5368137Y-580999D01*
X5361127Y-594055D01*
X5355793Y-607872D01*
X5352186Y-622249D01*
X5350357Y-636981D01*
X5350357Y-651814D01*
X5352186Y-666546D01*
X5354675Y-676554D01*
X5354929Y-680313D01*
X5353761Y-683869D01*
X5351424Y-686765D01*
X5348224Y-688644D01*
X5344515Y-689203D01*
X5339892Y-689051D01*
X5325110Y-690422D01*
X5310632Y-693623D01*
X5296611Y-698550D01*
X5283352Y-705154D01*
X5271008Y-713333D01*
X5259730Y-722985D01*
X5249722Y-733958D01*
X5241137Y-746048D01*
X5234127Y-759155D01*
X5228793Y-772972D01*
X5225186Y-787349D01*
X5223357Y-802081D01*
X5223357Y-816914D01*
X5225186Y-831646D01*
X5228793Y-846023D01*
X5234127Y-859840D01*
X5241137Y-872947D01*
X5247386Y-881684D01*
X5249011Y-885393D01*
X5249062Y-889406D01*
X5247538Y-893165D01*
X5244693Y-896010D01*
X5232908Y-903833D01*
X5221630Y-913485D01*
X5211622Y-924458D01*
X5203037Y-936548D01*
X5196027Y-949655D01*
X5190693Y-963472D01*
X5187086Y-977849D01*
X5185257Y-992581D01*
X5185257Y-1007414D01*
X5187086Y-1022146D01*
X5190693Y-1036523D01*
X5196027Y-1050340D01*
X5203037Y-1063447D01*
X5211622Y-1075537D01*
X5221630Y-1086510D01*
X5232908Y-1096162D01*
X5244693Y-1103985D01*
X5247538Y-1106830D01*
X5249062Y-1110589D01*
X5249011Y-1114602D01*
X5247386Y-1118311D01*
X5241137Y-1127048D01*
X5234127Y-1140155D01*
X5228793Y-1153972D01*
X5225186Y-1168349D01*
X5223357Y-1183081D01*
X5223357Y-1197914D01*
X5225186Y-1212646D01*
X5228793Y-1227023D01*
X5234127Y-1240840D01*
X5241137Y-1253947D01*
X5249722Y-1266037D01*
X5259730Y-1277010D01*
X5271008Y-1286662D01*
X5283352Y-1294841D01*
X5296611Y-1301445D01*
X5310632Y-1306372D01*
X5325110Y-1309573D01*
X5339892Y-1310944D01*
X5344515Y-1310792D01*
X5348224Y-1311351D01*
X5351424Y-1313230D01*
X5353761Y-1316126D01*
X5354929Y-1319682D01*
X5354675Y-1323441D01*
X5352186Y-1333449D01*
X5350357Y-1348181D01*
X5350357Y-1363014D01*
X5352186Y-1377746D01*
X5355793Y-1392123D01*
X5361127Y-1405940D01*
X5368137Y-1419047D01*
X5376722Y-1431137D01*
X5386730Y-1442110D01*
X5398008Y-1451762D01*
X5410352Y-1459941D01*
X5423611Y-1466545D01*
X5427014Y-1467764D01*
X5430570Y-1469898D01*
X5432958Y-1473250D01*
X5433771Y-1477314D01*
X5433822Y-1564843D01*
X5434685Y-1573936D01*
X5437327Y-1585264D01*
X5438089Y-1587703D01*
X5441594Y-1596136D01*
X5447436Y-1606194D01*
X5448909Y-1608277D01*
X5454700Y-1615236D01*
X5469280Y-1629918D01*
X5471617Y-1633575D01*
X5472176Y-1637842D01*
X5470956Y-1642008D01*
X5468061Y-1645259D01*
X5464098Y-1647037D01*
X5449417Y-1649984D01*
X5433618Y-1655114D01*
X5418480Y-1662023D01*
X5404256Y-1670608D01*
X5391099Y-1680718D01*
X5379212Y-1692300D01*
X5368696Y-1705203D01*
X5359704Y-1719173D01*
X5352389Y-1734057D01*
X5346801Y-1749704D01*
X5343042Y-1765909D01*
X5341162Y-1782368D01*
X5341162Y-1799031D01*
X5343042Y-1815490D01*
X5346801Y-1831695D01*
X5352389Y-1847342D01*
X5359704Y-1862226D01*
X5368696Y-1876196D01*
X5379212Y-1889099D01*
X5391099Y-1900682D01*
X5404256Y-1910791D01*
X5418480Y-1919376D01*
X5433618Y-1926285D01*
X5449417Y-1931416D01*
X5465673Y-1934718D01*
X5482234Y-1936140D01*
X5498846Y-1935683D01*
X5515305Y-1933295D01*
X5531358Y-1929079D01*
X5546852Y-1923034D01*
X5561533Y-1915312D01*
X5575249Y-1905914D01*
X5587796Y-1895043D01*
X5599023Y-1882800D01*
X5602427Y-1878075D01*
X5604713Y-1875840D01*
X5607507Y-1874418D01*
X5610656Y-1873910D01*
X5769051Y-1873910D01*
X5771591Y-1874215D01*
X5773978Y-1875180D01*
X5786831Y-1882292D01*
X5799378Y-1887118D01*
X5812485Y-1890268D01*
X5825947Y-1891588D01*
X5839409Y-1891182D01*
X5852718Y-1888896D01*
X5865571Y-1884934D01*
X5877814Y-1879244D01*
X5889193Y-1871980D01*
X5899505Y-1863293D01*
X5908548Y-1853285D01*
X5916168Y-1842160D01*
X5922264Y-1830120D01*
X5926683Y-1817370D01*
X5929376Y-1804162D01*
X5930290Y-1790700D01*
X5929376Y-1777238D01*
X5926683Y-1764030D01*
X5922264Y-1751279D01*
X5916168Y-1739239D01*
X5908548Y-1728114D01*
X5899505Y-1718106D01*
X5888634Y-1708962D01*
X5886094Y-1705711D01*
X5885027Y-1701749D01*
X5885637Y-1697685D01*
X5887821Y-1694230D01*
X5891174Y-1691843D01*
X5895187Y-1691030D01*
X6562801Y-1691284D01*
X6566560Y-1691995D01*
X6569760Y-1694027D01*
X6571996Y-1697075D01*
X6572961Y-1700733D01*
X6572503Y-1704543D01*
X6570675Y-1707845D01*
X6562496Y-1717903D01*
X6553504Y-1731873D01*
X6546189Y-1746757D01*
X6540601Y-1762404D01*
X6536842Y-1778609D01*
X6534962Y-1795068D01*
X6534962Y-1811731D01*
X6536842Y-1828190D01*
X6540601Y-1844395D01*
X6546189Y-1860042D01*
X6553504Y-1874926D01*
X6562496Y-1888896D01*
X6573012Y-1901799D01*
X6584899Y-1913382D01*
X6598056Y-1923491D01*
X6612280Y-1932076D01*
X6627418Y-1938985D01*
X6643217Y-1944116D01*
X6659473Y-1947418D01*
X6676034Y-1948840D01*
X6692646Y-1948383D01*
X6709105Y-1945995D01*
X6725158Y-1941779D01*
X6740652Y-1935734D01*
X6755333Y-1928012D01*
X6769049Y-1918614D01*
X6781596Y-1907743D01*
X6792823Y-1895500D01*
X6796227Y-1890775D01*
X6798513Y-1888540D01*
X6801307Y-1887118D01*
X6806387Y-1886610D01*
X6810248Y-1887372D01*
X6813550Y-1889556D01*
X6815734Y-1892807D01*
X6818680Y-1899716D01*
X6825538Y-1911350D01*
X6833920Y-1921916D01*
X6843623Y-1931314D01*
X6854494Y-1939289D01*
X6866280Y-1945792D01*
X6878878Y-1950618D01*
X6892645Y-1953818D01*
X6896811Y-1955190D01*
X6900011Y-1958187D01*
X6901637Y-1962251D01*
X6901434Y-1966620D01*
X6899351Y-1970481D01*
X6895896Y-1973173D01*
X6891629Y-1974088D01*
G37*

%LPC*%
G36*
X5240934Y-564540D02*
G01*
X5257546Y-564083D01*
X5274005Y-561695D01*
X5290058Y-557479D01*
X5305552Y-551434D01*
X5320233Y-543712D01*
X5333949Y-534314D01*
X5346496Y-523443D01*
X5357723Y-511200D01*
X5367477Y-497738D01*
X5375656Y-483311D01*
X5382107Y-467969D01*
X5386832Y-452069D01*
X5389626Y-435660D01*
X5390591Y-419100D01*
X5389626Y-402539D01*
X5386832Y-386130D01*
X5382107Y-370230D01*
X5375656Y-354888D01*
X5367477Y-340461D01*
X5357723Y-326999D01*
X5346496Y-314756D01*
X5330342Y-300786D01*
X5328818Y-297891D01*
X5328310Y-292658D01*
X5329072Y-288798D01*
X5331307Y-285496D01*
X5350357Y-266395D01*
X5352897Y-264566D01*
X5370271Y-259334D01*
X5382514Y-253644D01*
X5393893Y-246379D01*
X5404205Y-237693D01*
X5413248Y-227685D01*
X5420868Y-216560D01*
X5426964Y-204520D01*
X5431383Y-191770D01*
X5434076Y-178562D01*
X5434990Y-165100D01*
X5434076Y-151638D01*
X5431383Y-138430D01*
X5426964Y-125679D01*
X5420868Y-113639D01*
X5413248Y-102514D01*
X5404205Y-92506D01*
X5393893Y-83820D01*
X5382514Y-76555D01*
X5370271Y-70866D01*
X5357418Y-66903D01*
X5344109Y-64617D01*
X5330647Y-64211D01*
X5317185Y-65532D01*
X5304078Y-68681D01*
X5291480Y-73507D01*
X5279694Y-80010D01*
X5268823Y-87985D01*
X5259120Y-97383D01*
X5250738Y-107950D01*
X5243880Y-119583D01*
X5238597Y-131978D01*
X5235244Y-144272D01*
X5234228Y-146710D01*
X5232654Y-148793D01*
X5186375Y-195021D01*
X5182209Y-199491D01*
X5178501Y-204114D01*
X5175097Y-209042D01*
X5172049Y-214121D01*
X5169408Y-219456D01*
X5167122Y-224942D01*
X5165242Y-230581D01*
X5163820Y-236321D01*
X5162753Y-242163D01*
X5162092Y-248056D01*
X5161889Y-254203D01*
X5161889Y-294843D01*
X5161432Y-297891D01*
X5160060Y-300634D01*
X5157927Y-302869D01*
X5149799Y-309118D01*
X5137912Y-320700D01*
X5127396Y-333603D01*
X5118404Y-347573D01*
X5111089Y-362458D01*
X5105501Y-378104D01*
X5101742Y-394309D01*
X5099862Y-410768D01*
X5099862Y-427431D01*
X5101742Y-443890D01*
X5105501Y-460095D01*
X5111089Y-475742D01*
X5118404Y-490626D01*
X5127396Y-504596D01*
X5137912Y-517499D01*
X5149799Y-529082D01*
X5162956Y-539191D01*
X5177180Y-547776D01*
X5192318Y-554685D01*
X5208117Y-559816D01*
X5224373Y-563118D01*
G37*
G36*
X5085740Y-705459D02*
G01*
X5187391Y-705459D01*
X5187391Y-674674D01*
X5186527Y-663295D01*
X5183936Y-652526D01*
X5179720Y-642315D01*
X5173929Y-632866D01*
X5166715Y-624484D01*
X5158333Y-617270D01*
X5148884Y-611479D01*
X5138674Y-607263D01*
X5127904Y-604672D01*
X5116525Y-603808D01*
X5085740Y-603808D01*
G37*
G36*
X4896408Y-705459D02*
G01*
X4998059Y-705459D01*
X4998059Y-603808D01*
X4967274Y-603808D01*
X4955895Y-604672D01*
X4945126Y-607263D01*
X4934915Y-611479D01*
X4925466Y-617270D01*
X4917084Y-624484D01*
X4909870Y-632866D01*
X4904079Y-642315D01*
X4899863Y-652526D01*
X4897272Y-663295D01*
X4896408Y-674674D01*
G37*
G36*
X4504334Y-818540D02*
G01*
X4520946Y-818083D01*
X4537405Y-815695D01*
X4553458Y-811479D01*
X4568952Y-805434D01*
X4583633Y-797712D01*
X4597349Y-788314D01*
X4609896Y-777443D01*
X4621123Y-765200D01*
X4630877Y-751738D01*
X4639056Y-737311D01*
X4645507Y-721969D01*
X4650232Y-706069D01*
X4653026Y-689660D01*
X4653991Y-673100D01*
X4653026Y-656539D01*
X4650232Y-640130D01*
X4645507Y-624230D01*
X4639056Y-608888D01*
X4630877Y-594461D01*
X4621123Y-580999D01*
X4609896Y-568756D01*
X4597349Y-557885D01*
X4583633Y-548487D01*
X4568952Y-540766D01*
X4553458Y-534720D01*
X4537405Y-530504D01*
X4520946Y-528116D01*
X4504334Y-527659D01*
X4487773Y-529082D01*
X4477918Y-531114D01*
X4474565Y-531215D01*
X4471416Y-530250D01*
X4468672Y-528320D01*
X4457293Y-516890D01*
X4455515Y-514502D01*
X4454499Y-511708D01*
X4453483Y-506730D01*
X4449064Y-493979D01*
X4442968Y-481939D01*
X4435348Y-470814D01*
X4426305Y-460806D01*
X4415993Y-452120D01*
X4404614Y-444855D01*
X4392371Y-439166D01*
X4379518Y-435203D01*
X4366209Y-432917D01*
X4352747Y-432511D01*
X4339285Y-433832D01*
X4326178Y-436981D01*
X4313580Y-441807D01*
X4301794Y-448309D01*
X4290923Y-456285D01*
X4281220Y-465683D01*
X4272838Y-476250D01*
X4265980Y-487883D01*
X4260697Y-500278D01*
X4257141Y-513283D01*
X4255363Y-526643D01*
X4255363Y-540156D01*
X4257141Y-553516D01*
X4260697Y-566521D01*
X4265980Y-578916D01*
X4272838Y-590550D01*
X4281220Y-601116D01*
X4290923Y-610514D01*
X4301794Y-618490D01*
X4313580Y-624992D01*
X4326178Y-629818D01*
X4334764Y-631901D01*
X4337354Y-632917D01*
X4339590Y-634593D01*
X4360468Y-655421D01*
X4362246Y-657860D01*
X4363262Y-660755D01*
X4363262Y-681431D01*
X4365142Y-697890D01*
X4368901Y-714095D01*
X4374489Y-729742D01*
X4381804Y-744626D01*
X4390796Y-758596D01*
X4401312Y-771499D01*
X4413199Y-783082D01*
X4426356Y-793191D01*
X4440580Y-801776D01*
X4455718Y-808685D01*
X4471517Y-813816D01*
X4487773Y-817118D01*
G37*
G36*
X4967274Y-894791D02*
G01*
X4998059Y-894791D01*
X4998059Y-793140D01*
X4896408Y-793140D01*
X4896408Y-823925D01*
X4897272Y-835304D01*
X4899863Y-846074D01*
X4904079Y-856284D01*
X4909870Y-865733D01*
X4917084Y-874115D01*
X4925466Y-881329D01*
X4934915Y-887120D01*
X4945126Y-891336D01*
X4955895Y-893927D01*
G37*
G36*
X4581347Y-1929688D02*
G01*
X4594809Y-1929282D01*
X4608118Y-1926996D01*
X4620971Y-1923034D01*
X4633214Y-1917344D01*
X4644593Y-1910080D01*
X4654905Y-1901393D01*
X4663948Y-1891385D01*
X4671568Y-1880260D01*
X4677664Y-1868220D01*
X4682083Y-1855470D01*
X4683099Y-1850491D01*
X4684115Y-1847697D01*
X4685893Y-1845310D01*
X4705096Y-1826107D01*
X4708398Y-1823872D01*
X4712258Y-1823110D01*
X4815890Y-1823110D01*
X4820259Y-1824075D01*
X4823764Y-1826818D01*
X4833112Y-1838299D01*
X4844999Y-1849882D01*
X4858156Y-1859991D01*
X4872380Y-1868576D01*
X4887518Y-1875485D01*
X4903317Y-1880616D01*
X4919573Y-1883918D01*
X4936134Y-1885340D01*
X4952746Y-1884883D01*
X4969205Y-1882495D01*
X4985258Y-1878279D01*
X5000752Y-1872234D01*
X5015433Y-1864512D01*
X5029149Y-1855114D01*
X5041696Y-1844243D01*
X5052923Y-1832000D01*
X5062677Y-1818538D01*
X5070856Y-1804111D01*
X5077307Y-1788769D01*
X5082032Y-1772869D01*
X5084826Y-1756460D01*
X5085791Y-1739900D01*
X5084826Y-1723339D01*
X5082032Y-1706930D01*
X5077307Y-1691030D01*
X5070856Y-1675688D01*
X5062677Y-1661261D01*
X5052923Y-1647799D01*
X5041696Y-1635556D01*
X5029149Y-1624685D01*
X5015433Y-1615287D01*
X5000752Y-1607566D01*
X4985258Y-1601520D01*
X4969205Y-1597304D01*
X4952746Y-1594916D01*
X4936134Y-1594459D01*
X4919573Y-1595882D01*
X4903317Y-1599184D01*
X4887518Y-1604314D01*
X4872380Y-1611223D01*
X4858156Y-1619808D01*
X4844999Y-1629918D01*
X4833112Y-1641500D01*
X4823764Y-1652981D01*
X4820259Y-1655724D01*
X4815890Y-1656689D01*
X4673803Y-1656689D01*
X4667656Y-1656892D01*
X4661763Y-1657553D01*
X4655921Y-1658620D01*
X4650181Y-1660042D01*
X4644542Y-1661922D01*
X4639056Y-1664207D01*
X4633722Y-1666849D01*
X4628642Y-1669897D01*
X4623714Y-1673301D01*
X4619091Y-1677009D01*
X4614621Y-1681175D01*
X4568190Y-1727606D01*
X4565954Y-1729282D01*
X4563364Y-1730298D01*
X4554778Y-1732381D01*
X4542180Y-1737207D01*
X4530394Y-1743710D01*
X4519523Y-1751685D01*
X4509820Y-1761083D01*
X4501438Y-1771650D01*
X4494580Y-1783283D01*
X4489297Y-1795678D01*
X4485741Y-1808683D01*
X4483963Y-1822043D01*
X4483963Y-1835556D01*
X4485741Y-1848916D01*
X4489297Y-1861921D01*
X4494580Y-1874316D01*
X4501438Y-1885950D01*
X4509820Y-1896516D01*
X4519523Y-1905914D01*
X4530394Y-1913889D01*
X4542180Y-1920392D01*
X4554778Y-1925218D01*
X4567885Y-1928368D01*
G37*
G36*
X5085740Y-894791D02*
G01*
X5116525Y-894791D01*
X5127904Y-893927D01*
X5138674Y-891336D01*
X5148884Y-887120D01*
X5158333Y-881329D01*
X5166715Y-874115D01*
X5173929Y-865733D01*
X5179720Y-856284D01*
X5183936Y-846074D01*
X5186527Y-835304D01*
X5187391Y-823925D01*
X5187391Y-793140D01*
X5085740Y-793140D01*
G37*
G36*
X4885334Y-1339240D02*
G01*
X4901946Y-1338783D01*
X4918405Y-1336395D01*
X4934458Y-1332179D01*
X4949952Y-1326134D01*
X4964633Y-1318412D01*
X4978349Y-1309014D01*
X4990896Y-1298143D01*
X5002123Y-1285900D01*
X5011877Y-1272438D01*
X5020056Y-1258011D01*
X5026507Y-1242669D01*
X5031232Y-1226769D01*
X5034026Y-1210360D01*
X5034991Y-1193800D01*
X5034026Y-1177239D01*
X5031232Y-1160830D01*
X5026507Y-1144930D01*
X5020056Y-1129588D01*
X5011877Y-1115161D01*
X5002123Y-1101699D01*
X4990896Y-1089456D01*
X4978349Y-1078585D01*
X4964633Y-1069187D01*
X4949952Y-1061466D01*
X4934458Y-1055420D01*
X4918405Y-1051204D01*
X4901946Y-1048816D01*
X4885334Y-1048359D01*
X4868773Y-1049782D01*
X4852517Y-1053084D01*
X4846574Y-1055014D01*
X4842306Y-1055420D01*
X4838192Y-1054049D01*
X4835042Y-1051102D01*
X4829048Y-1042314D01*
X4820005Y-1032306D01*
X4809693Y-1023619D01*
X4798314Y-1016355D01*
X4786071Y-1010666D01*
X4773218Y-1006703D01*
X4759909Y-1004417D01*
X4746447Y-1004011D01*
X4732985Y-1005332D01*
X4719878Y-1008481D01*
X4707280Y-1013307D01*
X4695494Y-1019810D01*
X4684623Y-1027785D01*
X4674920Y-1037183D01*
X4666538Y-1047750D01*
X4659680Y-1059383D01*
X4654397Y-1071778D01*
X4650841Y-1084783D01*
X4649063Y-1098143D01*
X4649063Y-1111656D01*
X4650841Y-1125016D01*
X4654397Y-1138021D01*
X4659680Y-1150416D01*
X4666538Y-1162050D01*
X4674920Y-1172616D01*
X4684623Y-1182014D01*
X4695494Y-1189990D01*
X4707280Y-1196492D01*
X4719878Y-1201318D01*
X4728464Y-1203401D01*
X4731054Y-1204417D01*
X4733290Y-1206093D01*
X4744161Y-1216964D01*
X4745888Y-1219200D01*
X4746904Y-1221841D01*
X4749901Y-1234795D01*
X4755489Y-1250442D01*
X4762804Y-1265326D01*
X4771796Y-1279296D01*
X4782312Y-1292199D01*
X4794199Y-1303782D01*
X4807356Y-1313891D01*
X4821580Y-1322476D01*
X4836718Y-1329385D01*
X4852517Y-1334516D01*
X4868773Y-1337818D01*
G37*
G36*
X4732934Y-424840D02*
G01*
X4749546Y-424383D01*
X4766005Y-421995D01*
X4782058Y-417779D01*
X4797552Y-411734D01*
X4812233Y-404012D01*
X4825949Y-394614D01*
X4838496Y-383743D01*
X4849723Y-371500D01*
X4859477Y-358038D01*
X4867656Y-343611D01*
X4874107Y-328269D01*
X4878832Y-312369D01*
X4881778Y-294894D01*
X4882946Y-291541D01*
X4885232Y-288798D01*
X4888280Y-287020D01*
X4891786Y-286410D01*
X4930851Y-286410D01*
X4933391Y-286715D01*
X4935778Y-287680D01*
X4948631Y-294792D01*
X4961178Y-299618D01*
X4974285Y-302768D01*
X4987747Y-304088D01*
X5001209Y-303682D01*
X5014518Y-301396D01*
X5027371Y-297434D01*
X5039614Y-291744D01*
X5050993Y-284480D01*
X5061305Y-275793D01*
X5070348Y-265785D01*
X5077968Y-254660D01*
X5084064Y-242620D01*
X5088483Y-229870D01*
X5091176Y-216662D01*
X5092090Y-203200D01*
X5091176Y-189738D01*
X5088483Y-176530D01*
X5084064Y-163779D01*
X5077968Y-151739D01*
X5070348Y-140614D01*
X5061305Y-130606D01*
X5050993Y-121920D01*
X5039614Y-114655D01*
X5027371Y-108966D01*
X5014518Y-105003D01*
X5001209Y-102717D01*
X4987747Y-102311D01*
X4974285Y-103632D01*
X4961178Y-106781D01*
X4948631Y-111607D01*
X4935778Y-118719D01*
X4933391Y-119684D01*
X4930851Y-119989D01*
X4813503Y-119989D01*
X4807356Y-120192D01*
X4801463Y-120853D01*
X4795621Y-121920D01*
X4789881Y-123342D01*
X4784242Y-125222D01*
X4778756Y-127508D01*
X4773523Y-130098D01*
X4766614Y-134467D01*
X4763312Y-135788D01*
X4759756Y-135890D01*
X4749546Y-134416D01*
X4732934Y-133959D01*
X4716373Y-135382D01*
X4700117Y-138684D01*
X4684318Y-143814D01*
X4669180Y-150723D01*
X4654956Y-159308D01*
X4641799Y-169418D01*
X4629912Y-181000D01*
X4619396Y-193903D01*
X4610404Y-207873D01*
X4603089Y-222758D01*
X4597501Y-238404D01*
X4593742Y-254609D01*
X4591862Y-271068D01*
X4591862Y-287731D01*
X4593742Y-304190D01*
X4597501Y-320395D01*
X4603089Y-336042D01*
X4610404Y-350926D01*
X4619396Y-364896D01*
X4629912Y-377799D01*
X4641799Y-389382D01*
X4654956Y-399491D01*
X4669180Y-408076D01*
X4684318Y-414985D01*
X4700117Y-420116D01*
X4716373Y-423418D01*
G37*
G36*
X4072534Y-1694840D02*
G01*
X4089146Y-1694383D01*
X4105605Y-1691995D01*
X4121658Y-1687779D01*
X4137151Y-1681734D01*
X4151833Y-1674012D01*
X4165549Y-1664614D01*
X4178096Y-1653743D01*
X4189323Y-1641500D01*
X4192727Y-1636776D01*
X4195013Y-1634540D01*
X4197807Y-1633118D01*
X4200956Y-1632610D01*
X4267301Y-1632610D01*
X4271111Y-1633372D01*
X4274362Y-1635455D01*
X4278223Y-1639214D01*
X4289094Y-1647189D01*
X4300880Y-1653692D01*
X4313478Y-1658518D01*
X4326585Y-1661668D01*
X4340047Y-1662988D01*
X4353509Y-1662582D01*
X4366818Y-1660296D01*
X4379671Y-1656334D01*
X4391914Y-1650644D01*
X4403293Y-1643380D01*
X4413605Y-1634693D01*
X4422648Y-1624685D01*
X4430268Y-1613560D01*
X4436364Y-1601520D01*
X4440783Y-1588770D01*
X4443476Y-1575562D01*
X4444390Y-1562100D01*
X4443476Y-1548638D01*
X4440783Y-1535430D01*
X4436364Y-1522679D01*
X4430268Y-1510639D01*
X4422648Y-1499514D01*
X4413605Y-1489506D01*
X4403293Y-1480820D01*
X4391914Y-1473555D01*
X4379671Y-1467866D01*
X4366818Y-1463903D01*
X4353509Y-1461617D01*
X4340047Y-1461211D01*
X4326585Y-1462532D01*
X4313275Y-1465732D01*
X4309059Y-1466392D01*
X4304995Y-1466189D01*
X4200956Y-1466189D01*
X4197807Y-1465681D01*
X4195013Y-1464259D01*
X4192727Y-1462024D01*
X4189323Y-1457299D01*
X4178096Y-1445056D01*
X4165549Y-1434185D01*
X4151833Y-1424787D01*
X4137151Y-1417066D01*
X4121658Y-1411020D01*
X4105605Y-1406804D01*
X4089146Y-1404416D01*
X4072534Y-1403959D01*
X4055973Y-1405382D01*
X4039717Y-1408684D01*
X4023918Y-1413814D01*
X4008780Y-1420723D01*
X3994556Y-1429308D01*
X3981399Y-1439418D01*
X3969512Y-1451000D01*
X3958996Y-1463903D01*
X3950004Y-1477873D01*
X3942689Y-1492758D01*
X3937101Y-1508404D01*
X3933342Y-1524609D01*
X3931462Y-1541068D01*
X3931462Y-1557731D01*
X3933342Y-1574190D01*
X3937101Y-1590395D01*
X3942689Y-1606042D01*
X3950004Y-1620926D01*
X3958996Y-1634896D01*
X3969512Y-1647799D01*
X3981399Y-1659382D01*
X3994556Y-1669491D01*
X4008780Y-1678076D01*
X4023918Y-1684985D01*
X4039717Y-1690116D01*
X4055973Y-1693418D01*
G37*
G36*
X4034434Y-437540D02*
G01*
X4051046Y-437083D01*
X4067505Y-434695D01*
X4083558Y-430479D01*
X4099051Y-424434D01*
X4113733Y-416712D01*
X4127449Y-407314D01*
X4139996Y-396443D01*
X4151223Y-384200D01*
X4160977Y-370738D01*
X4169156Y-356311D01*
X4175607Y-340969D01*
X4180332Y-325069D01*
X4183126Y-308660D01*
X4184091Y-292100D01*
X4183634Y-284429D01*
X4184243Y-280365D01*
X4186428Y-276910D01*
X4189780Y-274523D01*
X4193794Y-273710D01*
X4321251Y-273710D01*
X4323791Y-274015D01*
X4326178Y-274980D01*
X4339031Y-282092D01*
X4351578Y-286918D01*
X4364685Y-290068D01*
X4378147Y-291388D01*
X4391609Y-290982D01*
X4404918Y-288696D01*
X4417771Y-284734D01*
X4430014Y-279044D01*
X4441393Y-271780D01*
X4451705Y-263093D01*
X4460748Y-253085D01*
X4468368Y-241960D01*
X4474464Y-229920D01*
X4478883Y-217170D01*
X4481576Y-203962D01*
X4482490Y-190500D01*
X4481576Y-177038D01*
X4478883Y-163830D01*
X4474464Y-151079D01*
X4468368Y-139039D01*
X4460748Y-127914D01*
X4451705Y-117906D01*
X4441393Y-109220D01*
X4430014Y-101955D01*
X4417771Y-96266D01*
X4404918Y-92303D01*
X4391609Y-90017D01*
X4378147Y-89611D01*
X4364685Y-90932D01*
X4351578Y-94081D01*
X4339031Y-98907D01*
X4326178Y-106019D01*
X4323791Y-106984D01*
X4321251Y-107289D01*
X4140403Y-107289D01*
X4134256Y-107492D01*
X4128363Y-108153D01*
X4122521Y-109220D01*
X4116781Y-110642D01*
X4111142Y-112522D01*
X4105656Y-114808D01*
X4100322Y-117449D01*
X4095242Y-120497D01*
X4090314Y-123901D01*
X4085691Y-127609D01*
X4081221Y-131775D01*
X4067606Y-145389D01*
X4065066Y-147269D01*
X4062120Y-148234D01*
X4058970Y-148285D01*
X4051046Y-147116D01*
X4034434Y-146659D01*
X4017873Y-148082D01*
X4001617Y-151384D01*
X3985818Y-156514D01*
X3970680Y-163423D01*
X3956456Y-172008D01*
X3943299Y-182118D01*
X3931412Y-193700D01*
X3920896Y-206603D01*
X3911904Y-220573D01*
X3904589Y-235458D01*
X3899001Y-251104D01*
X3895242Y-267309D01*
X3893362Y-283768D01*
X3893362Y-300431D01*
X3895242Y-316890D01*
X3899001Y-333095D01*
X3904589Y-348742D01*
X3911904Y-363626D01*
X3920896Y-377596D01*
X3931412Y-390499D01*
X3943299Y-402082D01*
X3956456Y-412191D01*
X3970680Y-420776D01*
X3985818Y-427685D01*
X4001617Y-432816D01*
X4017873Y-436118D01*
G37*

%LPD*%
G36*
X6925005Y-1974088D02*
G01*
X6920839Y-1973173D01*
X6917385Y-1970633D01*
X6915302Y-1966874D01*
X6914946Y-1962607D01*
X6916369Y-1958593D01*
X6919366Y-1955495D01*
X6923328Y-1953920D01*
X6932218Y-1952396D01*
X6945071Y-1948434D01*
X6957314Y-1942744D01*
X6968693Y-1935480D01*
X6979005Y-1926793D01*
X6988048Y-1916785D01*
X6995668Y-1905660D01*
X7001764Y-1893620D01*
X7006183Y-1880870D01*
X7008875Y-1867662D01*
X7009790Y-1854200D01*
X7008875Y-1840738D01*
X7006183Y-1827530D01*
X7001764Y-1814779D01*
X6995668Y-1802739D01*
X6988048Y-1791614D01*
X6979005Y-1781606D01*
X6968693Y-1772920D01*
X6957314Y-1765655D01*
X6945071Y-1759966D01*
X6927697Y-1754733D01*
X6925157Y-1752904D01*
X6916978Y-1744675D01*
X6912508Y-1740509D01*
X6907885Y-1736801D01*
X6903008Y-1733397D01*
X6897878Y-1730349D01*
X6892544Y-1727707D01*
X6887057Y-1725422D01*
X6881418Y-1723542D01*
X6875678Y-1722120D01*
X6869836Y-1721053D01*
X6863943Y-1720392D01*
X6857796Y-1720189D01*
X6804456Y-1720189D01*
X6801307Y-1719681D01*
X6798513Y-1718259D01*
X6796227Y-1716024D01*
X6792823Y-1711299D01*
X6790181Y-1708404D01*
X6788150Y-1705051D01*
X6787489Y-1701241D01*
X6788353Y-1697431D01*
X6790588Y-1694230D01*
X6793839Y-1692097D01*
X6797649Y-1691335D01*
X7616596Y-1691639D01*
X7620355Y-1692351D01*
X7623556Y-1694383D01*
X7625791Y-1697482D01*
X7626756Y-1701139D01*
X7626299Y-1704898D01*
X7624470Y-1708251D01*
X7616596Y-1717903D01*
X7607604Y-1731873D01*
X7600289Y-1746757D01*
X7598562Y-1751533D01*
X7596428Y-1755089D01*
X7593075Y-1757425D01*
X7589012Y-1758289D01*
X7578242Y-1758289D01*
X7575397Y-1757883D01*
X7572756Y-1756714D01*
X7566914Y-1752955D01*
X7554671Y-1747266D01*
X7541818Y-1743303D01*
X7528509Y-1741017D01*
X7515047Y-1740611D01*
X7501585Y-1741932D01*
X7488478Y-1745081D01*
X7475880Y-1749907D01*
X7464094Y-1756410D01*
X7453223Y-1764385D01*
X7443520Y-1773783D01*
X7435138Y-1784350D01*
X7428280Y-1795983D01*
X7422997Y-1808378D01*
X7419441Y-1821383D01*
X7417663Y-1834743D01*
X7417663Y-1848256D01*
X7419441Y-1861616D01*
X7422997Y-1874621D01*
X7428280Y-1887016D01*
X7435138Y-1898650D01*
X7443520Y-1909216D01*
X7453223Y-1918614D01*
X7464094Y-1926589D01*
X7475880Y-1933092D01*
X7488478Y-1937918D01*
X7501585Y-1941068D01*
X7515047Y-1942388D01*
X7528509Y-1941982D01*
X7541818Y-1939696D01*
X7554671Y-1935734D01*
X7566914Y-1930044D01*
X7572756Y-1926285D01*
X7575397Y-1925116D01*
X7578242Y-1924710D01*
X7651343Y-1924710D01*
X7654086Y-1925066D01*
X7656626Y-1926183D01*
X7666380Y-1932076D01*
X7681518Y-1938985D01*
X7697317Y-1944116D01*
X7713573Y-1947418D01*
X7730134Y-1948840D01*
X7746746Y-1948383D01*
X7763205Y-1945995D01*
X7779258Y-1941779D01*
X7794752Y-1935734D01*
X7809433Y-1928012D01*
X7823149Y-1918614D01*
X7835696Y-1907743D01*
X7846923Y-1895500D01*
X7856677Y-1882038D01*
X7864856Y-1867611D01*
X7871307Y-1852269D01*
X7876031Y-1836369D01*
X7878825Y-1819960D01*
X7879791Y-1803400D01*
X7878825Y-1786839D01*
X7876031Y-1770430D01*
X7871307Y-1754530D01*
X7864856Y-1739188D01*
X7856677Y-1724761D01*
X7846923Y-1711299D01*
X7835696Y-1699056D01*
X7823149Y-1688185D01*
X7809433Y-1678787D01*
X7794752Y-1671066D01*
X7779258Y-1665020D01*
X7763205Y-1660804D01*
X7756855Y-1659889D01*
X7752689Y-1658315D01*
X7749590Y-1655064D01*
X7748168Y-1650847D01*
X7748727Y-1646428D01*
X7751114Y-1642668D01*
X7838694Y-1555089D01*
X7842402Y-1552702D01*
X7847888Y-1552244D01*
X7862722Y-1551787D01*
X7877352Y-1549501D01*
X7891627Y-1545437D01*
X7905292Y-1539646D01*
X7918145Y-1532229D01*
X7929981Y-1523288D01*
X7940649Y-1512976D01*
X7949946Y-1501444D01*
X7957769Y-1488795D01*
X7963966Y-1475333D01*
X7965287Y-1471117D01*
X7967472Y-1467358D01*
X7971028Y-1464818D01*
X7975295Y-1464056D01*
X7979511Y-1465122D01*
X7982458Y-1466545D01*
X7996428Y-1471472D01*
X8010906Y-1474673D01*
X8025688Y-1476044D01*
X8040522Y-1475587D01*
X8055152Y-1473301D01*
X8069427Y-1469237D01*
X8083092Y-1463446D01*
X8095945Y-1456029D01*
X8107781Y-1447088D01*
X8118449Y-1436776D01*
X8127746Y-1425194D01*
X8135569Y-1412595D01*
X8141766Y-1399133D01*
X8146237Y-1385011D01*
X8148980Y-1370431D01*
X8149894Y-1355598D01*
X8148980Y-1340815D01*
X8146237Y-1326235D01*
X8145475Y-1323695D01*
X8145068Y-1319377D01*
X8146491Y-1315262D01*
X8149539Y-1312164D01*
X8153603Y-1310589D01*
X8169503Y-1308201D01*
X8183727Y-1304137D01*
X8197392Y-1298346D01*
X8210245Y-1290929D01*
X8222081Y-1281988D01*
X8232749Y-1271676D01*
X8242046Y-1260094D01*
X8249869Y-1247495D01*
X8256066Y-1234033D01*
X8260537Y-1219911D01*
X8263280Y-1205331D01*
X8264194Y-1190498D01*
X8263280Y-1175715D01*
X8260537Y-1161135D01*
X8256066Y-1146962D01*
X8249869Y-1133500D01*
X8243163Y-1122730D01*
X8241741Y-1118616D01*
X8242147Y-1114298D01*
X8244331Y-1110538D01*
X8248192Y-1107846D01*
X8261045Y-1100429D01*
X8272881Y-1091488D01*
X8283549Y-1081176D01*
X8292846Y-1069594D01*
X8300669Y-1056995D01*
X8306866Y-1043533D01*
X8311337Y-1029411D01*
X8314080Y-1014831D01*
X8314994Y-999998D01*
X8314080Y-985215D01*
X8311337Y-970635D01*
X8306866Y-956462D01*
X8300669Y-943000D01*
X8292846Y-930402D01*
X8283549Y-918819D01*
X8272881Y-908507D01*
X8261045Y-899566D01*
X8255762Y-896518D01*
X8252561Y-893571D01*
X8250885Y-889609D01*
X8250986Y-885240D01*
X8252968Y-881329D01*
X8254746Y-879094D01*
X8262569Y-866495D01*
X8268766Y-853033D01*
X8273237Y-838911D01*
X8275980Y-824331D01*
X8276894Y-809498D01*
X8275980Y-794715D01*
X8273237Y-780135D01*
X8268766Y-765962D01*
X8262569Y-752500D01*
X8254746Y-739902D01*
X8245449Y-728319D01*
X8234781Y-718007D01*
X8222945Y-709066D01*
X8210092Y-701649D01*
X8196173Y-695807D01*
X8192363Y-693724D01*
X8189722Y-690270D01*
X8188807Y-686003D01*
X8188807Y-655777D01*
X8189569Y-651865D01*
X8191804Y-648563D01*
X8195056Y-646379D01*
X8199374Y-644601D01*
X8208822Y-638810D01*
X8217255Y-631647D01*
X8224418Y-623214D01*
X8230209Y-613816D01*
X8234425Y-603554D01*
X8237016Y-592836D01*
X8237931Y-581406D01*
X8237931Y-482193D01*
X8237016Y-470763D01*
X8234425Y-460044D01*
X8230209Y-449783D01*
X8224418Y-440385D01*
X8222742Y-438404D01*
X8220913Y-435305D01*
X8220303Y-431800D01*
X8220913Y-428294D01*
X8222742Y-425196D01*
X8224418Y-423214D01*
X8226501Y-419862D01*
X8228736Y-417271D01*
X8231733Y-415594D01*
X8235137Y-415035D01*
X8306816Y-415035D01*
X8310727Y-415798D01*
X8314029Y-417982D01*
X8321192Y-425196D01*
X8323427Y-428498D01*
X8324189Y-432358D01*
X8324189Y-532993D01*
X8325103Y-544423D01*
X8327694Y-555193D01*
X8331911Y-565404D01*
X8337702Y-574802D01*
X8344865Y-583234D01*
X8353298Y-590397D01*
X8362696Y-596188D01*
X8372906Y-600405D01*
X8383676Y-602996D01*
X8395106Y-603910D01*
X8546693Y-603910D01*
X8558123Y-602996D01*
X8568893Y-600405D01*
X8579104Y-596188D01*
X8588502Y-590397D01*
X8596934Y-583234D01*
X8604097Y-574802D01*
X8609888Y-565404D01*
X8614105Y-555193D01*
X8616696Y-544423D01*
X8617610Y-532993D01*
X8617610Y-381406D01*
X8616696Y-369976D01*
X8614105Y-359206D01*
X8609888Y-348996D01*
X8604097Y-339598D01*
X8596934Y-331165D01*
X8588502Y-324002D01*
X8579104Y-318211D01*
X8568893Y-313994D01*
X8558123Y-311404D01*
X8546693Y-310489D01*
X8446058Y-310489D01*
X8442198Y-309727D01*
X8438896Y-307492D01*
X8404453Y-273100D01*
X8399983Y-268935D01*
X8395360Y-265176D01*
X8390483Y-261823D01*
X8385352Y-258775D01*
X8380069Y-256133D01*
X8374583Y-253847D01*
X8368944Y-251967D01*
X8363203Y-250494D01*
X8357362Y-249428D01*
X8351418Y-248818D01*
X8345322Y-248615D01*
X8235137Y-248615D01*
X8231733Y-248005D01*
X8228736Y-246329D01*
X8226501Y-243738D01*
X8224418Y-240385D01*
X8217255Y-231952D01*
X8208822Y-224790D01*
X8199374Y-218998D01*
X8189163Y-214782D01*
X8178444Y-212191D01*
X8167014Y-211277D01*
X8012785Y-211277D01*
X8001355Y-212191D01*
X7990636Y-214782D01*
X7980425Y-218998D01*
X7970977Y-224790D01*
X7962544Y-231952D01*
X7955381Y-240385D01*
X7949590Y-249783D01*
X7945374Y-260045D01*
X7943850Y-266293D01*
X7942021Y-270103D01*
X7938820Y-272846D01*
X7934756Y-274066D01*
X7930591Y-273507D01*
X7926984Y-271322D01*
X7924596Y-267817D01*
X7921802Y-261061D01*
X7915960Y-251002D01*
X7914487Y-248920D01*
X7908645Y-241909D01*
X7711236Y-44500D01*
X7707934Y-40690D01*
X7706868Y-36677D01*
X7707426Y-32613D01*
X7709560Y-29108D01*
X7712964Y-26720D01*
X7716977Y-25908D01*
X7999831Y-25908D01*
X8043113Y-26873D01*
X8085937Y-29718D01*
X8128558Y-34442D01*
X8170976Y-41046D01*
X8213039Y-49479D01*
X8254695Y-59791D01*
X8295843Y-71932D01*
X8336432Y-85852D01*
X8376361Y-101549D01*
X8415528Y-119024D01*
X8453932Y-138176D01*
X8491423Y-158953D01*
X8527999Y-181457D01*
X8563508Y-205486D01*
X8597950Y-231089D01*
X8631275Y-258165D01*
X8663330Y-286664D01*
X8694064Y-316534D01*
X8723477Y-347776D01*
X8751519Y-380288D01*
X8778087Y-413969D01*
X8803132Y-448818D01*
X8826601Y-484682D01*
X8848496Y-521614D01*
X8868765Y-559409D01*
X8887307Y-598119D01*
X8904122Y-637590D01*
X8919210Y-677722D01*
X8932519Y-718515D01*
X8944000Y-759866D01*
X8953652Y-801674D01*
X8961475Y-843838D01*
X8967419Y-886358D01*
X8971483Y-929081D01*
X8973667Y-971905D01*
X8973972Y-1015339D01*
X8972296Y-1058621D01*
X8968740Y-1101750D01*
X8963253Y-1144676D01*
X8955887Y-1187348D01*
X8946642Y-1229614D01*
X8935516Y-1271422D01*
X8922512Y-1312722D01*
X8907729Y-1353362D01*
X8891117Y-1393342D01*
X8872778Y-1432560D01*
X8852712Y-1470914D01*
X8830919Y-1508302D01*
X8807551Y-1544726D01*
X8782558Y-1580032D01*
X8755989Y-1614220D01*
X8727948Y-1647240D01*
X8698484Y-1678939D01*
X8667648Y-1709267D01*
X8635492Y-1738223D01*
X8602065Y-1765757D01*
X8567470Y-1791716D01*
X8531707Y-1816150D01*
X8494928Y-1838960D01*
X8457184Y-1860143D01*
X8418525Y-1879600D01*
X8379053Y-1897329D01*
X8338820Y-1913280D01*
X8297925Y-1927402D01*
X8256422Y-1939747D01*
X8214410Y-1950212D01*
X8171992Y-1958797D01*
X8129219Y-1965452D01*
X8086242Y-1970278D01*
X8043062Y-1973122D01*
X7999628Y-1974088D01*
G37*

%LPC*%
G36*
X8530234Y-1390040D02*
G01*
X8546846Y-1389583D01*
X8563305Y-1387195D01*
X8579358Y-1382979D01*
X8594852Y-1376934D01*
X8609533Y-1369212D01*
X8623249Y-1359814D01*
X8635796Y-1348943D01*
X8647023Y-1336700D01*
X8656777Y-1323238D01*
X8664956Y-1308811D01*
X8671407Y-1293469D01*
X8676132Y-1277569D01*
X8678926Y-1261160D01*
X8679891Y-1244600D01*
X8678926Y-1228039D01*
X8676132Y-1211630D01*
X8671407Y-1195730D01*
X8664956Y-1180388D01*
X8656777Y-1165961D01*
X8647023Y-1152499D01*
X8635796Y-1140256D01*
X8619642Y-1126286D01*
X8618118Y-1123391D01*
X8617610Y-1120190D01*
X8617610Y-1003858D01*
X8618372Y-999998D01*
X8620607Y-996696D01*
X8779357Y-837895D01*
X8781897Y-836066D01*
X8799271Y-830834D01*
X8811514Y-825144D01*
X8822893Y-817880D01*
X8833205Y-809193D01*
X8842248Y-799185D01*
X8849868Y-788060D01*
X8855964Y-776020D01*
X8860383Y-763270D01*
X8863076Y-750062D01*
X8863990Y-736600D01*
X8863076Y-723138D01*
X8860383Y-709930D01*
X8855964Y-697179D01*
X8849868Y-685139D01*
X8842248Y-674014D01*
X8833205Y-664006D01*
X8822893Y-655320D01*
X8811514Y-648055D01*
X8799271Y-642366D01*
X8786418Y-638403D01*
X8773109Y-636117D01*
X8759647Y-635711D01*
X8746185Y-637032D01*
X8733078Y-640181D01*
X8720480Y-645007D01*
X8708694Y-651510D01*
X8697823Y-659485D01*
X8688120Y-668883D01*
X8679738Y-679450D01*
X8672880Y-691083D01*
X8667597Y-703478D01*
X8664244Y-715772D01*
X8663228Y-718210D01*
X8661654Y-720293D01*
X8475675Y-906221D01*
X8471509Y-910691D01*
X8467801Y-915314D01*
X8464397Y-920242D01*
X8461349Y-925321D01*
X8458708Y-930656D01*
X8456422Y-936142D01*
X8454542Y-941781D01*
X8453120Y-947521D01*
X8452053Y-953363D01*
X8451392Y-959256D01*
X8451189Y-965403D01*
X8451189Y-1120343D01*
X8450732Y-1123391D01*
X8449360Y-1126134D01*
X8447227Y-1128369D01*
X8439099Y-1134618D01*
X8427212Y-1146200D01*
X8416696Y-1159103D01*
X8407704Y-1173073D01*
X8400389Y-1187958D01*
X8394801Y-1203604D01*
X8391042Y-1219809D01*
X8389162Y-1236268D01*
X8389162Y-1252931D01*
X8391042Y-1269390D01*
X8394801Y-1285595D01*
X8400389Y-1301242D01*
X8407704Y-1316126D01*
X8416696Y-1330096D01*
X8427212Y-1342999D01*
X8439099Y-1354582D01*
X8452256Y-1364691D01*
X8466480Y-1373276D01*
X8481618Y-1380185D01*
X8497417Y-1385316D01*
X8513673Y-1388618D01*
G37*
G36*
X8187334Y-1758340D02*
G01*
X8203946Y-1757883D01*
X8220405Y-1755495D01*
X8236458Y-1751279D01*
X8251952Y-1745234D01*
X8266633Y-1737512D01*
X8280349Y-1728114D01*
X8292896Y-1717243D01*
X8304123Y-1705000D01*
X8313877Y-1691538D01*
X8322056Y-1677111D01*
X8328507Y-1661769D01*
X8333231Y-1645869D01*
X8336025Y-1629460D01*
X8337042Y-1624787D01*
X8339226Y-1621739D01*
X8342426Y-1619656D01*
X8346135Y-1618894D01*
X8349894Y-1619605D01*
X8352078Y-1620418D01*
X8365185Y-1623568D01*
X8378647Y-1624888D01*
X8392109Y-1624482D01*
X8405418Y-1622196D01*
X8418271Y-1618234D01*
X8430514Y-1612544D01*
X8441893Y-1605280D01*
X8452205Y-1596593D01*
X8461248Y-1586585D01*
X8468868Y-1575460D01*
X8474964Y-1563420D01*
X8479383Y-1550670D01*
X8482076Y-1537462D01*
X8482990Y-1524000D01*
X8482076Y-1510538D01*
X8479383Y-1497330D01*
X8474964Y-1484579D01*
X8468868Y-1472539D01*
X8461248Y-1461414D01*
X8452205Y-1451406D01*
X8441893Y-1442720D01*
X8430514Y-1435455D01*
X8418271Y-1429766D01*
X8405418Y-1425803D01*
X8392109Y-1423517D01*
X8378647Y-1423111D01*
X8365185Y-1424432D01*
X8352078Y-1427581D01*
X8339531Y-1432407D01*
X8326678Y-1439519D01*
X8324291Y-1440484D01*
X8321751Y-1440789D01*
X8280603Y-1440789D01*
X8274456Y-1440992D01*
X8268563Y-1441653D01*
X8262721Y-1442720D01*
X8256981Y-1444142D01*
X8251342Y-1446022D01*
X8245856Y-1448308D01*
X8240522Y-1450949D01*
X8235442Y-1453997D01*
X8230514Y-1457401D01*
X8225942Y-1461109D01*
X8220303Y-1466392D01*
X8217814Y-1468120D01*
X8214918Y-1469034D01*
X8211870Y-1469085D01*
X8203946Y-1467916D01*
X8187334Y-1467459D01*
X8170773Y-1468882D01*
X8154517Y-1472184D01*
X8138718Y-1477314D01*
X8123580Y-1484223D01*
X8109356Y-1492808D01*
X8096199Y-1502918D01*
X8084312Y-1514500D01*
X8073796Y-1527403D01*
X8064804Y-1541373D01*
X8057489Y-1556258D01*
X8051901Y-1571904D01*
X8048142Y-1588109D01*
X8046262Y-1604568D01*
X8046262Y-1621231D01*
X8048142Y-1637690D01*
X8051901Y-1653895D01*
X8057489Y-1669542D01*
X8064804Y-1684426D01*
X8073796Y-1698396D01*
X8084312Y-1711299D01*
X8096199Y-1722882D01*
X8109356Y-1732991D01*
X8123580Y-1741576D01*
X8138718Y-1748485D01*
X8154517Y-1753616D01*
X8170773Y-1756918D01*
G37*

%LPD*%
D10*
X6602399Y-825500D02*
G01*
X6830999Y-825500D01*
X6856399Y-850900D01*
X6870700Y-850900D01*
X7734300Y-1803400D02*
G01*
X7696200Y-1841500D01*
X7518400Y-1841500D01*
X8382000Y-1524000D02*
G01*
X8280400Y-1524000D01*
X8191500Y-1612900D01*
X8534400Y-1244600D02*
G01*
X8534400Y-965200D01*
X8763000Y-736600D01*
X8089900Y-331800D02*
G01*
X8345500Y-331800D01*
X8470900Y-457200D01*
X8156397Y-809497D02*
G01*
X8105597Y-758697D01*
X8105597Y-547496D01*
X8089900Y-531799D01*
X6959600Y-495300D02*
G01*
X7175500Y-495300D01*
X6578600Y-495300D02*
G01*
X6477000Y-495300D01*
X6426200Y-546100D01*
X6311900Y-546100D01*
X6156401Y-809497D02*
G01*
X6359601Y-809497D01*
X6375603Y-825500D01*
X6402400Y-825500D01*
X6680200Y-1803400D02*
G01*
X6858000Y-1803400D01*
X6908800Y-1854200D01*
X5486400Y-1790700D02*
G01*
X5829300Y-1790700D01*
X4356100Y-533400D02*
G01*
X4495800Y-673100D01*
X4508500Y-673100D01*
X4751204Y-856368D02*
G01*
X4827404Y-780168D01*
X5011031Y-780168D01*
X5041900Y-749300D01*
X5334000Y-165100D02*
G01*
X5245100Y-254000D01*
X5245100Y-419100D01*
X4991100Y-203200D02*
G01*
X4813300Y-203200D01*
X4737100Y-279400D01*
X4381500Y-190500D02*
G01*
X4140200Y-190500D01*
X4038600Y-292100D01*
X2119375Y-825500D02*
G01*
X2347975Y-825500D01*
X2374900Y-850900D01*
X1656410Y-809497D02*
G01*
X1885010Y-809497D01*
X1901012Y-825500D01*
X1919300Y-825500D01*
X1371600Y-203200D02*
G01*
X1193800Y-203200D01*
X1181100Y-203200D01*
X2603500Y-533400D02*
G01*
X2324100Y-533400D01*
X3441700Y-203200D02*
G01*
X3632200Y-203200D01*
X3644900Y-190500D01*
X3656406Y-809497D02*
G01*
X3830904Y-635000D01*
X3887800Y-635000D01*
X4087799Y-635000D02*
G01*
X4267200Y-814400D01*
X4267200Y-927100D01*
X4749800Y-1104900D02*
G01*
X4838700Y-1193800D01*
X4889500Y-1193800D01*
X4584700Y-1828800D02*
G01*
X4673600Y-1739900D01*
X4940300Y-1739900D01*
X4076700Y-1549400D02*
G01*
X4305300Y-1549400D01*
X4318000Y-1562100D01*
X4343400Y-1562100D01*
X3568700Y-1803400D02*
G01*
X3556000Y-1790700D01*
X3263900Y-1790700D01*
X2120900Y-1803400D02*
G01*
X1841500Y-1803400D01*
X939800Y-1676400D02*
G01*
X1041400Y-1778000D01*
X1092200Y-1778000D01*
X1130300Y-1816100D01*
X577443Y-1519224D02*
G01*
X572668Y-1524000D01*
X381000Y-1524000D01*
X520700Y-1282700D02*
G01*
X685800Y-1282700D01*
X749300Y-1346200D01*
X749300Y-1630426D01*
X692404Y-1630426D01*
X406400Y-596900D02*
G01*
X304800Y-698500D01*
X304800Y-762000D01*
D11*
X6143698Y-1190500D02*
G01*
X6146998Y-1193800D01*
X6705600Y-1193800D01*
X3157981Y-101600D02*
G01*
X3351529Y-295147D01*
X3351529Y-568197D01*
X6591300Y-317500D02*
G01*
X7327905Y-317500D01*
X7470602Y-460194D01*
X7470602Y-644400D01*
X7658100Y-101600D02*
G01*
X7670800Y-114300D01*
X7851602Y-295094D01*
X7851602Y-568200D01*
X5851598Y-568200D02*
G01*
X6318199Y-101600D01*
X7658100Y-101600D01*
X1845741Y-228600D02*
G01*
X1837309Y-228600D01*
X3031109Y-228600D01*
X3148411Y-345894D01*
X3148411Y-568200D01*
X2129409Y-317500D02*
G01*
X2827909Y-317500D01*
X2970611Y-460194D01*
X2970611Y-644400D01*
X5851652Y-1431797D02*
G01*
X5740400Y-1320800D01*
X5613400Y-1320800D01*
X5511800Y-1473200D01*
X5511800Y-1562100D01*
X5562600Y-1612900D01*
X7669784Y-1613662D01*
X7851647Y-1431797D01*
X1351607Y-568200D02*
G01*
X1818208Y-101600D01*
X3158109Y-101600D01*
X1643707Y-1190500D02*
G01*
X2047727Y-1190500D01*
X1694558Y-1000000D02*
G01*
X1850009Y-1003300D01*
X2599309Y-1003300D01*
X2713609Y-1117600D01*
X2904109Y-1079500D01*
X2980309Y-1003300D01*
X3691260Y-1003300D01*
X3694559Y-1000000D01*
X5648401Y-568197D02*
G01*
X5775401Y-695197D01*
X5877001Y-695197D01*
X6334201Y-237997D01*
X6334201Y-231698D01*
X6345730Y-228600D01*
X6345730Y-228600D02*
G01*
X6337300Y-228600D01*
X7531100Y-228600D01*
X7648397Y-345897D01*
X7648397Y-568197D01*
X5470598Y-644400D02*
G01*
X5597598Y-771400D01*
X5892800Y-774700D01*
X6350000Y-317500D01*
X6591300Y-317500D01*
X5305552Y-999997D02*
G01*
X5756402Y-999997D01*
X6096000Y-660400D01*
X6934200Y-660400D01*
X7273797Y-999997D01*
X7305497Y-999997D01*
X5648452Y-1444497D02*
G01*
X5727700Y-1536700D01*
X7569200Y-1536700D01*
X7648447Y-1444497D01*
X6194552Y-999997D02*
G01*
X6350000Y-1003300D01*
X7099300Y-1003300D01*
X7213600Y-1117600D01*
X7404100Y-1079500D01*
X7480300Y-1003300D01*
X8191245Y-1003300D01*
X8194547Y-999997D01*
X1351534Y-1431797D02*
G01*
X1240281Y-1320800D01*
X1113281Y-1320800D01*
X1011681Y-1473200D01*
X1011681Y-1562100D01*
X1062481Y-1613662D01*
X3263138Y-1613662D01*
X3351784Y-1525015D01*
X3351784Y-1431797D01*
X1148334Y-1444497D02*
G01*
X1240536Y-1536700D01*
X3056381Y-1536700D01*
X3148584Y-1444497D01*
X1529334Y-1355597D02*
G01*
X1529334Y-1415034D01*
X1574800Y-1460500D01*
X3035300Y-1460500D01*
X3086100Y-1333500D01*
X3507486Y-1333500D01*
X3529584Y-1355597D01*
X2047747Y-1190497D02*
G01*
X2396997Y-1190497D01*
X2523997Y-1317497D01*
X2856484Y-1317497D01*
X2980181Y-1193800D01*
X3640327Y-1193800D01*
X3643629Y-1190497D01*
X843534Y-1190497D02*
G01*
X945134Y-1088897D01*
X1605534Y-1088897D01*
X1799081Y-1104900D01*
X2527300Y-1104900D01*
X2612897Y-1190497D01*
X2843529Y-1190497D01*
X1148334Y-568197D02*
G01*
X1275334Y-695197D01*
X1362202Y-695197D01*
X1825752Y-231647D01*
X1834134Y-231647D01*
X1845818Y-228600D01*
X805434Y-999997D02*
G01*
X1260602Y-999997D01*
X1625600Y-635000D01*
X2408681Y-635000D01*
X2773934Y-999997D01*
X2805429Y-999997D01*
X970534Y-644397D02*
G01*
X1113536Y-787400D01*
X1371600Y-787400D01*
X1841500Y-317500D01*
X2129281Y-317500D01*
X6029452Y-1355597D02*
G01*
X6410197Y-1355597D01*
X6515100Y-1460500D01*
X7531100Y-1460500D01*
X7594600Y-1320800D01*
X7994650Y-1320800D01*
X8029447Y-1355597D01*
X5470652Y-1355597D02*
G01*
X5470652Y-1349247D01*
X5562600Y-1257300D01*
X6070600Y-1257300D01*
X6108700Y-1295400D01*
X6654800Y-1295400D01*
X6756400Y-1397000D01*
X7429245Y-1397000D01*
X7470647Y-1355597D01*
X5343652Y-1190497D02*
G01*
X5445252Y-1088897D01*
X6105652Y-1088897D01*
X6299200Y-1104900D01*
X6972300Y-1104900D01*
X7057897Y-1190497D01*
X7343647Y-1190497D01*
X6705600Y-1193800D02*
G01*
X6832600Y-1193800D01*
X6956297Y-1317497D01*
X7356602Y-1317497D01*
X7480300Y-1193800D01*
X8140445Y-1193800D01*
X8143747Y-1190497D01*
X970534Y-1355597D02*
G01*
X970534Y-1349247D01*
X1062481Y-1257300D01*
X1570481Y-1257300D01*
X1608581Y-1295400D01*
X2235200Y-1295400D01*
X2336800Y-1397000D01*
X2929127Y-1397000D01*
X2970529Y-1355597D01*
G36*
X6794500Y-774700D02*
G01*
X6946900Y-774700D01*
X6946900Y-927100D01*
X6794500Y-927100D01*
G37*
G36*
X8394700Y-381000D02*
G01*
X8547100Y-381000D01*
X8547100Y-533400D01*
X8394700Y-533400D01*
G37*
G36*
X4191000Y-850900D02*
G01*
X4343400Y-850900D01*
X4343400Y-1003300D01*
X4191000Y-1003300D01*
G37*
G36*
X2298700Y-774700D02*
G01*
X2451100Y-774700D01*
X2451100Y-927100D01*
X2298700Y-927100D01*
G37*
D22*
G01*
X1371600Y-203200D03*
G01*
X520700Y-1282700D03*
G01*
X1130300Y-1816100D03*
G01*
X406400Y-596900D03*
G01*
X4737100Y-279400D03*
G01*
X5245100Y-419100D03*
G01*
X4038600Y-292100D03*
G01*
X4508500Y-673100D03*
G01*
X4889500Y-1193800D03*
G01*
X4940300Y-1739900D03*
G01*
X4076700Y-1549400D03*
G01*
X3263900Y-1790700D03*
G01*
X2120900Y-1803400D03*
G01*
X2603500Y-533400D03*
G01*
X3644900Y-190500D03*
G01*
X5486400Y-1790700D03*
G01*
X6680200Y-1803400D03*
G01*
X7734300Y-1803400D03*
G01*
X8191500Y-1612900D03*
G01*
X8534400Y-1244600D03*
G01*
X6578600Y-495300D03*
G01*
X6959600Y-495300D03*
G36*
X4966898Y-674301D02*
G01*
X5116898Y-674301D01*
X5116898Y-824301D01*
X4966898Y-824301D01*
G37*
G36*
X651621Y-1514391D02*
G01*
X579686Y-1444924D01*
X503273Y-1524053D01*
X575208Y-1593519D01*
G37*
G36*
X766716Y-1625536D02*
G01*
X694781Y-1556070D01*
X618368Y-1635198D01*
X690300Y-1704665D01*
G37*
G36*
X2069299Y-903000D02*
G01*
X2169299Y-903000D01*
X2169299Y-747999D01*
X2069299Y-747999D01*
G37*
G36*
X1869300Y-903000D02*
G01*
X1969300Y-903000D01*
X1969300Y-747999D01*
X1869300Y-747999D01*
G37*
G36*
X4037799Y-712500D02*
G01*
X4137799Y-712500D01*
X4137799Y-557499D01*
X4037799Y-557499D01*
G37*
G36*
X3837800Y-712500D02*
G01*
X3937800Y-712500D01*
X3937800Y-557499D01*
X3837800Y-557499D01*
G37*
G36*
X6552399Y-903000D02*
G01*
X6652399Y-903000D01*
X6652399Y-747999D01*
X6552399Y-747999D01*
G37*
G36*
X6352400Y-903000D02*
G01*
X6452400Y-903000D01*
X6452400Y-747999D01*
X6352400Y-747999D01*
G37*
G36*
X8167400Y-381800D02*
G01*
X8167400Y-281800D01*
X8012399Y-281800D01*
X8012399Y-381800D01*
G37*
G36*
X8167400Y-581799D02*
G01*
X8167400Y-481799D01*
X8012399Y-481799D01*
X8012399Y-581799D01*
G37*
D20*
G01*
X1694510Y-999997D03*
G01*
X805510Y-999997D03*
G01*
X1656410Y-809497D03*
G01*
X843610Y-809497D03*
G01*
X843610Y-1190497D03*
G01*
X1643710Y-1190497D03*
G01*
X1529410Y-1355597D03*
G01*
X970610Y-1355597D03*
G01*
X1351610Y-1431797D03*
G01*
X1148410Y-1444497D03*
G01*
X1351610Y-568197D03*
G01*
X1148410Y-568197D03*
G01*
X970610Y-644397D03*
G01*
X3694506Y-999997D03*
G01*
X2805506Y-999997D03*
G01*
X3656406Y-809497D03*
G01*
X2843606Y-809497D03*
G01*
X2843606Y-1190497D03*
G01*
X3643706Y-1190497D03*
G01*
X3529406Y-1355597D03*
G01*
X2970606Y-1355597D03*
G01*
X3351606Y-1431797D03*
G01*
X3148406Y-1444497D03*
G01*
X3351606Y-568197D03*
G01*
X3148406Y-568197D03*
G01*
X2970606Y-644397D03*
G01*
X6194501Y-999997D03*
G01*
X5305501Y-999997D03*
G01*
X6156401Y-809497D03*
G01*
X5343601Y-809497D03*
G01*
X5343601Y-1190497D03*
G01*
X6143701Y-1190497D03*
G01*
X6029401Y-1355597D03*
G01*
X5470601Y-1355597D03*
G01*
X5851601Y-1431797D03*
G01*
X5648401Y-1444497D03*
G01*
X5851601Y-568197D03*
G01*
X5648401Y-568197D03*
G01*
X5470601Y-644397D03*
G01*
X8194497Y-999997D03*
G01*
X7305497Y-999997D03*
G01*
X8156397Y-809497D03*
G01*
X7343597Y-809497D03*
G01*
X7343597Y-1190497D03*
G01*
X8143697Y-1190497D03*
G01*
X8029397Y-1355597D03*
G01*
X7470597Y-1355597D03*
G01*
X7851597Y-1431797D03*
G01*
X7648397Y-1444497D03*
G01*
X7851597Y-568197D03*
G01*
X7648397Y-568197D03*
G01*
X7470597Y-644397D03*
D12*
G01*
X8763000Y-736600D03*
G01*
X8382000Y-1524000D03*
G01*
X7518400Y-1841500D03*
G01*
X6908800Y-1854200D03*
G01*
X5829300Y-1790700D03*
G01*
X7175500Y-495300D03*
G01*
X6311900Y-546100D03*
G01*
X1841500Y-1803400D03*
G01*
X3568700Y-1803400D03*
G01*
X4584700Y-1828800D03*
G01*
X4343400Y-1562100D03*
G01*
X4749800Y-1104900D03*
G01*
X5334000Y-165100D03*
G01*
X4991100Y-203200D03*
G01*
X4381500Y-190500D03*
G01*
X4356100Y-533400D03*
G01*
X3441700Y-203200D03*
G01*
X2324100Y-533400D03*
G01*
X939800Y-1676400D03*
G01*
X1181100Y-203200D03*
G01*
X381000Y-1524000D03*
D13*
G01*
X6345732Y-228600D03*
G01*
X6591300Y-317500D03*
G01*
X6705600Y-1193800D03*
G01*
X2047722Y-1190497D03*
D14*
G01*
X4751197Y-856361D03*
D12*
G01*
X304800Y-762000D03*
M02*
