G04 Layer: BottomSilkLayer*
G04 EasyEDA v6.4.24, 2021-09-25T18:24:48+02:00*
G04 92b9668f88874301bfa8342a5f0d0e57,f5a38c858c354eb5b90fd3f81420cce3,10*
G04 Gerber Generator version 0.2*
G04 Scale: 100 percent, Rotated: No, Reflected: No *
G04 Dimensions in millimeters *
G04 leading zeros omitted , absolute positions ,4 integer and 5 decimal *
%FSLAX45Y45*%
%MOMM*%

%ADD10C,0.2540*%
%ADD28C,0.2032*%
%ADD29C,0.1600*%

%LPD*%
D28*
X2598089Y-1007292D02*
G01*
X2598089Y-1102748D01*
X2598089Y-1007292D02*
G01*
X2561727Y-1102748D01*
X2525361Y-1007292D02*
G01*
X2561727Y-1102748D01*
X2525361Y-1007292D02*
G01*
X2525361Y-1102748D01*
X2495362Y-1007292D02*
G01*
X2495362Y-1075474D01*
X2490817Y-1089111D01*
X2481727Y-1098202D01*
X2468090Y-1102748D01*
X2458999Y-1102748D01*
X2445362Y-1098202D01*
X2436271Y-1089111D01*
X2431727Y-1075474D01*
X2431727Y-1007292D01*
X2401724Y-1007292D02*
G01*
X2338090Y-1102748D01*
X2338090Y-1007292D02*
G01*
X2401724Y-1102748D01*
X2201725Y-1007292D02*
G01*
X2238090Y-1102748D01*
X2201725Y-1007292D02*
G01*
X2165362Y-1102748D01*
X2224453Y-1070930D02*
G01*
X2178999Y-1070930D01*
X7093889Y-1007292D02*
G01*
X7093889Y-1102748D01*
X7093889Y-1007292D02*
G01*
X7057527Y-1102748D01*
X7021161Y-1007292D02*
G01*
X7057527Y-1102748D01*
X7021161Y-1007292D02*
G01*
X7021161Y-1102748D01*
X6991162Y-1007292D02*
G01*
X6991162Y-1075474D01*
X6986617Y-1089111D01*
X6977527Y-1098202D01*
X6963890Y-1102748D01*
X6954799Y-1102748D01*
X6941162Y-1098202D01*
X6932071Y-1089111D01*
X6927527Y-1075474D01*
X6927527Y-1007292D01*
X6897524Y-1007292D02*
G01*
X6833890Y-1102748D01*
X6833890Y-1007292D02*
G01*
X6897524Y-1102748D01*
X6697525Y-1007292D02*
G01*
X6733890Y-1102748D01*
X6697525Y-1007292D02*
G01*
X6661162Y-1102748D01*
X6720253Y-1070930D02*
G01*
X6674799Y-1070930D01*
X4490389Y-1083492D02*
G01*
X4490389Y-1178948D01*
X4490389Y-1083492D02*
G01*
X4454027Y-1178948D01*
X4417661Y-1083492D02*
G01*
X4454027Y-1178948D01*
X4417661Y-1083492D02*
G01*
X4417661Y-1178948D01*
X4387662Y-1083492D02*
G01*
X4387662Y-1151674D01*
X4383117Y-1165311D01*
X4374027Y-1174402D01*
X4360390Y-1178948D01*
X4351299Y-1178948D01*
X4337662Y-1174402D01*
X4328571Y-1165311D01*
X4324027Y-1151674D01*
X4324027Y-1083492D01*
X4294024Y-1083492D02*
G01*
X4230390Y-1178948D01*
X4230390Y-1083492D02*
G01*
X4294024Y-1178948D01*
X4130390Y-1083492D02*
G01*
X4130390Y-1178948D01*
X4130390Y-1083492D02*
G01*
X4089481Y-1083492D01*
X4075844Y-1088039D01*
X4071299Y-1092583D01*
X4066753Y-1101674D01*
X4066753Y-1110764D01*
X4071299Y-1119855D01*
X4075844Y-1124402D01*
X4089481Y-1128948D01*
X4130390Y-1128948D02*
G01*
X4089481Y-1128948D01*
X4075844Y-1133492D01*
X4071299Y-1138039D01*
X4066753Y-1147130D01*
X4066753Y-1160764D01*
X4071299Y-1169855D01*
X4075844Y-1174402D01*
X4089481Y-1178948D01*
X4130390Y-1178948D01*
X8694191Y-614090D02*
G01*
X8694191Y-709546D01*
X8694191Y-614090D02*
G01*
X8657828Y-709546D01*
X8621463Y-614090D02*
G01*
X8657828Y-709546D01*
X8621463Y-614090D02*
G01*
X8621463Y-709546D01*
X8591463Y-614090D02*
G01*
X8591463Y-682271D01*
X8586919Y-695909D01*
X8577828Y-704999D01*
X8564191Y-709546D01*
X8555100Y-709546D01*
X8541463Y-704999D01*
X8532373Y-695909D01*
X8527829Y-682271D01*
X8527829Y-614090D01*
X8497826Y-614090D02*
G01*
X8434191Y-709546D01*
X8434191Y-614090D02*
G01*
X8497826Y-709546D01*
X8334192Y-614090D02*
G01*
X8334192Y-709546D01*
X8334192Y-614090D02*
G01*
X8293282Y-614090D01*
X8279645Y-618637D01*
X8275101Y-623181D01*
X8270554Y-632272D01*
X8270554Y-641362D01*
X8275101Y-650453D01*
X8279645Y-654999D01*
X8293282Y-659546D01*
X8334192Y-659546D02*
G01*
X8293282Y-659546D01*
X8279645Y-664090D01*
X8275101Y-668637D01*
X8270554Y-677727D01*
X8270554Y-691362D01*
X8275101Y-700453D01*
X8279645Y-704999D01*
X8293282Y-709546D01*
X8334192Y-709546D01*
X3695700Y-300273D02*
G01*
X3695700Y-376636D01*
X3695700Y-376636D02*
G01*
X3652062Y-376636D01*
X3628064Y-314817D02*
G01*
X3620790Y-311183D01*
X3609881Y-300273D01*
X3609881Y-376636D01*
X2667000Y-643173D02*
G01*
X2667000Y-719536D01*
X2667000Y-719536D02*
G01*
X2623362Y-719536D01*
X2577546Y-643173D02*
G01*
X2588455Y-646808D01*
X2595727Y-657717D01*
X2599364Y-675899D01*
X2599364Y-686808D01*
X2595727Y-704989D01*
X2588455Y-715898D01*
X2577546Y-719536D01*
X2570271Y-719536D01*
X2559362Y-715898D01*
X2552090Y-704989D01*
X2548455Y-686808D01*
X2548455Y-675899D01*
X2552090Y-657717D01*
X2559362Y-646808D01*
X2570271Y-643173D01*
X2577546Y-643173D01*
X1422400Y-325673D02*
G01*
X1422400Y-402036D01*
X1422400Y-402036D02*
G01*
X1378762Y-402036D01*
X1307490Y-351127D02*
G01*
X1311127Y-362036D01*
X1318399Y-369308D01*
X1329309Y-372945D01*
X1332946Y-372945D01*
X1343855Y-369308D01*
X1351127Y-362036D01*
X1354764Y-351127D01*
X1354764Y-347489D01*
X1351127Y-336583D01*
X1343855Y-329308D01*
X1332946Y-325673D01*
X1329309Y-325673D01*
X1318399Y-329308D01*
X1311127Y-336583D01*
X1307490Y-351127D01*
X1307490Y-369308D01*
X1311127Y-387489D01*
X1318399Y-398398D01*
X1329309Y-402036D01*
X1336581Y-402036D01*
X1347490Y-398398D01*
X1351127Y-391126D01*
X469900Y-401871D02*
G01*
X469900Y-478233D01*
X469900Y-478233D02*
G01*
X426262Y-478233D01*
X365899Y-401871D02*
G01*
X402264Y-452780D01*
X347718Y-452780D01*
X365899Y-401871D02*
G01*
X365899Y-478233D01*
X571500Y-1074971D02*
G01*
X571500Y-1151333D01*
X571500Y-1151333D02*
G01*
X527862Y-1151333D01*
X496590Y-1074971D02*
G01*
X456590Y-1074971D01*
X478409Y-1104061D01*
X467499Y-1104061D01*
X460227Y-1107696D01*
X456590Y-1111333D01*
X452955Y-1122243D01*
X452955Y-1129515D01*
X456590Y-1140424D01*
X463862Y-1147696D01*
X474771Y-1151333D01*
X485681Y-1151333D01*
X496590Y-1147696D01*
X500227Y-1144061D01*
X503864Y-1136787D01*
X3136900Y-1748073D02*
G01*
X3136900Y-1824436D01*
X3136900Y-1824436D02*
G01*
X3093262Y-1824436D01*
X3065627Y-1766255D02*
G01*
X3065627Y-1762617D01*
X3061990Y-1755345D01*
X3058355Y-1751708D01*
X3051081Y-1748073D01*
X3036536Y-1748073D01*
X3029262Y-1751708D01*
X3025627Y-1755345D01*
X3021990Y-1762617D01*
X3021990Y-1769889D01*
X3025627Y-1777164D01*
X3032899Y-1788073D01*
X3069264Y-1824436D01*
X3018355Y-1824436D01*
X4127500Y-1671873D02*
G01*
X4127500Y-1748236D01*
X4127500Y-1748236D02*
G01*
X4083862Y-1748236D01*
X4041681Y-1671873D02*
G01*
X4052590Y-1675508D01*
X4056227Y-1682783D01*
X4056227Y-1690055D01*
X4052590Y-1697327D01*
X4045318Y-1700964D01*
X4030771Y-1704599D01*
X4019862Y-1708236D01*
X4012590Y-1715508D01*
X4008955Y-1722782D01*
X4008955Y-1733689D01*
X4012590Y-1740964D01*
X4016227Y-1744598D01*
X4027136Y-1748236D01*
X4041681Y-1748236D01*
X4052590Y-1744598D01*
X4056227Y-1740964D01*
X4059864Y-1733689D01*
X4059864Y-1722782D01*
X4056227Y-1715508D01*
X4048955Y-1708236D01*
X4038046Y-1704599D01*
X4023499Y-1700964D01*
X4016227Y-1697327D01*
X4012590Y-1690055D01*
X4012590Y-1682783D01*
X4016227Y-1675508D01*
X4027136Y-1671873D01*
X4041681Y-1671873D01*
X1358900Y-1773473D02*
G01*
X1358900Y-1849836D01*
X1358900Y-1849836D02*
G01*
X1315262Y-1849836D01*
X1240355Y-1773473D02*
G01*
X1276718Y-1849836D01*
X1291264Y-1773473D02*
G01*
X1240355Y-1773473D01*
X4559300Y-782873D02*
G01*
X4559300Y-859236D01*
X4559300Y-859236D02*
G01*
X4515662Y-859236D01*
X4448027Y-793783D02*
G01*
X4451662Y-786508D01*
X4462571Y-782873D01*
X4469846Y-782873D01*
X4480755Y-786508D01*
X4488027Y-797417D01*
X4491664Y-815599D01*
X4491664Y-833782D01*
X4488027Y-848326D01*
X4480755Y-855598D01*
X4469846Y-859236D01*
X4466209Y-859236D01*
X4455299Y-855598D01*
X4448027Y-848326D01*
X4444390Y-837417D01*
X4444390Y-833782D01*
X4448027Y-822873D01*
X4455299Y-815599D01*
X4466209Y-811964D01*
X4469846Y-811964D01*
X4480755Y-815599D01*
X4488027Y-822873D01*
X4491664Y-833782D01*
X2374900Y-1760773D02*
G01*
X2374900Y-1837136D01*
X2374900Y-1837136D02*
G01*
X2331262Y-1837136D01*
X2307264Y-1760773D02*
G01*
X2307264Y-1837136D01*
X2307264Y-1760773D02*
G01*
X2281809Y-1760773D01*
X2270899Y-1764408D01*
X2263627Y-1771683D01*
X2259990Y-1778955D01*
X2256355Y-1789864D01*
X2256355Y-1808045D01*
X2259990Y-1818954D01*
X2263627Y-1826226D01*
X2270899Y-1833498D01*
X2281809Y-1837136D01*
X2307264Y-1837136D01*
X4102100Y-97073D02*
G01*
X4102100Y-173436D01*
X4102100Y-173436D02*
G01*
X4058462Y-173436D01*
X3990827Y-97073D02*
G01*
X4027190Y-97073D01*
X4030827Y-129799D01*
X4027190Y-126164D01*
X4016281Y-122527D01*
X4005371Y-122527D01*
X3994462Y-126164D01*
X3987190Y-133436D01*
X3983555Y-144345D01*
X3983555Y-151617D01*
X3987190Y-162526D01*
X3994462Y-169798D01*
X4005371Y-173436D01*
X4016281Y-173436D01*
X4027190Y-169798D01*
X4030827Y-166164D01*
X4034464Y-158889D01*
X8572500Y-1354361D02*
G01*
X8572500Y-1430723D01*
X8572500Y-1354361D02*
G01*
X8539772Y-1354361D01*
X8528862Y-1357995D01*
X8525228Y-1361633D01*
X8521590Y-1368905D01*
X8521590Y-1376177D01*
X8525228Y-1383451D01*
X8528862Y-1387086D01*
X8539772Y-1390723D01*
X8572500Y-1390723D01*
X8547046Y-1390723D02*
G01*
X8521590Y-1430723D01*
X8497590Y-1368905D02*
G01*
X8490318Y-1365270D01*
X8479409Y-1354361D01*
X8479409Y-1430723D01*
X5308600Y-541573D02*
G01*
X5308600Y-617936D01*
X5308600Y-541573D02*
G01*
X5275872Y-541573D01*
X5264962Y-545208D01*
X5261328Y-548845D01*
X5257690Y-556117D01*
X5257690Y-563389D01*
X5261328Y-570664D01*
X5264962Y-574299D01*
X5275872Y-577936D01*
X5308600Y-577936D01*
X5283146Y-577936D02*
G01*
X5257690Y-617936D01*
X5211871Y-541573D02*
G01*
X5222781Y-545208D01*
X5230055Y-556117D01*
X5233690Y-574299D01*
X5233690Y-585208D01*
X5230055Y-603389D01*
X5222781Y-614298D01*
X5211871Y-617936D01*
X5204599Y-617936D01*
X5193690Y-614298D01*
X5186418Y-603389D01*
X5182781Y-585208D01*
X5182781Y-574299D01*
X5186418Y-556117D01*
X5193690Y-545208D01*
X5204599Y-541573D01*
X5211871Y-541573D01*
X7023100Y-605073D02*
G01*
X7023100Y-681436D01*
X7023100Y-605073D02*
G01*
X6990372Y-605073D01*
X6979462Y-608708D01*
X6975828Y-612345D01*
X6972190Y-619617D01*
X6972190Y-626889D01*
X6975828Y-634164D01*
X6979462Y-637799D01*
X6990372Y-641436D01*
X7023100Y-641436D01*
X6997646Y-641436D02*
G01*
X6972190Y-681436D01*
X6900918Y-630527D02*
G01*
X6904555Y-641436D01*
X6911827Y-648708D01*
X6922736Y-652345D01*
X6926371Y-652345D01*
X6937281Y-648708D01*
X6944555Y-641436D01*
X6948190Y-630527D01*
X6948190Y-626889D01*
X6944555Y-615983D01*
X6937281Y-608708D01*
X6926371Y-605073D01*
X6922736Y-605073D01*
X6911827Y-608708D01*
X6904555Y-615983D01*
X6900918Y-630527D01*
X6900918Y-648708D01*
X6904555Y-666889D01*
X6911827Y-677798D01*
X6922736Y-681436D01*
X6930009Y-681436D01*
X6940918Y-677798D01*
X6944555Y-670526D01*
X4787900Y-401873D02*
G01*
X4787900Y-478236D01*
X4787900Y-401873D02*
G01*
X4755172Y-401873D01*
X4744262Y-405508D01*
X4740628Y-409145D01*
X4736990Y-416417D01*
X4736990Y-423689D01*
X4740628Y-430964D01*
X4744262Y-434599D01*
X4755172Y-438236D01*
X4787900Y-438236D01*
X4762446Y-438236D02*
G01*
X4736990Y-478236D01*
X4676627Y-401873D02*
G01*
X4712990Y-452782D01*
X4658446Y-452782D01*
X4676627Y-401873D02*
G01*
X4676627Y-478236D01*
X6629400Y-605073D02*
G01*
X6629400Y-681436D01*
X6629400Y-605073D02*
G01*
X6596672Y-605073D01*
X6585762Y-608708D01*
X6582128Y-612345D01*
X6578490Y-619617D01*
X6578490Y-626889D01*
X6582128Y-634164D01*
X6585762Y-637799D01*
X6596672Y-641436D01*
X6629400Y-641436D01*
X6603946Y-641436D02*
G01*
X6578490Y-681436D01*
X6547218Y-605073D02*
G01*
X6507218Y-605073D01*
X6529036Y-634164D01*
X6518127Y-634164D01*
X6510855Y-637799D01*
X6507218Y-641436D01*
X6503581Y-652345D01*
X6503581Y-659617D01*
X6507218Y-670526D01*
X6514490Y-677798D01*
X6525399Y-681436D01*
X6536309Y-681436D01*
X6547218Y-677798D01*
X6550855Y-674164D01*
X6554490Y-666889D01*
X4953000Y-1303573D02*
G01*
X4953000Y-1379936D01*
X4953000Y-1303573D02*
G01*
X4920272Y-1303573D01*
X4909362Y-1307208D01*
X4905728Y-1310845D01*
X4902090Y-1318117D01*
X4902090Y-1325389D01*
X4905728Y-1332664D01*
X4909362Y-1336299D01*
X4920272Y-1339936D01*
X4953000Y-1339936D01*
X4927546Y-1339936D02*
G01*
X4902090Y-1379936D01*
X4874455Y-1321755D02*
G01*
X4874455Y-1318117D01*
X4870818Y-1310845D01*
X4867181Y-1307208D01*
X4859909Y-1303573D01*
X4845362Y-1303573D01*
X4838090Y-1307208D01*
X4834455Y-1310845D01*
X4830818Y-1318117D01*
X4830818Y-1325389D01*
X4834455Y-1332664D01*
X4841727Y-1343573D01*
X4878090Y-1379936D01*
X4827181Y-1379936D01*
X6553200Y-1760773D02*
G01*
X6553200Y-1837136D01*
X6553200Y-1760773D02*
G01*
X6520472Y-1760773D01*
X6509562Y-1764408D01*
X6505928Y-1768045D01*
X6502290Y-1775317D01*
X6502290Y-1782589D01*
X6505928Y-1789864D01*
X6509562Y-1793499D01*
X6520472Y-1797136D01*
X6553200Y-1797136D01*
X6527746Y-1797136D02*
G01*
X6502290Y-1837136D01*
X6460109Y-1760773D02*
G01*
X6471018Y-1764408D01*
X6474655Y-1771683D01*
X6474655Y-1778955D01*
X6471018Y-1786227D01*
X6463746Y-1789864D01*
X6449199Y-1793499D01*
X6438290Y-1797136D01*
X6431018Y-1804408D01*
X6427381Y-1811682D01*
X6427381Y-1822589D01*
X6431018Y-1829864D01*
X6434655Y-1833498D01*
X6445562Y-1837136D01*
X6460109Y-1837136D01*
X6471018Y-1833498D01*
X6474655Y-1829864D01*
X6478290Y-1822589D01*
X6478290Y-1811682D01*
X6474655Y-1804408D01*
X6467381Y-1797136D01*
X6456471Y-1793499D01*
X6441927Y-1789864D01*
X6434655Y-1786227D01*
X6431018Y-1778955D01*
X6431018Y-1771683D01*
X6434655Y-1764408D01*
X6445562Y-1760773D01*
X6460109Y-1760773D01*
X4991100Y-1849673D02*
G01*
X4991100Y-1926036D01*
X4991100Y-1849673D02*
G01*
X4958372Y-1849673D01*
X4947462Y-1853308D01*
X4943828Y-1856945D01*
X4940190Y-1864217D01*
X4940190Y-1871489D01*
X4943828Y-1878764D01*
X4947462Y-1882399D01*
X4958372Y-1886036D01*
X4991100Y-1886036D01*
X4965646Y-1886036D02*
G01*
X4940190Y-1926036D01*
X4865281Y-1849673D02*
G01*
X4901646Y-1926036D01*
X4916190Y-1849673D02*
G01*
X4865281Y-1849673D01*
X7975600Y-1773471D02*
G01*
X7975600Y-1849833D01*
X7975600Y-1773471D02*
G01*
X7942872Y-1773471D01*
X7931962Y-1777105D01*
X7928328Y-1780743D01*
X7924690Y-1788015D01*
X7924690Y-1795287D01*
X7928328Y-1802561D01*
X7931962Y-1806196D01*
X7942872Y-1809833D01*
X7975600Y-1809833D01*
X7950146Y-1809833D02*
G01*
X7924690Y-1849833D01*
X7857055Y-1784380D02*
G01*
X7860690Y-1777105D01*
X7871599Y-1773471D01*
X7878871Y-1773471D01*
X7889781Y-1777105D01*
X7897055Y-1788015D01*
X7900690Y-1806196D01*
X7900690Y-1824380D01*
X7897055Y-1838924D01*
X7889781Y-1846196D01*
X7878871Y-1849833D01*
X7875236Y-1849833D01*
X7864327Y-1846196D01*
X7857055Y-1838924D01*
X7853418Y-1828015D01*
X7853418Y-1824380D01*
X7857055Y-1813471D01*
X7864327Y-1806196D01*
X7875236Y-1802561D01*
X7878871Y-1802561D01*
X7889781Y-1806196D01*
X7897055Y-1813471D01*
X7900690Y-1824380D01*
X5359400Y-1748073D02*
G01*
X5359400Y-1824436D01*
X5359400Y-1748073D02*
G01*
X5326672Y-1748073D01*
X5315762Y-1751708D01*
X5312128Y-1755345D01*
X5308490Y-1762617D01*
X5308490Y-1769889D01*
X5312128Y-1777164D01*
X5315762Y-1780799D01*
X5326672Y-1784436D01*
X5359400Y-1784436D01*
X5333946Y-1784436D02*
G01*
X5308490Y-1824436D01*
X5284490Y-1748073D02*
G01*
X5284490Y-1824436D01*
X5284490Y-1748073D02*
G01*
X5259036Y-1748073D01*
X5248127Y-1751708D01*
X5240855Y-1758983D01*
X5237218Y-1766255D01*
X5233581Y-1777164D01*
X5233581Y-1795345D01*
X5237218Y-1806254D01*
X5240855Y-1813526D01*
X5248127Y-1820798D01*
X5259036Y-1824436D01*
X5284490Y-1824436D01*
X8242300Y-1722666D02*
G01*
X8242300Y-1799028D01*
X8242300Y-1722666D02*
G01*
X8209572Y-1722666D01*
X8198662Y-1726300D01*
X8195028Y-1729938D01*
X8191390Y-1737210D01*
X8191390Y-1744482D01*
X8195028Y-1751756D01*
X8198662Y-1755391D01*
X8209572Y-1759028D01*
X8242300Y-1759028D01*
X8216846Y-1759028D02*
G01*
X8191390Y-1799028D01*
X8123755Y-1722666D02*
G01*
X8160118Y-1722666D01*
X8163755Y-1755391D01*
X8160118Y-1751756D01*
X8149209Y-1748119D01*
X8138299Y-1748119D01*
X8127390Y-1751756D01*
X8120118Y-1759028D01*
X8116481Y-1769938D01*
X8116481Y-1777210D01*
X8120118Y-1788119D01*
X8127390Y-1795391D01*
X8138299Y-1799028D01*
X8149209Y-1799028D01*
X8160118Y-1795391D01*
X8163755Y-1791756D01*
X8167390Y-1784482D01*
X5088953Y-902655D02*
G01*
X5092590Y-895383D01*
X5099862Y-888108D01*
X5107137Y-884473D01*
X5121681Y-884473D01*
X5128953Y-888108D01*
X5136227Y-895383D01*
X5139862Y-902655D01*
X5143500Y-913564D01*
X5143500Y-931745D01*
X5139862Y-942654D01*
X5136227Y-949926D01*
X5128953Y-957198D01*
X5121681Y-960836D01*
X5107137Y-960836D01*
X5099862Y-957198D01*
X5092590Y-949926D01*
X5088953Y-942654D01*
X5088953Y-931745D01*
X5107137Y-931745D02*
G01*
X5088953Y-931745D01*
X5064955Y-884473D02*
G01*
X5064955Y-960836D01*
X5064955Y-884473D02*
G01*
X5014046Y-960836D01*
X5014046Y-884473D02*
G01*
X5014046Y-960836D01*
X4990045Y-884473D02*
G01*
X4990045Y-960836D01*
X4990045Y-884473D02*
G01*
X4964590Y-884473D01*
X4953683Y-888108D01*
X4946408Y-895383D01*
X4942773Y-902655D01*
X4939136Y-913564D01*
X4939136Y-931745D01*
X4942773Y-942654D01*
X4946408Y-949926D01*
X4953683Y-957198D01*
X4964590Y-960836D01*
X4990045Y-960836D01*
D29*
X7584843Y-171602D02*
G01*
X7584843Y-247964D01*
X7610297Y-171602D02*
G01*
X7559387Y-171602D01*
X7535387Y-171602D02*
G01*
X7531752Y-175237D01*
X7528115Y-171602D01*
X7531752Y-167965D01*
X7535387Y-171602D01*
X7531752Y-197055D02*
G01*
X7531752Y-247964D01*
X7460477Y-207965D02*
G01*
X7467752Y-200693D01*
X7475024Y-197055D01*
X7485933Y-197055D01*
X7493205Y-200693D01*
X7500477Y-207965D01*
X7504115Y-218874D01*
X7504115Y-226146D01*
X7500477Y-237055D01*
X7493205Y-244327D01*
X7485933Y-247964D01*
X7475024Y-247964D01*
X7467752Y-244327D01*
X7460477Y-237055D01*
X7436479Y-171602D02*
G01*
X7436479Y-247964D01*
X7400114Y-197055D02*
G01*
X7436479Y-233418D01*
X7421933Y-218874D02*
G01*
X7396479Y-247964D01*
X7347023Y-171602D02*
G01*
X7347023Y-247964D01*
X7372479Y-171602D02*
G01*
X7321570Y-171602D01*
X7279388Y-197055D02*
G01*
X7286660Y-200693D01*
X7293932Y-207965D01*
X7297569Y-218874D01*
X7297569Y-226146D01*
X7293932Y-237055D01*
X7286660Y-244327D01*
X7279388Y-247964D01*
X7268479Y-247964D01*
X7261207Y-244327D01*
X7253932Y-237055D01*
X7250297Y-226146D01*
X7250297Y-218874D01*
X7253932Y-207965D01*
X7261207Y-200693D01*
X7268479Y-197055D01*
X7279388Y-197055D01*
X7182660Y-207965D02*
G01*
X7189934Y-200693D01*
X7197206Y-197055D01*
X7208116Y-197055D01*
X7215388Y-200693D01*
X7222660Y-207965D01*
X7226297Y-218874D01*
X7226297Y-226146D01*
X7222660Y-237055D01*
X7215388Y-244327D01*
X7208116Y-247964D01*
X7197206Y-247964D01*
X7189934Y-244327D01*
X7182660Y-237055D01*
X7158659Y-171602D02*
G01*
X7158659Y-247964D01*
X7122297Y-197055D02*
G01*
X7158659Y-233418D01*
X7144115Y-218874D02*
G01*
X7118659Y-247964D01*
X7648343Y-285902D02*
G01*
X7648343Y-362264D01*
X7673797Y-285902D02*
G01*
X7622887Y-285902D01*
X7598887Y-311355D02*
G01*
X7598887Y-347718D01*
X7595252Y-358627D01*
X7587978Y-362264D01*
X7577068Y-362264D01*
X7569796Y-358627D01*
X7558887Y-347718D01*
X7558887Y-311355D02*
G01*
X7558887Y-362264D01*
X7534887Y-285902D02*
G01*
X7534887Y-362264D01*
X7534887Y-322265D02*
G01*
X7527615Y-314993D01*
X7520343Y-311355D01*
X7509433Y-311355D01*
X7502161Y-314993D01*
X7494887Y-322265D01*
X7491252Y-333174D01*
X7491252Y-340446D01*
X7494887Y-351355D01*
X7502161Y-358627D01*
X7509433Y-362264D01*
X7520343Y-362264D01*
X7527615Y-358627D01*
X7534887Y-351355D01*
X7467252Y-333174D02*
G01*
X7423614Y-333174D01*
X7423614Y-325902D01*
X7427252Y-318627D01*
X7430886Y-314993D01*
X7438161Y-311355D01*
X7449070Y-311355D01*
X7456342Y-314993D01*
X7463614Y-322265D01*
X7467252Y-333174D01*
X7467252Y-340446D01*
X7463614Y-351355D01*
X7456342Y-358627D01*
X7449070Y-362264D01*
X7438161Y-362264D01*
X7430886Y-358627D01*
X7423614Y-351355D01*
X7345070Y-304083D02*
G01*
X7348705Y-296811D01*
X7355979Y-289537D01*
X7363251Y-285902D01*
X7377798Y-285902D01*
X7385070Y-289537D01*
X7392342Y-296811D01*
X7395979Y-304083D01*
X7399614Y-314993D01*
X7399614Y-333174D01*
X7395979Y-344083D01*
X7392342Y-351355D01*
X7385070Y-358627D01*
X7377798Y-362264D01*
X7363251Y-362264D01*
X7355979Y-358627D01*
X7348705Y-351355D01*
X7345070Y-344083D01*
X7321069Y-285902D02*
G01*
X7321069Y-362264D01*
X7278888Y-311355D02*
G01*
X7286160Y-314993D01*
X7293434Y-322265D01*
X7297069Y-333174D01*
X7297069Y-340446D01*
X7293434Y-351355D01*
X7286160Y-358627D01*
X7278888Y-362264D01*
X7267978Y-362264D01*
X7260706Y-358627D01*
X7253434Y-351355D01*
X7249797Y-340446D01*
X7249797Y-333174D01*
X7253434Y-322265D01*
X7260706Y-314993D01*
X7267978Y-311355D01*
X7278888Y-311355D01*
X7182159Y-322265D02*
G01*
X7189434Y-314993D01*
X7196706Y-311355D01*
X7207615Y-311355D01*
X7214887Y-314993D01*
X7222159Y-322265D01*
X7225797Y-333174D01*
X7225797Y-340446D01*
X7222159Y-351355D01*
X7214887Y-358627D01*
X7207615Y-362264D01*
X7196706Y-362264D01*
X7189434Y-358627D01*
X7182159Y-351355D01*
X7158161Y-285902D02*
G01*
X7158161Y-362264D01*
X7121796Y-311355D02*
G01*
X7158161Y-347718D01*
X7143615Y-333174D02*
G01*
X7118162Y-362264D01*
X7089597Y-108155D02*
G01*
X7089597Y-159064D01*
X7089597Y-129974D02*
G01*
X7085959Y-119065D01*
X7078687Y-111793D01*
X7071415Y-108155D01*
X7060506Y-108155D01*
X7032868Y-100883D02*
G01*
X7032868Y-97246D01*
X7029234Y-89974D01*
X7025596Y-86337D01*
X7018324Y-82702D01*
X7003778Y-82702D01*
X6996506Y-86337D01*
X6992868Y-89974D01*
X6989234Y-97246D01*
X6989234Y-104518D01*
X6992868Y-111793D01*
X7000143Y-122702D01*
X7036506Y-159064D01*
X6985596Y-159064D01*
D10*
X802068Y-1624919D02*
G01*
X690920Y-1740016D01*
X558152Y-1611096D02*
G01*
X468238Y-1524266D01*
X669300Y-1495999D02*
G01*
X579386Y-1409169D01*
X600999Y-1653184D02*
G01*
X690920Y-1740016D01*
X712149Y-1538084D02*
G01*
X802068Y-1624919D01*
X579386Y-1409169D02*
G01*
X468238Y-1524266D01*
X1969300Y-927496D02*
G01*
X1844299Y-927496D01*
X1969300Y-723503D02*
G01*
X1844299Y-723503D01*
X2069299Y-927496D02*
G01*
X2194300Y-927496D01*
X2069299Y-723503D02*
G01*
X2194300Y-723503D01*
X1844296Y-927496D02*
G01*
X1844299Y-723503D01*
X2194300Y-927496D02*
G01*
X2194300Y-723503D01*
X3937800Y-736996D02*
G01*
X3812799Y-736996D01*
X3937800Y-533003D02*
G01*
X3812799Y-533003D01*
X4037799Y-736996D02*
G01*
X4162800Y-736996D01*
X4037799Y-533003D02*
G01*
X4162800Y-533003D01*
X3812796Y-736996D02*
G01*
X3812799Y-533003D01*
X4162800Y-736996D02*
G01*
X4162800Y-533003D01*
X6452400Y-927496D02*
G01*
X6327399Y-927496D01*
X6452400Y-723503D02*
G01*
X6327399Y-723503D01*
X6552399Y-927496D02*
G01*
X6677400Y-927496D01*
X6552399Y-723503D02*
G01*
X6677400Y-723503D01*
X6327396Y-927496D02*
G01*
X6327399Y-723503D01*
X6677400Y-927496D02*
G01*
X6677400Y-723503D01*
X8191896Y-481799D02*
G01*
X8191896Y-606800D01*
X7987903Y-481799D02*
G01*
X7987903Y-606800D01*
X8191896Y-381800D02*
G01*
X8191896Y-256799D01*
X7987903Y-381800D02*
G01*
X7987903Y-256799D01*
X8191896Y-606803D02*
G01*
X7987903Y-606800D01*
X8191896Y-256799D02*
G01*
X7987903Y-256799D01*
M02*
