G04 Layer: BottomSolderMaskLayer*
G04 EasyEDA v6.4.24, 2021-09-25T18:24:48+02:00*
G04 92b9668f88874301bfa8342a5f0d0e57,f5a38c858c354eb5b90fd3f81420cce3,10*
G04 Gerber Generator version 0.2*
G04 Scale: 100 percent, Rotated: No, Reflected: No *
G04 Dimensions in millimeters *
G04 leading zeros omitted , absolute positions ,4 integer and 5 decimal *
%FSLAX45Y45*%
%MOMM*%

%ADD32C,1.2032*%
%ADD33C,1.2040*%
%ADD38C,1.7032*%

%LPD*%
G36*
X6784340Y-937260D02*
G01*
X6784340Y-764539D01*
X6957059Y-764539D01*
X6957059Y-937260D01*
G37*
G36*
X8384540Y-543560D02*
G01*
X8384540Y-370839D01*
X8557259Y-370839D01*
X8557259Y-543560D01*
G37*
G36*
X4180840Y-1013460D02*
G01*
X4180840Y-840739D01*
X4353559Y-840739D01*
X4353559Y-1013460D01*
G37*
G36*
X2288540Y-937260D02*
G01*
X2288540Y-764539D01*
X2461259Y-764539D01*
X2461259Y-937260D01*
G37*
D38*
G01*
X1371600Y-203200D03*
G01*
X520700Y-1282700D03*
G01*
X1130300Y-1816100D03*
G01*
X406400Y-596900D03*
G01*
X4737100Y-279400D03*
G01*
X5245100Y-419100D03*
G01*
X4038600Y-292100D03*
G01*
X4508500Y-673100D03*
G01*
X4889500Y-1193800D03*
G01*
X4940300Y-1739900D03*
G01*
X4076700Y-1549400D03*
G01*
X3263900Y-1790700D03*
G01*
X2120900Y-1803400D03*
G01*
X2603500Y-533400D03*
G01*
X3644900Y-190500D03*
G01*
X5486400Y-1790700D03*
G01*
X6680200Y-1803400D03*
G01*
X7734300Y-1803400D03*
G01*
X8191500Y-1612900D03*
G01*
X8534400Y-1244600D03*
G01*
X6578600Y-495300D03*
G01*
X6959600Y-495300D03*
G36*
X4956809Y-834389D02*
G01*
X4956809Y-664210D01*
X5126990Y-664210D01*
X5126990Y-834389D01*
G37*
G36*
X575563Y-1607820D02*
G01*
X488950Y-1524254D01*
X579373Y-1430528D01*
X665987Y-1514094D01*
G37*
G36*
X690626Y-1719071D02*
G01*
X604012Y-1635505D01*
X694436Y-1541779D01*
X781050Y-1625345D01*
G37*
G36*
X2059177Y-913129D02*
G01*
X2059177Y-737870D01*
X2179574Y-737870D01*
X2179574Y-913129D01*
G37*
G36*
X1859026Y-913129D02*
G01*
X1859026Y-737870D01*
X1979422Y-737870D01*
X1979422Y-913129D01*
G37*
G36*
X4027677Y-722629D02*
G01*
X4027677Y-547370D01*
X4148074Y-547370D01*
X4148074Y-722629D01*
G37*
G36*
X3827525Y-722629D02*
G01*
X3827525Y-547370D01*
X3947922Y-547370D01*
X3947922Y-722629D01*
G37*
G36*
X6542277Y-913129D02*
G01*
X6542277Y-737870D01*
X6662674Y-737870D01*
X6662674Y-913129D01*
G37*
G36*
X6342125Y-913129D02*
G01*
X6342125Y-737870D01*
X6462522Y-737870D01*
X6462522Y-913129D01*
G37*
G36*
X8002270Y-391921D02*
G01*
X8002270Y-271526D01*
X8177529Y-271526D01*
X8177529Y-391921D01*
G37*
G36*
X8002270Y-592073D02*
G01*
X8002270Y-471678D01*
X8177529Y-471678D01*
X8177529Y-592073D01*
G37*
D32*
G01*
X1694510Y-999997D03*
G01*
X805510Y-999997D03*
G01*
X1656410Y-809497D03*
G01*
X843610Y-809497D03*
G01*
X843610Y-1190497D03*
G01*
X1643710Y-1190497D03*
G01*
X1529410Y-1355597D03*
G01*
X970610Y-1355597D03*
G01*
X1351610Y-1431797D03*
G01*
X1148410Y-1444497D03*
D33*
G01*
X1351610Y-568197D03*
D32*
G01*
X1148410Y-568197D03*
G01*
X970610Y-644397D03*
G01*
X3694506Y-999997D03*
G01*
X2805506Y-999997D03*
G01*
X3656406Y-809497D03*
G01*
X2843606Y-809497D03*
G01*
X2843606Y-1190497D03*
G01*
X3643706Y-1190497D03*
G01*
X3529406Y-1355597D03*
G01*
X2970606Y-1355597D03*
G01*
X3351606Y-1431797D03*
G01*
X3148406Y-1444497D03*
D33*
G01*
X3351606Y-568197D03*
D32*
G01*
X3148406Y-568197D03*
G01*
X2970606Y-644397D03*
G01*
X6194501Y-999997D03*
G01*
X5305501Y-999997D03*
G01*
X6156401Y-809497D03*
G01*
X5343601Y-809497D03*
G01*
X5343601Y-1190497D03*
G01*
X6143701Y-1190497D03*
G01*
X6029401Y-1355597D03*
G01*
X5470601Y-1355597D03*
G01*
X5851601Y-1431797D03*
G01*
X5648401Y-1444497D03*
D33*
G01*
X5851601Y-568197D03*
D32*
G01*
X5648401Y-568197D03*
G01*
X5470601Y-644397D03*
G01*
X8194497Y-999997D03*
G01*
X7305497Y-999997D03*
G01*
X8156397Y-809497D03*
G01*
X7343597Y-809497D03*
G01*
X7343597Y-1190497D03*
G01*
X8143697Y-1190497D03*
G01*
X8029397Y-1355597D03*
G01*
X7470597Y-1355597D03*
G01*
X7851597Y-1431797D03*
G01*
X7648397Y-1444497D03*
D33*
G01*
X7851597Y-568197D03*
D32*
G01*
X7648397Y-568197D03*
G01*
X7470597Y-644397D03*
M02*
