M48
METRIC,LZ,000.000
;FILE_FORMAT=3:3
;TYPE=PLATED
;Layer: Drill PTH
;EasyEDA v6.4.24, 2021-09-25T18:24:48+02:00
;92b9668f88874301bfa8342a5f0d0e57,f5a38c858c354eb5b90fd3f81420cce3,10
;Gerber Generator version 0.2
;Holesize 1 = 0.305 mm
T01C0.305
;Holesize 2 = 0.306 mm
T02C0.306
;Holesize 3 = 0.600 mm
T03C0.600
%
G05
G90
T01
X087630Y-007366
X083820Y-015240
X075184Y-018415
X069088Y-018542
X058293Y-017907
X071755Y-004953
X063119Y-005461
X018415Y-018034
X035687Y-018034
X045847Y-018288
X043434Y-015621
X047498Y-011049
X053340Y-001651
X049911Y-002032
X043815Y-001905
X043561Y-005334
X034417Y-002032
X023241Y-005334
X009398Y-016764
X011811Y-002032
X003810Y-015240
X003048Y-007620
T02
X063457Y-002286
X065913Y-003175
X067056Y-011938
X020477Y-011905
X047512Y-008564
T03
X016945Y-010000
X008055Y-010000
X016564Y-008095
X008436Y-008095
X008436Y-011905
X016437Y-011905
X015294Y-013556
X009706Y-013556
X013516Y-014318
X011484Y-014445
X013516Y-005682
X011484Y-005682
X009706Y-006444
X036945Y-010000
X028055Y-010000
X036564Y-008095
X028436Y-008095
X028436Y-011905
X036437Y-011905
X035294Y-013556
X029706Y-013556
X033516Y-014318
X031484Y-014445
X033516Y-005682
X031484Y-005682
X029706Y-006444
X061945Y-010000
X053055Y-010000
X061564Y-008095
X053436Y-008095
X053436Y-011905
X061437Y-011905
X060294Y-013556
X054706Y-013556
X058516Y-014318
X056484Y-014445
X058516Y-005682
X056484Y-005682
X054706Y-006444
X081945Y-010000
X073055Y-010000
X081564Y-008095
X073436Y-008095
X073436Y-011905
X081437Y-011905
X080294Y-013556
X074706Y-013556
X078516Y-014318
X076484Y-014445
X078516Y-005682
X076484Y-005682
X074706Y-006444
M30
