M48
METRIC,LZ,000.000
;FILE_FORMAT=3:3
;TYPE=PLATED
;Layer: PTH_Through
;EasyEDA v6.5.1, 2022-03-27 10:56:29
;5bdfba2922064175801a4ef29472edea,f5a38c858c354eb5b90fd3f81420cce3,10
;Gerber Generator version 0.2
;Holesize 1 = 0.305 mm
T01C0.305
;Holesize 2 = 0.600 mm
T02C0.600
;Holesize 3 = 0.800 mm
T03C0.800
;Holesize 4 = 0.915 mm
T04C0.915
%
G05
G90
T01
X019939Y-001778
X027051Y-001778
X034036Y-001778
X027178Y-018669
X044831Y-018796
X029718Y-018923
X041021Y-018542
X031496Y-018288
X042291Y-018542
X026289Y-016129
X032893Y-015494
X031623Y-008890
X064389Y-017399
X057912Y-017907
X022352Y-012700
X020066Y-013970
X021971Y-005969
X025019Y-005334
X039624Y-005969
X022479Y-007239
X019685Y-005334
X053086Y-019050
X030099Y-012827
X038862Y-012827
X037592Y-013462
X037084Y-007747
X034163Y-012700
X034163Y-014605
X024257Y-004445
X022352Y-008128
X052451Y-006223
X039624Y-004699
X021336Y-018288
X020320Y-008128
X020320Y-006477
X020066Y-012446
X049911Y-014986
X049911Y-018923
X022733Y-016891
X004699Y-016383
X003937Y-004826
T02
X040680Y-001050G85X040680Y-001850
X049320Y-001050G85X049320Y-001850
X040680Y-004600G85X040680Y-005700
X049320Y-004600G85X049320Y-005700
T03
X022089Y-001425
X017789Y-001425
X029150Y-001425
X024850Y-001425
X036150Y-001425
X031850Y-001425
T04
X083000Y-015750
X083000Y-013250
X083000Y-007750
X083000Y-005250
M30
