G04 Layer: TopLayer*
G04 EasyEDA v6.5.1, 2022-03-27 10:56:29*
G04 5bdfba2922064175801a4ef29472edea,f5a38c858c354eb5b90fd3f81420cce3,10*
G04 Gerber Generator version 0.2*
G04 Scale: 100 percent, Rotated: No, Reflected: No *
G04 Dimensions in millimeters *
G04 leading zeros omitted , absolute positions ,4 integer and 5 decimal *
%FSLAX45Y45*%
%MOMM*%

%ADD10C,0.2540*%
%ADD11C,0.5080*%
%ADD12C,0.1500*%
%ADD13C,0.2000*%
%ADD14C,0.2050*%
%ADD15C,0.6000*%
%ADD16C,0.6096*%
%ADD17C,1.5000*%
%ADD20R,0.9000X0.8000*%
%ADD21R,0.7000X1.2500*%
%ADD22R,1.5500X1.0000*%
%ADD23R,1.0000X1.5500*%
%ADD24R,0.7000X1.2000*%
%ADD25R,1.1000X0.7000*%
%ADD26R,1.3000X1.0000*%
%ADD27R,0.9000X1.2000*%
%ADD28R,0.8000X1.2000*%
%ADD29R,2.5000X1.5000*%
%ADD30R,1.2000X1.0000*%
%ADD31C,1.0000*%
%ADD32C,1.5240*%

%LPD*%
G36*
X2856331Y-414782D02*
G01*
X2852420Y-414020D01*
X2849118Y-411784D01*
X2846933Y-408533D01*
X2846171Y-404622D01*
X2846171Y-302209D01*
X2845511Y-298704D01*
X2845511Y-269900D01*
X2846374Y-265836D01*
X2848711Y-262483D01*
X2852267Y-260350D01*
X2856331Y-259740D01*
X2860294Y-260858D01*
X2862376Y-261924D01*
X2876905Y-267309D01*
X2891891Y-270967D01*
X2907284Y-272796D01*
X2922727Y-272796D01*
X2938068Y-270967D01*
X2953105Y-267309D01*
X2967583Y-261924D01*
X2981350Y-254863D01*
X2994202Y-246227D01*
X3005886Y-236118D01*
X3016351Y-224739D01*
X3025343Y-212140D01*
X3032810Y-198628D01*
X3038602Y-184302D01*
X3040176Y-178562D01*
X3042259Y-174650D01*
X3045714Y-172008D01*
X3049981Y-171043D01*
X3054299Y-172008D01*
X3057753Y-174650D01*
X3059785Y-178562D01*
X3061360Y-184302D01*
X3067202Y-198628D01*
X3074670Y-212140D01*
X3083661Y-224739D01*
X3094075Y-236118D01*
X3105810Y-246227D01*
X3109976Y-249072D01*
X3112414Y-251307D01*
X3113938Y-254203D01*
X3114497Y-257454D01*
X3114497Y-332130D01*
X3115310Y-343966D01*
X3117748Y-355193D01*
X3121761Y-365963D01*
X3127298Y-376021D01*
X3134156Y-385216D01*
X3142284Y-393344D01*
X3146501Y-396494D01*
X3149295Y-399643D01*
X3150514Y-403656D01*
X3150057Y-407822D01*
X3147923Y-411480D01*
X3144520Y-413918D01*
X3140405Y-414782D01*
X2959608Y-414782D01*
X2955493Y-413918D01*
X2952089Y-411480D01*
X2949956Y-407822D01*
X2949448Y-403656D01*
X2950718Y-399643D01*
X2953512Y-396494D01*
X2957728Y-393344D01*
X2965856Y-385216D01*
X2972714Y-376021D01*
X2978200Y-365963D01*
X2982214Y-355193D01*
X2984652Y-343966D01*
X2985516Y-332130D01*
X2985516Y-308864D01*
X2893872Y-308864D01*
X2893872Y-404622D01*
X2893060Y-408533D01*
X2890875Y-411784D01*
X2887573Y-414020D01*
X2883712Y-414782D01*
G37*

%LPD*%
G36*
X2088997Y-550824D02*
G01*
X2084984Y-549910D01*
X2081733Y-547522D01*
X2079599Y-544017D01*
X2079040Y-540004D01*
X2079498Y-533400D01*
X2078583Y-519226D01*
X2075840Y-505256D01*
X2071370Y-491743D01*
X2065172Y-478942D01*
X2057450Y-467004D01*
X2048205Y-456184D01*
X2042160Y-450697D01*
X2039772Y-447446D01*
X2038857Y-443484D01*
X2039518Y-439521D01*
X2041702Y-436118D01*
X2045055Y-433832D01*
X2049018Y-433019D01*
X2058517Y-433019D01*
X2070354Y-432155D01*
X2081580Y-429717D01*
X2092350Y-425704D01*
X2102408Y-420217D01*
X2110486Y-414172D01*
X2113737Y-412546D01*
X2117293Y-412140D01*
X2129282Y-413004D01*
X2140051Y-413004D01*
X2140051Y-302209D01*
X2139442Y-298704D01*
X2139442Y-269900D01*
X2140254Y-265836D01*
X2142642Y-262483D01*
X2146147Y-260350D01*
X2150262Y-259740D01*
X2154224Y-260858D01*
X2156307Y-261924D01*
X2170785Y-267309D01*
X2185822Y-270967D01*
X2201164Y-272796D01*
X2216607Y-272796D01*
X2231999Y-270967D01*
X2247036Y-267309D01*
X2261514Y-261924D01*
X2275281Y-254863D01*
X2288082Y-246227D01*
X2299817Y-236118D01*
X2310231Y-224739D01*
X2319274Y-212140D01*
X2326690Y-198628D01*
X2332532Y-184302D01*
X2336596Y-169367D01*
X2336901Y-167386D01*
X2338324Y-163525D01*
X2341118Y-160528D01*
X2344877Y-158953D01*
X2348992Y-158953D01*
X2352751Y-160528D01*
X2355596Y-163525D01*
X2357018Y-167386D01*
X2357272Y-169367D01*
X2361387Y-184302D01*
X2367178Y-198628D01*
X2374646Y-212140D01*
X2383637Y-224739D01*
X2394102Y-236118D01*
X2405786Y-246227D01*
X2410002Y-249072D01*
X2412390Y-251307D01*
X2413965Y-254203D01*
X2414473Y-257454D01*
X2414473Y-332130D01*
X2415336Y-343966D01*
X2417775Y-355193D01*
X2421788Y-365963D01*
X2427274Y-376021D01*
X2434183Y-385216D01*
X2442311Y-393344D01*
X2451506Y-400202D01*
X2461564Y-405739D01*
X2469134Y-408533D01*
X2472690Y-410768D01*
X2475026Y-414274D01*
X2475738Y-418388D01*
X2474722Y-422503D01*
X2472131Y-425805D01*
X2468473Y-427786D01*
X2463596Y-429259D01*
X2450592Y-435000D01*
X2438400Y-442366D01*
X2427274Y-451256D01*
X2417419Y-461467D01*
X2408885Y-472846D01*
X2404211Y-481228D01*
X2401925Y-483971D01*
X2398826Y-485749D01*
X2395321Y-486359D01*
X2320290Y-486359D01*
X2306116Y-487273D01*
X2287473Y-490982D01*
X2231745Y-490982D01*
X2229510Y-490728D01*
X2214778Y-487324D01*
X2200656Y-486003D01*
X2186432Y-486460D01*
X2172411Y-488696D01*
X2158796Y-492759D01*
X2145792Y-498500D01*
X2133600Y-505866D01*
X2122474Y-514756D01*
X2112619Y-524967D01*
X2104085Y-536346D01*
X2099919Y-543763D01*
X2096363Y-547827D01*
X2092960Y-550062D01*
G37*

%LPC*%
G36*
X2187752Y-413004D02*
G01*
X2198522Y-413004D01*
X2210358Y-412191D01*
X2221585Y-409752D01*
X2232355Y-405739D01*
X2242413Y-400202D01*
X2251608Y-393344D01*
X2259736Y-385216D01*
X2266594Y-376021D01*
X2272131Y-365963D01*
X2276144Y-355193D01*
X2278583Y-343966D01*
X2279396Y-332130D01*
X2279396Y-308864D01*
X2187752Y-308864D01*
G37*

%LPD*%
G36*
X4095546Y-760476D02*
G01*
X4091482Y-759510D01*
X4088129Y-756970D01*
X4086555Y-755192D01*
X4073956Y-743559D01*
X4060139Y-733399D01*
X4045305Y-724865D01*
X4029608Y-717956D01*
X4015638Y-713587D01*
X4012184Y-711708D01*
X4009694Y-708609D01*
X4008577Y-704799D01*
X4008983Y-700887D01*
X4010914Y-697382D01*
X4014012Y-694893D01*
X4016705Y-693470D01*
X4020718Y-692353D01*
X4024884Y-692962D01*
X4030573Y-694994D01*
X4036669Y-696468D01*
X4036669Y-683564D01*
X4037533Y-679450D01*
X4039971Y-676046D01*
X4042105Y-674116D01*
X4051350Y-663295D01*
X4059072Y-651357D01*
X4065270Y-638556D01*
X4069740Y-625043D01*
X4072483Y-611073D01*
X4073398Y-596900D01*
X4072483Y-582726D01*
X4069740Y-568756D01*
X4065270Y-555244D01*
X4059072Y-542442D01*
X4051350Y-530504D01*
X4042105Y-519684D01*
X4031589Y-510133D01*
X4019905Y-502005D01*
X4007307Y-495401D01*
X3993997Y-490524D01*
X3988866Y-489356D01*
X3986225Y-488340D01*
X3983939Y-486613D01*
X3970832Y-473506D01*
X3968597Y-470204D01*
X3967835Y-466293D01*
X3968597Y-462432D01*
X3970832Y-459130D01*
X3974134Y-456895D01*
X3977995Y-456133D01*
X4036669Y-456133D01*
X4036669Y-333552D01*
X4030573Y-334975D01*
X4016298Y-340156D01*
X4002735Y-346964D01*
X3990086Y-355295D01*
X3978452Y-365048D01*
X3968038Y-376123D01*
X3958996Y-388264D01*
X3951376Y-401421D01*
X3945382Y-415340D01*
X3942130Y-426110D01*
X3940403Y-429514D01*
X3937558Y-432003D01*
X3933951Y-433273D01*
X3930192Y-433120D01*
X3926687Y-431596D01*
X3919321Y-426821D01*
X3910482Y-422452D01*
X3907840Y-421335D01*
X3898493Y-418185D01*
X3895750Y-417474D01*
X3885996Y-415645D01*
X3883202Y-415290D01*
X3873246Y-414782D01*
X3659581Y-414782D01*
X3655466Y-413918D01*
X3652062Y-411480D01*
X3649929Y-407822D01*
X3649472Y-403656D01*
X3650742Y-399643D01*
X3653485Y-396494D01*
X3657701Y-393344D01*
X3665829Y-385216D01*
X3672738Y-376021D01*
X3678224Y-365963D01*
X3682237Y-355193D01*
X3684676Y-343966D01*
X3685540Y-332130D01*
X3685540Y-308864D01*
X3593846Y-308864D01*
X3593846Y-404622D01*
X3593084Y-408533D01*
X3590899Y-411784D01*
X3587597Y-414020D01*
X3583686Y-414782D01*
X3556304Y-414782D01*
X3552444Y-414020D01*
X3549142Y-411784D01*
X3546906Y-408533D01*
X3546144Y-404622D01*
X3546144Y-302209D01*
X3545535Y-298704D01*
X3545535Y-269900D01*
X3546348Y-265836D01*
X3548735Y-262483D01*
X3552240Y-260350D01*
X3556355Y-259740D01*
X3560318Y-260858D01*
X3562400Y-261924D01*
X3576878Y-267309D01*
X3591915Y-270967D01*
X3607257Y-272796D01*
X3622751Y-272796D01*
X3638092Y-270967D01*
X3653129Y-267309D01*
X3667607Y-261924D01*
X3681374Y-254863D01*
X3694176Y-246227D01*
X3705910Y-236118D01*
X3716324Y-224739D01*
X3725367Y-212140D01*
X3732834Y-198628D01*
X3738626Y-184302D01*
X3742690Y-169367D01*
X3744976Y-154076D01*
X3745433Y-138633D01*
X3744061Y-123240D01*
X3741572Y-111404D01*
X3741420Y-108559D01*
X3744671Y-93980D01*
X3745534Y-82143D01*
X3745534Y-36068D01*
X3746296Y-32156D01*
X3748481Y-28905D01*
X3751783Y-26670D01*
X3755694Y-25908D01*
X3945636Y-25908D01*
X3949750Y-26771D01*
X3953205Y-29260D01*
X3955287Y-32918D01*
X3955745Y-37134D01*
X3954424Y-41148D01*
X3951376Y-46431D01*
X3945382Y-60350D01*
X3941013Y-74879D01*
X3938371Y-89865D01*
X3938168Y-93624D01*
X4036669Y-93624D01*
X4036669Y-36068D01*
X4037431Y-32156D01*
X4039615Y-28905D01*
X4042918Y-26670D01*
X4046829Y-25908D01*
X4089196Y-25908D01*
X4093057Y-26670D01*
X4096359Y-28905D01*
X4098594Y-32156D01*
X4099356Y-36068D01*
X4099356Y-93624D01*
X4197858Y-93624D01*
X4197604Y-89865D01*
X4194962Y-74879D01*
X4190644Y-60350D01*
X4184599Y-46431D01*
X4181551Y-41148D01*
X4180281Y-37134D01*
X4180687Y-32918D01*
X4182821Y-29260D01*
X4186224Y-26771D01*
X4190390Y-25908D01*
X4809642Y-25908D01*
X4813757Y-26771D01*
X4817160Y-29260D01*
X4819294Y-32918D01*
X4819751Y-37134D01*
X4818430Y-41148D01*
X4815382Y-46431D01*
X4809388Y-60350D01*
X4805019Y-74879D01*
X4802378Y-89865D01*
X4802174Y-93624D01*
X4900625Y-93624D01*
X4900625Y-36068D01*
X4901438Y-32156D01*
X4903622Y-28905D01*
X4906924Y-26670D01*
X4910785Y-25908D01*
X4953203Y-25908D01*
X4957064Y-26670D01*
X4960366Y-28905D01*
X4962601Y-32156D01*
X4963363Y-36068D01*
X4963363Y-93624D01*
X5061864Y-93624D01*
X5061610Y-89865D01*
X5058968Y-74879D01*
X5054650Y-60350D01*
X5048605Y-46431D01*
X5045557Y-41148D01*
X5044287Y-37134D01*
X5044694Y-32918D01*
X5046827Y-29260D01*
X5050231Y-26771D01*
X5054346Y-25908D01*
X5090058Y-25908D01*
X5094122Y-26771D01*
X5097526Y-29209D01*
X5099659Y-32766D01*
X5100167Y-36931D01*
X5098948Y-40944D01*
X5096865Y-44754D01*
X5092852Y-55524D01*
X5090414Y-66751D01*
X5089601Y-78587D01*
X5089601Y-134366D01*
X5201259Y-134366D01*
X5201259Y-36068D01*
X5202021Y-32156D01*
X5204206Y-28905D01*
X5207508Y-26670D01*
X5211419Y-25908D01*
X5267350Y-25908D01*
X5271262Y-26720D01*
X5274614Y-28956D01*
X5276799Y-32308D01*
X5277510Y-36220D01*
X5271770Y-419049D01*
X5270957Y-422859D01*
X5268722Y-426110D01*
X5265470Y-428294D01*
X5261610Y-429056D01*
X5211419Y-429056D01*
X5207508Y-428243D01*
X5204206Y-426059D01*
X5202021Y-422757D01*
X5201259Y-418896D01*
X5201259Y-272034D01*
X5089601Y-272034D01*
X5089601Y-327304D01*
X5091887Y-326847D01*
X5144312Y-326847D01*
X5148173Y-327609D01*
X5151475Y-329844D01*
X5153660Y-333146D01*
X5154472Y-337007D01*
X5154472Y-446328D01*
X5261051Y-446328D01*
X5264962Y-447141D01*
X5268264Y-449376D01*
X5270500Y-452729D01*
X5271211Y-456641D01*
X5270550Y-499008D01*
X5269738Y-502869D01*
X5267553Y-506120D01*
X5264251Y-508304D01*
X5260390Y-509016D01*
X5154472Y-509016D01*
X5154472Y-608228D01*
X5177739Y-608228D01*
X5189575Y-607364D01*
X5200802Y-604926D01*
X5211521Y-600913D01*
X5221630Y-595426D01*
X5230825Y-588518D01*
X5238953Y-580390D01*
X5245811Y-571195D01*
X5250484Y-562711D01*
X5253431Y-559358D01*
X5257495Y-557580D01*
X5261965Y-557733D01*
X5265928Y-559765D01*
X5268620Y-563321D01*
X5269534Y-567690D01*
X5267198Y-723696D01*
X5266182Y-728014D01*
X5263438Y-731469D01*
X5259476Y-733399D01*
X5255056Y-733501D01*
X5251043Y-731723D01*
X5248148Y-728421D01*
X5245811Y-724204D01*
X5238953Y-715010D01*
X5230825Y-706882D01*
X5221630Y-699973D01*
X5211521Y-694486D01*
X5200802Y-690473D01*
X5189575Y-688035D01*
X5177739Y-687171D01*
X5108397Y-687171D01*
X5104485Y-686409D01*
X5101183Y-684225D01*
X5052568Y-635558D01*
X5050332Y-632256D01*
X5049621Y-628294D01*
X5050434Y-624382D01*
X5054752Y-614324D01*
X5056987Y-611124D01*
X5060238Y-608939D01*
X5064099Y-608228D01*
X5081727Y-608228D01*
X5081727Y-568248D01*
X5079492Y-571195D01*
X5076342Y-573176D01*
X5072684Y-573836D01*
X4963363Y-573836D01*
X4963363Y-582422D01*
X4962601Y-586333D01*
X4960366Y-589584D01*
X4957064Y-591820D01*
X4953203Y-592582D01*
X4910785Y-592582D01*
X4906264Y-591362D01*
X4798517Y-591362D01*
X4796180Y-592277D01*
X4793691Y-592582D01*
X4782667Y-592582D01*
X4778806Y-591820D01*
X4775504Y-589584D01*
X4773320Y-586333D01*
X4772507Y-582422D01*
X4772507Y-495350D01*
X4771694Y-483565D01*
X4769256Y-472338D01*
X4765243Y-461568D01*
X4759706Y-451510D01*
X4752848Y-442315D01*
X4749139Y-438556D01*
X4746904Y-435254D01*
X4746142Y-431393D01*
X4746142Y-414477D01*
X4730343Y-414477D01*
X4718558Y-415340D01*
X4713173Y-416509D01*
X4708855Y-416509D01*
X4703470Y-415340D01*
X4691634Y-414477D01*
X4612386Y-414477D01*
X4597704Y-415493D01*
X4584598Y-414477D01*
X4515358Y-414477D01*
X4503521Y-415340D01*
X4502150Y-415645D01*
X4497832Y-415645D01*
X4496460Y-415340D01*
X4484624Y-414477D01*
X4415383Y-414477D01*
X4400702Y-415493D01*
X4387596Y-414477D01*
X4308348Y-414477D01*
X4296562Y-415340D01*
X4291177Y-416509D01*
X4286859Y-416509D01*
X4281474Y-415340D01*
X4269638Y-414477D01*
X4253839Y-414477D01*
X4253839Y-431393D01*
X4253077Y-435254D01*
X4250893Y-438556D01*
X4247184Y-442315D01*
X4240276Y-451510D01*
X4234789Y-461568D01*
X4230776Y-472338D01*
X4228338Y-483565D01*
X4227474Y-495350D01*
X4227474Y-614629D01*
X4228338Y-626465D01*
X4230776Y-637692D01*
X4234789Y-648462D01*
X4241749Y-661162D01*
X4242358Y-664006D01*
X4243019Y-674217D01*
X4245711Y-687832D01*
X4248556Y-696214D01*
X4249064Y-700176D01*
X4247997Y-704037D01*
X4245559Y-707186D01*
X4242054Y-709117D01*
X4238091Y-709625D01*
X4220667Y-708152D01*
X4206595Y-708558D01*
X4202633Y-707847D01*
X4199229Y-705662D01*
X4196943Y-702360D01*
X4196130Y-698398D01*
X4196130Y-591362D01*
X4099356Y-591362D01*
X4099356Y-696468D01*
X4105452Y-694994D01*
X4119676Y-689813D01*
X4130446Y-684428D01*
X4133545Y-683412D01*
X4136847Y-683514D01*
X4139895Y-684580D01*
X4146550Y-688238D01*
X4157319Y-692251D01*
X4173829Y-695858D01*
X4177029Y-698398D01*
X4178909Y-702005D01*
X4179265Y-706069D01*
X4178046Y-709930D01*
X4175353Y-712978D01*
X4171696Y-714756D01*
X4169968Y-715213D01*
X4153915Y-721207D01*
X4138625Y-728929D01*
X4124299Y-738276D01*
X4111091Y-749198D01*
X4103115Y-757428D01*
X4099610Y-759714D01*
G37*

%LPC*%
G36*
X4099356Y-456133D02*
G01*
X4196130Y-456133D01*
X4196130Y-414477D01*
X4193082Y-413715D01*
X4189831Y-411581D01*
X4187596Y-408330D01*
X4184599Y-401421D01*
X4177029Y-388264D01*
X4167987Y-376123D01*
X4157573Y-365048D01*
X4145940Y-355295D01*
X4133240Y-346964D01*
X4119676Y-340156D01*
X4105452Y-334975D01*
X4099356Y-333552D01*
G37*
G36*
X4803851Y-456133D02*
G01*
X4900625Y-456133D01*
X4900625Y-333552D01*
X4894580Y-334975D01*
X4880305Y-340156D01*
X4866741Y-346964D01*
X4854092Y-355295D01*
X4842459Y-365048D01*
X4832045Y-376123D01*
X4822952Y-388264D01*
X4815382Y-401421D01*
X4812385Y-408330D01*
X4810353Y-411378D01*
X4807407Y-413512D01*
X4803851Y-414477D01*
G37*
G36*
X4963363Y-447192D02*
G01*
X4967427Y-446328D01*
X5081727Y-446328D01*
X5081727Y-346811D01*
X5080050Y-347167D01*
X5058460Y-347167D01*
X5046624Y-348030D01*
X5035448Y-350469D01*
X5024678Y-354482D01*
X5021224Y-356362D01*
X5017770Y-357479D01*
X5014112Y-357327D01*
X5010759Y-355904D01*
X4997246Y-346964D01*
X4983683Y-340156D01*
X4969408Y-334975D01*
X4963363Y-333552D01*
G37*
G36*
X4900625Y-311454D02*
G01*
X4900625Y-196342D01*
X4802174Y-196342D01*
X4802378Y-200152D01*
X4805019Y-215087D01*
X4809388Y-229616D01*
X4815382Y-243586D01*
X4822952Y-256692D01*
X4832045Y-268884D01*
X4842459Y-279908D01*
X4854092Y-289661D01*
X4866741Y-297992D01*
X4880305Y-304800D01*
X4894580Y-310032D01*
G37*
G36*
X4099356Y-311454D02*
G01*
X4105452Y-310032D01*
X4119676Y-304800D01*
X4133240Y-297992D01*
X4145940Y-289661D01*
X4157573Y-279908D01*
X4167987Y-268884D01*
X4177029Y-256692D01*
X4184599Y-243586D01*
X4190644Y-229616D01*
X4194962Y-215087D01*
X4197604Y-200152D01*
X4197858Y-196342D01*
X4099356Y-196342D01*
G37*
G36*
X4963363Y-311454D02*
G01*
X4969408Y-310032D01*
X4983683Y-304800D01*
X4997246Y-297992D01*
X5009946Y-289661D01*
X5021529Y-279908D01*
X5031994Y-268884D01*
X5041036Y-256692D01*
X5048605Y-243586D01*
X5054650Y-229616D01*
X5058968Y-215087D01*
X5061610Y-200152D01*
X5061864Y-196342D01*
X4963363Y-196342D01*
G37*
G36*
X4036669Y-311454D02*
G01*
X4036669Y-196342D01*
X3938168Y-196342D01*
X3938371Y-200152D01*
X3941013Y-215087D01*
X3945382Y-229616D01*
X3951376Y-243586D01*
X3958996Y-256692D01*
X3968038Y-268884D01*
X3978452Y-279908D01*
X3990086Y-289661D01*
X4002735Y-297992D01*
X4016298Y-304800D01*
X4030573Y-310032D01*
G37*

%LPD*%
G36*
X3844340Y-774547D02*
G01*
X3840632Y-774496D01*
X3837178Y-773125D01*
X3834434Y-770636D01*
X3831539Y-766724D01*
X3824935Y-759409D01*
X3818839Y-753313D01*
X3817061Y-750874D01*
X3811270Y-733044D01*
X3805072Y-720242D01*
X3797350Y-708304D01*
X3788105Y-697484D01*
X3777589Y-687933D01*
X3765905Y-679805D01*
X3753307Y-673201D01*
X3739997Y-668324D01*
X3726129Y-665124D01*
X3711956Y-663803D01*
X3697732Y-664260D01*
X3683711Y-666496D01*
X3670096Y-670560D01*
X3657092Y-676300D01*
X3650132Y-680516D01*
X3645966Y-681939D01*
X3641598Y-681482D01*
X3637889Y-679196D01*
X3635400Y-675589D01*
X3634689Y-671271D01*
X3635298Y-660400D01*
X3634333Y-643280D01*
X3631539Y-626414D01*
X3628085Y-614121D01*
X3627729Y-610412D01*
X3628745Y-606856D01*
X3631031Y-603859D01*
X3634181Y-601878D01*
X3637838Y-601218D01*
X3830675Y-601218D01*
X3834587Y-601980D01*
X3837838Y-604215D01*
X3852113Y-618439D01*
X3853738Y-620572D01*
X3854754Y-623062D01*
X3857091Y-631850D01*
X3862425Y-645058D01*
X3869385Y-657453D01*
X3877919Y-668832D01*
X3887774Y-679043D01*
X3898900Y-687933D01*
X3911092Y-695299D01*
X3920744Y-699566D01*
X3923995Y-701852D01*
X3926078Y-705205D01*
X3926789Y-709168D01*
X3925874Y-713028D01*
X3923537Y-716280D01*
X3920185Y-718362D01*
X3912615Y-721207D01*
X3897325Y-728929D01*
X3882999Y-738276D01*
X3869791Y-749198D01*
X3857853Y-761492D01*
X3850589Y-770788D01*
X3847846Y-773226D01*
G37*

%LPD*%
G36*
X317347Y-895553D02*
G01*
X313690Y-894181D01*
X310794Y-891590D01*
X309118Y-888085D01*
X306222Y-877011D01*
X296824Y-848614D01*
X285343Y-820877D01*
X271983Y-794004D01*
X256743Y-768146D01*
X239725Y-743407D01*
X221030Y-719937D01*
X200710Y-697839D01*
X178866Y-677214D01*
X155651Y-658164D01*
X131114Y-640842D01*
X109474Y-627634D01*
X106832Y-625297D01*
X105105Y-622096D01*
X104648Y-618540D01*
X105410Y-615035D01*
X109982Y-604113D01*
X128422Y-565048D01*
X148539Y-526846D01*
X170332Y-489610D01*
X193802Y-453339D01*
X218795Y-418134D01*
X245364Y-384098D01*
X273405Y-351282D01*
X302869Y-319684D01*
X333654Y-289458D01*
X365810Y-260654D01*
X399186Y-233273D01*
X433781Y-207416D01*
X469442Y-183083D01*
X506171Y-160375D01*
X543864Y-139344D01*
X582422Y-119938D01*
X619302Y-103479D01*
X623468Y-102565D01*
X627634Y-103479D01*
X631088Y-106019D01*
X633171Y-109778D01*
X633526Y-113995D01*
X632104Y-118059D01*
X625246Y-129184D01*
X617931Y-144678D01*
X612343Y-160883D01*
X608634Y-177596D01*
X606755Y-194614D01*
X606755Y-211785D01*
X608634Y-228803D01*
X612343Y-245516D01*
X617931Y-261721D01*
X625246Y-277215D01*
X634187Y-291795D01*
X644753Y-305308D01*
X656691Y-317601D01*
X669899Y-328523D01*
X684225Y-337870D01*
X699516Y-345592D01*
X715568Y-351637D01*
X721766Y-353161D01*
X724509Y-354330D01*
X726846Y-356260D01*
X730808Y-360680D01*
X732790Y-363931D01*
X733399Y-367741D01*
X732586Y-371449D01*
X730402Y-374650D01*
X727252Y-376783D01*
X714248Y-382371D01*
X681228Y-398780D01*
X649173Y-416915D01*
X618083Y-436727D01*
X588162Y-458266D01*
X559460Y-481330D01*
X532028Y-505968D01*
X505968Y-532028D01*
X481330Y-559460D01*
X458266Y-588162D01*
X436727Y-618083D01*
X416915Y-649173D01*
X398780Y-681228D01*
X382371Y-714248D01*
X367792Y-748131D01*
X355092Y-782726D01*
X344271Y-817930D01*
X335381Y-853694D01*
X328930Y-887425D01*
X327456Y-891032D01*
X324764Y-893826D01*
X321208Y-895400D01*
G37*

%LPD*%
G36*
X2605328Y-1019657D02*
G01*
X2601264Y-1018895D01*
X2590393Y-1015085D01*
X2587650Y-1014374D01*
X2577896Y-1012545D01*
X2575102Y-1012190D01*
X2565146Y-1011682D01*
X2558237Y-1011682D01*
X2554630Y-1011021D01*
X2551480Y-1009091D01*
X2549245Y-1006195D01*
X2548178Y-1002690D01*
X2548382Y-999236D01*
X2473299Y-999236D01*
X2470150Y-998728D01*
X2467457Y-997864D01*
X2453843Y-995273D01*
X2439670Y-994359D01*
X2320290Y-994359D01*
X2306116Y-995273D01*
X2292502Y-997864D01*
X2289810Y-998728D01*
X2286660Y-999236D01*
X2260295Y-999236D01*
X2256383Y-998474D01*
X2253081Y-996238D01*
X2250897Y-992936D01*
X2250135Y-989025D01*
X2250287Y-966673D01*
X2251049Y-962761D01*
X2253284Y-959510D01*
X2256536Y-957326D01*
X2260447Y-956564D01*
X2286660Y-956564D01*
X2289810Y-957071D01*
X2292502Y-957935D01*
X2306116Y-960526D01*
X2320290Y-961440D01*
X2439670Y-961440D01*
X2453843Y-960526D01*
X2467457Y-957935D01*
X2470150Y-957071D01*
X2473299Y-956564D01*
X2548331Y-956564D01*
X2544927Y-943152D01*
X2544724Y-939037D01*
X2546146Y-935228D01*
X2547010Y-933856D01*
X2549906Y-930808D01*
X2558338Y-925068D01*
X2560574Y-923340D01*
X2567990Y-916635D01*
X2607259Y-877417D01*
X2610510Y-875182D01*
X2614422Y-874420D01*
X2618333Y-875182D01*
X2621584Y-877417D01*
X2623820Y-880668D01*
X2624582Y-884580D01*
X2624582Y-888746D01*
X2625090Y-898702D01*
X2625445Y-901496D01*
X2627274Y-911250D01*
X2627985Y-913993D01*
X2631135Y-923340D01*
X2632252Y-925982D01*
X2636621Y-934821D01*
X2638044Y-937260D01*
X2643632Y-945438D01*
X2649321Y-952042D01*
X2651455Y-955700D01*
X2651912Y-959916D01*
X2650591Y-963930D01*
X2647391Y-967384D01*
X2637231Y-976884D01*
X2628392Y-987552D01*
X2620975Y-999286D01*
X2615082Y-1011834D01*
X2612745Y-1016253D01*
X2609392Y-1018692D01*
G37*

%LPD*%
G36*
X2721914Y-1138123D02*
G01*
X2717850Y-1136142D01*
X2715006Y-1132636D01*
X2710027Y-1122527D01*
X2708656Y-1120140D01*
X2703068Y-1111961D01*
X2701340Y-1109726D01*
X2694635Y-1102309D01*
X2670860Y-1078534D01*
X2668625Y-1075232D01*
X2667863Y-1071321D01*
X2668625Y-1067460D01*
X2670860Y-1064158D01*
X2674162Y-1061923D01*
X2678023Y-1061161D01*
X2696464Y-1061161D01*
X2696464Y-1024026D01*
X2697226Y-1020114D01*
X2699410Y-1016812D01*
X2702712Y-1014628D01*
X2706624Y-1013866D01*
X2710484Y-1014628D01*
X2713786Y-1016812D01*
X2731973Y-1034999D01*
X2734259Y-1038555D01*
X2734919Y-1042822D01*
X2734259Y-1052830D01*
X2734259Y-1128166D01*
X2733294Y-1132586D01*
X2730449Y-1136142D01*
X2726436Y-1138072D01*
G37*

%LPD*%
G36*
X3170072Y-1547012D02*
G01*
X3165602Y-1546504D01*
X3161792Y-1544066D01*
X2900375Y-1282649D01*
X2898241Y-1279550D01*
X2897428Y-1275892D01*
X2897936Y-1272184D01*
X2899765Y-1268933D01*
X2903423Y-1266139D01*
X2906623Y-1265021D01*
X2909976Y-1265021D01*
X2913176Y-1266139D01*
X2924759Y-1272489D01*
X2937662Y-1277620D01*
X2951073Y-1281074D01*
X2964840Y-1282801D01*
X2978759Y-1282801D01*
X2992526Y-1281074D01*
X3005937Y-1277620D01*
X3018840Y-1272489D01*
X3030423Y-1266139D01*
X3033623Y-1265021D01*
X3036976Y-1265021D01*
X3040176Y-1266139D01*
X3051759Y-1272489D01*
X3064662Y-1277620D01*
X3078073Y-1281074D01*
X3091840Y-1282801D01*
X3105759Y-1282801D01*
X3119526Y-1281074D01*
X3132937Y-1277620D01*
X3145840Y-1272489D01*
X3157423Y-1266139D01*
X3160623Y-1265021D01*
X3163976Y-1265021D01*
X3167176Y-1266139D01*
X3178759Y-1272489D01*
X3191662Y-1277620D01*
X3205073Y-1281074D01*
X3218840Y-1282801D01*
X3232759Y-1282801D01*
X3246526Y-1281074D01*
X3259937Y-1277620D01*
X3272840Y-1272489D01*
X3284423Y-1266139D01*
X3287623Y-1265021D01*
X3290976Y-1265021D01*
X3294176Y-1266139D01*
X3300374Y-1269542D01*
X3302863Y-1271473D01*
X3304641Y-1274114D01*
X3305556Y-1277162D01*
X3307384Y-1291234D01*
X3310991Y-1304950D01*
X3316325Y-1318158D01*
X3323285Y-1330553D01*
X3331819Y-1341932D01*
X3341674Y-1352143D01*
X3348126Y-1357325D01*
X3350514Y-1360017D01*
X3351834Y-1363421D01*
X3351834Y-1367078D01*
X3350514Y-1370482D01*
X3348126Y-1373174D01*
X3341674Y-1378356D01*
X3331819Y-1388567D01*
X3323285Y-1399946D01*
X3316325Y-1412341D01*
X3310991Y-1425549D01*
X3309416Y-1431493D01*
X3307892Y-1434744D01*
X3305403Y-1437233D01*
X3302152Y-1438757D01*
X3298596Y-1439011D01*
X3292856Y-1438503D01*
X3278632Y-1438960D01*
X3264611Y-1441196D01*
X3250996Y-1445260D01*
X3237992Y-1451000D01*
X3225800Y-1458366D01*
X3214674Y-1467256D01*
X3204819Y-1477467D01*
X3196285Y-1488846D01*
X3189325Y-1501241D01*
X3183991Y-1514449D01*
X3180384Y-1528165D01*
X3179064Y-1538224D01*
X3177540Y-1542440D01*
X3174339Y-1545539D01*
G37*

%LPD*%
G36*
X3725265Y-1656384D02*
G01*
X3721354Y-1654556D01*
X3718509Y-1651254D01*
X3717290Y-1647088D01*
X3716426Y-1633016D01*
X3713835Y-1619402D01*
X3709517Y-1606194D01*
X3703624Y-1593646D01*
X3701592Y-1590446D01*
X3700424Y-1587855D01*
X3700018Y-1585010D01*
X3700018Y-1536954D01*
X3699510Y-1526997D01*
X3699154Y-1524203D01*
X3697325Y-1514449D01*
X3696614Y-1511706D01*
X3693464Y-1502359D01*
X3692347Y-1499717D01*
X3687978Y-1490878D01*
X3686556Y-1488440D01*
X3680968Y-1480261D01*
X3679240Y-1478026D01*
X3672535Y-1470609D01*
X3596690Y-1394764D01*
X3589274Y-1388059D01*
X3587089Y-1386332D01*
X3580333Y-1381810D01*
X3577386Y-1378712D01*
X3575964Y-1374698D01*
X3576320Y-1370431D01*
X3578402Y-1366672D01*
X3581857Y-1364132D01*
X3586022Y-1363218D01*
X3619246Y-1363218D01*
X3629202Y-1362710D01*
X3638804Y-1361084D01*
X3642614Y-1361084D01*
X3646170Y-1362456D01*
X3648913Y-1365046D01*
X3650538Y-1368501D01*
X3653891Y-1381150D01*
X3659225Y-1394358D01*
X3666185Y-1406753D01*
X3674719Y-1418132D01*
X3684574Y-1428343D01*
X3695700Y-1437233D01*
X3707892Y-1444599D01*
X3720896Y-1450340D01*
X3733546Y-1454099D01*
X3735832Y-1455115D01*
X3737813Y-1456639D01*
X3809492Y-1528318D01*
X3811676Y-1531620D01*
X3812438Y-1535531D01*
X3811625Y-1539443D01*
X3809390Y-1542745D01*
X3806037Y-1544929D01*
X3801059Y-1546910D01*
X3788867Y-1553565D01*
X3777691Y-1561744D01*
X3767531Y-1571244D01*
X3758692Y-1581912D01*
X3751275Y-1593646D01*
X3745382Y-1606194D01*
X3741064Y-1619402D01*
X3738473Y-1633016D01*
X3737610Y-1647088D01*
X3736390Y-1651254D01*
X3733546Y-1654556D01*
X3729634Y-1656384D01*
G37*

%LPD*%
G36*
X3232454Y-1750568D02*
G01*
X3228594Y-1749958D01*
X3225292Y-1747926D01*
X3218789Y-1742033D01*
X3213658Y-1738477D01*
X3211322Y-1736191D01*
X3209848Y-1733346D01*
X3209340Y-1730146D01*
X3209340Y-1648358D01*
X3210204Y-1644192D01*
X3212744Y-1640738D01*
X3216503Y-1638655D01*
X3220770Y-1638300D01*
X3224784Y-1639722D01*
X3237433Y-1647494D01*
X3240024Y-1649730D01*
X3241700Y-1652727D01*
X3242259Y-1656130D01*
X3242259Y-1740407D01*
X3241548Y-1744218D01*
X3239414Y-1747469D01*
X3236214Y-1749704D01*
G37*

%LPD*%
G36*
X2278024Y-1837182D02*
G01*
X2274112Y-1836420D01*
X2270861Y-1834184D01*
X2244039Y-1807413D01*
X2242261Y-1804974D01*
X2236470Y-1787143D01*
X2232660Y-1779270D01*
X2231694Y-1775256D01*
X2232355Y-1771142D01*
X2234641Y-1767687D01*
X2240940Y-1761388D01*
X2247798Y-1752193D01*
X2253335Y-1742135D01*
X2257348Y-1731365D01*
X2259787Y-1720138D01*
X2260600Y-1708353D01*
X2260600Y-1619046D01*
X2259787Y-1607261D01*
X2257399Y-1596390D01*
X2257450Y-1591919D01*
X2259431Y-1587906D01*
X2262936Y-1585112D01*
X2267305Y-1584096D01*
X2271674Y-1585061D01*
X2279294Y-1588617D01*
X2292502Y-1592935D01*
X2306116Y-1595526D01*
X2320290Y-1596440D01*
X2439670Y-1596440D01*
X2453843Y-1595526D01*
X2467457Y-1592935D01*
X2478379Y-1589379D01*
X2482088Y-1588871D01*
X2485644Y-1589735D01*
X2488742Y-1591868D01*
X2515870Y-1618996D01*
X2517800Y-1621739D01*
X2518765Y-1624888D01*
X2519984Y-1634134D01*
X2523591Y-1647850D01*
X2528925Y-1661058D01*
X2535885Y-1673453D01*
X2544419Y-1684832D01*
X2554274Y-1695043D01*
X2565400Y-1703933D01*
X2577592Y-1711299D01*
X2590596Y-1717039D01*
X2599994Y-1719834D01*
X2603804Y-1721916D01*
X2606344Y-1725371D01*
X2607259Y-1729587D01*
X2607259Y-1766570D01*
X2608173Y-1780743D01*
X2611882Y-1799386D01*
X2611882Y-1827022D01*
X2611120Y-1830933D01*
X2608884Y-1834184D01*
X2605633Y-1836420D01*
X2601722Y-1837182D01*
G37*

%LPD*%
G36*
X4349343Y-1849882D02*
G01*
X4345584Y-1849170D01*
X4342384Y-1847138D01*
X4340148Y-1844039D01*
X4339183Y-1840026D01*
X4336440Y-1826056D01*
X4335272Y-1822500D01*
X4334764Y-1819300D01*
X4334764Y-1800199D01*
X4335272Y-1797050D01*
X4336135Y-1794357D01*
X4338726Y-1780743D01*
X4339640Y-1766570D01*
X4339640Y-1647189D01*
X4338726Y-1633016D01*
X4336135Y-1619402D01*
X4335272Y-1616710D01*
X4334764Y-1613560D01*
X4334764Y-1538528D01*
X4321962Y-1541780D01*
X4309059Y-1546910D01*
X4306620Y-1548231D01*
X4302455Y-1549450D01*
X4298188Y-1548841D01*
X4294530Y-1546504D01*
X4030675Y-1282649D01*
X4028541Y-1279550D01*
X4027728Y-1275892D01*
X4028236Y-1272184D01*
X4030065Y-1268933D01*
X4033723Y-1266139D01*
X4036923Y-1265021D01*
X4040276Y-1265021D01*
X4043476Y-1266139D01*
X4055059Y-1272489D01*
X4067962Y-1277620D01*
X4081373Y-1281074D01*
X4095140Y-1282801D01*
X4109059Y-1282801D01*
X4122826Y-1281074D01*
X4136237Y-1277620D01*
X4149140Y-1272489D01*
X4160723Y-1266139D01*
X4163923Y-1265021D01*
X4167276Y-1265021D01*
X4170476Y-1266139D01*
X4182059Y-1272489D01*
X4194962Y-1277620D01*
X4208373Y-1281074D01*
X4222140Y-1282801D01*
X4236059Y-1282801D01*
X4249826Y-1281074D01*
X4263237Y-1277620D01*
X4276140Y-1272489D01*
X4287723Y-1266139D01*
X4290923Y-1265021D01*
X4294276Y-1265021D01*
X4297476Y-1266139D01*
X4309059Y-1272489D01*
X4321962Y-1277620D01*
X4335373Y-1281074D01*
X4349140Y-1282801D01*
X4363059Y-1282801D01*
X4376826Y-1281074D01*
X4386986Y-1278432D01*
X4390440Y-1278178D01*
X4393742Y-1279042D01*
X4396587Y-1280972D01*
X4398619Y-1283766D01*
X4401921Y-1290421D01*
X4403344Y-1292860D01*
X4408932Y-1301038D01*
X4410659Y-1303274D01*
X4417364Y-1310690D01*
X4493209Y-1386535D01*
X4500626Y-1393240D01*
X4502861Y-1394968D01*
X4511040Y-1400556D01*
X4513478Y-1401978D01*
X4522317Y-1406347D01*
X4524959Y-1407464D01*
X4534306Y-1410614D01*
X4537049Y-1411325D01*
X4546803Y-1413154D01*
X4549597Y-1413510D01*
X4559554Y-1414018D01*
X4874615Y-1414018D01*
X4877663Y-1414475D01*
X4880406Y-1415846D01*
X4882642Y-1417929D01*
X4886553Y-1422908D01*
X4893970Y-1430528D01*
X4896104Y-1433830D01*
X4896612Y-1436471D01*
X4899355Y-1436827D01*
X4902657Y-1438656D01*
X4911699Y-1446123D01*
X4926025Y-1455470D01*
X4938166Y-1461617D01*
X4941112Y-1463852D01*
X4943094Y-1467002D01*
X4943754Y-1470660D01*
X4943754Y-1541983D01*
X5027422Y-1541983D01*
X5031333Y-1542745D01*
X5034584Y-1544929D01*
X5036820Y-1548231D01*
X5037582Y-1552143D01*
X5037582Y-1584502D01*
X5036820Y-1588363D01*
X5034584Y-1591665D01*
X5031333Y-1593900D01*
X5027422Y-1594662D01*
X4994046Y-1594662D01*
X4990490Y-1594002D01*
X4982565Y-1591056D01*
X4971338Y-1588617D01*
X4959553Y-1587804D01*
X4870246Y-1587804D01*
X4858461Y-1588617D01*
X4847234Y-1591056D01*
X4842865Y-1592681D01*
X4839462Y-1593342D01*
X4836058Y-1592783D01*
X4833061Y-1591157D01*
X4830724Y-1588617D01*
X4826508Y-1581912D01*
X4817668Y-1571244D01*
X4807508Y-1561744D01*
X4805578Y-1560322D01*
X4802784Y-1557223D01*
X4801463Y-1553159D01*
X4801920Y-1548993D01*
X4804003Y-1545336D01*
X4807458Y-1542846D01*
X4811572Y-1541983D01*
X4886045Y-1541983D01*
X4886045Y-1447800D01*
X4870246Y-1447800D01*
X4858461Y-1448612D01*
X4847234Y-1451051D01*
X4836464Y-1455115D01*
X4826406Y-1460601D01*
X4817211Y-1467459D01*
X4809083Y-1475587D01*
X4802174Y-1484782D01*
X4796688Y-1494891D01*
X4792675Y-1505610D01*
X4790236Y-1516837D01*
X4789373Y-1528673D01*
X4789373Y-1534007D01*
X4788611Y-1537868D01*
X4786426Y-1541170D01*
X4783175Y-1543354D01*
X4779365Y-1544167D01*
X4775504Y-1543456D01*
X4771237Y-1541780D01*
X4757826Y-1538325D01*
X4744059Y-1536598D01*
X4730140Y-1536598D01*
X4716373Y-1538325D01*
X4702962Y-1541780D01*
X4690059Y-1546910D01*
X4678476Y-1553260D01*
X4675276Y-1554378D01*
X4671923Y-1554378D01*
X4668723Y-1553260D01*
X4657140Y-1546910D01*
X4644237Y-1541780D01*
X4630826Y-1538325D01*
X4617059Y-1536598D01*
X4603140Y-1536598D01*
X4589373Y-1538325D01*
X4575962Y-1541780D01*
X4563059Y-1546910D01*
X4551476Y-1553260D01*
X4548276Y-1554378D01*
X4544923Y-1554378D01*
X4541723Y-1553260D01*
X4530140Y-1546910D01*
X4517237Y-1541780D01*
X4503826Y-1538325D01*
X4490059Y-1536598D01*
X4476140Y-1536598D01*
X4462373Y-1538325D01*
X4448962Y-1541780D01*
X4436059Y-1546910D01*
X4424476Y-1553260D01*
X4421276Y-1554378D01*
X4417923Y-1554378D01*
X4414723Y-1553260D01*
X4403140Y-1546910D01*
X4390237Y-1541780D01*
X4377436Y-1538528D01*
X4377436Y-1613560D01*
X4376928Y-1616710D01*
X4376064Y-1619402D01*
X4373473Y-1633016D01*
X4372559Y-1647189D01*
X4372559Y-1766570D01*
X4373473Y-1780743D01*
X4376064Y-1794357D01*
X4376928Y-1797050D01*
X4377436Y-1800199D01*
X4377436Y-1839722D01*
X4376674Y-1843633D01*
X4374489Y-1846884D01*
X4371187Y-1849120D01*
X4367276Y-1849882D01*
G37*

%LPD*%
G36*
X652221Y-1908860D02*
G01*
X648208Y-1908149D01*
X619506Y-1896668D01*
X579932Y-1878838D01*
X541172Y-1859280D01*
X503377Y-1837943D01*
X466496Y-1814982D01*
X430733Y-1790446D01*
X396087Y-1764284D01*
X362661Y-1736598D01*
X330454Y-1707489D01*
X299618Y-1676958D01*
X270154Y-1645107D01*
X242112Y-1611934D01*
X215595Y-1577543D01*
X190652Y-1542034D01*
X167335Y-1505458D01*
X145643Y-1467866D01*
X125628Y-1429308D01*
X107391Y-1389938D01*
X103327Y-1380134D01*
X102565Y-1376629D01*
X103073Y-1373073D01*
X104749Y-1369923D01*
X107442Y-1367586D01*
X133451Y-1351635D01*
X157835Y-1334109D01*
X180949Y-1314958D01*
X202641Y-1294180D01*
X222808Y-1271981D01*
X241401Y-1248359D01*
X258267Y-1223518D01*
X273304Y-1197559D01*
X286512Y-1170584D01*
X297789Y-1142746D01*
X306425Y-1116330D01*
X308508Y-1108456D01*
X310235Y-1104849D01*
X313182Y-1102258D01*
X316941Y-1100937D01*
X320903Y-1101191D01*
X324459Y-1102918D01*
X327101Y-1105916D01*
X328472Y-1110081D01*
X335381Y-1146302D01*
X344271Y-1182065D01*
X355092Y-1217269D01*
X367792Y-1251864D01*
X382371Y-1285748D01*
X398780Y-1318768D01*
X416915Y-1350822D01*
X436727Y-1381912D01*
X458266Y-1411833D01*
X481330Y-1440535D01*
X505968Y-1467967D01*
X532028Y-1494028D01*
X559460Y-1518666D01*
X588162Y-1541729D01*
X618083Y-1563268D01*
X649173Y-1583080D01*
X681228Y-1601216D01*
X704138Y-1612595D01*
X707237Y-1614982D01*
X709218Y-1618335D01*
X709777Y-1622247D01*
X708863Y-1626006D01*
X706526Y-1629156D01*
X703224Y-1631238D01*
X699516Y-1632610D01*
X684225Y-1640332D01*
X669899Y-1649679D01*
X656691Y-1660601D01*
X644753Y-1672894D01*
X634187Y-1686407D01*
X625246Y-1700987D01*
X617931Y-1716481D01*
X612343Y-1732686D01*
X608634Y-1749399D01*
X606755Y-1766417D01*
X606755Y-1783588D01*
X608634Y-1800606D01*
X612343Y-1817319D01*
X617931Y-1833524D01*
X625246Y-1849018D01*
X634187Y-1863598D01*
X644753Y-1877110D01*
X656691Y-1889404D01*
X658418Y-1890826D01*
X661009Y-1894027D01*
X662127Y-1897938D01*
X661568Y-1902002D01*
X659485Y-1905507D01*
X656234Y-1907946D01*
G37*

%LPD*%
G36*
X4760874Y-1974088D02*
G01*
X4756962Y-1973325D01*
X4753660Y-1971141D01*
X4751476Y-1967839D01*
X4750714Y-1963928D01*
X4751476Y-1960067D01*
X4753660Y-1956765D01*
X4802835Y-1907590D01*
X4809540Y-1900174D01*
X4811268Y-1897938D01*
X4816856Y-1889760D01*
X4818278Y-1887321D01*
X4822647Y-1878482D01*
X4823764Y-1875840D01*
X4826914Y-1866493D01*
X4827625Y-1863750D01*
X4829454Y-1853996D01*
X4829810Y-1851202D01*
X4830318Y-1841246D01*
X4830318Y-1833880D01*
X4831080Y-1830019D01*
X4833213Y-1826768D01*
X4836414Y-1824532D01*
X4840173Y-1823720D01*
X4844034Y-1824329D01*
X4847234Y-1825548D01*
X4858461Y-1827987D01*
X4870246Y-1828800D01*
X4959553Y-1828800D01*
X4971338Y-1827987D01*
X4982565Y-1825548D01*
X4993335Y-1821535D01*
X5003393Y-1815998D01*
X5012588Y-1809140D01*
X5020259Y-1801520D01*
X5023510Y-1799285D01*
X5027422Y-1798523D01*
X5031333Y-1799285D01*
X5034584Y-1801520D01*
X5036820Y-1804822D01*
X5037582Y-1808683D01*
X5037582Y-1841144D01*
X5038496Y-1855317D01*
X5041188Y-1868932D01*
X5045659Y-1882038D01*
X5051806Y-1894433D01*
X5059476Y-1905965D01*
X5068824Y-1916633D01*
X5108956Y-1956765D01*
X5111140Y-1960067D01*
X5111953Y-1963928D01*
X5111140Y-1967839D01*
X5108956Y-1971141D01*
X5105654Y-1973325D01*
X5101793Y-1974088D01*
G37*

%LPD*%
G36*
X1000404Y-1974088D02*
G01*
X956360Y-1973122D01*
X913079Y-1970176D01*
X869950Y-1965350D01*
X827074Y-1958593D01*
X784504Y-1949957D01*
X780999Y-1949094D01*
X777341Y-1947316D01*
X774649Y-1944268D01*
X773379Y-1940407D01*
X773734Y-1936394D01*
X775614Y-1932787D01*
X778764Y-1930247D01*
X783336Y-1929028D01*
X800150Y-1925726D01*
X816508Y-1920646D01*
X832205Y-1913737D01*
X847039Y-1905203D01*
X860856Y-1895043D01*
X873455Y-1883410D01*
X884732Y-1870506D01*
X887018Y-1867204D01*
X889711Y-1864563D01*
X893165Y-1863089D01*
X896975Y-1862988D01*
X900531Y-1864258D01*
X903376Y-1866747D01*
X911453Y-1877110D01*
X923391Y-1889404D01*
X936599Y-1900275D01*
X950925Y-1909673D01*
X966216Y-1917395D01*
X982268Y-1923389D01*
X998880Y-1927606D01*
X1015847Y-1929993D01*
X1032967Y-1930450D01*
X1050036Y-1929028D01*
X1066850Y-1925726D01*
X1083208Y-1920646D01*
X1098905Y-1913737D01*
X1113739Y-1905203D01*
X1127556Y-1895043D01*
X1140155Y-1883410D01*
X1151432Y-1870506D01*
X1153718Y-1867204D01*
X1156411Y-1864563D01*
X1159865Y-1863089D01*
X1163675Y-1862988D01*
X1167231Y-1864258D01*
X1170076Y-1866747D01*
X1178153Y-1877110D01*
X1190091Y-1889404D01*
X1203299Y-1900275D01*
X1217625Y-1909673D01*
X1232916Y-1917395D01*
X1248968Y-1923389D01*
X1265580Y-1927606D01*
X1282547Y-1929993D01*
X1299667Y-1930450D01*
X1316736Y-1929028D01*
X1333550Y-1925726D01*
X1349908Y-1920646D01*
X1365605Y-1913737D01*
X1380439Y-1905203D01*
X1394256Y-1895043D01*
X1406855Y-1883410D01*
X1418132Y-1870506D01*
X1420418Y-1867204D01*
X1423111Y-1864563D01*
X1426565Y-1863089D01*
X1430375Y-1862988D01*
X1433931Y-1864258D01*
X1436776Y-1866747D01*
X1444853Y-1877110D01*
X1456791Y-1889404D01*
X1469999Y-1900275D01*
X1484325Y-1909673D01*
X1499616Y-1917395D01*
X1515668Y-1923389D01*
X1532280Y-1927606D01*
X1549247Y-1929993D01*
X1566367Y-1930450D01*
X1583436Y-1929028D01*
X1600250Y-1925726D01*
X1616608Y-1920646D01*
X1632305Y-1913737D01*
X1647139Y-1905203D01*
X1660956Y-1895043D01*
X1673555Y-1883410D01*
X1684832Y-1870506D01*
X1694586Y-1856435D01*
X1702714Y-1841347D01*
X1709166Y-1825498D01*
X1713839Y-1808988D01*
X1716633Y-1792122D01*
X1717598Y-1775002D01*
X1716633Y-1757883D01*
X1713839Y-1741017D01*
X1709166Y-1724507D01*
X1702714Y-1708657D01*
X1694586Y-1693570D01*
X1684832Y-1679498D01*
X1673555Y-1666544D01*
X1660956Y-1654962D01*
X1655724Y-1651101D01*
X1653489Y-1648866D01*
X1652066Y-1646072D01*
X1651558Y-1642973D01*
X1651254Y-1612087D01*
X1651914Y-1608277D01*
X1653946Y-1604975D01*
X1662582Y-1595628D01*
X1664512Y-1592986D01*
X1667967Y-1588871D01*
X1671472Y-1586280D01*
X1675739Y-1585366D01*
X1680006Y-1586331D01*
X1684934Y-1588617D01*
X1698142Y-1592935D01*
X1711756Y-1595526D01*
X1725930Y-1596440D01*
X1734261Y-1596440D01*
X1734261Y-1504137D01*
X1734718Y-1501241D01*
X1735937Y-1498600D01*
X1751888Y-1474063D01*
X1754124Y-1471574D01*
X1757121Y-1469999D01*
X1760423Y-1469440D01*
X1845310Y-1469440D01*
X1859483Y-1468526D01*
X1873097Y-1465935D01*
X1875789Y-1465072D01*
X1878939Y-1464564D01*
X1953971Y-1464564D01*
X1950720Y-1451762D01*
X1945589Y-1438859D01*
X1939239Y-1427276D01*
X1938121Y-1424076D01*
X1938121Y-1420723D01*
X1939239Y-1417523D01*
X1945589Y-1405940D01*
X1950720Y-1393037D01*
X1954174Y-1379626D01*
X1955901Y-1365859D01*
X1955901Y-1358696D01*
X1956612Y-1354988D01*
X1958593Y-1351788D01*
X1961591Y-1349552D01*
X1965198Y-1348587D01*
X1968957Y-1348943D01*
X1981911Y-1352804D01*
X1995932Y-1355039D01*
X2010156Y-1355496D01*
X2024888Y-1354124D01*
X2029053Y-1354582D01*
X2032711Y-1356715D01*
X2035149Y-1360119D01*
X2036013Y-1364284D01*
X2034997Y-1528064D01*
X2034387Y-1531569D01*
X2032558Y-1534617D01*
X2029815Y-1536903D01*
X2026462Y-1538071D01*
X2026462Y-1584553D01*
X2025802Y-1588109D01*
X2022856Y-1596034D01*
X2020417Y-1607261D01*
X2019604Y-1619046D01*
X2019604Y-1708353D01*
X2020417Y-1720138D01*
X2022856Y-1731365D01*
X2025802Y-1739290D01*
X2026462Y-1742846D01*
X2026462Y-1799386D01*
X2026157Y-1801977D01*
X2024684Y-1807565D01*
X2022856Y-1821688D01*
X2022856Y-1835912D01*
X2024684Y-1850034D01*
X2028291Y-1863750D01*
X2033625Y-1876958D01*
X2040585Y-1889353D01*
X2049119Y-1900732D01*
X2058974Y-1910943D01*
X2070100Y-1919833D01*
X2082292Y-1927199D01*
X2095296Y-1932939D01*
X2107946Y-1936699D01*
X2110232Y-1937715D01*
X2112213Y-1939239D01*
X2129739Y-1956765D01*
X2131923Y-1960067D01*
X2132685Y-1963928D01*
X2131923Y-1967839D01*
X2129739Y-1971141D01*
X2126437Y-1973325D01*
X2122525Y-1974088D01*
G37*

%LPC*%
G36*
X1960473Y-1789226D02*
G01*
X1973783Y-1789226D01*
X1973783Y-1692554D01*
X1879600Y-1692554D01*
X1879600Y-1708353D01*
X1880412Y-1720138D01*
X1882851Y-1731365D01*
X1886915Y-1742135D01*
X1892401Y-1752193D01*
X1899259Y-1761388D01*
X1907387Y-1769516D01*
X1916582Y-1776425D01*
X1926691Y-1781911D01*
X1937410Y-1785924D01*
X1948637Y-1788363D01*
G37*
G36*
X1879600Y-1634845D02*
G01*
X1973783Y-1634845D01*
X1973783Y-1538173D01*
X1959152Y-1538274D01*
X1955139Y-1537766D01*
X1951583Y-1535684D01*
X1949196Y-1532382D01*
X1948281Y-1528419D01*
X1948992Y-1524406D01*
X1950720Y-1520037D01*
X1953971Y-1507236D01*
X1836978Y-1507236D01*
X1836978Y-1596440D01*
X1845310Y-1596440D01*
X1859483Y-1595526D01*
X1868881Y-1593748D01*
X1872894Y-1593748D01*
X1876552Y-1595323D01*
X1879346Y-1598168D01*
X1880819Y-1601876D01*
X1879600Y-1619046D01*
G37*

%LPD*%
G36*
X3069437Y-1974088D02*
G01*
X3065221Y-1973173D01*
X3061766Y-1970582D01*
X3059684Y-1966772D01*
X3059379Y-1962454D01*
X3060903Y-1958390D01*
X3068472Y-1946757D01*
X3073349Y-1936699D01*
X3076092Y-1933244D01*
X3080054Y-1931263D01*
X3084474Y-1931162D01*
X3097682Y-1933803D01*
X3111855Y-1934718D01*
X3115767Y-1934718D01*
X3118662Y-1935124D01*
X3124911Y-1937004D01*
X3138932Y-1939239D01*
X3153156Y-1939696D01*
X3167329Y-1938375D01*
X3181197Y-1935175D01*
X3194507Y-1930298D01*
X3207105Y-1923694D01*
X3218789Y-1915566D01*
X3229305Y-1906016D01*
X3238550Y-1895195D01*
X3246272Y-1883257D01*
X3252470Y-1870405D01*
X3254603Y-1866798D01*
X3258007Y-1864309D01*
X3262122Y-1863445D01*
X3296920Y-1863445D01*
X3299460Y-1863750D01*
X3301847Y-1864715D01*
X3305759Y-1866849D01*
X3318662Y-1871980D01*
X3332073Y-1875434D01*
X3345840Y-1877161D01*
X3359759Y-1877161D01*
X3373526Y-1875434D01*
X3386937Y-1871980D01*
X3389985Y-1870760D01*
X3393846Y-1870049D01*
X3397707Y-1870862D01*
X3400958Y-1873097D01*
X3403142Y-1876348D01*
X3403904Y-1880209D01*
X3403904Y-1936953D01*
X3404717Y-1948738D01*
X3407308Y-1960372D01*
X3407968Y-1964232D01*
X3407105Y-1968042D01*
X3404870Y-1971243D01*
X3401618Y-1973325D01*
X3397808Y-1974088D01*
X3368243Y-1974088D01*
X3364331Y-1973325D01*
X3361029Y-1971141D01*
X3358845Y-1967839D01*
X3358083Y-1963928D01*
X3358083Y-1921154D01*
X3263900Y-1921154D01*
X3263900Y-1936953D01*
X3264712Y-1948738D01*
X3267303Y-1960372D01*
X3267964Y-1964232D01*
X3267100Y-1968042D01*
X3264865Y-1971243D01*
X3261614Y-1973325D01*
X3257803Y-1974088D01*
G37*

%LPD*%
D11*
X3962400Y-469900D02*
G01*
X3962400Y-419100D01*
X4013200Y-368300D01*
X4775200Y-368300D01*
X4775200Y-431800D01*
X3962400Y-469900D02*
G01*
X3937000Y-419100D01*
X3569970Y-419100D01*
X2869945Y-419100D02*
G01*
X3569970Y-419100D01*
X3569970Y-322579D01*
X2425700Y-444500D02*
G01*
X2425700Y-419100D01*
X2869945Y-419100D01*
X2869945Y-322579D01*
D10*
X2717800Y-685800D02*
G01*
X2717800Y-889000D01*
X2844800Y-1016000D01*
X2844800Y-1112520D01*
X4225010Y-554989D02*
G01*
X4225010Y-647700D01*
X4174210Y-698500D01*
X3924300Y-698500D01*
X3848100Y-774700D01*
X3848100Y-1112520D01*
D11*
X4356100Y-1706879D02*
G01*
X4356100Y-1524000D01*
X4406900Y-1473200D01*
X4876800Y-1473200D01*
X4914900Y-1511300D01*
X4914900Y-1568195D01*
X4914900Y-1706879D02*
G01*
X4737100Y-1706879D01*
X3606800Y-1841500D02*
G01*
X3606800Y-1892300D01*
X3975100Y-1892300D01*
X3975100Y-1706879D01*
X3606800Y-1706879D02*
G01*
X3606800Y-1892300D01*
X3524504Y-1892300D01*
X3225800Y-1706879D02*
G01*
X3225800Y-1828800D01*
X3289300Y-1892300D01*
X3384397Y-1892300D01*
X3098800Y-1706879D02*
G01*
X3098800Y-1816100D01*
X3111500Y-1828800D01*
X3149600Y-1828800D01*
X2971800Y-1770379D02*
G01*
X2971800Y-1892300D01*
X2717800Y-1770379D02*
G01*
X2717800Y-1866900D01*
X2501900Y-533400D02*
G01*
X2501900Y-558800D01*
X2463800Y-596900D01*
X2379985Y-596900D01*
X2379979Y-596900D02*
G01*
X2197100Y-596900D01*
D10*
X2379979Y-1231900D02*
G01*
X2489200Y-1231900D01*
D11*
X2247900Y-723900D02*
G01*
X2379985Y-723900D01*
X2379979Y-977900D02*
G01*
X2679700Y-977900D01*
X2717800Y-1016000D01*
X2717800Y-1112520D01*
D10*
X3225800Y-1112520D02*
G01*
X3225800Y-660400D01*
X3098800Y-1112520D02*
G01*
X3098800Y-826007D01*
X2976118Y-726694D01*
X2971800Y-685800D01*
X2895600Y-863600D02*
G01*
X2971800Y-939800D01*
X2971800Y-1112520D01*
X3759200Y-1346200D02*
G01*
X3924300Y-1511300D01*
X4051300Y-1511300D01*
X4102100Y-1562100D01*
X4102100Y-1706879D01*
X4102100Y-1770379D02*
G01*
X4102100Y-1854200D01*
X3975100Y-1828800D02*
G01*
X3975100Y-1892300D01*
X4025900Y-1943100D01*
X4635500Y-1943100D01*
X4737100Y-1841500D01*
X4737100Y-1706879D01*
X1562100Y-203200D02*
G01*
X1803400Y-444500D01*
X1879600Y-444500D01*
X1968500Y-533400D01*
D11*
X3229990Y-272503D02*
G01*
X3232696Y-272503D01*
X3327400Y-177800D01*
X3403600Y-177800D01*
X2529992Y-272503D02*
G01*
X2529992Y-264007D01*
X2616200Y-177800D01*
X2705100Y-177800D01*
X1823892Y-272503D02*
G01*
X1823892Y-258907D01*
X1905000Y-177800D01*
X1993900Y-177800D01*
X2197100Y-596900D02*
G01*
X2146300Y-647700D01*
X2140102Y-1663700D01*
X2379979Y-977900D02*
G01*
X2235200Y-977900D01*
X2235200Y-812800D02*
G01*
X2235200Y-1270000D01*
X2006600Y-1397000D02*
G01*
X2006600Y-1657200D01*
X2000100Y-1663700D01*
D10*
X2844800Y-1706879D02*
G01*
X2844800Y-1866900D01*
X2781300Y-1930400D01*
X2235200Y-1930400D01*
X2133600Y-1828800D01*
X2379985Y-1485900D02*
G01*
X2514600Y-1485900D01*
X2628900Y-1600200D01*
X2628900Y-1612900D01*
X3009900Y-1282700D02*
G01*
X3098800Y-1371600D01*
X3619500Y-1371600D01*
X3848100Y-1130300D01*
X3848100Y-1112520D01*
X4737100Y-1112520D02*
G01*
X4737100Y-1079500D01*
X4902200Y-914400D01*
X4356100Y-1112520D02*
G01*
X4356100Y-1016000D01*
X4394200Y-977900D01*
X4584700Y-977900D01*
X4699000Y-863600D01*
X4470400Y-863600D02*
G01*
X4381500Y-863600D01*
X4229100Y-1016000D01*
X4229100Y-1112520D01*
X4216400Y-863600D02*
G01*
X4102100Y-977900D01*
X4102100Y-1112520D01*
X3975100Y-863600D02*
G01*
X3975100Y-1112520D01*
X4610100Y-1112520D02*
G01*
X4610100Y-1219200D01*
X4648200Y-1257300D01*
X4851400Y-1257300D01*
X4991100Y-1117600D01*
X4483100Y-1112520D02*
G01*
X4483100Y-1244600D01*
X4559300Y-1320800D01*
X5003800Y-1320800D01*
X3352800Y-863600D02*
G01*
X3352800Y-1112520D01*
X3479800Y-1112520D02*
G01*
X3479800Y-660400D01*
X3606800Y-863600D02*
G01*
X3606800Y-1112520D01*
D11*
X4775085Y-431815D02*
G01*
X4774945Y-554989D01*
X4347997Y-554989D02*
G01*
X4347997Y-660400D01*
X4386097Y-698500D01*
X4690109Y-698500D01*
X8300008Y-775004D02*
G01*
X8300008Y-1325016D01*
D10*
X3416300Y-1460500D02*
G01*
X3530600Y-1460500D01*
X3606800Y-1536700D01*
X3606800Y-1706879D01*
X4483100Y-1879600D02*
G01*
X4483100Y-1770379D01*
D11*
X4216400Y-393700D02*
G01*
X4216400Y-516636D01*
X4225036Y-516636D01*
X4225036Y-554989D01*
D10*
X2379979Y-850900D02*
G01*
X2501900Y-850900D01*
X2573781Y-779018D01*
X2573781Y-613918D01*
X2628900Y-558800D01*
X3035300Y-558800D01*
X3098038Y-621537D01*
X3098038Y-710437D01*
X3162300Y-774700D01*
X3162300Y-889000D01*
D11*
X8509000Y-1524000D02*
G01*
X8509000Y-1604998D01*
D10*
X3886200Y-1282700D02*
G01*
X3898900Y-1282700D01*
X4229100Y-1612900D01*
X4229100Y-1706879D01*
X4229100Y-1706879D02*
G01*
X4229100Y-1816100D01*
X4229100Y-1854200D01*
X2379979Y-1104900D02*
G01*
X2565400Y-1104900D01*
X2628900Y-1168400D01*
X2628900Y-1244600D01*
X2705100Y-1320800D01*
X2806700Y-1320800D01*
X3098800Y-1612900D01*
X3098800Y-1706879D01*
X1694931Y-977900D02*
G01*
X1785620Y-977900D01*
X1028700Y-1739900D02*
G01*
X1028700Y-1775002D01*
X1706493Y-1104900D02*
G01*
X1785620Y-1104900D01*
D12*
X1295400Y-1775002D02*
G01*
X1295400Y-1716699D01*
D13*
X926823Y-1640842D02*
G01*
X896160Y-1640842D01*
X1747169Y-1231900D02*
G01*
X1785620Y-1231900D01*
X1785620Y-1358900D02*
G01*
X1746412Y-1358900D01*
X1560829Y-1617218D02*
G01*
X1562100Y-1774952D01*
X1042131Y-352066D02*
G01*
X910866Y-352066D01*
X1193800Y-63500D02*
G01*
X1308100Y-63500D01*
X1193800Y-63500D02*
G01*
X1168400Y-63500D01*
X1422400Y-177800D02*
G01*
X1422400Y-215900D01*
X1663700Y-520700D02*
G01*
X1471421Y-316229D01*
X1663700Y-520700D02*
G01*
X1739900Y-596900D01*
X1785620Y-596900D01*
D11*
X2169922Y-322579D02*
G01*
X2169922Y-419100D01*
X2195322Y-444500D01*
X2413000Y-444500D01*
X2425700Y-444500D01*
D10*
X2501900Y-533400D02*
G01*
X2527300Y-508000D01*
X3873500Y-508000D01*
X3962400Y-596900D01*
D11*
X5245100Y-203200D02*
G01*
X5245100Y-622300D01*
X4774996Y-554989D02*
G01*
X4815001Y-514985D01*
X4931994Y-514985D01*
X4225010Y-554989D02*
G01*
X4185005Y-514985D01*
X4068013Y-514985D01*
D10*
X3708400Y-774700D02*
G01*
X3759200Y-825500D01*
X3759200Y-1130300D01*
X3619500Y-1270000D01*
X3416300Y-1270000D01*
X2140102Y-1663700D02*
G01*
X2133600Y-1670202D01*
X2133600Y-1828800D01*
D11*
X2387600Y-1358900D02*
G01*
X2149614Y-1358900D01*
X1785620Y-1485900D02*
G01*
X2006600Y-1485900D01*
X2006600Y-1397000D01*
D10*
X2032000Y-812800D02*
G01*
X2032000Y-647700D01*
D11*
X2006600Y-1244600D02*
G01*
X2142644Y-1244600D01*
D10*
X2379979Y-1358900D02*
G01*
X2501900Y-1358900D01*
X2603500Y-1460500D01*
X2743200Y-1460500D01*
X2844800Y-1562100D01*
X2844800Y-1706879D01*
X2489200Y-1231900D02*
G01*
X2527300Y-1231900D01*
X2565400Y-1270000D01*
X2565400Y-1308100D01*
X2641600Y-1384300D01*
X2768600Y-1384300D01*
X2971800Y-1587500D01*
X2971800Y-1706879D01*
X3352800Y-1706879D02*
G01*
X3352800Y-1587500D01*
X3314700Y-1549400D01*
X3289300Y-1549400D01*
D11*
X4931994Y-144983D02*
G01*
X4928377Y-148600D01*
X4928377Y-368300D01*
X4068063Y-145034D02*
G01*
X4069841Y-368300D01*
X6495795Y-1905000D02*
G01*
X8216900Y-1905000D01*
D10*
X6438900Y-1739900D02*
G01*
X6413500Y-1714500D01*
X6297599Y-1714500D01*
X5791200Y-1790700D02*
G01*
X5684113Y-1683613D01*
X5633313Y-1683613D01*
X6102604Y-1445768D02*
G01*
X6097600Y-1450771D01*
X6097600Y-1714500D01*
X5491881Y-1542188D02*
G01*
X5588302Y-1445768D01*
X5683504Y-1445768D01*
X5873495Y-1445768D02*
G01*
X5873495Y-1867067D01*
X5911428Y-1905000D01*
X6292595Y-1445768D02*
G01*
X6292595Y-1517395D01*
X6311900Y-1536700D01*
X6528308Y-1536700D01*
X6528308Y-1905000D01*
X5575300Y-1116076D02*
G01*
X5751575Y-1116076D01*
X5778500Y-1143000D01*
X5778500Y-1195831D01*
X6197600Y-1195831D02*
G01*
X6197600Y-1143000D01*
X6224524Y-1116076D01*
X6426200Y-1116076D01*
X5575300Y-915995D02*
G01*
X5696204Y-795091D01*
X5696204Y-709168D01*
X6426200Y-916000D02*
G01*
X6426200Y-328599D01*
X6292595Y-535431D02*
G01*
X6292595Y-462203D01*
X6426200Y-328599D01*
X6197600Y-785368D02*
G01*
X6197600Y-965200D01*
X6172200Y-990600D01*
X6007100Y-990600D01*
X5886195Y-709168D02*
G01*
X5971031Y-709168D01*
X6102604Y-577595D01*
X6102604Y-535431D01*
X6426200Y-101600D02*
G01*
X5575300Y-101600D01*
X6102604Y-535431D02*
G01*
X6102604Y-450595D01*
X6170168Y-383031D01*
X6170168Y-101600D01*
X5791200Y-459231D02*
G01*
X5791200Y-355600D01*
X5880100Y-266700D01*
X5918200Y-266700D01*
D11*
X8185658Y-114300D02*
G01*
X6426200Y-114300D01*
X6426200Y-128523D01*
X8300008Y-525015D02*
G01*
X8305800Y-228600D01*
X4991100Y-1498600D02*
G01*
X5054600Y-1562100D01*
X5054600Y-1828800D01*
X4991100Y-1892300D01*
X4991100Y-1498600D02*
G01*
X4921402Y-1568297D01*
X4914900Y-1568297D01*
D10*
X2717800Y-1112520D02*
G01*
X2717800Y-1231900D01*
X2743200Y-1257300D01*
X2870200Y-1257300D01*
X3225800Y-1612900D01*
X3225800Y-1706879D01*
D14*
X3009900Y-1282700D02*
G01*
X2952750Y-1341120D01*
D10*
X3848100Y-1112520D02*
G01*
X3848100Y-1130300D01*
X3986022Y-1268221D01*
X4025900Y-1295400D01*
X4254500Y-1524000D01*
X4356100Y-1524000D01*
X4356100Y-1706879D01*
X5575300Y-328599D02*
G01*
X5575300Y-915995D01*
D11*
X5245100Y-622300D02*
G01*
X5245100Y-1625600D01*
X5524500Y-1905000D01*
X6483101Y-1905000D01*
X4652009Y-554989D02*
G01*
X4652009Y-660400D01*
X4690109Y-698500D01*
X4965700Y-698500D01*
X5143500Y-876300D01*
X5143500Y-1841500D01*
X5207000Y-1905000D01*
X5308600Y-1905000D01*
X4775200Y-368300D02*
G01*
X4991100Y-368300D01*
X5245100Y-622300D01*
X5245100Y-203200D01*
D15*
X2319980Y-1485900D02*
G01*
X2439979Y-1485900D01*
X2319980Y-1358900D02*
G01*
X2439979Y-1358900D01*
X2319980Y-1231900D02*
G01*
X2439979Y-1231900D01*
X2319980Y-1104900D02*
G01*
X2439979Y-1104900D01*
X2319980Y-977900D02*
G01*
X2439979Y-977900D01*
X2319980Y-850900D02*
G01*
X2439979Y-850900D01*
X2319980Y-723900D02*
G01*
X2439979Y-723900D01*
X2319980Y-596900D02*
G01*
X2439979Y-596900D01*
X1725620Y-1485900D02*
G01*
X1845619Y-1485900D01*
X1725620Y-1358900D02*
G01*
X1845619Y-1358900D01*
X1725620Y-1231900D02*
G01*
X1845619Y-1231900D01*
X1725620Y-1104900D02*
G01*
X1845619Y-1104900D01*
X1725620Y-977900D02*
G01*
X1845619Y-977900D01*
X1725620Y-850900D02*
G01*
X1845619Y-850900D01*
X1725620Y-723900D02*
G01*
X1845619Y-723900D01*
X1725620Y-596900D02*
G01*
X1845619Y-596900D01*
X2717800Y-1646880D02*
G01*
X2717800Y-1766879D01*
X2844800Y-1646880D02*
G01*
X2844800Y-1766879D01*
X2971800Y-1646880D02*
G01*
X2971800Y-1766879D01*
X3098800Y-1646880D02*
G01*
X3098800Y-1766879D01*
X3225800Y-1646880D02*
G01*
X3225800Y-1766879D01*
X3352800Y-1646880D02*
G01*
X3352800Y-1766879D01*
X3479800Y-1646880D02*
G01*
X3479800Y-1766879D01*
X3606800Y-1646880D02*
G01*
X3606800Y-1766879D01*
X2717800Y-1052520D02*
G01*
X2717800Y-1172519D01*
X2844800Y-1052520D02*
G01*
X2844800Y-1172519D01*
X2971800Y-1052520D02*
G01*
X2971800Y-1172519D01*
X3098800Y-1052520D02*
G01*
X3098800Y-1172519D01*
X3225800Y-1052520D02*
G01*
X3225800Y-1172519D01*
X3352800Y-1052520D02*
G01*
X3352800Y-1172519D01*
X3479800Y-1052520D02*
G01*
X3479800Y-1172519D01*
X3606800Y-1052520D02*
G01*
X3606800Y-1172519D01*
X3848100Y-1646880D02*
G01*
X3848100Y-1766879D01*
X3975100Y-1646880D02*
G01*
X3975100Y-1766879D01*
X4102100Y-1646880D02*
G01*
X4102100Y-1766879D01*
X4229100Y-1646880D02*
G01*
X4229100Y-1766879D01*
X4356100Y-1646880D02*
G01*
X4356100Y-1766879D01*
X4483100Y-1646880D02*
G01*
X4483100Y-1766879D01*
X4610100Y-1646880D02*
G01*
X4610100Y-1766879D01*
X4737100Y-1646880D02*
G01*
X4737100Y-1766879D01*
X3848100Y-1052520D02*
G01*
X3848100Y-1172519D01*
X3975100Y-1052520D02*
G01*
X3975100Y-1172519D01*
X4102100Y-1052520D02*
G01*
X4102100Y-1172519D01*
X4229100Y-1052520D02*
G01*
X4229100Y-1172519D01*
X4356100Y-1052520D02*
G01*
X4356100Y-1172519D01*
X4483100Y-1052520D02*
G01*
X4483100Y-1172519D01*
X4610100Y-1052520D02*
G01*
X4610100Y-1172519D01*
X4737100Y-1052520D02*
G01*
X4737100Y-1172519D01*
D17*
G01*
X1028700Y-203200D03*
G01*
X1295400Y-203200D03*
G01*
X762000Y-203200D03*
G01*
X762000Y-1775002D03*
G01*
X1028700Y-1775002D03*
G01*
X1295400Y-1775002D03*
G01*
X1562100Y-1775002D03*
G01*
X1562100Y-203200D03*
G01*
X2717800Y-685800D03*
G01*
X2882900Y-863600D03*
G01*
X2971800Y-685800D03*
G01*
X3225800Y-660400D03*
G01*
X3352800Y-863600D03*
G01*
X3479800Y-660400D03*
G01*
X3606800Y-863600D03*
G01*
X5003800Y-1320800D03*
G01*
X4991100Y-1117600D03*
G01*
X4902200Y-914400D03*
G01*
X4699000Y-863600D03*
G01*
X4470400Y-863600D03*
G01*
X4216400Y-863600D03*
G01*
X3975100Y-863600D03*
G36*
X5170098Y-78198D02*
G01*
X5320098Y-78198D01*
X5320098Y-328201D01*
X5170098Y-328201D01*
G37*
G36*
X1960100Y-1618698D02*
G01*
X2040100Y-1618698D01*
X2040100Y-1708701D01*
X1960100Y-1708701D01*
G37*
G36*
X2100099Y-1618698D02*
G01*
X2180099Y-1618698D01*
X2180099Y-1708701D01*
X2100099Y-1708701D01*
G37*
G36*
X3344400Y-1847298D02*
G01*
X3424400Y-1847298D01*
X3424400Y-1937301D01*
X3344400Y-1937301D01*
G37*
G36*
X3484399Y-1847298D02*
G01*
X3564399Y-1847298D01*
X3564399Y-1937301D01*
X3484399Y-1937301D01*
G37*
D20*
G01*
X4914900Y-1568297D03*
G01*
X4914900Y-1708302D03*
D21*
G01*
X5791200Y-459231D03*
G01*
X5886195Y-709168D03*
G01*
X5696204Y-709168D03*
G01*
X5778500Y-1195831D03*
G01*
X5873495Y-1445768D03*
G01*
X5683504Y-1445768D03*
D22*
G01*
X5575300Y-1115999D03*
G01*
X5575300Y-916000D03*
G01*
X5575300Y-328599D03*
G01*
X5575300Y-128600D03*
G36*
X5472442Y-1632346D02*
G01*
X5401734Y-1561635D01*
X5511335Y-1452034D01*
X5582046Y-1522742D01*
G37*
G36*
X5613864Y-1773765D02*
G01*
X5543153Y-1703057D01*
X5652757Y-1593453D01*
X5723465Y-1664164D01*
G37*
D23*
G01*
X6097600Y-1714500D03*
G01*
X6297599Y-1714500D03*
D22*
G01*
X6426200Y-328599D03*
G01*
X6426200Y-128600D03*
G01*
X6426200Y-1115999D03*
G01*
X6426200Y-916000D03*
G36*
X6162598Y-722868D02*
G01*
X6232601Y-722868D01*
X6232601Y-847867D01*
X6162598Y-847867D01*
G37*
G36*
X6067602Y-472932D02*
G01*
X6137605Y-472932D01*
X6137605Y-597931D01*
X6067602Y-597931D01*
G37*
G36*
X6257594Y-472932D02*
G01*
X6327597Y-472932D01*
X6327597Y-597931D01*
X6257594Y-597931D01*
G37*
D21*
G01*
X6197600Y-1195831D03*
G01*
X6292595Y-1445768D03*
G01*
X6102604Y-1445768D03*
G36*
X1788899Y-212501D02*
G01*
X1858901Y-212501D01*
X1858901Y-332501D01*
X1788899Y-332501D01*
G37*
G36*
X2128898Y-212501D02*
G01*
X2198900Y-212501D01*
X2198900Y-332501D01*
X2128898Y-332501D01*
G37*
D25*
G01*
X2203907Y-47497D03*
G01*
X1783892Y-47497D03*
D26*
G01*
X1993900Y-302488D03*
G36*
X2494998Y-212501D02*
G01*
X2565001Y-212501D01*
X2565001Y-332501D01*
X2494998Y-332501D01*
G37*
G36*
X2834998Y-212501D02*
G01*
X2905000Y-212501D01*
X2905000Y-332501D01*
X2834998Y-332501D01*
G37*
D25*
G01*
X2910001Y-47497D03*
G01*
X2490012Y-47497D03*
D26*
G01*
X2699994Y-302488D03*
G36*
X3194999Y-212501D02*
G01*
X3265002Y-212501D01*
X3265002Y-332501D01*
X3194999Y-332501D01*
G37*
G36*
X3534999Y-212501D02*
G01*
X3605001Y-212501D01*
X3605001Y-332501D01*
X3534999Y-332501D01*
G37*
D25*
G01*
X3610000Y-47497D03*
G01*
X3190011Y-47497D03*
D26*
G01*
X3399993Y-302488D03*
D27*
G01*
X4774996Y-554989D03*
D28*
G01*
X4652009Y-554989D03*
D24*
G01*
X4550003Y-554989D03*
G01*
X4450003Y-554989D03*
D28*
G01*
X4347997Y-554989D03*
D27*
G01*
X4225010Y-554989D03*
D29*
G01*
X5918200Y-266700D03*
G01*
X6007100Y-990600D03*
D30*
G01*
X5118100Y-817702D03*
G01*
X5118100Y-477697D03*
D13*
G75*
G01*
X1590271Y-1540495D02*
G03*
X1667706Y-1437607I-558319J500780D01*
D11*
G75*
G01*
X8509000Y-1524000D02*
G03*
X8309000Y-1324000I-200000J0D01*
G75*
G01*
X8209984Y-1904997D02*
G03*
X8509983Y-1604998I0J299999D01*
D13*
G75*
G01*
X926823Y-1640843D02*
G03*
X1643858Y-1028974I70127J643893D01*
G75*
G01*
X896160Y-1640843D02*
G03*
X762000Y-1775003I0J-134160D01*
G75*
G01*
X1643858Y-1028974D02*
G02*
X1694932Y-977900I51074J0D01*
G75*
G01*
X1079500Y-1689100D02*
G03*
X1682582Y-1128812I-83842J694962D01*
G75*
G01*
X1079500Y-1689100D02*
G03*
X1028700Y-1739900I0J-50800D01*
G75*
G01*
X1682582Y-1128812D02*
G02*
X1706494Y-1104900I23912J0D01*
G75*
G01*
X1342019Y-1670080D02*
G03*
X1681526Y-1297544I-352350J662080D01*
G75*
G01*
X1256043Y-1753979D02*
G02*
X1343139Y-1669265I176406J-94238D01*
G75*
G01*
X1680997Y-1297998D02*
G02*
X1784726Y-1239149I91477J-40398D01*
G75*
G01*
X1591996Y-1538996D02*
G03*
X1560904Y-1617266I68748J-72620D01*
G75*
G01*
X1782188Y-1347533D02*
G03*
X1665668Y-1440967I57808J-191464D01*
G75*
G01*
X1612900Y-762000D02*
G03*
X1042132Y-352067I-602792J-236975D01*
G75*
G01*
X1611503Y-760308D02*
G03*
X1779115Y-835655I118554J39625D01*
G75*
G01*
X1643710Y-670781D02*
G03*
X1377069Y-367881I-595295J-255224D01*
G75*
G01*
X1375997Y-368000D02*
G02*
X1295161Y-234897I69164J133102D01*
G75*
G01*
X1640997Y-665998D02*
G03*
X1732582Y-725848I91586J40150D01*
G75*
G01*
X910867Y-352067D02*
G02*
X762000Y-203200I0J148867D01*
G75*
G01*
X1308100Y-63500D02*
G02*
X1422400Y-177800I0J-114300D01*
G75*
G01*
X1168400Y-63500D02*
G03*
X1028700Y-203200I0J-139700D01*
G75*
G01*
X1422400Y-215900D02*
G03*
X1471430Y-316149I127000J-1D01*
D11*
G75*
G01*
X8191500Y-114300D02*
G02*
X8305800Y-228600I0J-114300D01*
D31*
G01*
X2208911Y-142519D03*
G01*
X1778888Y-142519D03*
G01*
X2915031Y-142519D03*
G01*
X2485009Y-142519D03*
G01*
X3615004Y-142519D03*
G01*
X3184982Y-142519D03*
D32*
G01*
X8300008Y-1575003D03*
G01*
X8300008Y-1325016D03*
G01*
X8300008Y-775004D03*
G01*
X8300008Y-525018D03*
D16*
G01*
X1993900Y-177800D03*
G01*
X2705100Y-177800D03*
G01*
X3403600Y-177800D03*
G01*
X2717800Y-1866900D03*
G01*
X4483100Y-1879600D03*
G01*
X2971800Y-1892300D03*
G01*
X4102100Y-1854200D03*
G01*
X3149600Y-1828800D03*
G01*
X4229100Y-1854200D03*
G01*
X2628900Y-1612900D03*
G01*
X3289300Y-1549400D03*
G01*
X3162300Y-889000D03*
G01*
X6438900Y-1739900D03*
G01*
X5791200Y-1790700D03*
G01*
X2235200Y-1270000D03*
G01*
X2006600Y-1397000D03*
G01*
X2197100Y-596900D03*
G01*
X2501900Y-533400D03*
G01*
X3962400Y-596900D03*
G01*
X2247900Y-723900D03*
G01*
X1968500Y-533400D03*
G01*
X5308600Y-1905000D03*
G01*
X3009900Y-1282700D03*
G01*
X3886200Y-1282700D03*
G01*
X3759200Y-1346200D03*
G01*
X3708400Y-774700D03*
G01*
X3416300Y-1270000D03*
G01*
X3416300Y-1460500D03*
G01*
X2425700Y-444500D03*
G01*
X2235200Y-812800D03*
G01*
X5245100Y-622300D03*
G01*
X3962400Y-469900D03*
G01*
X2133600Y-1828800D03*
G01*
X2032000Y-812800D03*
G01*
X2032000Y-647700D03*
G01*
X2006600Y-1244600D03*
G01*
X4991100Y-1498600D03*
G01*
X4991100Y-1892300D03*
G01*
X2273300Y-1689100D03*
G01*
X469900Y-1638300D03*
G01*
X393700Y-482600D03*
D31*
X4068013Y-184983D02*
G01*
X4068013Y-104983D01*
X4931994Y-184983D02*
G01*
X4931994Y-104983D01*
X4068013Y-569986D02*
G01*
X4068013Y-459986D01*
X4931994Y-569986D02*
G01*
X4931994Y-459986D01*
M02*
