G04 Layer: TopLayer*
G04 EasyEDA v6.4.24, 2021-09-25T18:25:05+02:00*
G04 d15503250396465d85bfe37af418053a,f5a38c858c354eb5b90fd3f81420cce3,10*
G04 Gerber Generator version 0.2*
G04 Scale: 100 percent, Rotated: No, Reflected: No *
G04 Dimensions in millimeters *
G04 leading zeros omitted , absolute positions ,4 integer and 5 decimal *
%FSLAX45Y45*%
%MOMM*%

%ADD10C,0.2540*%
%ADD11C,0.5080*%
%ADD12C,0.1500*%
%ADD13C,0.2000*%
%ADD14C,0.2050*%
%ADD15C,0.6000*%
%ADD16C,0.6096*%
%ADD17C,1.5000*%
%ADD20R,0.9000X0.8000*%
%ADD21R,0.7000X1.2500*%
%ADD22R,1.5500X1.0000*%
%ADD23R,1.0000X1.5500*%
%ADD24R,0.7000X1.2000*%
%ADD25R,1.1000X0.7000*%
%ADD26R,1.3000X1.0000*%
%ADD27R,0.9000X1.2000*%
%ADD28R,0.8000X1.2000*%
%ADD29R,2.5000X1.5000*%
%ADD30C,1.0000*%
%ADD31C,1.5240*%

%LPD*%
G36*
X2856331Y-415035D02*
G01*
X2852420Y-414274D01*
X2849118Y-412038D01*
X2846933Y-408787D01*
X2846171Y-404876D01*
X2846171Y-302818D01*
X2845257Y-298704D01*
X2845257Y-269494D01*
X2846120Y-265430D01*
X2848457Y-262077D01*
X2852013Y-259943D01*
X2856077Y-259334D01*
X2860040Y-260451D01*
X2862478Y-261670D01*
X2876956Y-267055D01*
X2891942Y-270713D01*
X2907284Y-272542D01*
X2922727Y-272542D01*
X2938018Y-270713D01*
X2953054Y-267055D01*
X2967482Y-261670D01*
X2981248Y-254660D01*
X2994050Y-246024D01*
X3005734Y-235966D01*
X3016148Y-224586D01*
X3025140Y-212039D01*
X3032607Y-198526D01*
X3038398Y-184200D01*
X3040176Y-177596D01*
X3042259Y-173685D01*
X3045714Y-171043D01*
X3049981Y-170078D01*
X3054299Y-171043D01*
X3057753Y-173685D01*
X3059785Y-177596D01*
X3061614Y-184200D01*
X3067405Y-198526D01*
X3074873Y-212039D01*
X3083864Y-224586D01*
X3094278Y-235966D01*
X3105962Y-246024D01*
X3110230Y-248920D01*
X3112668Y-251155D01*
X3114192Y-254101D01*
X3114751Y-257352D01*
X3114751Y-332130D01*
X3115564Y-343916D01*
X3118002Y-355092D01*
X3122015Y-365810D01*
X3127502Y-375869D01*
X3134360Y-385064D01*
X3142437Y-393141D01*
X3147263Y-396748D01*
X3150057Y-399897D01*
X3151276Y-403910D01*
X3150819Y-408076D01*
X3148685Y-411734D01*
X3145282Y-414172D01*
X3141167Y-415035D01*
X2958846Y-415035D01*
X2954731Y-414172D01*
X2951327Y-411734D01*
X2949194Y-408076D01*
X2948686Y-403910D01*
X2949956Y-399897D01*
X2952750Y-396748D01*
X2957525Y-393141D01*
X2965653Y-385064D01*
X2972511Y-375869D01*
X2977997Y-365810D01*
X2982010Y-355092D01*
X2984398Y-343916D01*
X2985262Y-332130D01*
X2985262Y-308864D01*
X2893872Y-308864D01*
X2893872Y-404876D01*
X2893060Y-408787D01*
X2890875Y-412038D01*
X2887573Y-414274D01*
X2883712Y-415035D01*
G37*

%LPD*%
G36*
X2088692Y-551434D02*
G01*
X2084679Y-550570D01*
X2081428Y-548182D01*
X2079294Y-544677D01*
X2078736Y-540664D01*
X2079243Y-533400D01*
X2078329Y-519226D01*
X2075586Y-505307D01*
X2071116Y-491845D01*
X2064969Y-479043D01*
X2057247Y-467156D01*
X2048052Y-456387D01*
X2041499Y-450443D01*
X2039112Y-447192D01*
X2038197Y-443230D01*
X2038857Y-439267D01*
X2041042Y-435864D01*
X2044395Y-433578D01*
X2048357Y-432765D01*
X2058517Y-432765D01*
X2070303Y-431901D01*
X2081530Y-429514D01*
X2092248Y-425500D01*
X2102256Y-420014D01*
X2110435Y-413918D01*
X2113635Y-412292D01*
X2117242Y-411886D01*
X2129282Y-412750D01*
X2140051Y-412750D01*
X2140051Y-302818D01*
X2139188Y-298704D01*
X2139188Y-269494D01*
X2140000Y-265430D01*
X2142388Y-262077D01*
X2145893Y-259943D01*
X2150008Y-259334D01*
X2153970Y-260451D01*
X2156409Y-261670D01*
X2170836Y-267055D01*
X2185873Y-270713D01*
X2201164Y-272542D01*
X2216607Y-272542D01*
X2231948Y-270713D01*
X2246934Y-267055D01*
X2261412Y-261670D01*
X2275128Y-254660D01*
X2287930Y-246024D01*
X2299614Y-235966D01*
X2310028Y-224586D01*
X2319020Y-212039D01*
X2326487Y-198526D01*
X2332278Y-184200D01*
X2336342Y-169316D01*
X2336901Y-165658D01*
X2338324Y-161798D01*
X2341118Y-158851D01*
X2344877Y-157226D01*
X2348992Y-157226D01*
X2352751Y-158851D01*
X2355596Y-161798D01*
X2357018Y-165658D01*
X2357526Y-169316D01*
X2361590Y-184200D01*
X2367432Y-198526D01*
X2374849Y-212039D01*
X2383840Y-224586D01*
X2394254Y-235966D01*
X2405989Y-246024D01*
X2410256Y-248920D01*
X2412644Y-251155D01*
X2414219Y-254101D01*
X2414727Y-257352D01*
X2414727Y-332130D01*
X2415590Y-343916D01*
X2418029Y-355092D01*
X2421991Y-365810D01*
X2427478Y-375869D01*
X2434336Y-385064D01*
X2442464Y-393141D01*
X2451608Y-399999D01*
X2461666Y-405485D01*
X2469946Y-408584D01*
X2473452Y-410819D01*
X2475788Y-414324D01*
X2476550Y-418439D01*
X2475534Y-422503D01*
X2472944Y-425805D01*
X2469286Y-427837D01*
X2463647Y-429514D01*
X2450693Y-435254D01*
X2438552Y-442569D01*
X2427478Y-451459D01*
X2417572Y-461619D01*
X2409088Y-472998D01*
X2404313Y-481482D01*
X2402078Y-484225D01*
X2398979Y-486003D01*
X2395474Y-486613D01*
X2320290Y-486613D01*
X2306167Y-487527D01*
X2287524Y-491235D01*
X2231745Y-491235D01*
X2229459Y-490982D01*
X2214778Y-487578D01*
X2200656Y-486257D01*
X2186482Y-486664D01*
X2172462Y-488950D01*
X2158847Y-493014D01*
X2145893Y-498754D01*
X2133752Y-506069D01*
X2122678Y-514959D01*
X2112772Y-525119D01*
X2104288Y-536498D01*
X2100122Y-543915D01*
X2096058Y-548487D01*
X2092655Y-550722D01*
G37*

%LPC*%
G36*
X2187752Y-412750D02*
G01*
X2198522Y-412750D01*
X2210308Y-411937D01*
X2221484Y-409498D01*
X2232253Y-405485D01*
X2242261Y-399999D01*
X2251456Y-393141D01*
X2259533Y-385064D01*
X2266391Y-375869D01*
X2271877Y-365810D01*
X2275890Y-355092D01*
X2278329Y-343916D01*
X2279142Y-332130D01*
X2279142Y-308864D01*
X2187752Y-308864D01*
G37*

%LPD*%
G36*
X4095496Y-760831D02*
G01*
X4091482Y-759866D01*
X4088129Y-757377D01*
X4086402Y-755345D01*
X4073804Y-743762D01*
X4060037Y-733653D01*
X4045204Y-725068D01*
X4029557Y-718210D01*
X4014978Y-713638D01*
X4011523Y-711758D01*
X4009034Y-708660D01*
X4007916Y-704850D01*
X4008323Y-700938D01*
X4010253Y-697433D01*
X4013352Y-694944D01*
X4016705Y-693216D01*
X4020718Y-692099D01*
X4024884Y-692658D01*
X4030624Y-694791D01*
X4036669Y-696214D01*
X4036669Y-683209D01*
X4037533Y-679094D01*
X4039971Y-675690D01*
X4041952Y-673912D01*
X4051147Y-663143D01*
X4058869Y-651256D01*
X4065015Y-638454D01*
X4069486Y-624992D01*
X4072229Y-611073D01*
X4073144Y-596900D01*
X4072229Y-582726D01*
X4069486Y-568807D01*
X4065015Y-555345D01*
X4058869Y-542544D01*
X4051147Y-530656D01*
X4041952Y-519887D01*
X4031437Y-510336D01*
X4019804Y-502208D01*
X4007205Y-495655D01*
X3993896Y-490778D01*
X3988765Y-489559D01*
X3986072Y-488543D01*
X3983837Y-486867D01*
X3970477Y-473506D01*
X3968242Y-470204D01*
X3967479Y-466293D01*
X3968242Y-462432D01*
X3970477Y-459130D01*
X3973779Y-456895D01*
X3977640Y-456133D01*
X4036669Y-456133D01*
X4036669Y-333806D01*
X4030624Y-335229D01*
X4016400Y-340410D01*
X4002887Y-347218D01*
X3990238Y-355498D01*
X3978605Y-365252D01*
X3968242Y-376275D01*
X3959199Y-388416D01*
X3951630Y-401523D01*
X3945636Y-415442D01*
X3942283Y-426516D01*
X3940556Y-429920D01*
X3937711Y-432409D01*
X3934104Y-433679D01*
X3930345Y-433527D01*
X3926840Y-432003D01*
X3919220Y-427075D01*
X3910380Y-422656D01*
X3907739Y-421589D01*
X3898392Y-418439D01*
X3895699Y-417728D01*
X3885996Y-415899D01*
X3883202Y-415543D01*
X3873246Y-415035D01*
X3658819Y-415035D01*
X3654704Y-414172D01*
X3651300Y-411734D01*
X3649167Y-408076D01*
X3648710Y-403910D01*
X3649979Y-399897D01*
X3652723Y-396748D01*
X3657549Y-393141D01*
X3665626Y-385064D01*
X3672484Y-375869D01*
X3677970Y-365810D01*
X3681984Y-355092D01*
X3684422Y-343916D01*
X3685286Y-332130D01*
X3685286Y-308864D01*
X3593846Y-308864D01*
X3593846Y-404876D01*
X3593084Y-408787D01*
X3590899Y-412038D01*
X3587597Y-414274D01*
X3583686Y-415035D01*
X3556304Y-415035D01*
X3552444Y-414274D01*
X3549142Y-412038D01*
X3546906Y-408787D01*
X3546144Y-404876D01*
X3546144Y-302818D01*
X3545281Y-298704D01*
X3545281Y-269494D01*
X3546094Y-265430D01*
X3548481Y-262077D01*
X3551986Y-259943D01*
X3556101Y-259334D01*
X3560064Y-260451D01*
X3562502Y-261670D01*
X3576980Y-267055D01*
X3591966Y-270713D01*
X3607308Y-272542D01*
X3622700Y-272542D01*
X3638042Y-270713D01*
X3653028Y-267055D01*
X3667506Y-261670D01*
X3681222Y-254660D01*
X3694023Y-246024D01*
X3705707Y-235966D01*
X3716121Y-224586D01*
X3725113Y-212039D01*
X3732580Y-198526D01*
X3738372Y-184200D01*
X3742436Y-169316D01*
X3744722Y-154076D01*
X3745179Y-138633D01*
X3743807Y-123291D01*
X3741318Y-111404D01*
X3741115Y-108559D01*
X3744417Y-93929D01*
X3745280Y-82143D01*
X3745280Y-35814D01*
X3746042Y-31902D01*
X3748227Y-28651D01*
X3751529Y-26416D01*
X3755440Y-25654D01*
X3946093Y-25654D01*
X3950208Y-26517D01*
X3953611Y-29006D01*
X3955745Y-32664D01*
X3956151Y-36880D01*
X3954881Y-40894D01*
X3951630Y-46532D01*
X3945636Y-60452D01*
X3941267Y-74980D01*
X3938625Y-89865D01*
X3938422Y-93624D01*
X4036669Y-93624D01*
X4036669Y-35814D01*
X4037431Y-31902D01*
X4039615Y-28651D01*
X4042918Y-26416D01*
X4046829Y-25654D01*
X4089196Y-25654D01*
X4093057Y-26416D01*
X4096359Y-28651D01*
X4098594Y-31902D01*
X4099356Y-35814D01*
X4099356Y-93624D01*
X4197604Y-93624D01*
X4197350Y-89865D01*
X4194759Y-74980D01*
X4190390Y-60452D01*
X4184396Y-46532D01*
X4181144Y-40894D01*
X4179824Y-36880D01*
X4180281Y-32664D01*
X4182364Y-29006D01*
X4185818Y-26517D01*
X4189933Y-25654D01*
X4810048Y-25654D01*
X4814214Y-26517D01*
X4817618Y-29006D01*
X4819751Y-32664D01*
X4820158Y-36880D01*
X4818888Y-40894D01*
X4815586Y-46532D01*
X4809591Y-60452D01*
X4805273Y-74980D01*
X4802632Y-89865D01*
X4802428Y-93624D01*
X4900625Y-93624D01*
X4900625Y-35814D01*
X4901438Y-31902D01*
X4903622Y-28651D01*
X4906924Y-26416D01*
X4910785Y-25654D01*
X4953203Y-25654D01*
X4957064Y-26416D01*
X4960366Y-28651D01*
X4962601Y-31902D01*
X4963363Y-35814D01*
X4963363Y-93624D01*
X5061610Y-93624D01*
X5061356Y-89865D01*
X5058714Y-74980D01*
X5054396Y-60452D01*
X5048402Y-46532D01*
X5045151Y-40894D01*
X5043830Y-36880D01*
X5044287Y-32664D01*
X5046370Y-29006D01*
X5049774Y-26517D01*
X5053939Y-25654D01*
X5110327Y-25654D01*
X5114239Y-26416D01*
X5117541Y-28651D01*
X5119725Y-31902D01*
X5120487Y-35814D01*
X5119725Y-39725D01*
X5117541Y-42976D01*
X5109464Y-51054D01*
X5102606Y-60198D01*
X5097119Y-70256D01*
X5093106Y-80975D01*
X5090668Y-92202D01*
X5089855Y-103987D01*
X5089855Y-159766D01*
X5201259Y-159766D01*
X5201259Y-35814D01*
X5202021Y-31902D01*
X5204206Y-28651D01*
X5207508Y-26416D01*
X5211419Y-25654D01*
X5267350Y-25654D01*
X5271262Y-26466D01*
X5274614Y-28702D01*
X5276799Y-32054D01*
X5277510Y-35966D01*
X5267147Y-727557D01*
X5266182Y-731672D01*
X5263692Y-735025D01*
X5259984Y-737108D01*
X5255768Y-737514D01*
X5251805Y-736142D01*
X5248706Y-733247D01*
X5247030Y-729386D01*
X5245557Y-721969D01*
X5241086Y-708863D01*
X5234990Y-696468D01*
X5227320Y-684987D01*
X5217972Y-674370D01*
X5167630Y-624027D01*
X5157012Y-614680D01*
X5145532Y-607009D01*
X5133136Y-600913D01*
X5120030Y-596442D01*
X5106466Y-593750D01*
X5092344Y-592836D01*
X5071668Y-592836D01*
X5067655Y-592023D01*
X5064302Y-589635D01*
X5062118Y-586130D01*
X5061559Y-582066D01*
X5062016Y-573836D01*
X4963363Y-573836D01*
X4963363Y-582676D01*
X4962601Y-586587D01*
X4960366Y-589838D01*
X4957064Y-592074D01*
X4953203Y-592836D01*
X4910785Y-592836D01*
X4906924Y-592074D01*
X4905857Y-591362D01*
X4798974Y-591362D01*
X4796434Y-592480D01*
X4793691Y-592836D01*
X4782413Y-592836D01*
X4778552Y-592074D01*
X4775250Y-589838D01*
X4773066Y-586587D01*
X4772253Y-582676D01*
X4772253Y-495350D01*
X4771440Y-483565D01*
X4769002Y-472389D01*
X4764989Y-461670D01*
X4759502Y-451612D01*
X4752644Y-442468D01*
X4749139Y-438912D01*
X4746904Y-435609D01*
X4746142Y-431749D01*
X4746142Y-414731D01*
X4730343Y-414731D01*
X4718558Y-415594D01*
X4713173Y-416763D01*
X4708855Y-416763D01*
X4703419Y-415594D01*
X4691634Y-414731D01*
X4612386Y-414731D01*
X4597704Y-415747D01*
X4584598Y-414731D01*
X4515358Y-414731D01*
X4503572Y-415594D01*
X4502150Y-415899D01*
X4497832Y-415899D01*
X4496409Y-415594D01*
X4484624Y-414731D01*
X4415383Y-414731D01*
X4400702Y-415747D01*
X4387596Y-414731D01*
X4308348Y-414731D01*
X4296562Y-415594D01*
X4291177Y-416763D01*
X4286859Y-416763D01*
X4281424Y-415594D01*
X4269638Y-414731D01*
X4253839Y-414731D01*
X4253839Y-431749D01*
X4253077Y-435609D01*
X4250893Y-438912D01*
X4247337Y-442468D01*
X4240479Y-451612D01*
X4234992Y-461670D01*
X4230979Y-472389D01*
X4228592Y-483565D01*
X4227728Y-495350D01*
X4227728Y-614629D01*
X4228592Y-626414D01*
X4230979Y-637590D01*
X4234992Y-648309D01*
X4242003Y-661060D01*
X4242562Y-663905D01*
X4243273Y-674166D01*
X4245965Y-687730D01*
X4248912Y-696518D01*
X4249470Y-700481D01*
X4248404Y-704342D01*
X4245914Y-707491D01*
X4242460Y-709472D01*
X4238447Y-709930D01*
X4220667Y-708406D01*
X4206595Y-708812D01*
X4202633Y-708101D01*
X4199229Y-705916D01*
X4196943Y-702614D01*
X4196130Y-698652D01*
X4196130Y-591362D01*
X4099356Y-591362D01*
X4099356Y-696214D01*
X4105351Y-694791D01*
X4119575Y-689610D01*
X4130446Y-684123D01*
X4133596Y-683158D01*
X4136847Y-683209D01*
X4139895Y-684276D01*
X4146651Y-687984D01*
X4157421Y-691997D01*
X4168597Y-694436D01*
X4171492Y-694639D01*
X4175404Y-695706D01*
X4178604Y-698296D01*
X4180535Y-701852D01*
X4180890Y-705916D01*
X4179620Y-709777D01*
X4176928Y-712825D01*
X4173270Y-714603D01*
X4170070Y-715416D01*
X4154017Y-721410D01*
X4138777Y-729132D01*
X4124451Y-738530D01*
X4111244Y-749401D01*
X4103065Y-757783D01*
X4099610Y-760120D01*
G37*

%LPC*%
G36*
X4963363Y-311200D02*
G01*
X4969357Y-309778D01*
X4983581Y-304596D01*
X4997145Y-297789D01*
X5009794Y-289458D01*
X5021376Y-279755D01*
X5031790Y-268732D01*
X5040833Y-256590D01*
X5048402Y-243433D01*
X5054396Y-229565D01*
X5058714Y-215036D01*
X5061356Y-200101D01*
X5061610Y-196342D01*
X4963363Y-196342D01*
G37*
G36*
X4099356Y-456133D02*
G01*
X4196130Y-456133D01*
X4196130Y-414731D01*
X4192930Y-413969D01*
X4189679Y-411835D01*
X4187444Y-408584D01*
X4184396Y-401523D01*
X4176826Y-388416D01*
X4167784Y-376275D01*
X4157370Y-365252D01*
X4145787Y-355498D01*
X4133138Y-347218D01*
X4119575Y-340410D01*
X4105351Y-335229D01*
X4099356Y-333806D01*
G37*
G36*
X4803851Y-456133D02*
G01*
X4900625Y-456133D01*
X4900625Y-333806D01*
X4894630Y-335229D01*
X4880406Y-340410D01*
X4866894Y-347218D01*
X4854244Y-355498D01*
X4842611Y-365252D01*
X4832248Y-376275D01*
X4823155Y-388416D01*
X4815586Y-401523D01*
X4812538Y-408584D01*
X4810506Y-411683D01*
X4807458Y-413816D01*
X4803851Y-414731D01*
G37*
G36*
X4963363Y-456133D02*
G01*
X5062016Y-456133D01*
X5061356Y-444855D01*
X5058714Y-429971D01*
X5054396Y-415442D01*
X5048402Y-401523D01*
X5040833Y-388416D01*
X5031790Y-376275D01*
X5021376Y-365252D01*
X5009794Y-355498D01*
X4997145Y-347218D01*
X4983581Y-340410D01*
X4969357Y-335229D01*
X4963363Y-333806D01*
G37*
G36*
X4036669Y-311200D02*
G01*
X4036669Y-196342D01*
X3938422Y-196342D01*
X3938625Y-200101D01*
X3941267Y-215036D01*
X3945636Y-229565D01*
X3951630Y-243433D01*
X3959199Y-256590D01*
X3968242Y-268732D01*
X3978605Y-279755D01*
X3990238Y-289458D01*
X4002887Y-297789D01*
X4016400Y-304596D01*
X4030624Y-309778D01*
G37*
G36*
X4099356Y-311200D02*
G01*
X4105351Y-309778D01*
X4119575Y-304596D01*
X4133138Y-297789D01*
X4145787Y-289458D01*
X4157370Y-279755D01*
X4167784Y-268732D01*
X4176826Y-256590D01*
X4184396Y-243433D01*
X4190390Y-229565D01*
X4194759Y-215036D01*
X4197350Y-200101D01*
X4197604Y-196342D01*
X4099356Y-196342D01*
G37*
G36*
X4900625Y-311200D02*
G01*
X4900625Y-196342D01*
X4802428Y-196342D01*
X4802632Y-200101D01*
X4805273Y-215036D01*
X4809591Y-229565D01*
X4815586Y-243433D01*
X4823155Y-256590D01*
X4832248Y-268732D01*
X4842611Y-279755D01*
X4854244Y-289458D01*
X4866894Y-297789D01*
X4880406Y-304596D01*
X4894630Y-309778D01*
G37*
G36*
X5170474Y-433882D02*
G01*
X5201259Y-433882D01*
X5201259Y-297434D01*
X5089855Y-297434D01*
X5089855Y-353212D01*
X5090668Y-364998D01*
X5093106Y-376224D01*
X5097119Y-386943D01*
X5102606Y-397002D01*
X5109464Y-406146D01*
X5117541Y-414223D01*
X5126736Y-421081D01*
X5136743Y-426567D01*
X5147513Y-430580D01*
X5158689Y-433019D01*
G37*

%LPD*%
G36*
X3844340Y-774954D02*
G01*
X3840581Y-774903D01*
X3837127Y-773531D01*
X3834434Y-771042D01*
X3831336Y-766876D01*
X3824732Y-759561D01*
X3818585Y-753414D01*
X3816807Y-751027D01*
X3811015Y-733145D01*
X3804869Y-720344D01*
X3797147Y-708456D01*
X3787952Y-697687D01*
X3777437Y-688136D01*
X3765804Y-680008D01*
X3753205Y-673455D01*
X3739896Y-668578D01*
X3726078Y-665378D01*
X3711956Y-664057D01*
X3697782Y-664464D01*
X3683762Y-666750D01*
X3670147Y-670814D01*
X3657193Y-676554D01*
X3649827Y-680974D01*
X3645712Y-682396D01*
X3641344Y-681939D01*
X3637584Y-679704D01*
X3635146Y-676046D01*
X3634435Y-671728D01*
X3635044Y-660400D01*
X3634130Y-643331D01*
X3631285Y-626465D01*
X3627729Y-613867D01*
X3627424Y-610158D01*
X3628440Y-606602D01*
X3630676Y-603605D01*
X3633825Y-601624D01*
X3637534Y-600964D01*
X3830777Y-600964D01*
X3834688Y-601726D01*
X3837990Y-603961D01*
X3852367Y-618337D01*
X3853992Y-620471D01*
X3855008Y-622909D01*
X3857294Y-631799D01*
X3862628Y-644956D01*
X3869588Y-657301D01*
X3878072Y-668680D01*
X3887978Y-678891D01*
X3899052Y-687730D01*
X3911193Y-695045D01*
X3921404Y-699566D01*
X3924655Y-701903D01*
X3926789Y-705256D01*
X3927449Y-709168D01*
X3926535Y-713028D01*
X3924249Y-716280D01*
X3920845Y-718413D01*
X3912717Y-721410D01*
X3897477Y-729132D01*
X3883151Y-738530D01*
X3869944Y-749401D01*
X3858006Y-761644D01*
X3850589Y-771194D01*
X3847795Y-773684D01*
G37*

%LPD*%
G36*
X317347Y-896721D02*
G01*
X313690Y-895350D01*
X310845Y-892759D01*
X309168Y-889253D01*
X305968Y-877062D01*
X296570Y-848715D01*
X285140Y-820978D01*
X271780Y-794105D01*
X256540Y-768248D01*
X239521Y-743559D01*
X220827Y-720090D01*
X200507Y-697992D01*
X178714Y-677418D01*
X155498Y-658368D01*
X131013Y-641045D01*
X109169Y-627735D01*
X106476Y-625398D01*
X104800Y-622198D01*
X104292Y-618642D01*
X105105Y-615137D01*
X109778Y-604012D01*
X128219Y-564946D01*
X148336Y-526745D01*
X170129Y-489458D01*
X193598Y-453186D01*
X218592Y-417982D01*
X245160Y-383946D01*
X273202Y-351078D01*
X302666Y-319532D01*
X333502Y-289306D01*
X365658Y-260451D01*
X399034Y-233070D01*
X433628Y-207213D01*
X469290Y-182880D01*
X506018Y-160172D01*
X543712Y-139090D01*
X582320Y-119735D01*
X619912Y-102870D01*
X624128Y-102006D01*
X628294Y-102920D01*
X631698Y-105460D01*
X633780Y-109169D01*
X634136Y-113436D01*
X632714Y-117500D01*
X625449Y-129285D01*
X618185Y-144780D01*
X612597Y-160934D01*
X608888Y-177647D01*
X607009Y-194665D01*
X607009Y-211734D01*
X608888Y-228752D01*
X612597Y-245465D01*
X618185Y-261620D01*
X625449Y-277114D01*
X634441Y-291642D01*
X644906Y-305155D01*
X656844Y-317398D01*
X670052Y-328269D01*
X684377Y-337667D01*
X699617Y-345389D01*
X715670Y-351383D01*
X721918Y-352958D01*
X724662Y-354126D01*
X726998Y-356006D01*
X731215Y-360781D01*
X733196Y-364032D01*
X733806Y-367842D01*
X732993Y-371551D01*
X730859Y-374751D01*
X727659Y-376885D01*
X714349Y-382625D01*
X681380Y-398983D01*
X649274Y-417118D01*
X618236Y-436930D01*
X588314Y-458470D01*
X559612Y-481533D01*
X532180Y-506120D01*
X506120Y-532180D01*
X481533Y-559612D01*
X458470Y-588314D01*
X436930Y-618236D01*
X417118Y-649274D01*
X398983Y-681380D01*
X382625Y-714349D01*
X368046Y-748233D01*
X355346Y-782777D01*
X344525Y-818032D01*
X335635Y-853744D01*
X328980Y-888593D01*
X327507Y-892200D01*
X324815Y-894994D01*
X321259Y-896569D01*
G37*

%LPD*%
G36*
X2605481Y-1019962D02*
G01*
X2601417Y-1019200D01*
X2590292Y-1015339D01*
X2587599Y-1014628D01*
X2577896Y-1012799D01*
X2575102Y-1012444D01*
X2565146Y-1011936D01*
X2557932Y-1011936D01*
X2554325Y-1011275D01*
X2551176Y-1009345D01*
X2548890Y-1006449D01*
X2547823Y-1002944D01*
X2548077Y-999236D01*
X2472486Y-999236D01*
X2453792Y-995527D01*
X2439670Y-994613D01*
X2320290Y-994613D01*
X2306167Y-995527D01*
X2287473Y-999236D01*
X2260041Y-999236D01*
X2256129Y-998474D01*
X2252827Y-996238D01*
X2250643Y-992936D01*
X2249881Y-989025D01*
X2250033Y-966673D01*
X2250795Y-962761D01*
X2253030Y-959510D01*
X2256282Y-957326D01*
X2260193Y-956564D01*
X2287473Y-956564D01*
X2306167Y-960272D01*
X2320290Y-961186D01*
X2439670Y-961186D01*
X2453792Y-960272D01*
X2472486Y-956564D01*
X2548077Y-956564D01*
X2544013Y-940155D01*
X2544470Y-936752D01*
X2545994Y-933703D01*
X2548534Y-931316D01*
X2558237Y-924814D01*
X2560421Y-923137D01*
X2567838Y-916432D01*
X2607513Y-876757D01*
X2610764Y-874572D01*
X2614676Y-873810D01*
X2618587Y-874572D01*
X2621838Y-876757D01*
X2624074Y-880059D01*
X2624836Y-883970D01*
X2624836Y-888746D01*
X2625344Y-898702D01*
X2625699Y-901496D01*
X2627528Y-911199D01*
X2628239Y-913892D01*
X2631389Y-923239D01*
X2632456Y-925880D01*
X2636875Y-934719D01*
X2638298Y-937158D01*
X2643835Y-945286D01*
X2649728Y-952093D01*
X2651810Y-955751D01*
X2652268Y-959967D01*
X2650947Y-963980D01*
X2647543Y-967587D01*
X2637434Y-977036D01*
X2628595Y-987704D01*
X2621178Y-999388D01*
X2615285Y-1011936D01*
X2612898Y-1016558D01*
X2609545Y-1019048D01*
G37*

%LPD*%
G36*
X2724353Y-1139647D02*
G01*
X2720492Y-1138834D01*
X2717190Y-1136650D01*
X2715006Y-1133348D01*
X2709824Y-1122680D01*
X2708402Y-1120241D01*
X2702864Y-1112113D01*
X2701137Y-1109878D01*
X2694432Y-1102461D01*
X2670505Y-1078534D01*
X2668270Y-1075232D01*
X2667508Y-1071321D01*
X2668270Y-1067460D01*
X2670505Y-1064158D01*
X2673756Y-1061923D01*
X2677668Y-1061161D01*
X2696464Y-1061161D01*
X2696464Y-1023670D01*
X2697226Y-1019759D01*
X2699410Y-1016457D01*
X2702712Y-1014272D01*
X2706624Y-1013510D01*
X2710484Y-1014272D01*
X2713786Y-1016457D01*
X2732227Y-1034897D01*
X2734513Y-1038504D01*
X2735173Y-1042720D01*
X2734513Y-1052830D01*
X2734513Y-1129487D01*
X2733751Y-1133348D01*
X2731566Y-1136650D01*
X2728264Y-1138834D01*
G37*

%LPD*%
G36*
X3170275Y-1547571D02*
G01*
X3165805Y-1547012D01*
X3161995Y-1544624D01*
X2899968Y-1282598D01*
X2897835Y-1279499D01*
X2896971Y-1275842D01*
X2897530Y-1272133D01*
X2899359Y-1268882D01*
X2903423Y-1265834D01*
X2906623Y-1264767D01*
X2909976Y-1264767D01*
X2913176Y-1265834D01*
X2924860Y-1272286D01*
X2937713Y-1277366D01*
X2951124Y-1280820D01*
X2964891Y-1282547D01*
X2978708Y-1282547D01*
X2992475Y-1280820D01*
X3005886Y-1277366D01*
X3018739Y-1272286D01*
X3030423Y-1265834D01*
X3033623Y-1264767D01*
X3036976Y-1264767D01*
X3040176Y-1265834D01*
X3051860Y-1272286D01*
X3064713Y-1277366D01*
X3078124Y-1280820D01*
X3091891Y-1282547D01*
X3105708Y-1282547D01*
X3119475Y-1280820D01*
X3132886Y-1277366D01*
X3145739Y-1272286D01*
X3157423Y-1265834D01*
X3160623Y-1264767D01*
X3163976Y-1264767D01*
X3167176Y-1265834D01*
X3178860Y-1272286D01*
X3191713Y-1277366D01*
X3205124Y-1280820D01*
X3218891Y-1282547D01*
X3232708Y-1282547D01*
X3246475Y-1280820D01*
X3259886Y-1277366D01*
X3272739Y-1272286D01*
X3284423Y-1265834D01*
X3287623Y-1264767D01*
X3290976Y-1264767D01*
X3294176Y-1265834D01*
X3300628Y-1269390D01*
X3303117Y-1271320D01*
X3304895Y-1273962D01*
X3305810Y-1277010D01*
X3307638Y-1291183D01*
X3311194Y-1304899D01*
X3316528Y-1318056D01*
X3323488Y-1330401D01*
X3331972Y-1341780D01*
X3341878Y-1351991D01*
X3348532Y-1357325D01*
X3350920Y-1360017D01*
X3352241Y-1363421D01*
X3352241Y-1367078D01*
X3350920Y-1370482D01*
X3348532Y-1373174D01*
X3341878Y-1378559D01*
X3331972Y-1388719D01*
X3323488Y-1400098D01*
X3316528Y-1412443D01*
X3311194Y-1425600D01*
X3309620Y-1431747D01*
X3308096Y-1434998D01*
X3305606Y-1437538D01*
X3302355Y-1439011D01*
X3298799Y-1439316D01*
X3292856Y-1438757D01*
X3278682Y-1439164D01*
X3264662Y-1441450D01*
X3251047Y-1445514D01*
X3238093Y-1451254D01*
X3225952Y-1458569D01*
X3214878Y-1467459D01*
X3204972Y-1477619D01*
X3196488Y-1488998D01*
X3189528Y-1501343D01*
X3184194Y-1514500D01*
X3180638Y-1528216D01*
X3179267Y-1538732D01*
X3177743Y-1542948D01*
X3174492Y-1546098D01*
G37*

%LPD*%
G36*
X3232708Y-1751126D02*
G01*
X3228848Y-1750517D01*
X3225546Y-1748485D01*
X3218637Y-1742236D01*
X3213404Y-1738579D01*
X3211068Y-1736343D01*
X3209594Y-1733448D01*
X3209086Y-1730248D01*
X3209086Y-1647850D01*
X3209747Y-1644142D01*
X3211779Y-1640941D01*
X3214827Y-1638706D01*
X3218484Y-1637690D01*
X3222244Y-1638147D01*
X3237636Y-1647291D01*
X3240227Y-1649577D01*
X3241954Y-1652574D01*
X3242513Y-1655978D01*
X3242513Y-1740966D01*
X3241802Y-1744776D01*
X3239668Y-1748078D01*
X3236468Y-1750263D01*
G37*

%LPD*%
G36*
X3726637Y-1786636D02*
G01*
X3722573Y-1785823D01*
X3719220Y-1783435D01*
X3717036Y-1779930D01*
X3716477Y-1775815D01*
X3717086Y-1766570D01*
X3717086Y-1647189D01*
X3716172Y-1633067D01*
X3713581Y-1619453D01*
X3709314Y-1606296D01*
X3703421Y-1593748D01*
X3701338Y-1590497D01*
X3700170Y-1587906D01*
X3699764Y-1585061D01*
X3699764Y-1536954D01*
X3699256Y-1526997D01*
X3698900Y-1524203D01*
X3697071Y-1514500D01*
X3696360Y-1511808D01*
X3693210Y-1502460D01*
X3692144Y-1499819D01*
X3687724Y-1490980D01*
X3686301Y-1488541D01*
X3680764Y-1480413D01*
X3679037Y-1478178D01*
X3672332Y-1470761D01*
X3596538Y-1394968D01*
X3589121Y-1388262D01*
X3586937Y-1386535D01*
X3579520Y-1381556D01*
X3576574Y-1378458D01*
X3575151Y-1374394D01*
X3575507Y-1370126D01*
X3577590Y-1366418D01*
X3581044Y-1363878D01*
X3585210Y-1362964D01*
X3619246Y-1362964D01*
X3629202Y-1362456D01*
X3639007Y-1360779D01*
X3642817Y-1360779D01*
X3646322Y-1362151D01*
X3649116Y-1364742D01*
X3650742Y-1368196D01*
X3654094Y-1381099D01*
X3659428Y-1394256D01*
X3666388Y-1406601D01*
X3674872Y-1417980D01*
X3684778Y-1428191D01*
X3695852Y-1437030D01*
X3707993Y-1444345D01*
X3720947Y-1450086D01*
X3733698Y-1453896D01*
X3735984Y-1454912D01*
X3737965Y-1456436D01*
X3809898Y-1528368D01*
X3812133Y-1531721D01*
X3812895Y-1535633D01*
X3812082Y-1539544D01*
X3809847Y-1542846D01*
X3806494Y-1545031D01*
X3801160Y-1547114D01*
X3789019Y-1553819D01*
X3777843Y-1561947D01*
X3767734Y-1571396D01*
X3758895Y-1582064D01*
X3751478Y-1593748D01*
X3745585Y-1606296D01*
X3741318Y-1619453D01*
X3738727Y-1633067D01*
X3737813Y-1647189D01*
X3737813Y-1766570D01*
X3738422Y-1775815D01*
X3737864Y-1779930D01*
X3735679Y-1783435D01*
X3732326Y-1785823D01*
X3728262Y-1786636D01*
G37*

%LPD*%
G36*
X2277922Y-1837436D02*
G01*
X2274011Y-1836674D01*
X2270709Y-1834438D01*
X2243785Y-1807514D01*
X2242007Y-1805127D01*
X2236216Y-1787245D01*
X2232355Y-1779219D01*
X2231390Y-1775206D01*
X2232050Y-1771091D01*
X2234336Y-1767636D01*
X2240737Y-1761236D01*
X2247595Y-1752092D01*
X2253081Y-1742033D01*
X2257094Y-1731314D01*
X2259533Y-1720138D01*
X2260346Y-1708353D01*
X2260346Y-1619046D01*
X2259533Y-1607261D01*
X2257044Y-1595932D01*
X2257094Y-1591462D01*
X2259076Y-1587449D01*
X2262581Y-1584655D01*
X2266950Y-1583639D01*
X2271318Y-1584604D01*
X2279396Y-1588414D01*
X2292553Y-1592681D01*
X2306167Y-1595272D01*
X2320290Y-1596186D01*
X2439670Y-1596186D01*
X2453792Y-1595272D01*
X2467406Y-1592681D01*
X2478481Y-1589074D01*
X2482138Y-1588617D01*
X2485745Y-1589481D01*
X2488793Y-1591564D01*
X2516124Y-1618894D01*
X2518054Y-1621586D01*
X2519019Y-1624787D01*
X2520238Y-1634083D01*
X2523794Y-1647799D01*
X2529128Y-1660956D01*
X2536088Y-1673301D01*
X2544572Y-1684680D01*
X2554478Y-1694891D01*
X2565552Y-1703730D01*
X2577693Y-1711045D01*
X2590647Y-1716786D01*
X2600248Y-1719681D01*
X2604058Y-1721713D01*
X2606598Y-1725168D01*
X2607513Y-1729384D01*
X2607513Y-1766570D01*
X2608427Y-1780692D01*
X2612136Y-1799336D01*
X2612136Y-1827275D01*
X2611374Y-1831187D01*
X2609138Y-1834438D01*
X2605887Y-1836674D01*
X2601976Y-1837436D01*
G37*

%LPD*%
G36*
X4349089Y-1850136D02*
G01*
X4345330Y-1849424D01*
X4342130Y-1847392D01*
X4339894Y-1844293D01*
X4336186Y-1826107D01*
X4335272Y-1823313D01*
X4334764Y-1820113D01*
X4334764Y-1799386D01*
X4338472Y-1780692D01*
X4339386Y-1766570D01*
X4339386Y-1647189D01*
X4338472Y-1633067D01*
X4334764Y-1614373D01*
X4334764Y-1538782D01*
X4322013Y-1542034D01*
X4309160Y-1547114D01*
X4306570Y-1548536D01*
X4302404Y-1549755D01*
X4298137Y-1549146D01*
X4294479Y-1546809D01*
X4030268Y-1282598D01*
X4028135Y-1279499D01*
X4027271Y-1275842D01*
X4027830Y-1272133D01*
X4029659Y-1268882D01*
X4033723Y-1265834D01*
X4036923Y-1264767D01*
X4040276Y-1264767D01*
X4043476Y-1265834D01*
X4055160Y-1272286D01*
X4068013Y-1277366D01*
X4081424Y-1280820D01*
X4095191Y-1282547D01*
X4109008Y-1282547D01*
X4122775Y-1280820D01*
X4136186Y-1277366D01*
X4149039Y-1272286D01*
X4160723Y-1265834D01*
X4163923Y-1264767D01*
X4167276Y-1264767D01*
X4170476Y-1265834D01*
X4182160Y-1272286D01*
X4195013Y-1277366D01*
X4208424Y-1280820D01*
X4222191Y-1282547D01*
X4236008Y-1282547D01*
X4249775Y-1280820D01*
X4263186Y-1277366D01*
X4276039Y-1272286D01*
X4287723Y-1265834D01*
X4290923Y-1264767D01*
X4294276Y-1264767D01*
X4297476Y-1265834D01*
X4309160Y-1272286D01*
X4322013Y-1277366D01*
X4335424Y-1280820D01*
X4349191Y-1282547D01*
X4363008Y-1282547D01*
X4376775Y-1280820D01*
X4387138Y-1278128D01*
X4390542Y-1277874D01*
X4393895Y-1278737D01*
X4396740Y-1280668D01*
X4398772Y-1283462D01*
X4402175Y-1290320D01*
X4403598Y-1292758D01*
X4409135Y-1300886D01*
X4410862Y-1303121D01*
X4417568Y-1310538D01*
X4493361Y-1386332D01*
X4500778Y-1393037D01*
X4503013Y-1394764D01*
X4511141Y-1400302D01*
X4513580Y-1401724D01*
X4522419Y-1406144D01*
X4525060Y-1407210D01*
X4534408Y-1410360D01*
X4537100Y-1411071D01*
X4546803Y-1412900D01*
X4549597Y-1413256D01*
X4559554Y-1413764D01*
X4874768Y-1413764D01*
X4877816Y-1414221D01*
X4880559Y-1415592D01*
X4882794Y-1417675D01*
X4886706Y-1422755D01*
X4894529Y-1430782D01*
X4896713Y-1434084D01*
X4897069Y-1436217D01*
X4899355Y-1436522D01*
X4902657Y-1438351D01*
X4911852Y-1445869D01*
X4926177Y-1455267D01*
X4938166Y-1461312D01*
X4941112Y-1463598D01*
X4943094Y-1466748D01*
X4943754Y-1470406D01*
X4943754Y-1541983D01*
X5027676Y-1541983D01*
X5031587Y-1542745D01*
X5034838Y-1544929D01*
X5037074Y-1548231D01*
X5037836Y-1552143D01*
X5037836Y-1584502D01*
X5037074Y-1588363D01*
X5034838Y-1591665D01*
X5031587Y-1593900D01*
X5027676Y-1594662D01*
X4993335Y-1594662D01*
X4989779Y-1594002D01*
X4982514Y-1591310D01*
X4971338Y-1588871D01*
X4959553Y-1588058D01*
X4870246Y-1588058D01*
X4858461Y-1588871D01*
X4847285Y-1591310D01*
X4842764Y-1592986D01*
X4839360Y-1593646D01*
X4835956Y-1593088D01*
X4832959Y-1591462D01*
X4830622Y-1588922D01*
X4826304Y-1582064D01*
X4817465Y-1571396D01*
X4807356Y-1561947D01*
X4805172Y-1560322D01*
X4802327Y-1557223D01*
X4801057Y-1553159D01*
X4801463Y-1548993D01*
X4803597Y-1545336D01*
X4807000Y-1542846D01*
X4811166Y-1541983D01*
X4886045Y-1541983D01*
X4886045Y-1448054D01*
X4870246Y-1448054D01*
X4858461Y-1448866D01*
X4847285Y-1451305D01*
X4836566Y-1455318D01*
X4826508Y-1460804D01*
X4817364Y-1467662D01*
X4809236Y-1475740D01*
X4802378Y-1484934D01*
X4796891Y-1494993D01*
X4792929Y-1505712D01*
X4790490Y-1516888D01*
X4789627Y-1528673D01*
X4789627Y-1534414D01*
X4788865Y-1538274D01*
X4786680Y-1541526D01*
X4783429Y-1543761D01*
X4779619Y-1544574D01*
X4775758Y-1543862D01*
X4771186Y-1542034D01*
X4757775Y-1538579D01*
X4744008Y-1536852D01*
X4730191Y-1536852D01*
X4716424Y-1538579D01*
X4703013Y-1542034D01*
X4690160Y-1547114D01*
X4678476Y-1553565D01*
X4675276Y-1554632D01*
X4671923Y-1554632D01*
X4668723Y-1553565D01*
X4657039Y-1547114D01*
X4644186Y-1542034D01*
X4630775Y-1538579D01*
X4617008Y-1536852D01*
X4603191Y-1536852D01*
X4589424Y-1538579D01*
X4576013Y-1542034D01*
X4563160Y-1547114D01*
X4551476Y-1553565D01*
X4548276Y-1554632D01*
X4544923Y-1554632D01*
X4541723Y-1553565D01*
X4530039Y-1547114D01*
X4517186Y-1542034D01*
X4503775Y-1538579D01*
X4490008Y-1536852D01*
X4476191Y-1536852D01*
X4462424Y-1538579D01*
X4449013Y-1542034D01*
X4436160Y-1547114D01*
X4424476Y-1553565D01*
X4421276Y-1554632D01*
X4417923Y-1554632D01*
X4414723Y-1553565D01*
X4403039Y-1547114D01*
X4390186Y-1542034D01*
X4377436Y-1538782D01*
X4377436Y-1614373D01*
X4373727Y-1633067D01*
X4372813Y-1647189D01*
X4372813Y-1766570D01*
X4373727Y-1780692D01*
X4377436Y-1799386D01*
X4377436Y-1839975D01*
X4376674Y-1843887D01*
X4374489Y-1847138D01*
X4371187Y-1849374D01*
X4367276Y-1850136D01*
G37*

%LPD*%
G36*
X653643Y-1909673D02*
G01*
X649630Y-1908962D01*
X619404Y-1896922D01*
X579831Y-1879092D01*
X541070Y-1859483D01*
X503224Y-1838198D01*
X466394Y-1815236D01*
X430580Y-1790649D01*
X395935Y-1764487D01*
X362458Y-1736801D01*
X330301Y-1707692D01*
X299415Y-1677162D01*
X269951Y-1645259D01*
X241909Y-1612087D01*
X215392Y-1577695D01*
X190449Y-1542186D01*
X167081Y-1505559D01*
X145389Y-1467967D01*
X125425Y-1429410D01*
X107137Y-1390040D01*
X103022Y-1379982D01*
X102260Y-1376222D01*
X102920Y-1372412D01*
X105003Y-1369161D01*
X108102Y-1366926D01*
X133299Y-1351432D01*
X157683Y-1333957D01*
X180746Y-1314754D01*
X202438Y-1294028D01*
X222605Y-1271828D01*
X241198Y-1248257D01*
X258013Y-1223416D01*
X273100Y-1197457D01*
X286258Y-1170482D01*
X297535Y-1142695D01*
X306171Y-1116279D01*
X308559Y-1107135D01*
X310286Y-1103528D01*
X313283Y-1100886D01*
X316992Y-1099616D01*
X320954Y-1099870D01*
X324561Y-1101598D01*
X327152Y-1104544D01*
X328472Y-1108303D01*
X335635Y-1146251D01*
X344525Y-1181963D01*
X355346Y-1217218D01*
X368046Y-1251762D01*
X382625Y-1285646D01*
X398983Y-1318615D01*
X417118Y-1350721D01*
X436930Y-1381760D01*
X458470Y-1411681D01*
X481533Y-1440383D01*
X506120Y-1467815D01*
X532180Y-1493875D01*
X559612Y-1518462D01*
X588314Y-1541526D01*
X618236Y-1563065D01*
X649274Y-1582877D01*
X681380Y-1601012D01*
X704799Y-1612646D01*
X707898Y-1615033D01*
X709879Y-1618386D01*
X710438Y-1622247D01*
X709472Y-1626057D01*
X707186Y-1629206D01*
X703834Y-1631238D01*
X699617Y-1632813D01*
X684377Y-1640535D01*
X670052Y-1649882D01*
X656844Y-1660804D01*
X644906Y-1673047D01*
X634441Y-1686560D01*
X625449Y-1701088D01*
X618185Y-1716582D01*
X612597Y-1732737D01*
X608888Y-1749450D01*
X607009Y-1766468D01*
X607009Y-1783537D01*
X608888Y-1800555D01*
X612597Y-1817268D01*
X618185Y-1833422D01*
X625449Y-1848866D01*
X634441Y-1863445D01*
X644906Y-1876958D01*
X656844Y-1889201D01*
X659841Y-1891690D01*
X662432Y-1894839D01*
X663498Y-1898802D01*
X662990Y-1902815D01*
X660908Y-1906371D01*
X657606Y-1908759D01*
G37*

%LPD*%
G36*
X3068980Y-1974342D02*
G01*
X3064764Y-1973427D01*
X3061258Y-1970836D01*
X3059226Y-1967026D01*
X3058922Y-1962708D01*
X3060446Y-1958644D01*
X3068269Y-1946656D01*
X3073196Y-1936445D01*
X3075940Y-1932939D01*
X3079902Y-1930958D01*
X3084322Y-1930857D01*
X3097733Y-1933549D01*
X3111855Y-1934464D01*
X3115818Y-1934464D01*
X3118662Y-1934870D01*
X3124962Y-1936750D01*
X3138982Y-1939036D01*
X3153156Y-1939442D01*
X3167278Y-1938121D01*
X3181096Y-1934972D01*
X3194405Y-1930044D01*
X3207004Y-1923491D01*
X3218637Y-1915363D01*
X3229152Y-1905812D01*
X3238347Y-1895043D01*
X3246069Y-1883156D01*
X3252673Y-1869236D01*
X3254908Y-1866188D01*
X3258108Y-1864156D01*
X3261867Y-1863445D01*
X3297478Y-1863445D01*
X3299968Y-1863750D01*
X3305860Y-1866646D01*
X3318713Y-1871725D01*
X3332124Y-1875180D01*
X3345891Y-1876907D01*
X3359708Y-1876907D01*
X3373475Y-1875180D01*
X3386886Y-1871725D01*
X3390239Y-1870405D01*
X3394100Y-1869693D01*
X3397961Y-1870506D01*
X3401212Y-1872691D01*
X3403396Y-1875993D01*
X3404108Y-1879854D01*
X3404108Y-1936953D01*
X3404971Y-1948738D01*
X3407664Y-1960625D01*
X3408324Y-1964486D01*
X3407460Y-1968296D01*
X3405225Y-1971497D01*
X3401974Y-1973580D01*
X3398164Y-1974342D01*
X3368243Y-1974342D01*
X3364331Y-1973580D01*
X3361029Y-1971395D01*
X3358845Y-1968093D01*
X3358083Y-1964182D01*
X3358083Y-1921154D01*
X3264153Y-1921154D01*
X3264153Y-1936953D01*
X3264966Y-1948738D01*
X3267710Y-1960625D01*
X3268319Y-1964486D01*
X3267456Y-1968296D01*
X3265271Y-1971497D01*
X3261969Y-1973580D01*
X3258159Y-1974342D01*
G37*

%LPD*%
G36*
X1000404Y-1974342D02*
G01*
X956360Y-1973376D01*
X913028Y-1970430D01*
X869899Y-1965604D01*
X827024Y-1958848D01*
X784453Y-1950212D01*
X779475Y-1948942D01*
X775817Y-1947214D01*
X773125Y-1944166D01*
X771855Y-1940306D01*
X772160Y-1936242D01*
X774039Y-1932686D01*
X777189Y-1930095D01*
X781100Y-1928977D01*
X783336Y-1928774D01*
X800100Y-1925523D01*
X816457Y-1920392D01*
X832103Y-1913534D01*
X846937Y-1904949D01*
X860704Y-1894839D01*
X873302Y-1883257D01*
X884529Y-1870354D01*
X886968Y-1866798D01*
X889711Y-1864106D01*
X893165Y-1862632D01*
X896975Y-1862531D01*
X900531Y-1863852D01*
X903376Y-1866341D01*
X911606Y-1876958D01*
X923544Y-1889201D01*
X936752Y-1900072D01*
X951077Y-1909470D01*
X966317Y-1917192D01*
X982370Y-1923186D01*
X998931Y-1927352D01*
X1015898Y-1929739D01*
X1032967Y-1930196D01*
X1050036Y-1928774D01*
X1066800Y-1925523D01*
X1083157Y-1920392D01*
X1098804Y-1913534D01*
X1113637Y-1904949D01*
X1127404Y-1894839D01*
X1140002Y-1883257D01*
X1151229Y-1870354D01*
X1153668Y-1866798D01*
X1156411Y-1864106D01*
X1159865Y-1862632D01*
X1163675Y-1862531D01*
X1167231Y-1863852D01*
X1170076Y-1866341D01*
X1178306Y-1876958D01*
X1190244Y-1889201D01*
X1203452Y-1900072D01*
X1217777Y-1909470D01*
X1233017Y-1917192D01*
X1249070Y-1923186D01*
X1265631Y-1927352D01*
X1282598Y-1929739D01*
X1299667Y-1930196D01*
X1316736Y-1928774D01*
X1333500Y-1925523D01*
X1349857Y-1920392D01*
X1365504Y-1913534D01*
X1380337Y-1904949D01*
X1394104Y-1894839D01*
X1406702Y-1883257D01*
X1417929Y-1870354D01*
X1420368Y-1866798D01*
X1423111Y-1864106D01*
X1426565Y-1862632D01*
X1430375Y-1862531D01*
X1433931Y-1863852D01*
X1436776Y-1866341D01*
X1445006Y-1876958D01*
X1456944Y-1889201D01*
X1470152Y-1900072D01*
X1484477Y-1909470D01*
X1499717Y-1917192D01*
X1515770Y-1923186D01*
X1532331Y-1927352D01*
X1549298Y-1929739D01*
X1566367Y-1930196D01*
X1583436Y-1928774D01*
X1600200Y-1925523D01*
X1616557Y-1920392D01*
X1632204Y-1913534D01*
X1647037Y-1904949D01*
X1660804Y-1894839D01*
X1673402Y-1883257D01*
X1684629Y-1870354D01*
X1694383Y-1856282D01*
X1702511Y-1841246D01*
X1708912Y-1825396D01*
X1713585Y-1808937D01*
X1716430Y-1792071D01*
X1717344Y-1775002D01*
X1716430Y-1757934D01*
X1713585Y-1741068D01*
X1708912Y-1724609D01*
X1702511Y-1708759D01*
X1694383Y-1693722D01*
X1684629Y-1679651D01*
X1673402Y-1666748D01*
X1660804Y-1655165D01*
X1655470Y-1651254D01*
X1653235Y-1649018D01*
X1651812Y-1646224D01*
X1651304Y-1643125D01*
X1651000Y-1611985D01*
X1651660Y-1608175D01*
X1653692Y-1604924D01*
X1662379Y-1595475D01*
X1664309Y-1592783D01*
X1667916Y-1588566D01*
X1671421Y-1585976D01*
X1675688Y-1585061D01*
X1679956Y-1586026D01*
X1685036Y-1588414D01*
X1698193Y-1592681D01*
X1711807Y-1595272D01*
X1725930Y-1596186D01*
X1734261Y-1596186D01*
X1734261Y-1503680D01*
X1734718Y-1500784D01*
X1735937Y-1498092D01*
X1751787Y-1473809D01*
X1754022Y-1471320D01*
X1756968Y-1469694D01*
X1760321Y-1469186D01*
X1845310Y-1469186D01*
X1859432Y-1468272D01*
X1878126Y-1464564D01*
X1953717Y-1464564D01*
X1950466Y-1451813D01*
X1945386Y-1438960D01*
X1938934Y-1427276D01*
X1937867Y-1424076D01*
X1937867Y-1420723D01*
X1938934Y-1417523D01*
X1945386Y-1405839D01*
X1950466Y-1392986D01*
X1953920Y-1379575D01*
X1955647Y-1365808D01*
X1955647Y-1358341D01*
X1956358Y-1354683D01*
X1958339Y-1351483D01*
X1961337Y-1349248D01*
X1964943Y-1348232D01*
X1968703Y-1348587D01*
X1981962Y-1352550D01*
X1995982Y-1354836D01*
X2010156Y-1355242D01*
X2025091Y-1353820D01*
X2029307Y-1354277D01*
X2032965Y-1356410D01*
X2035403Y-1359814D01*
X2036267Y-1363980D01*
X2035251Y-1528318D01*
X2034590Y-1531874D01*
X2032711Y-1534972D01*
X2029917Y-1537258D01*
X2026462Y-1538325D01*
X2026462Y-1585264D01*
X2025802Y-1588820D01*
X2023110Y-1596085D01*
X2020671Y-1607261D01*
X2019807Y-1619046D01*
X2019807Y-1708353D01*
X2020671Y-1720138D01*
X2023110Y-1731314D01*
X2025802Y-1738579D01*
X2026462Y-1742135D01*
X2026462Y-1796491D01*
X2026818Y-1799082D01*
X2026462Y-1801723D01*
X2024938Y-1807616D01*
X2023110Y-1821688D01*
X2023110Y-1835912D01*
X2024938Y-1849983D01*
X2028494Y-1863699D01*
X2033828Y-1876856D01*
X2040788Y-1889201D01*
X2049272Y-1900580D01*
X2059178Y-1910791D01*
X2070252Y-1919630D01*
X2082393Y-1926945D01*
X2095347Y-1932686D01*
X2108098Y-1936496D01*
X2110384Y-1937512D01*
X2112365Y-1939036D01*
X2130348Y-1957019D01*
X2132533Y-1960321D01*
X2133295Y-1964182D01*
X2132533Y-1968093D01*
X2130348Y-1971395D01*
X2127046Y-1973580D01*
X2123135Y-1974342D01*
G37*

%LPC*%
G36*
X1879854Y-1634845D02*
G01*
X1973783Y-1634845D01*
X1973783Y-1538427D01*
X1960473Y-1538427D01*
X1958797Y-1538579D01*
X1954733Y-1538020D01*
X1951228Y-1535938D01*
X1948840Y-1532686D01*
X1947875Y-1528673D01*
X1948586Y-1524660D01*
X1950466Y-1519986D01*
X1953717Y-1507236D01*
X1836978Y-1507236D01*
X1836978Y-1596186D01*
X1845310Y-1596186D01*
X1859432Y-1595272D01*
X1869236Y-1593392D01*
X1873199Y-1593443D01*
X1876856Y-1595018D01*
X1879650Y-1597863D01*
X1881124Y-1601571D01*
X1881073Y-1605534D01*
X1880666Y-1607261D01*
X1879854Y-1619046D01*
G37*
G36*
X1960473Y-1788972D02*
G01*
X1973783Y-1788972D01*
X1973783Y-1692554D01*
X1879854Y-1692554D01*
X1879854Y-1708353D01*
X1880666Y-1720138D01*
X1883105Y-1731314D01*
X1887118Y-1742033D01*
X1892604Y-1752092D01*
X1899462Y-1761236D01*
X1907539Y-1769364D01*
X1916734Y-1776222D01*
X1926793Y-1781708D01*
X1937512Y-1785670D01*
X1948688Y-1788109D01*
G37*

%LPD*%
G36*
X4760264Y-1974342D02*
G01*
X4756353Y-1973580D01*
X4753051Y-1971395D01*
X4750866Y-1968093D01*
X4750104Y-1964182D01*
X4750866Y-1960321D01*
X4753051Y-1957019D01*
X4802632Y-1907438D01*
X4809337Y-1900021D01*
X4811064Y-1897786D01*
X4816602Y-1889658D01*
X4818024Y-1887220D01*
X4822444Y-1878380D01*
X4823510Y-1875739D01*
X4826660Y-1866392D01*
X4827371Y-1863699D01*
X4829200Y-1853996D01*
X4829556Y-1851202D01*
X4830064Y-1841246D01*
X4830064Y-1833473D01*
X4830826Y-1829663D01*
X4832959Y-1826412D01*
X4836160Y-1824177D01*
X4839919Y-1823313D01*
X4843780Y-1823974D01*
X4847285Y-1825294D01*
X4858461Y-1827733D01*
X4870246Y-1828546D01*
X4959553Y-1828546D01*
X4971338Y-1827733D01*
X4982514Y-1825294D01*
X4993233Y-1821281D01*
X5003292Y-1815795D01*
X5012436Y-1808937D01*
X5020513Y-1800910D01*
X5023764Y-1798675D01*
X5027676Y-1797913D01*
X5031587Y-1798675D01*
X5034838Y-1800910D01*
X5037074Y-1804162D01*
X5037836Y-1808073D01*
X5037836Y-1841144D01*
X5038750Y-1855266D01*
X5041442Y-1868830D01*
X5045913Y-1881936D01*
X5052009Y-1894332D01*
X5059680Y-1905812D01*
X5069027Y-1916430D01*
X5109565Y-1957019D01*
X5111750Y-1960321D01*
X5112562Y-1964182D01*
X5111750Y-1968093D01*
X5109565Y-1971395D01*
X5106263Y-1973580D01*
X5102402Y-1974342D01*
G37*

%LPD*%
D11*
X3962400Y-469900D02*
G01*
X3962400Y-419100D01*
X4013200Y-368300D01*
X4775200Y-368300D01*
X4775200Y-431800D01*
X3962400Y-469900D02*
G01*
X3937000Y-419100D01*
X3569970Y-419100D01*
X2869945Y-419100D02*
G01*
X3569970Y-419100D01*
X3569970Y-322579D01*
X2425700Y-444500D02*
G01*
X2425700Y-419100D01*
X2869945Y-419100D01*
X2869945Y-322579D01*
D10*
X2717800Y-685800D02*
G01*
X2717800Y-889000D01*
X2844800Y-1016000D01*
X2844800Y-1112520D01*
X4225010Y-554989D02*
G01*
X4225010Y-647700D01*
X4174210Y-698500D01*
X3924300Y-698500D01*
X3848100Y-774700D01*
X3848100Y-1112520D01*
D11*
X4356100Y-1706879D02*
G01*
X4356100Y-1524000D01*
X4406900Y-1473200D01*
X4876800Y-1473200D01*
X4914900Y-1511300D01*
X4914900Y-1568195D01*
X4914900Y-1706879D02*
G01*
X4737100Y-1706879D01*
X3606800Y-1841500D02*
G01*
X3606800Y-1892300D01*
X3975100Y-1892300D01*
X3975100Y-1706879D01*
X3606800Y-1706879D02*
G01*
X3606800Y-1892300D01*
X3524504Y-1892300D01*
X3225800Y-1706879D02*
G01*
X3225800Y-1828800D01*
X3289300Y-1892300D01*
X3384397Y-1892300D01*
X3098800Y-1706879D02*
G01*
X3098800Y-1816100D01*
X3111500Y-1828800D01*
X3149600Y-1828800D01*
X2971800Y-1770379D02*
G01*
X2971800Y-1892300D01*
X2717800Y-1770379D02*
G01*
X2717800Y-1866900D01*
X2501900Y-533400D02*
G01*
X2501900Y-558800D01*
X2463800Y-596900D01*
X2379985Y-596900D01*
X2379979Y-596900D02*
G01*
X2197100Y-596900D01*
D10*
X2379979Y-1231900D02*
G01*
X2489200Y-1231900D01*
D11*
X2247900Y-723900D02*
G01*
X2379985Y-723900D01*
X2379979Y-977900D02*
G01*
X2679700Y-977900D01*
X2717800Y-1016000D01*
X2717800Y-1112520D01*
D10*
X3225800Y-1112520D02*
G01*
X3225800Y-660400D01*
X3098800Y-1112520D02*
G01*
X3098800Y-826007D01*
X2976118Y-726694D01*
X2971800Y-685800D01*
X2895600Y-863600D02*
G01*
X2971800Y-939800D01*
X2971800Y-1112520D01*
X3759200Y-1346200D02*
G01*
X3924300Y-1511300D01*
X4051300Y-1511300D01*
X4102100Y-1562100D01*
X4102100Y-1706879D01*
X4102100Y-1770379D02*
G01*
X4102100Y-1854200D01*
X3975100Y-1828800D02*
G01*
X3975100Y-1892300D01*
X4025900Y-1943100D01*
X4635500Y-1943100D01*
X4737100Y-1841500D01*
X4737100Y-1706879D01*
X1562100Y-203200D02*
G01*
X1803400Y-444500D01*
X1879600Y-444500D01*
X1968500Y-533400D01*
D11*
X3229990Y-272503D02*
G01*
X3232696Y-272503D01*
X3327400Y-177800D01*
X3403600Y-177800D01*
X2529992Y-272503D02*
G01*
X2529992Y-264007D01*
X2616200Y-177800D01*
X2705100Y-177800D01*
X1823892Y-272503D02*
G01*
X1823892Y-258907D01*
X1905000Y-177800D01*
X1993900Y-177800D01*
X2197100Y-596900D02*
G01*
X2146300Y-647700D01*
X2140102Y-1663700D01*
X2379979Y-977900D02*
G01*
X2235200Y-977900D01*
X2235200Y-812800D02*
G01*
X2235200Y-1270000D01*
X2006600Y-1397000D02*
G01*
X2006600Y-1657200D01*
X2000100Y-1663700D01*
D10*
X2844800Y-1706879D02*
G01*
X2844800Y-1866900D01*
X2781300Y-1930400D01*
X2235200Y-1930400D01*
X2133600Y-1828800D01*
X2379985Y-1485900D02*
G01*
X2514600Y-1485900D01*
X2628900Y-1600200D01*
X2628900Y-1612900D01*
D11*
X4652007Y-554992D02*
G01*
X4652007Y-660400D01*
X4690107Y-698500D01*
X5092700Y-698500D01*
X5143500Y-749300D01*
X5143500Y-1841500D01*
X5207000Y-1905000D01*
X5397500Y-1905000D01*
D10*
X3009900Y-1282700D02*
G01*
X3098800Y-1371600D01*
X3619500Y-1371600D01*
X3848100Y-1130300D01*
X3848100Y-1112520D01*
X4737100Y-1112520D02*
G01*
X4754879Y-1112520D01*
X5003800Y-863600D01*
X4356100Y-1112520D02*
G01*
X4356100Y-1016000D01*
X4394200Y-977900D01*
X4635500Y-977900D01*
X4749800Y-863600D01*
X4470400Y-863600D02*
G01*
X4381500Y-863600D01*
X4229100Y-1016000D01*
X4229100Y-1112520D01*
X4216400Y-863600D02*
G01*
X4102100Y-977900D01*
X4102100Y-1112520D01*
X3975100Y-863600D02*
G01*
X3975100Y-1112520D01*
X4610100Y-1112520D02*
G01*
X4610100Y-1219200D01*
X4648200Y-1257300D01*
X4838700Y-1257300D01*
X5003800Y-1092200D01*
X4483100Y-1112520D02*
G01*
X4483100Y-1244600D01*
X4559300Y-1320800D01*
X5003800Y-1320800D01*
X3352800Y-863600D02*
G01*
X3352800Y-1112520D01*
X3479800Y-1112520D02*
G01*
X3479800Y-660400D01*
X3606800Y-863600D02*
G01*
X3606800Y-1112520D01*
D11*
X4775085Y-431815D02*
G01*
X4774945Y-554989D01*
X4347997Y-554989D02*
G01*
X4347997Y-660400D01*
X4386097Y-698500D01*
X4690109Y-698500D01*
X8300008Y-775004D02*
G01*
X8300008Y-1325016D01*
D10*
X3416300Y-1460500D02*
G01*
X3530600Y-1460500D01*
X3606800Y-1536700D01*
X3606800Y-1706879D01*
X4483100Y-1879600D02*
G01*
X4483100Y-1770379D01*
D11*
X4216400Y-393700D02*
G01*
X4216400Y-516636D01*
X4225036Y-516636D01*
X4225036Y-554989D01*
X4775200Y-368300D02*
G01*
X4838700Y-368300D01*
X4991100Y-368300D01*
X5182615Y-559815D01*
D10*
X2379979Y-850900D02*
G01*
X2501900Y-850900D01*
X2573781Y-779018D01*
X2573781Y-613918D01*
X2628900Y-558800D01*
X3035300Y-558800D01*
X3098038Y-621537D01*
X3098038Y-710437D01*
X3162300Y-774700D01*
X3162300Y-889000D01*
D11*
X8509000Y-1524000D02*
G01*
X8509000Y-1604998D01*
D10*
X3886200Y-1282700D02*
G01*
X3898900Y-1282700D01*
X4229100Y-1612900D01*
X4229100Y-1706879D01*
X4229100Y-1706879D02*
G01*
X4229100Y-1816100D01*
X4229100Y-1854200D01*
X2379979Y-1104900D02*
G01*
X2565400Y-1104900D01*
X2628900Y-1168400D01*
X2628900Y-1244600D01*
X2705100Y-1320800D01*
X2806700Y-1320800D01*
X3098800Y-1612900D01*
X3098800Y-1706879D01*
X1694931Y-977900D02*
G01*
X1785620Y-977900D01*
X1028700Y-1739900D02*
G01*
X1028700Y-1775002D01*
X1706493Y-1104900D02*
G01*
X1785620Y-1104900D01*
D12*
X1295400Y-1775002D02*
G01*
X1295400Y-1716699D01*
D13*
X926823Y-1640842D02*
G01*
X896160Y-1640842D01*
X1747169Y-1231900D02*
G01*
X1785620Y-1231900D01*
X1785620Y-1358900D02*
G01*
X1746412Y-1358900D01*
X1560829Y-1617218D02*
G01*
X1562100Y-1774952D01*
X1042131Y-352066D02*
G01*
X910866Y-352066D01*
X1193800Y-63500D02*
G01*
X1308100Y-63500D01*
X1193800Y-63500D02*
G01*
X1168400Y-63500D01*
X1422400Y-177800D02*
G01*
X1422400Y-215900D01*
X1663700Y-520700D02*
G01*
X1471421Y-316229D01*
X1663700Y-520700D02*
G01*
X1739900Y-596900D01*
X1785620Y-596900D01*
D11*
X2169922Y-322579D02*
G01*
X2169922Y-419100D01*
X2195322Y-444500D01*
X2413000Y-444500D01*
X2425700Y-444500D01*
D10*
X2501900Y-533400D02*
G01*
X2527300Y-508000D01*
X3873500Y-508000D01*
X3962400Y-596900D01*
D11*
X5182570Y-559899D02*
G01*
X5245100Y-622429D01*
X5245100Y-1739900D01*
X5295900Y-1790700D01*
X5473700Y-1790700D01*
X5588000Y-1905000D01*
X6483095Y-1905000D01*
X5245100Y-228600D02*
G01*
X5245100Y-497359D01*
X5245100Y-635000D01*
X4774996Y-554989D02*
G01*
X4815001Y-514985D01*
X4931994Y-514985D01*
X4225010Y-554989D02*
G01*
X4185005Y-514985D01*
X4068013Y-514985D01*
D10*
X3708400Y-774700D02*
G01*
X3759200Y-825500D01*
X3759200Y-1130300D01*
X3619500Y-1270000D01*
X3416300Y-1270000D01*
X2140102Y-1663700D02*
G01*
X2133600Y-1670202D01*
X2133600Y-1828800D01*
D11*
X2387600Y-1358900D02*
G01*
X2149614Y-1358900D01*
X1785620Y-1485900D02*
G01*
X2006600Y-1485900D01*
X2006600Y-1397000D01*
D10*
X2032000Y-812800D02*
G01*
X2032000Y-647700D01*
D11*
X2006600Y-1244600D02*
G01*
X2142644Y-1244600D01*
D10*
X2379979Y-1358900D02*
G01*
X2501900Y-1358900D01*
X2603500Y-1460500D01*
X2743200Y-1460500D01*
X2844800Y-1562100D01*
X2844800Y-1706879D01*
X2489200Y-1231900D02*
G01*
X2527300Y-1231900D01*
X2565400Y-1270000D01*
X2565400Y-1308100D01*
X2641600Y-1384300D01*
X2768600Y-1384300D01*
X2971800Y-1587500D01*
X2971800Y-1706879D01*
X3352800Y-1706879D02*
G01*
X3352800Y-1587500D01*
X3314700Y-1549400D01*
X3289300Y-1549400D01*
D11*
X4931994Y-144983D02*
G01*
X4928377Y-148600D01*
X4928377Y-368300D01*
X4068063Y-145034D02*
G01*
X4069841Y-368300D01*
X6495795Y-1905000D02*
G01*
X8216900Y-1905000D01*
D10*
X6438900Y-1739900D02*
G01*
X6413500Y-1714500D01*
X6297599Y-1714500D01*
X5791200Y-1790700D02*
G01*
X5684113Y-1683613D01*
X5633313Y-1683613D01*
X6102604Y-1445768D02*
G01*
X6097600Y-1450771D01*
X6097600Y-1714500D01*
X5491881Y-1542188D02*
G01*
X5588302Y-1445768D01*
X5683504Y-1445768D01*
X5873495Y-1445768D02*
G01*
X5873495Y-1867067D01*
X5911428Y-1905000D01*
X6292595Y-1445768D02*
G01*
X6292595Y-1517395D01*
X6311900Y-1536700D01*
X6528308Y-1536700D01*
X6528308Y-1905000D01*
X5575300Y-1116076D02*
G01*
X5751575Y-1116076D01*
X5778500Y-1143000D01*
X5778500Y-1195831D01*
X6197600Y-1195831D02*
G01*
X6197600Y-1143000D01*
X6224524Y-1116076D01*
X6426200Y-1116076D01*
X5575300Y-915995D02*
G01*
X5696204Y-795091D01*
X5696204Y-709168D01*
X6426200Y-916000D02*
G01*
X6426200Y-328599D01*
X6292595Y-535431D02*
G01*
X6292595Y-462203D01*
X6426200Y-328599D01*
X6197600Y-785368D02*
G01*
X6197600Y-965200D01*
X6172200Y-990600D01*
X6007100Y-990600D01*
X5886195Y-709168D02*
G01*
X5971031Y-709168D01*
X6102604Y-577595D01*
X6102604Y-535431D01*
X6426200Y-101600D02*
G01*
X5575300Y-101600D01*
X6102604Y-535431D02*
G01*
X6102604Y-450595D01*
X6170168Y-383031D01*
X6170168Y-101600D01*
X5791200Y-459231D02*
G01*
X5791200Y-355600D01*
X5880100Y-266700D01*
X5918200Y-266700D01*
X5575300Y-328599D02*
G01*
X5575300Y-915995D01*
D11*
X8185658Y-114300D02*
G01*
X6426200Y-114300D01*
X6426200Y-128523D01*
X8300008Y-525015D02*
G01*
X8305800Y-228600D01*
X4991100Y-1498600D02*
G01*
X5054600Y-1562100D01*
X5054600Y-1828800D01*
X4991100Y-1892300D01*
X4991100Y-1498600D02*
G01*
X4921402Y-1568297D01*
X4914900Y-1568297D01*
D10*
X2717800Y-1112520D02*
G01*
X2717800Y-1231900D01*
X2743200Y-1257300D01*
X2870200Y-1257300D01*
X3225800Y-1612900D01*
X3225800Y-1706879D01*
D14*
X3009900Y-1282700D02*
G01*
X2952750Y-1341120D01*
D10*
X3848100Y-1112520D02*
G01*
X3848100Y-1130300D01*
X3986022Y-1268221D01*
X4025900Y-1295400D01*
X4254500Y-1524000D01*
X4356100Y-1524000D01*
X4356100Y-1706879D01*
D15*
X2319980Y-1485900D02*
G01*
X2439979Y-1485900D01*
X2319980Y-1358900D02*
G01*
X2439979Y-1358900D01*
X2319980Y-1231900D02*
G01*
X2439979Y-1231900D01*
X2319980Y-1104900D02*
G01*
X2439979Y-1104900D01*
X2319980Y-977900D02*
G01*
X2439979Y-977900D01*
X2319980Y-850900D02*
G01*
X2439979Y-850900D01*
X2319980Y-723900D02*
G01*
X2439979Y-723900D01*
X2319980Y-596900D02*
G01*
X2439979Y-596900D01*
X1725620Y-1485900D02*
G01*
X1845619Y-1485900D01*
X1725620Y-1358900D02*
G01*
X1845619Y-1358900D01*
X1725620Y-1231900D02*
G01*
X1845619Y-1231900D01*
X1725620Y-1104900D02*
G01*
X1845619Y-1104900D01*
X1725620Y-977900D02*
G01*
X1845619Y-977900D01*
X1725620Y-850900D02*
G01*
X1845619Y-850900D01*
X1725620Y-723900D02*
G01*
X1845619Y-723900D01*
X1725620Y-596900D02*
G01*
X1845619Y-596900D01*
X2717800Y-1646880D02*
G01*
X2717800Y-1766879D01*
X2844800Y-1646880D02*
G01*
X2844800Y-1766879D01*
X2971800Y-1646880D02*
G01*
X2971800Y-1766879D01*
X3098800Y-1646880D02*
G01*
X3098800Y-1766879D01*
X3225800Y-1646880D02*
G01*
X3225800Y-1766879D01*
X3352800Y-1646880D02*
G01*
X3352800Y-1766879D01*
X3479800Y-1646880D02*
G01*
X3479800Y-1766879D01*
X3606800Y-1646880D02*
G01*
X3606800Y-1766879D01*
X2717800Y-1052520D02*
G01*
X2717800Y-1172519D01*
X2844800Y-1052520D02*
G01*
X2844800Y-1172519D01*
X2971800Y-1052520D02*
G01*
X2971800Y-1172519D01*
X3098800Y-1052520D02*
G01*
X3098800Y-1172519D01*
X3225800Y-1052520D02*
G01*
X3225800Y-1172519D01*
X3352800Y-1052520D02*
G01*
X3352800Y-1172519D01*
X3479800Y-1052520D02*
G01*
X3479800Y-1172519D01*
X3606800Y-1052520D02*
G01*
X3606800Y-1172519D01*
X3848100Y-1646880D02*
G01*
X3848100Y-1766879D01*
X3975100Y-1646880D02*
G01*
X3975100Y-1766879D01*
X4102100Y-1646880D02*
G01*
X4102100Y-1766879D01*
X4229100Y-1646880D02*
G01*
X4229100Y-1766879D01*
X4356100Y-1646880D02*
G01*
X4356100Y-1766879D01*
X4483100Y-1646880D02*
G01*
X4483100Y-1766879D01*
X4610100Y-1646880D02*
G01*
X4610100Y-1766879D01*
X4737100Y-1646880D02*
G01*
X4737100Y-1766879D01*
X3848100Y-1052520D02*
G01*
X3848100Y-1172519D01*
X3975100Y-1052520D02*
G01*
X3975100Y-1172519D01*
X4102100Y-1052520D02*
G01*
X4102100Y-1172519D01*
X4229100Y-1052520D02*
G01*
X4229100Y-1172519D01*
X4356100Y-1052520D02*
G01*
X4356100Y-1172519D01*
X4483100Y-1052520D02*
G01*
X4483100Y-1172519D01*
X4610100Y-1052520D02*
G01*
X4610100Y-1172519D01*
X4737100Y-1052520D02*
G01*
X4737100Y-1172519D01*
D17*
G01*
X1028700Y-203200D03*
G01*
X1295400Y-203200D03*
G01*
X762000Y-203200D03*
G01*
X762000Y-1775002D03*
G01*
X1028700Y-1775002D03*
G01*
X1295400Y-1775002D03*
G01*
X1562100Y-1775002D03*
G01*
X1562100Y-203200D03*
G01*
X2717800Y-685800D03*
G01*
X2882900Y-863600D03*
G01*
X2971800Y-685800D03*
G01*
X3225800Y-660400D03*
G01*
X3352800Y-863600D03*
G01*
X3479800Y-660400D03*
G01*
X3606800Y-863600D03*
G01*
X5003800Y-1320800D03*
G01*
X5003800Y-1092200D03*
G01*
X5003800Y-863600D03*
G01*
X4749800Y-863600D03*
G01*
X4470400Y-863600D03*
G01*
X4216400Y-863600D03*
G01*
X3975100Y-863600D03*
G36*
X5170098Y-103598D02*
G01*
X5320098Y-103598D01*
X5320098Y-353601D01*
X5170098Y-353601D01*
G37*
G36*
X1960100Y-1618698D02*
G01*
X2040100Y-1618698D01*
X2040100Y-1708701D01*
X1960100Y-1708701D01*
G37*
G36*
X2100099Y-1618698D02*
G01*
X2180099Y-1618698D01*
X2180099Y-1708701D01*
X2100099Y-1708701D01*
G37*
G36*
X3344400Y-1847298D02*
G01*
X3424400Y-1847298D01*
X3424400Y-1937301D01*
X3344400Y-1937301D01*
G37*
G36*
X3484399Y-1847298D02*
G01*
X3564399Y-1847298D01*
X3564399Y-1937301D01*
X3484399Y-1937301D01*
G37*
D20*
G01*
X4914900Y-1568297D03*
G01*
X4914900Y-1708302D03*
D21*
G01*
X5791200Y-459231D03*
G01*
X5886195Y-709168D03*
G01*
X5696204Y-709168D03*
G01*
X5778500Y-1195831D03*
G01*
X5873495Y-1445768D03*
G01*
X5683504Y-1445768D03*
D22*
G01*
X5575300Y-1115999D03*
G01*
X5575300Y-916000D03*
G01*
X5575300Y-328599D03*
G01*
X5575300Y-128600D03*
G36*
X5472442Y-1632346D02*
G01*
X5401734Y-1561635D01*
X5511335Y-1452034D01*
X5582046Y-1522742D01*
G37*
G36*
X5613864Y-1773765D02*
G01*
X5543153Y-1703057D01*
X5652757Y-1593453D01*
X5723465Y-1664164D01*
G37*
D23*
G01*
X6097600Y-1714500D03*
G01*
X6297599Y-1714500D03*
D22*
G01*
X6426200Y-328599D03*
G01*
X6426200Y-128600D03*
G01*
X6426200Y-1115999D03*
G01*
X6426200Y-916000D03*
G36*
X6162598Y-722868D02*
G01*
X6232601Y-722868D01*
X6232601Y-847867D01*
X6162598Y-847867D01*
G37*
G36*
X6067602Y-472932D02*
G01*
X6137605Y-472932D01*
X6137605Y-597931D01*
X6067602Y-597931D01*
G37*
G36*
X6257594Y-472932D02*
G01*
X6327597Y-472932D01*
X6327597Y-597931D01*
X6257594Y-597931D01*
G37*
D21*
G01*
X6197600Y-1195831D03*
G01*
X6292595Y-1445768D03*
G01*
X6102604Y-1445768D03*
G36*
X1788899Y-212501D02*
G01*
X1858901Y-212501D01*
X1858901Y-332501D01*
X1788899Y-332501D01*
G37*
G36*
X2128898Y-212501D02*
G01*
X2198900Y-212501D01*
X2198900Y-332501D01*
X2128898Y-332501D01*
G37*
D25*
G01*
X2203907Y-47497D03*
G01*
X1783892Y-47497D03*
D26*
G01*
X1993900Y-302488D03*
G36*
X2494998Y-212501D02*
G01*
X2565001Y-212501D01*
X2565001Y-332501D01*
X2494998Y-332501D01*
G37*
G36*
X2834998Y-212501D02*
G01*
X2905000Y-212501D01*
X2905000Y-332501D01*
X2834998Y-332501D01*
G37*
D25*
G01*
X2910001Y-47497D03*
G01*
X2490012Y-47497D03*
D26*
G01*
X2699994Y-302488D03*
G36*
X3194999Y-212501D02*
G01*
X3265002Y-212501D01*
X3265002Y-332501D01*
X3194999Y-332501D01*
G37*
G36*
X3534999Y-212501D02*
G01*
X3605001Y-212501D01*
X3605001Y-332501D01*
X3534999Y-332501D01*
G37*
D25*
G01*
X3610000Y-47497D03*
G01*
X3190011Y-47497D03*
D26*
G01*
X3399993Y-302488D03*
D27*
G01*
X4774996Y-554989D03*
D28*
G01*
X4652009Y-554989D03*
D24*
G01*
X4550003Y-554989D03*
G01*
X4450003Y-554989D03*
D28*
G01*
X4347997Y-554989D03*
D27*
G01*
X4225010Y-554989D03*
D29*
G01*
X5918200Y-266700D03*
G01*
X6007100Y-990600D03*
D11*
G75*
G01*
X8509000Y-1524000D02*
G03*
X8309000Y-1324000I-200000J0D01*
G75*
G01*
X8209984Y-1904997D02*
G03*
X8509983Y-1604998I0J299999D01*
D13*
G75*
G01*
X926823Y-1640843D02*
G03*
X1643858Y-1028974I70127J643893D01*
G75*
G01*
X896160Y-1640843D02*
G03*
X762000Y-1775003I0J-134160D01*
G75*
G01*
X1643858Y-1028974D02*
G02*
X1694932Y-977900I51074J0D01*
G75*
G01*
X1079500Y-1689100D02*
G03*
X1682582Y-1128812I-83842J694962D01*
G75*
G01*
X1079500Y-1689100D02*
G03*
X1028700Y-1739900I0J-50800D01*
G75*
G01*
X1682582Y-1128812D02*
G02*
X1706494Y-1104900I23912J0D01*
G75*
G01*
X1342019Y-1670080D02*
G03*
X1681526Y-1297544I-352350J662080D01*
G75*
G01*
X1256043Y-1753979D02*
G02*
X1343139Y-1669265I176406J-94238D01*
G75*
G01*
X1680997Y-1297998D02*
G02*
X1784726Y-1239149I91477J-40398D01*
G75*
G01*
X1590271Y-1540495D02*
G03*
X1667706Y-1437607I-558319J500780D01*
G75*
G01*
X1591996Y-1538996D02*
G03*
X1560904Y-1617266I68748J-72620D01*
G75*
G01*
X1782188Y-1347533D02*
G03*
X1665668Y-1440967I57808J-191464D01*
G75*
G01*
X1612900Y-762000D02*
G03*
X1042132Y-352067I-602792J-236975D01*
G75*
G01*
X1611503Y-760308D02*
G03*
X1779115Y-835655I118554J39625D01*
G75*
G01*
X1643710Y-670781D02*
G03*
X1377069Y-367881I-595295J-255224D01*
G75*
G01*
X1375997Y-368000D02*
G02*
X1295161Y-234897I69164J133102D01*
G75*
G01*
X1640997Y-665998D02*
G03*
X1732582Y-725848I91586J40150D01*
G75*
G01*
X910867Y-352067D02*
G02*
X762000Y-203200I0J148867D01*
G75*
G01*
X1308100Y-63500D02*
G02*
X1422400Y-177800I0J-114300D01*
G75*
G01*
X1168400Y-63500D02*
G03*
X1028700Y-203200I0J-139700D01*
G75*
G01*
X1422400Y-215900D02*
G03*
X1471430Y-316149I127000J-1D01*
D11*
G75*
G01*
X8191500Y-114300D02*
G02*
X8305800Y-228600I0J-114300D01*
D30*
G01*
X2208911Y-142519D03*
G01*
X1778888Y-142519D03*
G01*
X2915031Y-142519D03*
G01*
X2485009Y-142519D03*
G01*
X3615004Y-142519D03*
G01*
X3184982Y-142519D03*
D31*
G01*
X8300008Y-1575003D03*
G01*
X8300008Y-1325016D03*
G01*
X8300008Y-775004D03*
G01*
X8300008Y-525018D03*
D16*
G01*
X1993900Y-177800D03*
G01*
X2705100Y-177800D03*
G01*
X3403600Y-177800D03*
G01*
X2717800Y-1866900D03*
G01*
X4483100Y-1879600D03*
G01*
X2971800Y-1892300D03*
G01*
X4102100Y-1854200D03*
G01*
X3149600Y-1828800D03*
G01*
X4229100Y-1854200D03*
G01*
X2628900Y-1612900D03*
G01*
X3289300Y-1549400D03*
G01*
X3162300Y-889000D03*
G01*
X6438900Y-1739900D03*
G01*
X5791200Y-1790700D03*
G01*
X2235200Y-1270000D03*
G01*
X2006600Y-1397000D03*
G01*
X2197100Y-596900D03*
G01*
X2501900Y-533400D03*
G01*
X3962400Y-596900D03*
G01*
X2247900Y-723900D03*
G01*
X1968500Y-533400D03*
G01*
X5397500Y-1905000D03*
G01*
X3009900Y-1282700D03*
G01*
X3886200Y-1282700D03*
G01*
X3759200Y-1346200D03*
G01*
X3708400Y-774700D03*
G01*
X3416300Y-1270000D03*
G01*
X3416300Y-1460500D03*
G01*
X2425700Y-444500D03*
G01*
X2235200Y-812800D03*
G01*
X5245100Y-635000D03*
G01*
X3962400Y-469900D03*
G01*
X2133600Y-1828800D03*
G01*
X2032000Y-812800D03*
G01*
X2032000Y-647700D03*
G01*
X2006600Y-1244600D03*
G01*
X4991100Y-1498600D03*
G01*
X4991100Y-1892300D03*
G01*
X2273300Y-1689100D03*
G01*
X469900Y-1638300D03*
G01*
X393700Y-482600D03*
D30*
X4068013Y-184983D02*
G01*
X4068013Y-104983D01*
X4931994Y-184983D02*
G01*
X4931994Y-104983D01*
X4068013Y-569986D02*
G01*
X4068013Y-459986D01*
X4931994Y-569986D02*
G01*
X4931994Y-459986D01*
M02*
