G04 Layer: TopSilkscreenLayer*
G04 EasyEDA v6.5.1, 2022-03-27 10:56:29*
G04 5bdfba2922064175801a4ef29472edea,f5a38c858c354eb5b90fd3f81420cce3,10*
G04 Gerber Generator version 0.2*
G04 Scale: 100 percent, Rotated: No, Reflected: No *
G04 Dimensions in millimeters *
G04 leading zeros omitted , absolute positions ,4 integer and 5 decimal *
%FSLAX45Y45*%
%MOMM*%

%ADD10C,0.2540*%
%ADD12C,0.1500*%
%ADD13C,0.2000*%
%ADD46C,0.2500*%
%ADD47C,0.1524*%
%ADD48C,0.1800*%
%ADD49C,0.2032*%
%ADD50C,0.1600*%

%LPD*%
D48*
X1751177Y-1811017D02*
G01*
X1751177Y-1869691D01*
X1747367Y-1880613D01*
X1743811Y-1884169D01*
X1736445Y-1887979D01*
X1729079Y-1887979D01*
X1721713Y-1884169D01*
X1718157Y-1880613D01*
X1714601Y-1869691D01*
X1714601Y-1862325D01*
X1775307Y-1811017D02*
G01*
X1775307Y-1887979D01*
X1775307Y-1887979D02*
G01*
X1819249Y-1887979D01*
X1898243Y-1829305D02*
G01*
X1894433Y-1821939D01*
X1887321Y-1814827D01*
X1879955Y-1811017D01*
X1865223Y-1811017D01*
X1857857Y-1814827D01*
X1850491Y-1821939D01*
X1846935Y-1829305D01*
X1843379Y-1840227D01*
X1843379Y-1858515D01*
X1846935Y-1869691D01*
X1850491Y-1876803D01*
X1857857Y-1884169D01*
X1865223Y-1887979D01*
X1879955Y-1887979D01*
X1887321Y-1884169D01*
X1894433Y-1876803D01*
X1898243Y-1869691D01*
X1958949Y-1811017D02*
G01*
X1958949Y-1869691D01*
X1955393Y-1880613D01*
X1951583Y-1884169D01*
X1944217Y-1887979D01*
X1936851Y-1887979D01*
X1929739Y-1884169D01*
X1925929Y-1880613D01*
X1922373Y-1869691D01*
X1922373Y-1862325D01*
X1983079Y-1811017D02*
G01*
X1983079Y-1887979D01*
X1983079Y-1887979D02*
G01*
X2027021Y-1887979D01*
X2106015Y-1829305D02*
G01*
X2102459Y-1821939D01*
X2095093Y-1814827D01*
X2087727Y-1811017D01*
X2072995Y-1811017D01*
X2065883Y-1814827D01*
X2058517Y-1821939D01*
X2054707Y-1829305D01*
X2051151Y-1840227D01*
X2051151Y-1858515D01*
X2054707Y-1869691D01*
X2058517Y-1876803D01*
X2065883Y-1884169D01*
X2072995Y-1887979D01*
X2087727Y-1887979D01*
X2095093Y-1884169D01*
X2102459Y-1876803D01*
X2106015Y-1869691D01*
X2166721Y-1811017D02*
G01*
X2166721Y-1869691D01*
X2163165Y-1880613D01*
X2159355Y-1884169D01*
X2152243Y-1887979D01*
X2144877Y-1887979D01*
X2137511Y-1884169D01*
X2133955Y-1880613D01*
X2130145Y-1869691D01*
X2130145Y-1862325D01*
X2190851Y-1811017D02*
G01*
X2190851Y-1887979D01*
X2190851Y-1887979D02*
G01*
X2234793Y-1887979D01*
X2313787Y-1829305D02*
G01*
X2310231Y-1821939D01*
X2302865Y-1814827D01*
X2295499Y-1811017D01*
X2281021Y-1811017D01*
X2273655Y-1814827D01*
X2266289Y-1821939D01*
X2262733Y-1829305D01*
X2258923Y-1840227D01*
X2258923Y-1858515D01*
X2262733Y-1869691D01*
X2266289Y-1876803D01*
X2273655Y-1884169D01*
X2281021Y-1887979D01*
X2295499Y-1887979D01*
X2302865Y-1884169D01*
X2310231Y-1876803D01*
X2313787Y-1869691D01*
X2374493Y-1811017D02*
G01*
X2374493Y-1869691D01*
X2370937Y-1880613D01*
X2367381Y-1884169D01*
X2360015Y-1887979D01*
X2352649Y-1887979D01*
X2345283Y-1884169D01*
X2341727Y-1880613D01*
X2337917Y-1869691D01*
X2337917Y-1862325D01*
X2398623Y-1811017D02*
G01*
X2398623Y-1887979D01*
X2398623Y-1887979D02*
G01*
X2442565Y-1887979D01*
X2521813Y-1829305D02*
G01*
X2518003Y-1821939D01*
X2510637Y-1814827D01*
X2503525Y-1811017D01*
X2488793Y-1811017D01*
X2481427Y-1814827D01*
X2474061Y-1821939D01*
X2470505Y-1829305D01*
X2466695Y-1840227D01*
X2466695Y-1858515D01*
X2470505Y-1869691D01*
X2474061Y-1876803D01*
X2481427Y-1884169D01*
X2488793Y-1887979D01*
X2503525Y-1887979D01*
X2510637Y-1884169D01*
X2518003Y-1876803D01*
X2521813Y-1869691D01*
D49*
X5068315Y-212089D02*
G01*
X5060950Y-215900D01*
X5053584Y-223012D01*
X5050027Y-230378D01*
X5050027Y-244855D01*
X5053584Y-252221D01*
X5060950Y-259334D01*
X5068315Y-263144D01*
X5079238Y-266700D01*
X5097272Y-266700D01*
X5108193Y-263144D01*
X5115559Y-259334D01*
X5122925Y-252221D01*
X5126481Y-244855D01*
X5126481Y-230378D01*
X5122925Y-223012D01*
X5115559Y-215900D01*
X5108193Y-212089D01*
X5097272Y-212089D01*
X5097272Y-230378D02*
G01*
X5097272Y-212089D01*
X5050027Y-188213D02*
G01*
X5126481Y-188213D01*
X5050027Y-188213D02*
G01*
X5126481Y-137160D01*
X5050027Y-137160D02*
G01*
X5126481Y-137160D01*
X5050027Y-113284D02*
G01*
X5126481Y-113284D01*
X5050027Y-113284D02*
G01*
X5050027Y-87884D01*
X5053584Y-76962D01*
X5060950Y-69595D01*
X5068315Y-66039D01*
X5079238Y-62229D01*
X5097272Y-62229D01*
X5108193Y-66039D01*
X5115559Y-69595D01*
X5122925Y-76962D01*
X5126481Y-87884D01*
X5126481Y-113284D01*
X5829401Y-84353D02*
G01*
X5829401Y-160807D01*
X5829401Y-84353D02*
G01*
X5858357Y-160807D01*
X5887567Y-84353D02*
G01*
X5858357Y-160807D01*
X5887567Y-84353D02*
G01*
X5887567Y-160807D01*
X5911443Y-84353D02*
G01*
X5911443Y-138963D01*
X5914999Y-149885D01*
X5922365Y-156997D01*
X5933287Y-160807D01*
X5940653Y-160807D01*
X5951575Y-156997D01*
X5958687Y-149885D01*
X5962497Y-138963D01*
X5962497Y-84353D01*
X5986373Y-84353D02*
G01*
X6037173Y-160807D01*
X6037173Y-84353D02*
G01*
X5986373Y-160807D01*
X6090513Y-84353D02*
G01*
X6061303Y-160807D01*
X6090513Y-84353D02*
G01*
X6119469Y-160807D01*
X6072225Y-135407D02*
G01*
X6108547Y-135407D01*
X5803897Y-808228D02*
G01*
X5803897Y-884681D01*
X5803897Y-808228D02*
G01*
X5833104Y-884681D01*
X5862060Y-808228D02*
G01*
X5833104Y-884681D01*
X5862060Y-808228D02*
G01*
X5862060Y-884681D01*
X5886190Y-808228D02*
G01*
X5886190Y-862837D01*
X5889746Y-873760D01*
X5897110Y-881126D01*
X5907780Y-884681D01*
X5915146Y-884681D01*
X5926066Y-881126D01*
X5933434Y-873757D01*
X5936990Y-862837D01*
X5936990Y-808228D01*
X5960866Y-808228D02*
G01*
X6011923Y-884681D01*
X6011923Y-808228D02*
G01*
X5960866Y-884681D01*
X6035794Y-808228D02*
G01*
X6035796Y-884679D01*
X6035794Y-808228D02*
G01*
X6068562Y-808228D01*
X6079484Y-811784D01*
X6083294Y-815594D01*
X6086850Y-822705D01*
X6086850Y-830071D01*
X6083294Y-837437D01*
X6079484Y-840994D01*
X6068562Y-844552D01*
X6035796Y-844550D02*
G01*
X6068562Y-844552D01*
X6079484Y-848360D01*
X6083294Y-851915D01*
X6086850Y-859281D01*
X6086850Y-870204D01*
X6083294Y-877315D01*
X6079484Y-881126D01*
X6068562Y-884681D01*
X6035796Y-884679D01*
D50*
X609600Y-300228D02*
G01*
X609600Y-376681D01*
X609600Y-376681D02*
G01*
X653287Y-376681D01*
X713486Y-300228D02*
G01*
X677163Y-351281D01*
X731773Y-351281D01*
X713486Y-300228D02*
G01*
X713486Y-376681D01*
X863600Y-287528D02*
G01*
X863600Y-363981D01*
X863600Y-363981D02*
G01*
X907287Y-363981D01*
X938529Y-287528D02*
G01*
X978407Y-287528D01*
X956563Y-316737D01*
X967486Y-316737D01*
X974852Y-320294D01*
X978407Y-323850D01*
X982218Y-334771D01*
X982218Y-342137D01*
X978407Y-353060D01*
X971295Y-360426D01*
X960373Y-363981D01*
X949452Y-363981D01*
X938529Y-360426D01*
X934973Y-356615D01*
X931163Y-349504D01*
X1130300Y-287528D02*
G01*
X1130300Y-363981D01*
X1130300Y-363981D02*
G01*
X1173987Y-363981D01*
X1248918Y-287528D02*
G01*
X1212595Y-363981D01*
X1197863Y-287528D02*
G01*
X1248918Y-287528D01*
X1409700Y-287528D02*
G01*
X1409700Y-363981D01*
X1409700Y-363981D02*
G01*
X1453387Y-363981D01*
X1477263Y-287528D02*
G01*
X1477263Y-363981D01*
X1477263Y-287528D02*
G01*
X1502663Y-287528D01*
X1513586Y-291084D01*
X1520952Y-298450D01*
X1524507Y-305815D01*
X1528318Y-316737D01*
X1528318Y-334771D01*
X1524507Y-345694D01*
X1520952Y-353060D01*
X1513586Y-360426D01*
X1502663Y-363981D01*
X1477263Y-363981D01*
X558800Y-1659128D02*
G01*
X558800Y-1735581D01*
X558800Y-1735581D02*
G01*
X602487Y-1735581D01*
X673607Y-1684528D02*
G01*
X670052Y-1695450D01*
X662686Y-1702815D01*
X651763Y-1706371D01*
X648207Y-1706371D01*
X637286Y-1702815D01*
X630173Y-1695450D01*
X626363Y-1684528D01*
X626363Y-1680971D01*
X630173Y-1670050D01*
X637286Y-1662684D01*
X648207Y-1659128D01*
X651763Y-1659128D01*
X662686Y-1662684D01*
X670052Y-1670050D01*
X673607Y-1684528D01*
X673607Y-1702815D01*
X670052Y-1721104D01*
X662686Y-1732026D01*
X651763Y-1735581D01*
X644652Y-1735581D01*
X633729Y-1732026D01*
X630173Y-1724660D01*
X927100Y-1875028D02*
G01*
X927100Y-1951481D01*
X927100Y-1951481D02*
G01*
X970787Y-1951481D01*
X1016507Y-1875028D02*
G01*
X1005586Y-1878584D01*
X998473Y-1889505D01*
X994663Y-1907794D01*
X994663Y-1918715D01*
X998473Y-1937004D01*
X1005586Y-1947926D01*
X1016507Y-1951481D01*
X1023873Y-1951481D01*
X1034795Y-1947926D01*
X1041907Y-1937004D01*
X1045718Y-1918715D01*
X1045718Y-1907794D01*
X1041907Y-1889505D01*
X1034795Y-1878584D01*
X1023873Y-1875028D01*
X1016507Y-1875028D01*
X1193800Y-1875028D02*
G01*
X1193800Y-1951481D01*
X1193800Y-1951481D02*
G01*
X1237487Y-1951481D01*
X1261363Y-1889505D02*
G01*
X1268729Y-1885950D01*
X1279652Y-1875028D01*
X1279652Y-1951481D01*
X1460500Y-1875028D02*
G01*
X1460500Y-1951481D01*
X1460500Y-1951481D02*
G01*
X1504187Y-1951481D01*
X1571752Y-1875028D02*
G01*
X1535429Y-1875028D01*
X1531873Y-1907794D01*
X1535429Y-1904237D01*
X1546352Y-1900428D01*
X1557273Y-1900428D01*
X1568195Y-1904237D01*
X1575307Y-1911350D01*
X1579118Y-1922271D01*
X1579118Y-1929637D01*
X1575307Y-1940560D01*
X1568195Y-1947926D01*
X1557273Y-1951481D01*
X1546352Y-1951481D01*
X1535429Y-1947926D01*
X1531873Y-1944115D01*
X1528063Y-1937004D01*
X2667000Y-503428D02*
G01*
X2667000Y-579881D01*
X2667000Y-579881D02*
G01*
X2710688Y-579881D01*
X2778252Y-514350D02*
G01*
X2774695Y-506984D01*
X2763774Y-503428D01*
X2756408Y-503428D01*
X2745486Y-506984D01*
X2738374Y-517905D01*
X2734563Y-536194D01*
X2734563Y-554481D01*
X2738374Y-568960D01*
X2745486Y-576326D01*
X2756408Y-579881D01*
X2759963Y-579881D01*
X2770886Y-576326D01*
X2778252Y-568960D01*
X2781808Y-558037D01*
X2781808Y-554481D01*
X2778252Y-543560D01*
X2770886Y-536194D01*
X2759963Y-532637D01*
X2756408Y-532637D01*
X2745486Y-536194D01*
X2738374Y-543560D01*
X2734563Y-554481D01*
X2908300Y-503428D02*
G01*
X2908300Y-579881D01*
X2908300Y-579881D02*
G01*
X2951988Y-579881D01*
X2994152Y-503428D02*
G01*
X2983229Y-506984D01*
X2979674Y-514350D01*
X2979674Y-521715D01*
X2983229Y-528828D01*
X2990595Y-532637D01*
X3005074Y-536194D01*
X3015995Y-539750D01*
X3023108Y-547115D01*
X3026918Y-554481D01*
X3026918Y-565404D01*
X3023108Y-572515D01*
X3019552Y-576326D01*
X3008629Y-579881D01*
X2994152Y-579881D01*
X2983229Y-576326D01*
X2979674Y-572515D01*
X2975863Y-565404D01*
X2975863Y-554481D01*
X2979674Y-547115D01*
X2986786Y-539750D01*
X2997708Y-536194D01*
X3012186Y-532637D01*
X3019552Y-528828D01*
X3023108Y-521715D01*
X3023108Y-514350D01*
X3019552Y-506984D01*
X3008629Y-503428D01*
X2994152Y-503428D01*
X2679700Y-820928D02*
G01*
X2679700Y-897381D01*
X2679700Y-897381D02*
G01*
X2723388Y-897381D01*
X2751074Y-839215D02*
G01*
X2751074Y-835405D01*
X2754629Y-828294D01*
X2758186Y-824484D01*
X2765552Y-820928D01*
X2780029Y-820928D01*
X2787395Y-824484D01*
X2790952Y-828294D01*
X2794508Y-835405D01*
X2794508Y-842771D01*
X2790952Y-850137D01*
X2783586Y-861060D01*
X2747263Y-897381D01*
X2798318Y-897381D01*
X3175000Y-478028D02*
G01*
X3175000Y-554481D01*
X3175000Y-478028D02*
G01*
X3207765Y-478028D01*
X3218688Y-481584D01*
X3222243Y-485394D01*
X3225800Y-492505D01*
X3225800Y-499871D01*
X3222243Y-507237D01*
X3218688Y-510794D01*
X3207765Y-514350D01*
X3175000Y-514350D01*
X3200400Y-514350D02*
G01*
X3225800Y-554481D01*
X3286252Y-478028D02*
G01*
X3249929Y-529081D01*
X3304540Y-529081D01*
X3286252Y-478028D02*
G01*
X3286252Y-554481D01*
X3429000Y-478028D02*
G01*
X3429000Y-554481D01*
X3429000Y-478028D02*
G01*
X3461765Y-478028D01*
X3472688Y-481584D01*
X3476243Y-485394D01*
X3479800Y-492505D01*
X3479800Y-499871D01*
X3476243Y-507237D01*
X3472688Y-510794D01*
X3461765Y-514350D01*
X3429000Y-514350D01*
X3454400Y-514350D02*
G01*
X3479800Y-554481D01*
X3554729Y-478028D02*
G01*
X3518408Y-554481D01*
X3503929Y-478028D02*
G01*
X3554729Y-478028D01*
X3289300Y-693928D02*
G01*
X3289300Y-770381D01*
X3289300Y-693928D02*
G01*
X3322065Y-693928D01*
X3332988Y-697484D01*
X3336543Y-701294D01*
X3340100Y-708405D01*
X3340100Y-715771D01*
X3336543Y-723137D01*
X3332988Y-726694D01*
X3322065Y-730250D01*
X3289300Y-730250D01*
X3314700Y-730250D02*
G01*
X3340100Y-770381D01*
X3367786Y-712215D02*
G01*
X3367786Y-708405D01*
X3371595Y-701294D01*
X3375152Y-697484D01*
X3382263Y-693928D01*
X3396995Y-693928D01*
X3404108Y-697484D01*
X3407918Y-701294D01*
X3411474Y-708405D01*
X3411474Y-715771D01*
X3407918Y-723137D01*
X3400552Y-734060D01*
X3364229Y-770381D01*
X3415029Y-770381D01*
X3556000Y-693928D02*
G01*
X3556000Y-770381D01*
X3556000Y-693928D02*
G01*
X3588765Y-693928D01*
X3599688Y-697484D01*
X3603243Y-701294D01*
X3606800Y-708405D01*
X3606800Y-715771D01*
X3603243Y-723137D01*
X3599688Y-726694D01*
X3588765Y-730250D01*
X3556000Y-730250D01*
X3581400Y-730250D02*
G01*
X3606800Y-770381D01*
X3652774Y-693928D02*
G01*
X3641852Y-697484D01*
X3634486Y-708405D01*
X3630929Y-726694D01*
X3630929Y-737615D01*
X3634486Y-755904D01*
X3641852Y-766826D01*
X3652774Y-770381D01*
X3659886Y-770381D01*
X3670808Y-766826D01*
X3678174Y-755904D01*
X3681729Y-737615D01*
X3681729Y-726694D01*
X3678174Y-708405D01*
X3670808Y-697484D01*
X3659886Y-693928D01*
X3652774Y-693928D01*
X3924300Y-693928D02*
G01*
X3924300Y-770381D01*
X3924300Y-693928D02*
G01*
X3957065Y-693928D01*
X3967988Y-697484D01*
X3971543Y-701294D01*
X3975100Y-708405D01*
X3975100Y-715771D01*
X3971543Y-723137D01*
X3967988Y-726694D01*
X3957065Y-730250D01*
X3924300Y-730250D01*
X3949700Y-730250D02*
G01*
X3975100Y-770381D01*
X3999229Y-693928D02*
G01*
X3999229Y-770381D01*
X3999229Y-693928D02*
G01*
X4024629Y-693928D01*
X4035552Y-697484D01*
X4042918Y-704850D01*
X4046474Y-712215D01*
X4050029Y-723137D01*
X4050029Y-741171D01*
X4046474Y-752094D01*
X4042918Y-759460D01*
X4035552Y-766826D01*
X4024629Y-770381D01*
X3999229Y-770381D01*
X4165600Y-693928D02*
G01*
X4165600Y-770381D01*
X4165600Y-693928D02*
G01*
X4198365Y-693928D01*
X4209288Y-697484D01*
X4212843Y-701294D01*
X4216400Y-708405D01*
X4216400Y-715771D01*
X4212843Y-723137D01*
X4209288Y-726694D01*
X4198365Y-730250D01*
X4165600Y-730250D01*
X4191000Y-730250D02*
G01*
X4216400Y-770381D01*
X4247895Y-693928D02*
G01*
X4287774Y-693928D01*
X4265929Y-723137D01*
X4276852Y-723137D01*
X4284218Y-726694D01*
X4287774Y-730250D01*
X4291329Y-741171D01*
X4291329Y-748537D01*
X4287774Y-759460D01*
X4280408Y-766826D01*
X4269486Y-770381D01*
X4258563Y-770381D01*
X4247895Y-766826D01*
X4244086Y-763015D01*
X4240529Y-755904D01*
X4419600Y-693928D02*
G01*
X4419600Y-770381D01*
X4419600Y-693928D02*
G01*
X4452365Y-693928D01*
X4463288Y-697484D01*
X4466843Y-701294D01*
X4470400Y-708405D01*
X4470400Y-715771D01*
X4466843Y-723137D01*
X4463288Y-726694D01*
X4452365Y-730250D01*
X4419600Y-730250D01*
X4445000Y-730250D02*
G01*
X4470400Y-770381D01*
X4512563Y-693928D02*
G01*
X4501895Y-697484D01*
X4498086Y-704850D01*
X4498086Y-712215D01*
X4501895Y-719328D01*
X4509008Y-723137D01*
X4523486Y-726694D01*
X4534408Y-730250D01*
X4541774Y-737615D01*
X4545329Y-744981D01*
X4545329Y-755904D01*
X4541774Y-763015D01*
X4538218Y-766826D01*
X4527295Y-770381D01*
X4512563Y-770381D01*
X4501895Y-766826D01*
X4498086Y-763015D01*
X4494529Y-755904D01*
X4494529Y-744981D01*
X4498086Y-737615D01*
X4505452Y-730250D01*
X4516374Y-726694D01*
X4530852Y-723137D01*
X4538218Y-719328D01*
X4541774Y-712215D01*
X4541774Y-704850D01*
X4538218Y-697484D01*
X4527295Y-693928D01*
X4512563Y-693928D01*
X4660900Y-693928D02*
G01*
X4660900Y-770381D01*
X4660900Y-693928D02*
G01*
X4693665Y-693928D01*
X4704588Y-697484D01*
X4708143Y-701294D01*
X4711700Y-708405D01*
X4711700Y-715771D01*
X4708143Y-723137D01*
X4704588Y-726694D01*
X4693665Y-730250D01*
X4660900Y-730250D01*
X4686300Y-730250D02*
G01*
X4711700Y-770381D01*
X4783074Y-719328D02*
G01*
X4779518Y-730250D01*
X4772152Y-737615D01*
X4761229Y-741171D01*
X4757674Y-741171D01*
X4746752Y-737615D01*
X4739386Y-730250D01*
X4735829Y-719328D01*
X4735829Y-715771D01*
X4739386Y-704850D01*
X4746752Y-697484D01*
X4757674Y-693928D01*
X4761229Y-693928D01*
X4772152Y-697484D01*
X4779518Y-704850D01*
X4783074Y-719328D01*
X4783074Y-737615D01*
X4779518Y-755904D01*
X4772152Y-766826D01*
X4761229Y-770381D01*
X4753863Y-770381D01*
X4743195Y-766826D01*
X4739386Y-759460D01*
X5016550Y-884428D02*
G01*
X5016550Y-960881D01*
X5016550Y-884428D02*
G01*
X5049316Y-884428D01*
X5060238Y-887984D01*
X5063794Y-891794D01*
X5067350Y-898905D01*
X5067350Y-906271D01*
X5063794Y-913637D01*
X5060238Y-917194D01*
X5049316Y-920750D01*
X5016550Y-920750D01*
X5041950Y-920750D02*
G01*
X5067350Y-960881D01*
X5135168Y-895350D02*
G01*
X5131358Y-887984D01*
X5120436Y-884428D01*
X5113324Y-884428D01*
X5102402Y-887984D01*
X5095036Y-898905D01*
X5091480Y-917194D01*
X5091480Y-935481D01*
X5095036Y-949960D01*
X5102402Y-957326D01*
X5113324Y-960881D01*
X5116880Y-960881D01*
X5127802Y-957326D01*
X5135168Y-949960D01*
X5138724Y-939037D01*
X5138724Y-935481D01*
X5135168Y-924560D01*
X5127802Y-917194D01*
X5116880Y-913637D01*
X5113324Y-913637D01*
X5102402Y-917194D01*
X5095036Y-924560D01*
X5091480Y-935481D01*
X5118150Y-1074928D02*
G01*
X5118150Y-1151381D01*
X5118150Y-1074928D02*
G01*
X5150916Y-1074928D01*
X5161838Y-1078484D01*
X5165394Y-1082294D01*
X5168950Y-1089405D01*
X5168950Y-1096771D01*
X5165394Y-1104137D01*
X5161838Y-1107694D01*
X5150916Y-1111250D01*
X5118150Y-1111250D01*
X5143550Y-1111250D02*
G01*
X5168950Y-1151381D01*
X5236768Y-1074928D02*
G01*
X5200192Y-1074928D01*
X5196636Y-1107694D01*
X5200192Y-1104137D01*
X5211114Y-1100328D01*
X5222036Y-1100328D01*
X5232958Y-1104137D01*
X5240324Y-1111250D01*
X5243880Y-1122171D01*
X5243880Y-1129537D01*
X5240324Y-1140460D01*
X5232958Y-1147826D01*
X5222036Y-1151381D01*
X5211114Y-1151381D01*
X5200192Y-1147826D01*
X5196636Y-1144015D01*
X5193080Y-1136904D01*
X5118100Y-1278128D02*
G01*
X5118100Y-1354581D01*
X5118100Y-1278128D02*
G01*
X5150865Y-1278128D01*
X5161788Y-1281684D01*
X5165343Y-1285494D01*
X5168900Y-1292605D01*
X5168900Y-1299971D01*
X5165343Y-1307337D01*
X5161788Y-1310894D01*
X5150865Y-1314450D01*
X5118100Y-1314450D01*
X5143500Y-1314450D02*
G01*
X5168900Y-1354581D01*
X5193029Y-1292605D02*
G01*
X5200395Y-1289050D01*
X5211063Y-1278128D01*
X5211063Y-1354581D01*
D10*
X2041232Y-1733499D02*
G01*
X1961230Y-1733499D01*
X1930250Y-1622518D02*
G01*
X1930250Y-1702518D01*
X2041232Y-1591536D02*
G01*
X1961230Y-1591536D01*
X2098822Y-1734083D02*
G01*
X2178817Y-1734083D01*
X2098822Y-1592120D02*
G01*
X2178817Y-1592120D01*
X2209800Y-1623100D02*
G01*
X2209800Y-1703103D01*
X3425532Y-1962099D02*
G01*
X3345530Y-1962099D01*
X3314550Y-1851118D02*
G01*
X3314550Y-1931118D01*
X3425532Y-1820136D02*
G01*
X3345530Y-1820136D01*
X3483122Y-1962683D02*
G01*
X3563117Y-1962683D01*
X3483122Y-1820720D02*
G01*
X3563117Y-1820720D01*
X3594100Y-1851700D02*
G01*
X3594100Y-1931703D01*
X4845100Y-1609432D02*
G01*
X4845100Y-1529430D01*
X4956081Y-1498450D02*
G01*
X4876081Y-1498450D01*
X4987063Y-1609432D02*
G01*
X4987063Y-1529430D01*
X4844516Y-1667022D02*
G01*
X4844516Y-1747017D01*
X4986479Y-1667022D02*
G01*
X4986479Y-1747017D01*
X4955499Y-1778000D02*
G01*
X4875496Y-1778000D01*
X5645200Y-600710D02*
G01*
X5645200Y-519203D01*
X5711190Y-519201D01*
X5871209Y-519201D02*
G01*
X5937199Y-519203D01*
X5871209Y-519201D01*
X5937199Y-519203D01*
X5937199Y-600710D01*
D13*
X5761202Y-674192D02*
G01*
X5821197Y-674192D01*
D10*
X5632500Y-1337310D02*
G01*
X5632500Y-1255801D01*
X5698490Y-1255801D01*
X5858509Y-1255801D02*
G01*
X5924499Y-1255801D01*
X5858509Y-1255801D01*
X5924499Y-1255801D01*
X5924499Y-1337310D01*
D13*
X5748502Y-1410792D02*
G01*
X5808497Y-1410792D01*
D10*
X5677296Y-966000D02*
G01*
X5677296Y-840999D01*
X5473303Y-966000D02*
G01*
X5473303Y-840999D01*
X5677296Y-1065999D02*
G01*
X5677296Y-1191000D01*
X5473303Y-1065999D02*
G01*
X5473303Y-1191000D01*
X5677298Y-840996D02*
G01*
X5473303Y-840999D01*
X5677296Y-1191000D02*
G01*
X5473303Y-1191000D01*
X5677296Y-178600D02*
G01*
X5677296Y-53599D01*
X5473303Y-178600D02*
G01*
X5473303Y-53599D01*
X5677296Y-278599D02*
G01*
X5677296Y-403600D01*
X5473303Y-278599D02*
G01*
X5473303Y-403600D01*
X5677296Y-53596D02*
G01*
X5473303Y-53599D01*
X5677296Y-403600D02*
G01*
X5473303Y-403600D01*
X5525833Y-1720377D02*
G01*
X5614222Y-1808767D01*
X5670077Y-1576133D02*
G01*
X5758467Y-1664522D01*
X5455122Y-1649666D02*
G01*
X5366732Y-1561277D01*
X5599366Y-1505422D02*
G01*
X5510977Y-1417032D01*
X5614222Y-1808769D02*
G01*
X5758467Y-1664522D01*
X5366732Y-1561277D02*
G01*
X5510977Y-1417032D01*
X6247599Y-1816496D02*
G01*
X6372600Y-1816496D01*
X6247599Y-1612503D02*
G01*
X6372600Y-1612503D01*
X6147600Y-1816496D02*
G01*
X6022599Y-1816496D01*
X6147600Y-1612503D02*
G01*
X6022599Y-1612503D01*
X6372603Y-1816496D02*
G01*
X6372600Y-1612503D01*
X6022599Y-1816496D02*
G01*
X6022599Y-1612503D01*
X6528196Y-178600D02*
G01*
X6528196Y-53599D01*
X6324203Y-178600D02*
G01*
X6324203Y-53599D01*
X6528196Y-278599D02*
G01*
X6528196Y-403600D01*
X6324203Y-278599D02*
G01*
X6324203Y-403600D01*
X6528196Y-53596D02*
G01*
X6324203Y-53599D01*
X6528196Y-403600D02*
G01*
X6324203Y-403600D01*
X6528196Y-966000D02*
G01*
X6528196Y-840999D01*
X6324203Y-966000D02*
G01*
X6324203Y-840999D01*
X6528196Y-1065999D02*
G01*
X6528196Y-1191000D01*
X6324203Y-1065999D02*
G01*
X6324203Y-1191000D01*
X6528196Y-840996D02*
G01*
X6324203Y-840999D01*
X6528196Y-1191000D02*
G01*
X6324203Y-1191000D01*
X6343599Y-643889D02*
G01*
X6343599Y-725398D01*
X6277609Y-725398D01*
X6117590Y-725398D02*
G01*
X6051600Y-725398D01*
X6117590Y-725398D01*
X6051600Y-725398D01*
X6051600Y-643889D01*
D13*
X6227597Y-570407D02*
G01*
X6167602Y-570407D01*
D10*
X6051600Y-1337310D02*
G01*
X6051600Y-1255803D01*
X6117590Y-1255801D01*
X6277609Y-1255801D02*
G01*
X6343599Y-1255803D01*
X6277609Y-1255801D01*
X6343599Y-1255803D01*
X6343599Y-1337310D01*
D13*
X6167602Y-1410792D02*
G01*
X6227597Y-1410792D01*
D10*
X1893900Y66398D02*
G01*
X2093899Y66398D01*
X1893900Y-53601D02*
G01*
X1893900Y66398D01*
X2093899Y-53601D02*
G01*
X2093899Y66398D01*
X2082015Y-294901D02*
G01*
X2105784Y-294901D01*
X1882015Y-294901D02*
G01*
X1905784Y-294901D01*
X2133899Y-53601D02*
G01*
X1853900Y-53601D01*
X2599999Y66398D02*
G01*
X2799999Y66398D01*
X2599999Y-53601D02*
G01*
X2599999Y66398D01*
X2799999Y-53601D02*
G01*
X2799999Y66398D01*
X2788114Y-294901D02*
G01*
X2811884Y-294901D01*
X2588115Y-294901D02*
G01*
X2611884Y-294901D01*
X2839999Y-53601D02*
G01*
X2559999Y-53601D01*
X3300001Y66398D02*
G01*
X3500000Y66398D01*
X3300001Y-53601D02*
G01*
X3300001Y66398D01*
X3500000Y-53601D02*
G01*
X3500000Y66398D01*
X3488115Y-294901D02*
G01*
X3511885Y-294901D01*
X3288116Y-294901D02*
G01*
X3311885Y-294901D01*
X3540000Y-53601D02*
G01*
X3260001Y-53601D01*
X8400000Y-1825002D02*
G01*
X6600004Y-1825002D01*
X6600004Y-225005D01*
X8400000Y-225005D01*
X8400000Y-1825002D01*
D46*
X4949997Y105006D02*
G01*
X4050002Y105006D01*
X4540001Y-454995D02*
G01*
X4540001Y-474995D01*
X4400001Y-414995D02*
G01*
X4400001Y-454995D01*
X4460001Y-454995D01*
X4460001Y-474995D01*
X4600000Y-414995D02*
G01*
X4600000Y-454995D01*
X4540001Y-454995D01*
X4601001Y-414995D02*
G01*
X4399000Y-414995D01*
D10*
X4781765Y-31671D02*
G01*
X4731981Y-281861D01*
X4601933Y-281861D01*
X4551895Y-31671D01*
X4601425Y-31671D01*
X4641303Y-241729D01*
X4694135Y-241729D01*
X4734267Y-31671D01*
X4781765Y-31671D01*
X4751793Y-161719D02*
G01*
X4711915Y-161719D01*
X4621857Y-161749D02*
G01*
X4581857Y-161749D01*
X4294179Y-162257D02*
G01*
X4254179Y-162257D01*
X4424116Y-162227D02*
G01*
X4384238Y-162227D01*
X4454088Y-32179D02*
G01*
X4404304Y-282369D01*
X4274256Y-282369D01*
X4224218Y-32179D01*
X4273748Y-32179D01*
X4313626Y-242237D01*
X4366458Y-242237D01*
X4406590Y-32179D01*
X4454088Y-32179D01*
D46*
X4949997Y-598995D02*
G01*
X4950000Y100007D01*
X4050002Y-598995D02*
G01*
X4050002Y100007D01*
X4865113Y-598995D02*
G01*
X4842911Y-598995D01*
X4157085Y-598995D02*
G01*
X4134883Y-598995D01*
D10*
X1897379Y-548639D02*
G01*
X1897379Y-1538986D01*
X2265679Y-1538986D01*
X2265679Y-543813D01*
X2265679Y-543813D02*
G01*
X2141232Y-543813D01*
X2024379Y-546100D02*
G01*
X1897379Y-546100D01*
X3655059Y-1224279D02*
G01*
X2664713Y-1224279D01*
X2664713Y-1592579D01*
X3659886Y-1592579D01*
X3659886Y-1592579D02*
G01*
X3659886Y-1468132D01*
X3657600Y-1351279D02*
G01*
X3657600Y-1224279D01*
X4785359Y-1224279D02*
G01*
X3795013Y-1224279D01*
X3795013Y-1592579D01*
X4790186Y-1592579D01*
X4790186Y-1592579D02*
G01*
X4790186Y-1468132D01*
X4787900Y-1351279D02*
G01*
X4787900Y-1224279D01*
D12*
X5156200Y-646201D02*
G01*
X5080000Y-646201D01*
D47*
X5215719Y-503580D02*
G01*
X5215719Y-788822D01*
X5020480Y-503580D02*
G01*
X5044777Y-503580D01*
X5215719Y-503580D02*
G01*
X5191422Y-503580D01*
X5215719Y-788822D02*
G01*
X5191422Y-788822D01*
D12*
X5118100Y-570001D02*
G01*
X5118100Y-722401D01*
X5156200Y-608101D02*
G01*
X5118100Y-646201D01*
X5080000Y-608101D01*
X5156200Y-608101D01*
X5080000Y-684301D02*
G01*
X5118100Y-646201D01*
X5156200Y-684301D01*
X5080000Y-684301D01*
D47*
X5215719Y-746107D02*
G01*
X5020480Y-746107D01*
X5215719Y-544520D02*
G01*
X5020480Y-544520D01*
X5020480Y-503580D02*
G01*
X5020480Y-788822D01*
X5020480Y-788822D02*
G01*
X5044777Y-788822D01*
D10*
G75*
G01*
X1930248Y-1622519D02*
G02*
X1961231Y-1591536I30983J0D01*
G75*
G01*
X1961231Y-1733502D02*
G02*
X1930248Y-1702519I0J30983D01*
G75*
G01*
X2178817Y-1592118D02*
G02*
X2209800Y-1623101I0J-30983D01*
G75*
G01*
X2209800Y-1703100D02*
G02*
X2178817Y-1734083I-30983J0D01*
G75*
G01*
X3314548Y-1851119D02*
G02*
X3345531Y-1820136I30983J0D01*
G75*
G01*
X3345531Y-1962102D02*
G02*
X3314548Y-1931119I0J30983D01*
G75*
G01*
X3563117Y-1820718D02*
G02*
X3594100Y-1851701I0J-30983D01*
G75*
G01*
X3594100Y-1931700D02*
G02*
X3563117Y-1962683I-30983J0D01*
G75*
G01*
X4956081Y-1498448D02*
G02*
X4987064Y-1529431I0J-30983D01*
G75*
G01*
X4845098Y-1529431D02*
G02*
X4876081Y-1498448I30983J0D01*
G75*
G01*
X4986482Y-1747017D02*
G02*
X4955499Y-1778000I-30983J0D01*
G75*
G01*
X4875500Y-1778000D02*
G02*
X4844517Y-1747017I0J30983D01*
G75*
G01*
X2024380Y-546100D02*
G03*
X2141233Y-546392I58420J-2548D01*
G75*
G01*
X3657600Y-1351280D02*
G03*
X3657308Y-1468133I-2548J-58420D01*
G75*
G01*
X4787900Y-1351280D02*
G03*
X4787608Y-1468133I-2548J-58420D01*
M02*
