G04 Layer: BottomSolderMaskLayer*
G04 EasyEDA v6.4.24, 2021-09-25T18:25:05+02:00*
G04 d15503250396465d85bfe37af418053a,f5a38c858c354eb5b90fd3f81420cce3,10*
G04 Gerber Generator version 0.2*
G04 Scale: 100 percent, Rotated: No, Reflected: No *
G04 Dimensions in millimeters *
G04 leading zeros omitted , absolute positions ,4 integer and 5 decimal *
%FSLAX45Y45*%
%MOMM*%

%ADD52C,1.2032*%
%ADD53C,0.8032*%
%ADD54C,1.7032*%
%ADD64C,1.2000*%
%ADD65C,1.7272*%

%LPD*%
D54*
X5113909Y-571500D02*
G01*
X5113909Y-571500D01*
D52*
X4068013Y-184983D02*
G01*
X4068013Y-104983D01*
X4931994Y-184983D02*
G01*
X4931994Y-104983D01*
X4068013Y-569986D02*
G01*
X4068013Y-459986D01*
X4931994Y-569986D02*
G01*
X4931994Y-459986D01*
D53*
X2286000Y-901090D02*
G01*
X2286000Y-993089D01*
X2159000Y-901090D02*
G01*
X2159000Y-993089D01*
X2032000Y-901090D02*
G01*
X2032000Y-993089D01*
X1905000Y-901090D02*
G01*
X1905000Y-993089D01*
X2286000Y-353110D02*
G01*
X2286000Y-445112D01*
X2159000Y-353110D02*
G01*
X2159000Y-445112D01*
X2032000Y-353110D02*
G01*
X2032000Y-445112D01*
X1905000Y-353110D02*
G01*
X1905000Y-445112D01*
D54*
G01*
X4381500Y-1079500D03*
G01*
X4803190Y-865911D03*
G01*
X4601590Y-1078611D03*
G01*
X4157090Y-1077391D03*
G36*
X5028691Y-948689D02*
G01*
X5028691Y-778510D01*
X5199125Y-778510D01*
X5199125Y-948689D01*
G37*
D64*
G01*
X2208911Y-142519D03*
G01*
X1778888Y-142519D03*
G01*
X2915031Y-142519D03*
G01*
X2485009Y-142519D03*
G01*
X3615004Y-142519D03*
G01*
X3184982Y-142519D03*
D65*
G01*
X8300008Y-1575003D03*
G01*
X8300008Y-1325016D03*
G01*
X8300008Y-775004D03*
G01*
X8300008Y-525018D03*
G36*
X3497072Y-478028D02*
G01*
X3443224Y-423926D01*
X3547363Y-319786D01*
X3601211Y-373634D01*
G37*
G36*
X3552697Y-533654D02*
G01*
X3498850Y-479805D01*
X3602990Y-375665D01*
X3657091Y-429513D01*
G37*
G36*
X3610356Y-591057D02*
G01*
X3556508Y-537210D01*
X3660647Y-433070D01*
X3714495Y-486918D01*
G37*
G36*
X3665981Y-646684D02*
G01*
X3612134Y-592836D01*
X3716274Y-488695D01*
X3770122Y-542544D01*
G37*
G36*
X3723386Y-704342D02*
G01*
X3669538Y-650239D01*
X3773677Y-546100D01*
X3827525Y-599947D01*
G37*
G36*
X3779011Y-759968D02*
G01*
X3725163Y-706120D01*
X3829304Y-601979D01*
X3883152Y-655828D01*
G37*
G36*
X3836670Y-817371D02*
G01*
X3782822Y-763523D01*
X3886961Y-659384D01*
X3940809Y-713231D01*
G37*
G36*
X3892295Y-872997D02*
G01*
X3838447Y-819150D01*
X3942588Y-715010D01*
X3996436Y-768857D01*
G37*
G36*
X3942588Y-1085087D02*
G01*
X3838447Y-980947D01*
X3892295Y-926845D01*
X3996436Y-1031239D01*
G37*
G36*
X3886961Y-1140713D02*
G01*
X3782822Y-1036573D01*
X3836670Y-982726D01*
X3940809Y-1086865D01*
G37*
G36*
X3829304Y-1198118D02*
G01*
X3725163Y-1093978D01*
X3779011Y-1040129D01*
X3883152Y-1144270D01*
G37*
G36*
X3773677Y-1253744D02*
G01*
X3669538Y-1149604D01*
X3723386Y-1095755D01*
X3827525Y-1199895D01*
G37*
G36*
X3716274Y-1311402D02*
G01*
X3612134Y-1207007D01*
X3665981Y-1153160D01*
X3770122Y-1257300D01*
G37*
G36*
X3660647Y-1367028D02*
G01*
X3556508Y-1262887D01*
X3610356Y-1209039D01*
X3714495Y-1313179D01*
G37*
G36*
X3602990Y-1424431D02*
G01*
X3498850Y-1320292D01*
X3552697Y-1266444D01*
X3657091Y-1370584D01*
G37*
G36*
X3547363Y-1480057D02*
G01*
X3443224Y-1375918D01*
X3497072Y-1322070D01*
X3601211Y-1426210D01*
G37*
G36*
X3285236Y-1480057D02*
G01*
X3231388Y-1426210D01*
X3335527Y-1322070D01*
X3389375Y-1375918D01*
G37*
G36*
X3229609Y-1424431D02*
G01*
X3175508Y-1370584D01*
X3279902Y-1266444D01*
X3333750Y-1320292D01*
G37*
G36*
X3171952Y-1367028D02*
G01*
X3118104Y-1313179D01*
X3222243Y-1209039D01*
X3276091Y-1262887D01*
G37*
G36*
X3116325Y-1311402D02*
G01*
X3062477Y-1257300D01*
X3166618Y-1153160D01*
X3220465Y-1207007D01*
G37*
G36*
X3058922Y-1253744D02*
G01*
X3005074Y-1199895D01*
X3109213Y-1095755D01*
X3163061Y-1149604D01*
G37*
G36*
X3003295Y-1198118D02*
G01*
X2949447Y-1144270D01*
X3053588Y-1040129D01*
X3107436Y-1093978D01*
G37*
G36*
X2945638Y-1140713D02*
G01*
X2891790Y-1086865D01*
X2995929Y-982726D01*
X3049777Y-1036573D01*
G37*
G36*
X2890011Y-1085087D02*
G01*
X2836163Y-1031239D01*
X2940304Y-926845D01*
X2994152Y-980947D01*
G37*
G36*
X2940304Y-872997D02*
G01*
X2836163Y-768857D01*
X2890011Y-715010D01*
X2994152Y-819150D01*
G37*
G36*
X2995929Y-817371D02*
G01*
X2891790Y-713231D01*
X2945638Y-659384D01*
X3049777Y-763523D01*
G37*
G36*
X3053588Y-759968D02*
G01*
X2949447Y-655828D01*
X3003295Y-601979D01*
X3107436Y-706120D01*
G37*
G36*
X3109213Y-704342D02*
G01*
X3005074Y-599947D01*
X3058922Y-546100D01*
X3163061Y-650239D01*
G37*
G36*
X3166618Y-646684D02*
G01*
X3062477Y-542544D01*
X3116325Y-488695D01*
X3220465Y-592836D01*
G37*
G36*
X3222243Y-591057D02*
G01*
X3118104Y-486918D01*
X3171952Y-433070D01*
X3276091Y-537210D01*
G37*
G36*
X3279902Y-533654D02*
G01*
X3175508Y-429513D01*
X3229609Y-375665D01*
X3333750Y-479805D01*
G37*
G36*
X3335527Y-478028D02*
G01*
X3231388Y-373634D01*
X3285236Y-319786D01*
X3389375Y-423926D01*
G37*
G36*
X2315972Y-1947671D02*
G01*
X2315972Y-1797557D01*
X2396236Y-1797557D01*
X2396236Y-1947671D01*
G37*
G36*
X2410968Y-1707642D02*
G01*
X2410968Y-1557528D01*
X2491231Y-1557528D01*
X2491231Y-1707642D01*
G37*
G36*
X2505963Y-1947671D02*
G01*
X2505963Y-1797557D01*
X2586227Y-1797557D01*
X2586227Y-1947671D01*
G37*
G36*
X8688070Y-1583181D02*
G01*
X8564118Y-1459229D01*
X8649208Y-1374139D01*
X8773159Y-1498092D01*
G37*
G36*
X8546591Y-1724660D02*
G01*
X8422640Y-1600707D01*
X8507729Y-1515618D01*
X8631681Y-1639570D01*
G37*
G36*
X5871463Y-1021842D02*
G01*
X5871463Y-871728D01*
X5951727Y-871728D01*
X5951727Y-1021842D01*
G37*
G36*
X5776468Y-1261871D02*
G01*
X5776468Y-1111757D01*
X5856731Y-1111757D01*
X5856731Y-1261871D01*
G37*
G36*
X5681472Y-1021842D02*
G01*
X5681472Y-871728D01*
X5761736Y-871728D01*
X5761736Y-1021842D01*
G37*
G36*
X6237477Y-1141729D02*
G01*
X6237477Y-966470D01*
X6357874Y-966470D01*
X6357874Y-1141729D01*
G37*
G36*
X6037325Y-1141729D02*
G01*
X6037325Y-966470D01*
X6157722Y-966470D01*
X6157722Y-1141729D01*
G37*
G36*
X5919724Y-1780031D02*
G01*
X5919724Y-1619757D01*
X6070091Y-1619757D01*
X6070091Y-1780031D01*
G37*
G36*
X6129781Y-1780031D02*
G01*
X6129781Y-1619757D01*
X6280150Y-1619757D01*
X6280150Y-1780031D01*
G37*
G36*
X5119877Y-1780031D02*
G01*
X5119877Y-1619757D01*
X5270245Y-1619757D01*
X5270245Y-1780031D01*
G37*
G36*
X5329936Y-1780031D02*
G01*
X5329936Y-1619757D01*
X5480304Y-1619757D01*
X5480304Y-1780031D01*
G37*
G36*
X4319777Y-1780031D02*
G01*
X4319777Y-1619757D01*
X4470145Y-1619757D01*
X4470145Y-1780031D01*
G37*
G36*
X4529836Y-1780031D02*
G01*
X4529836Y-1619757D01*
X4680204Y-1619757D01*
X4680204Y-1780031D01*
G37*
G36*
X3519677Y-1780031D02*
G01*
X3519677Y-1619757D01*
X3670045Y-1619757D01*
X3670045Y-1780031D01*
G37*
G36*
X3729736Y-1780031D02*
G01*
X3729736Y-1619757D01*
X3880104Y-1619757D01*
X3880104Y-1780031D01*
G37*
G36*
X2719831Y-1780031D02*
G01*
X2719831Y-1619757D01*
X2870200Y-1619757D01*
X2870200Y-1780031D01*
G37*
G36*
X2929890Y-1780031D02*
G01*
X2929890Y-1619757D01*
X3080258Y-1619757D01*
X3080258Y-1780031D01*
G37*
G36*
X5462777Y-1167129D02*
G01*
X5462777Y-991870D01*
X5583174Y-991870D01*
X5583174Y-1167129D01*
G37*
G36*
X5262625Y-1167129D02*
G01*
X5262625Y-991870D01*
X5383022Y-991870D01*
X5383022Y-1167129D01*
G37*
G36*
X6139941Y-1487678D02*
G01*
X6139941Y-1312418D01*
X6260084Y-1312418D01*
X6260084Y-1487678D01*
G37*
G36*
X5939790Y-1487678D02*
G01*
X5939790Y-1312418D01*
X6060186Y-1312418D01*
X6060186Y-1487678D01*
G37*
G36*
X5489956Y-1487678D02*
G01*
X5489956Y-1312418D01*
X5610097Y-1312418D01*
X5610097Y-1487678D01*
G37*
G36*
X5689854Y-1487678D02*
G01*
X5689854Y-1312418D01*
X5810250Y-1312418D01*
X5810250Y-1487678D01*
G37*
G36*
X5039868Y-1487678D02*
G01*
X5039868Y-1312418D01*
X5160263Y-1312418D01*
X5160263Y-1487678D01*
G37*
G36*
X5239765Y-1487678D02*
G01*
X5239765Y-1312418D01*
X5360161Y-1312418D01*
X5360161Y-1487678D01*
G37*
G36*
X4589779Y-1487678D02*
G01*
X4589779Y-1312418D01*
X4710175Y-1312418D01*
X4710175Y-1487678D01*
G37*
G36*
X4789931Y-1487678D02*
G01*
X4789931Y-1312418D01*
X4910074Y-1312418D01*
X4910074Y-1487678D01*
G37*
G36*
X4139945Y-1487678D02*
G01*
X4139945Y-1312418D01*
X4260088Y-1312418D01*
X4260088Y-1487678D01*
G37*
G36*
X4339843Y-1487678D02*
G01*
X4339843Y-1312418D01*
X4460240Y-1312418D01*
X4460240Y-1487678D01*
G37*
G36*
X5368543Y-636523D02*
G01*
X5368543Y-496315D01*
X5578856Y-496315D01*
X5578856Y-636523D01*
G37*
G36*
X5368543Y-316484D02*
G01*
X5368543Y-176276D01*
X5578856Y-176276D01*
X5578856Y-316484D01*
G37*
G36*
X5462777Y-913129D02*
G01*
X5462777Y-737870D01*
X5583174Y-737870D01*
X5583174Y-913129D01*
G37*
G36*
X5262625Y-913129D02*
G01*
X5262625Y-737870D01*
X5383022Y-737870D01*
X5383022Y-913129D01*
G37*
G36*
X1300226Y-252729D02*
G01*
X1300226Y-77470D01*
X1420621Y-77470D01*
X1420621Y-252729D01*
G37*
G36*
X1500378Y-252729D02*
G01*
X1500378Y-77470D01*
X1620773Y-77470D01*
X1620773Y-252729D01*
G37*
G36*
X750315Y-258063D02*
G01*
X750315Y-97536D01*
X890778Y-97536D01*
X890778Y-258063D01*
G37*
G36*
X1090421Y-258063D02*
G01*
X1090421Y-97536D01*
X1230884Y-97536D01*
X1230884Y-258063D01*
G37*
G36*
X1570228Y-1566671D02*
G01*
X1570228Y-1446276D01*
X1790700Y-1446276D01*
X1790700Y-1566671D01*
G37*
G36*
X2070354Y-1566671D02*
G01*
X2070354Y-1446276D01*
X2290572Y-1446276D01*
X2290572Y-1566671D01*
G37*
G36*
X1570228Y-1906523D02*
G01*
X1570228Y-1786128D01*
X1790700Y-1786128D01*
X1790700Y-1906523D01*
G37*
G36*
X3782313Y-380492D02*
G01*
X3711447Y-309626D01*
X3789425Y-231647D01*
X3860291Y-302513D01*
G37*
G36*
X3881374Y-479552D02*
G01*
X3810508Y-408686D01*
X3888486Y-330707D01*
X3959352Y-401573D01*
G37*
G36*
X2408681Y-678687D02*
G01*
X2408681Y-578357D01*
X2518918Y-578357D01*
X2518918Y-678687D01*
G37*
G36*
X2408681Y-818642D02*
G01*
X2408681Y-718312D01*
X2518918Y-718312D01*
X2518918Y-818642D01*
G37*
G36*
X5680709Y-789939D02*
G01*
X5680709Y-660400D01*
X5916929Y-660400D01*
X5916929Y-789939D01*
G37*
G36*
X5680709Y-558800D02*
G01*
X5680709Y-429260D01*
X5916929Y-429260D01*
X5916929Y-558800D01*
G37*
G36*
X5680709Y-330200D02*
G01*
X5680709Y-200660D01*
X5916929Y-200660D01*
X5916929Y-330200D01*
G37*
G36*
X6300470Y-679450D02*
G01*
X6300470Y-308610D01*
X6536690Y-308610D01*
X6536690Y-679450D01*
G37*
G36*
X2940304Y-441705D02*
G01*
X2940304Y-396494D01*
X3015488Y-396494D01*
X3015488Y-441705D01*
G37*
G36*
X2940304Y-376681D02*
G01*
X2940304Y-331470D01*
X3015488Y-331470D01*
X3015488Y-376681D01*
G37*
G36*
X2750311Y-376681D02*
G01*
X2750311Y-331470D01*
X2825495Y-331470D01*
X2825495Y-376681D01*
G37*
G36*
X2750311Y-441705D02*
G01*
X2750311Y-396494D01*
X2825495Y-396494D01*
X2825495Y-441705D01*
G37*
G36*
X2750311Y-506729D02*
G01*
X2750311Y-461518D01*
X2825495Y-461518D01*
X2825495Y-506729D01*
G37*
G36*
X2940304Y-506729D02*
G01*
X2940304Y-461518D01*
X3015488Y-461518D01*
X3015488Y-506729D01*
G37*
G36*
X2840227Y-496823D02*
G01*
X2840227Y-341376D01*
X2925572Y-341376D01*
X2925572Y-496823D01*
G37*
G36*
X647445Y-473963D02*
G01*
X539750Y-253492D01*
X694944Y-177800D01*
X802639Y-398271D01*
G37*
G36*
X1304544Y-1821434D02*
G01*
X1197102Y-1600962D01*
X1352295Y-1525270D01*
X1459737Y-1745742D01*
G37*
G36*
X4497070Y-493521D02*
G01*
X4497070Y-373126D01*
X4672329Y-373126D01*
X4672329Y-493521D01*
G37*
G36*
X4497070Y-693673D02*
G01*
X4497070Y-573278D01*
X4672329Y-573278D01*
X4672329Y-693673D01*
G37*
G36*
X2586481Y-602742D02*
G01*
X2586481Y-502412D01*
X2696718Y-502412D01*
X2696718Y-602742D01*
G37*
G36*
X2586481Y-462787D02*
G01*
X2586481Y-362457D01*
X2696718Y-362457D01*
X2696718Y-462787D01*
G37*
G36*
X3170174Y-1584452D02*
G01*
X3099308Y-1513586D01*
X3177286Y-1435607D01*
X3248152Y-1506473D01*
G37*
G36*
X3071113Y-1485392D02*
G01*
X3000247Y-1414526D01*
X3078225Y-1336547D01*
X3149091Y-1407413D01*
G37*
G36*
X4972811Y-1134618D02*
G01*
X4972811Y-1024381D01*
X5073141Y-1024381D01*
X5073141Y-1134618D01*
G37*
G36*
X4832858Y-1134618D02*
G01*
X4832858Y-1024381D01*
X4933188Y-1024381D01*
X4933188Y-1134618D01*
G37*
G36*
X1664207Y-670560D02*
G01*
X1579118Y-585470D01*
X1703070Y-461518D01*
X1788160Y-546607D01*
G37*
G36*
X1522729Y-529081D02*
G01*
X1437639Y-443992D01*
X1561592Y-320039D01*
X1646681Y-405129D01*
G37*
G36*
X2514091Y-1330960D02*
G01*
X2390140Y-1207007D01*
X2475229Y-1121918D01*
X2599181Y-1245870D01*
G37*
G36*
X2655570Y-1189481D02*
G01*
X2531618Y-1065529D01*
X2616708Y-980439D01*
X2740659Y-1104392D01*
G37*
G36*
X2717291Y-1521460D02*
G01*
X2593340Y-1397507D01*
X2678429Y-1312418D01*
X2802381Y-1436370D01*
G37*
G36*
X2858770Y-1379981D02*
G01*
X2734818Y-1256029D01*
X2819908Y-1170939D01*
X2943859Y-1294892D01*
G37*
G36*
X1664970Y-1103121D02*
G01*
X1664970Y-982726D01*
X1840229Y-982726D01*
X1840229Y-1103121D01*
G37*
G36*
X1664970Y-1303273D02*
G01*
X1664970Y-1182878D01*
X1840229Y-1182878D01*
X1840229Y-1303273D01*
G37*
G36*
X4199381Y-513587D02*
G01*
X4199381Y-413257D01*
X4309618Y-413257D01*
X4309618Y-513587D01*
G37*
G36*
X4199381Y-653542D02*
G01*
X4199381Y-553212D01*
X4309618Y-553212D01*
X4309618Y-653542D01*
G37*
M02*
