G04 Layer: BottomSilkscreenLayer*
G04 EasyEDA v6.5.1, 2022-03-27 10:56:29*
G04 5bdfba2922064175801a4ef29472edea,f5a38c858c354eb5b90fd3f81420cce3,10*
G04 Gerber Generator version 0.2*
G04 Scale: 100 percent, Rotated: No, Reflected: No *
G04 Dimensions in millimeters *
G04 leading zeros omitted , absolute positions ,4 integer and 5 decimal *
%FSLAX45Y45*%
%MOMM*%

%ADD10C,0.2540*%
%ADD12C,0.1500*%
%ADD47C,0.1524*%
%ADD50C,0.1600*%
%ADD51C,0.2007*%
%ADD52C,0.1016*%
%ADD53C,0.2030*%

%LPD*%
G36*
X8592007Y-290880D02*
G01*
X8589416Y-291744D01*
X8586724Y-294030D01*
X8573465Y-315925D01*
X8546693Y-361696D01*
X8471509Y-492353D01*
X8440013Y-547725D01*
X8419159Y-584860D01*
X8440267Y-584860D01*
X8550198Y-395325D01*
X8579459Y-345236D01*
X8593074Y-322630D01*
X8596071Y-327253D01*
X8616137Y-360934D01*
X8649970Y-418795D01*
X8746236Y-584860D01*
X8646820Y-585266D01*
X8516823Y-585165D01*
X8419159Y-584860D01*
X8413546Y-595680D01*
X8414258Y-598830D01*
X8416188Y-601624D01*
X8419134Y-603808D01*
X8423249Y-605129D01*
X8446465Y-605383D01*
X8586825Y-605485D01*
X8766708Y-605078D01*
X8771229Y-600608D01*
X8772296Y-598932D01*
X8773007Y-597306D01*
X8773261Y-595884D01*
X8770721Y-590702D01*
X8752890Y-558495D01*
X8722969Y-505815D01*
X8650528Y-380339D01*
X8619947Y-328168D01*
X8601100Y-296773D01*
X8597900Y-292100D01*
X8594801Y-291033D01*
G37*
G36*
X8584844Y-391922D02*
G01*
X8574786Y-392176D01*
X8571738Y-392480D01*
X8570671Y-392836D01*
X8575649Y-404672D01*
X8599373Y-458673D01*
X8604046Y-470154D01*
X8597239Y-466851D01*
X8565438Y-449783D01*
X8560460Y-447344D01*
X8558428Y-446633D01*
X8559190Y-450545D01*
X8565642Y-475792D01*
X8583269Y-541731D01*
X8582812Y-541832D01*
X8579662Y-540512D01*
X8571534Y-535838D01*
X8596528Y-572160D01*
X8601202Y-543153D01*
X8602980Y-530098D01*
X8601710Y-531368D01*
X8597646Y-536803D01*
X8596325Y-538226D01*
X8595258Y-538988D01*
X8594648Y-539038D01*
X8592007Y-522985D01*
X8587892Y-493420D01*
X8585758Y-474980D01*
X8586622Y-474268D01*
X8589822Y-475183D01*
X8596223Y-478180D01*
X8615019Y-487832D01*
X8626449Y-493420D01*
X8628329Y-494080D01*
X8627364Y-489864D01*
X8619693Y-462483D01*
X8599068Y-391922D01*
G37*
G36*
X8473440Y-620928D02*
G01*
X8466074Y-621334D01*
X8465464Y-621639D01*
X8485225Y-688289D01*
X8485936Y-689406D01*
X8487562Y-690067D01*
X8490661Y-690422D01*
X8505342Y-690473D01*
X8525916Y-622452D01*
X8525764Y-621639D01*
X8524544Y-621233D01*
X8522004Y-621080D01*
X8509152Y-621538D01*
X8495639Y-674014D01*
X8494877Y-672592D01*
X8493201Y-667308D01*
X8488172Y-648411D01*
X8481364Y-620928D01*
G37*
G36*
X8573871Y-621182D02*
G01*
X8567724Y-622452D01*
X8562594Y-625043D01*
X8557615Y-629970D01*
X8554415Y-636117D01*
X8552738Y-644398D01*
X8552296Y-654253D01*
X8567064Y-654253D01*
X8567318Y-646277D01*
X8567775Y-641197D01*
X8568588Y-638149D01*
X8569858Y-636219D01*
X8572754Y-634136D01*
X8576005Y-633577D01*
X8579104Y-634542D01*
X8581644Y-636981D01*
X8582761Y-639775D01*
X8583625Y-644093D01*
X8584184Y-649325D01*
X8584488Y-655116D01*
X8584438Y-660958D01*
X8584082Y-666394D01*
X8583371Y-670915D01*
X8582355Y-674065D01*
X8581034Y-676351D01*
X8579713Y-677672D01*
X8578037Y-678332D01*
X8575649Y-678484D01*
X8571179Y-677367D01*
X8568436Y-673506D01*
X8567166Y-666089D01*
X8567064Y-654253D01*
X8552296Y-654253D01*
X8552535Y-664464D01*
X8553551Y-671880D01*
X8555278Y-677976D01*
X8557717Y-682853D01*
X8560968Y-686562D01*
X8565032Y-689152D01*
X8569960Y-690626D01*
X8575751Y-691134D01*
X8581136Y-690676D01*
X8585809Y-689305D01*
X8589721Y-686968D01*
X8592972Y-683666D01*
X8595563Y-679399D01*
X8597493Y-674065D01*
X8598763Y-667715D01*
X8599474Y-660247D01*
X8599576Y-653237D01*
X8599119Y-646887D01*
X8598204Y-641197D01*
X8596731Y-636219D01*
X8594750Y-631901D01*
X8592210Y-628243D01*
X8589213Y-625297D01*
X8585657Y-623011D01*
X8580120Y-621334D01*
G37*
G36*
X8679535Y-622147D02*
G01*
X8679535Y-677824D01*
X8666835Y-677824D01*
X8666835Y-690524D01*
X8711184Y-690524D01*
X8711184Y-677824D01*
X8695994Y-677824D01*
X8695994Y-638759D01*
X8705443Y-638048D01*
X8707272Y-637438D01*
X8708085Y-636016D01*
X8708796Y-628853D01*
X8696350Y-624433D01*
X8692337Y-623366D01*
X8688527Y-622655D01*
X8685530Y-622350D01*
G37*
G36*
X8608618Y-622147D02*
G01*
X8608618Y-626618D01*
X8608872Y-629056D01*
X8609787Y-631748D01*
X8611311Y-634796D01*
X8616696Y-643229D01*
X8619337Y-647903D01*
X8621471Y-652424D01*
X8623249Y-657047D01*
X8624620Y-661873D01*
X8625687Y-667156D01*
X8626500Y-672947D01*
X8627973Y-690524D01*
X8644331Y-690524D01*
X8642654Y-676351D01*
X8641486Y-670509D01*
X8639962Y-664667D01*
X8638184Y-659028D01*
X8636101Y-653592D01*
X8633815Y-648462D01*
X8631275Y-643788D01*
X8626195Y-636168D01*
X8656066Y-635457D01*
X8656828Y-622147D01*
G37*
D50*
X5226047Y-399257D02*
G01*
X5191046Y-399257D01*
X5210136Y-424710D01*
X5200591Y-424713D01*
X5194228Y-427893D01*
X5191046Y-431076D01*
X5187863Y-440623D01*
X5187863Y-446984D01*
X5191046Y-456531D01*
X5197411Y-462894D01*
X5206956Y-466077D01*
X5216499Y-466077D01*
X5226047Y-462894D01*
X5229230Y-459712D01*
X5232410Y-453349D01*
X5163682Y-450166D02*
G01*
X5166865Y-453349D01*
X5163682Y-456531D01*
X5160500Y-453349D01*
X5163682Y-450166D01*
X5133136Y-399257D02*
G01*
X5098138Y-399260D01*
X5117228Y-424713D01*
X5107680Y-424713D01*
X5101318Y-427893D01*
X5098138Y-431076D01*
X5094955Y-440623D01*
X5094955Y-446986D01*
X5098138Y-456531D01*
X5104500Y-462894D01*
X5114046Y-466077D01*
X5123591Y-466077D01*
X5133136Y-462894D01*
X5136319Y-459712D01*
X5139499Y-453349D01*
X5073954Y-399260D02*
G01*
X5048501Y-466077D01*
X5023045Y-399257D02*
G01*
X5048501Y-466077D01*
X5159283Y-707268D02*
G01*
X5162463Y-700902D01*
X5168828Y-694540D01*
X5175194Y-691357D01*
X5187919Y-691357D01*
X5194282Y-694540D01*
X5200644Y-700902D01*
X5203830Y-707268D01*
X5207010Y-716813D01*
X5207010Y-732723D01*
X5203827Y-742266D01*
X5200647Y-748629D01*
X5194282Y-754994D01*
X5187916Y-758177D01*
X5175191Y-758177D01*
X5168828Y-754994D01*
X5162463Y-748631D01*
X5159281Y-742266D01*
X5159281Y-732723D01*
X5175191Y-732723D02*
G01*
X5159281Y-732723D01*
X5138282Y-691360D02*
G01*
X5138282Y-758177D01*
X5138282Y-691360D02*
G01*
X5093736Y-758177D01*
X5093738Y-691357D02*
G01*
X5093736Y-758177D01*
X5072738Y-691360D02*
G01*
X5072738Y-758177D01*
X5072738Y-691360D02*
G01*
X5050464Y-691357D01*
X5040919Y-694540D01*
X5034556Y-700902D01*
X5031371Y-707268D01*
X5028191Y-716813D01*
X5028191Y-732723D01*
X5031374Y-742266D01*
X5034554Y-748629D01*
X5040919Y-754994D01*
X5050464Y-758177D01*
X5072738Y-758177D01*
X4620392Y-920653D02*
G01*
X4626754Y-927018D01*
X4629934Y-936564D01*
X4629934Y-949289D01*
X4626754Y-958837D01*
X4620392Y-965200D01*
X4614026Y-965200D01*
X4607664Y-962017D01*
X4604484Y-958837D01*
X4601298Y-952472D01*
X4594936Y-933381D01*
X4591753Y-927018D01*
X4588570Y-923836D01*
X4582210Y-920653D01*
X4572662Y-920653D01*
X4566300Y-927018D01*
X4563117Y-936564D01*
X4563117Y-949289D01*
X4566300Y-958837D01*
X4572662Y-965200D01*
X4614026Y-851928D02*
G01*
X4620392Y-855108D01*
X4626754Y-861471D01*
X4629934Y-867836D01*
X4629937Y-880564D01*
X4626754Y-886927D01*
X4620392Y-893290D01*
X4614026Y-896475D01*
X4604481Y-899655D01*
X4588570Y-899655D01*
X4579028Y-896472D01*
X4572665Y-893292D01*
X4566300Y-886927D01*
X4563117Y-880562D01*
X4563117Y-867836D01*
X4566300Y-861471D01*
X4572662Y-855108D01*
X4579028Y-851926D01*
X4629934Y-830927D02*
G01*
X4563117Y-830927D01*
X4629934Y-786381D02*
G01*
X4585388Y-830927D01*
X4601298Y-815017D02*
G01*
X4563117Y-786381D01*
X4426734Y-965200D02*
G01*
X4359917Y-965200D01*
X4426734Y-965200D02*
G01*
X4359917Y-939746D01*
X4426737Y-914290D02*
G01*
X4359917Y-939746D01*
X4426737Y-914290D02*
G01*
X4359917Y-914290D01*
X4426737Y-893292D02*
G01*
X4359917Y-893290D01*
X4417192Y-827745D02*
G01*
X4423554Y-834108D01*
X4426734Y-843653D01*
X4426737Y-856383D01*
X4423554Y-865926D01*
X4417192Y-872289D01*
X4410826Y-872291D01*
X4404461Y-869109D01*
X4401281Y-865929D01*
X4398098Y-859563D01*
X4391736Y-840473D01*
X4388553Y-834110D01*
X4385370Y-830927D01*
X4379008Y-827745D01*
X4369465Y-827745D01*
X4363100Y-834110D01*
X4359917Y-843653D01*
X4359917Y-856381D01*
X4363100Y-865926D01*
X4369462Y-872289D01*
X4426737Y-787654D02*
G01*
X4423557Y-794019D01*
X4417192Y-800384D01*
X4410826Y-803564D01*
X4401281Y-806744D01*
X4385370Y-806744D01*
X4375828Y-803562D01*
X4369465Y-800381D01*
X4363100Y-794019D01*
X4359917Y-787654D01*
X4359917Y-774926D01*
X4363100Y-768563D01*
X4369462Y-762200D01*
X4375825Y-759018D01*
X4385373Y-755835D01*
X4401284Y-755835D01*
X4410826Y-759018D01*
X4417192Y-762200D01*
X4423554Y-768563D01*
X4426737Y-774928D01*
X4426737Y-787654D01*
X4198134Y-965200D02*
G01*
X4131317Y-965200D01*
X4198134Y-965200D02*
G01*
X4131317Y-939746D01*
X4198137Y-914290D02*
G01*
X4131317Y-939746D01*
X4198137Y-914290D02*
G01*
X4131317Y-914290D01*
X4198137Y-874199D02*
G01*
X4194954Y-880564D01*
X4188592Y-886927D01*
X4182226Y-890109D01*
X4172681Y-893290D01*
X4156773Y-893292D01*
X4147225Y-890109D01*
X4140865Y-886927D01*
X4134500Y-880562D01*
X4131317Y-874201D01*
X4131317Y-861471D01*
X4134500Y-855108D01*
X4140865Y-848746D01*
X4147225Y-845563D01*
X4156770Y-842383D01*
X4172681Y-842383D01*
X4182226Y-845563D01*
X4188592Y-848743D01*
X4194957Y-855108D01*
X4198137Y-861471D01*
X4198137Y-874199D01*
X4188592Y-776836D02*
G01*
X4194954Y-783201D01*
X4198137Y-792744D01*
X4198137Y-805472D01*
X4194954Y-815019D01*
X4188592Y-821382D01*
X4182226Y-821380D01*
X4175864Y-818200D01*
X4172681Y-815017D01*
X4169501Y-808654D01*
X4163136Y-789564D01*
X4159953Y-783198D01*
X4156773Y-780018D01*
X4150408Y-776836D01*
X4140865Y-776836D01*
X4134500Y-783201D01*
X4131317Y-792746D01*
X4131317Y-805474D01*
X4134500Y-815017D01*
X4140865Y-821380D01*
X4198137Y-755835D02*
G01*
X4131317Y-755837D01*
X4845834Y-749300D02*
G01*
X4779017Y-749300D01*
X4845834Y-749300D02*
G01*
X4845834Y-720664D01*
X4842654Y-711118D01*
X4839474Y-707936D01*
X4833109Y-704753D01*
X4826746Y-704753D01*
X4820381Y-707936D01*
X4817201Y-711118D01*
X4814018Y-720664D01*
X4814018Y-749300D01*
X4814018Y-727026D02*
G01*
X4779017Y-704753D01*
X4836292Y-639208D02*
G01*
X4842654Y-645571D01*
X4845834Y-655119D01*
X4845834Y-667844D01*
X4842654Y-677392D01*
X4836292Y-683755D01*
X4829926Y-683752D01*
X4823564Y-680572D01*
X4820381Y-677390D01*
X4817201Y-671027D01*
X4810836Y-651936D01*
X4807653Y-645571D01*
X4804470Y-642391D01*
X4798110Y-639208D01*
X4788562Y-639208D01*
X4782200Y-645571D01*
X4779017Y-655119D01*
X4779017Y-667844D01*
X4782200Y-677392D01*
X4788562Y-683755D01*
X4845837Y-595937D02*
G01*
X4779017Y-595934D01*
X4845837Y-618208D02*
G01*
X4845834Y-573664D01*
X3632200Y-860917D02*
G01*
X3624927Y-857283D01*
X3614018Y-846373D01*
X3614018Y-922736D01*
X3546381Y-857283D02*
G01*
X3550018Y-850008D01*
X3560927Y-846373D01*
X3568199Y-846373D01*
X3579108Y-850008D01*
X3586380Y-860917D01*
X3590018Y-879099D01*
X3590018Y-897282D01*
X3586380Y-911826D01*
X3579108Y-919098D01*
X3568199Y-922736D01*
X3564564Y-922736D01*
X3553655Y-919098D01*
X3546381Y-911826D01*
X3542746Y-900917D01*
X3542746Y-897282D01*
X3546381Y-886373D01*
X3553655Y-879099D01*
X3564564Y-875464D01*
X3568199Y-875464D01*
X3579108Y-879099D01*
X3586380Y-886373D01*
X3590018Y-897282D01*
X3500564Y-846373D02*
G01*
X3511473Y-850008D01*
X3515108Y-857283D01*
X3515108Y-864555D01*
X3511473Y-871827D01*
X3504199Y-875464D01*
X3489655Y-879099D01*
X3478745Y-882736D01*
X3471473Y-890008D01*
X3467836Y-897282D01*
X3467836Y-908189D01*
X3471473Y-915464D01*
X3475108Y-919098D01*
X3486017Y-922736D01*
X3500564Y-922736D01*
X3511473Y-919098D01*
X3515108Y-915464D01*
X3518745Y-908189D01*
X3518745Y-897282D01*
X3515108Y-890008D01*
X3507836Y-882736D01*
X3496927Y-879099D01*
X3482383Y-875464D01*
X3475108Y-871827D01*
X3471473Y-864555D01*
X3471473Y-857283D01*
X3475108Y-850008D01*
X3486017Y-846373D01*
X3500564Y-846373D01*
X3443836Y-846373D02*
G01*
X3443836Y-922736D01*
X3443836Y-846373D02*
G01*
X3411110Y-846373D01*
X3400201Y-850008D01*
X3396564Y-853645D01*
X3392926Y-860917D01*
X3392926Y-871827D01*
X3396564Y-879099D01*
X3400201Y-882736D01*
X3411110Y-886373D01*
X3443836Y-886373D01*
X3303473Y-831827D02*
G01*
X3368929Y-948189D01*
X3250382Y-846373D02*
G01*
X3279472Y-922736D01*
X3250382Y-846373D02*
G01*
X3221291Y-922736D01*
X3268563Y-897282D02*
G01*
X3232200Y-897282D01*
X3581400Y-980854D02*
G01*
X3581400Y-1038128D01*
X3581400Y-980854D02*
G01*
X3543218Y-1038128D01*
X3543218Y-980854D02*
G01*
X3543218Y-1038128D01*
X3511583Y-999944D02*
G01*
X3517036Y-1002672D01*
X3522489Y-1008128D01*
X3525217Y-1016309D01*
X3525217Y-1021763D01*
X3522489Y-1029944D01*
X3517036Y-1035400D01*
X3511583Y-1038128D01*
X3503399Y-1038128D01*
X3497945Y-1035400D01*
X3492489Y-1029944D01*
X3489764Y-1021763D01*
X3489764Y-1016309D01*
X3492489Y-1008128D01*
X3497945Y-1002672D01*
X3503399Y-999944D01*
X3511583Y-999944D01*
X3463582Y-980854D02*
G01*
X3463582Y-1027219D01*
X3460854Y-1035400D01*
X3455400Y-1038128D01*
X3449944Y-1038128D01*
X3471763Y-999944D02*
G01*
X3452672Y-999944D01*
X3389944Y-980854D02*
G01*
X3389944Y-1038128D01*
X3389944Y-980854D02*
G01*
X3365400Y-980854D01*
X3357217Y-983581D01*
X3354491Y-986309D01*
X3351763Y-991763D01*
X3351763Y-999944D01*
X3354491Y-1005400D01*
X3357217Y-1008128D01*
X3365400Y-1010853D01*
X3389944Y-1010853D01*
X3333762Y-980854D02*
G01*
X3333762Y-1038128D01*
X3333762Y-980854D02*
G01*
X3309218Y-980854D01*
X3301037Y-983581D01*
X3298309Y-986309D01*
X3295581Y-991763D01*
X3295581Y-997219D01*
X3298309Y-1002672D01*
X3301037Y-1005400D01*
X3309218Y-1008128D01*
X3333762Y-1008128D02*
G01*
X3309218Y-1008128D01*
X3301037Y-1010853D01*
X3298309Y-1013581D01*
X3295581Y-1019035D01*
X3295581Y-1027219D01*
X3298309Y-1032672D01*
X3301037Y-1035400D01*
X3309218Y-1038128D01*
X3333762Y-1038128D01*
X3274855Y-980854D02*
G01*
X3274855Y-1019035D01*
X3274855Y-1032672D02*
G01*
X3277582Y-1035400D01*
X3274855Y-1038128D01*
X3272127Y-1035400D01*
X3274855Y-1032672D01*
X3572281Y-726854D02*
G01*
X3594100Y-784128D01*
X3572281Y-726854D02*
G01*
X3550462Y-784128D01*
X3585918Y-765035D02*
G01*
X3558646Y-765035D01*
X3513373Y-726854D02*
G01*
X3513373Y-784128D01*
X3532464Y-726854D02*
G01*
X3494283Y-726854D01*
X3476282Y-745944D02*
G01*
X3476282Y-784128D01*
X3476282Y-756853D02*
G01*
X3468100Y-748672D01*
X3462644Y-745944D01*
X3454463Y-745944D01*
X3449010Y-748672D01*
X3446282Y-756853D01*
X3446282Y-784128D01*
X3446282Y-756853D02*
G01*
X3438100Y-748672D01*
X3432644Y-745944D01*
X3424463Y-745944D01*
X3419010Y-748672D01*
X3416282Y-756853D01*
X3416282Y-784128D01*
X3398281Y-762309D02*
G01*
X3365553Y-762309D01*
X3365553Y-756853D01*
X3368281Y-751400D01*
X3371009Y-748672D01*
X3376462Y-745944D01*
X3384646Y-745944D01*
X3390099Y-748672D01*
X3395553Y-754128D01*
X3398281Y-762309D01*
X3398281Y-767763D01*
X3395553Y-775944D01*
X3390099Y-781400D01*
X3384646Y-784128D01*
X3376462Y-784128D01*
X3371009Y-781400D01*
X3365553Y-775944D01*
X3314827Y-745944D02*
G01*
X3314827Y-789581D01*
X3317554Y-797763D01*
X3320282Y-800491D01*
X3325736Y-803219D01*
X3333917Y-803219D01*
X3339373Y-800491D01*
X3314827Y-754128D02*
G01*
X3320282Y-748672D01*
X3325736Y-745944D01*
X3333917Y-745944D01*
X3339373Y-748672D01*
X3344826Y-754128D01*
X3347554Y-762309D01*
X3347554Y-767763D01*
X3344826Y-775944D01*
X3339373Y-781400D01*
X3333917Y-784128D01*
X3325736Y-784128D01*
X3320282Y-781400D01*
X3314827Y-775944D01*
X3264100Y-745944D02*
G01*
X3264100Y-784128D01*
X3264100Y-754128D02*
G01*
X3269554Y-748672D01*
X3275009Y-745944D01*
X3283191Y-745944D01*
X3288644Y-748672D01*
X3294100Y-754128D01*
X3296826Y-762309D01*
X3296826Y-767763D01*
X3294100Y-775944D01*
X3288644Y-781400D01*
X3283191Y-784128D01*
X3275009Y-784128D01*
X3269554Y-781400D01*
X3264100Y-775944D01*
X1142946Y-1684573D02*
G01*
X1142946Y-1760936D01*
X1168400Y-1684573D02*
G01*
X1117490Y-1684573D01*
X1093490Y-1684573D02*
G01*
X1089855Y-1688208D01*
X1086218Y-1684573D01*
X1089855Y-1680936D01*
X1093490Y-1684573D01*
X1089855Y-1710027D02*
G01*
X1089855Y-1760936D01*
X1018580Y-1720936D02*
G01*
X1025855Y-1713664D01*
X1033127Y-1710027D01*
X1044036Y-1710027D01*
X1051308Y-1713664D01*
X1058580Y-1720936D01*
X1062217Y-1731845D01*
X1062217Y-1739117D01*
X1058580Y-1750026D01*
X1051308Y-1757298D01*
X1044036Y-1760936D01*
X1033127Y-1760936D01*
X1025855Y-1757298D01*
X1018580Y-1750026D01*
X994582Y-1684573D02*
G01*
X994582Y-1760936D01*
X958217Y-1710027D02*
G01*
X994582Y-1746389D01*
X980036Y-1731845D02*
G01*
X954582Y-1760936D01*
X905126Y-1684573D02*
G01*
X905126Y-1760936D01*
X930582Y-1684573D02*
G01*
X879673Y-1684573D01*
X837491Y-1710027D02*
G01*
X844763Y-1713664D01*
X852035Y-1720936D01*
X855672Y-1731845D01*
X855672Y-1739117D01*
X852035Y-1750026D01*
X844763Y-1757298D01*
X837491Y-1760936D01*
X826582Y-1760936D01*
X819310Y-1757298D01*
X812035Y-1750026D01*
X808400Y-1739117D01*
X808400Y-1731845D01*
X812035Y-1720936D01*
X819310Y-1713664D01*
X826582Y-1710027D01*
X837491Y-1710027D01*
X740763Y-1720936D02*
G01*
X748037Y-1713664D01*
X755309Y-1710027D01*
X766218Y-1710027D01*
X773490Y-1713664D01*
X780762Y-1720936D01*
X784400Y-1731845D01*
X784400Y-1739117D01*
X780762Y-1750026D01*
X773490Y-1757298D01*
X766218Y-1760936D01*
X755309Y-1760936D01*
X748037Y-1757298D01*
X740763Y-1750026D01*
X716762Y-1684573D02*
G01*
X716762Y-1760936D01*
X680399Y-1710027D02*
G01*
X716762Y-1746389D01*
X702218Y-1731845D02*
G01*
X676762Y-1760936D01*
X1206446Y-1798873D02*
G01*
X1206446Y-1875236D01*
X1231900Y-1798873D02*
G01*
X1180990Y-1798873D01*
X1156990Y-1824327D02*
G01*
X1156990Y-1860689D01*
X1153355Y-1871598D01*
X1146081Y-1875236D01*
X1135171Y-1875236D01*
X1127899Y-1871598D01*
X1116990Y-1860689D01*
X1116990Y-1824327D02*
G01*
X1116990Y-1875236D01*
X1092989Y-1798873D02*
G01*
X1092989Y-1875236D01*
X1092989Y-1835236D02*
G01*
X1085717Y-1827964D01*
X1078445Y-1824327D01*
X1067536Y-1824327D01*
X1060264Y-1827964D01*
X1052990Y-1835236D01*
X1049355Y-1846145D01*
X1049355Y-1853417D01*
X1052990Y-1864326D01*
X1060264Y-1871598D01*
X1067536Y-1875236D01*
X1078445Y-1875236D01*
X1085717Y-1871598D01*
X1092989Y-1864326D01*
X1025354Y-1846145D02*
G01*
X981717Y-1846145D01*
X981717Y-1838873D01*
X985354Y-1831599D01*
X988989Y-1827964D01*
X996264Y-1824327D01*
X1007173Y-1824327D01*
X1014445Y-1827964D01*
X1021717Y-1835236D01*
X1025354Y-1846145D01*
X1025354Y-1853417D01*
X1021717Y-1864326D01*
X1014445Y-1871598D01*
X1007173Y-1875236D01*
X996264Y-1875236D01*
X988989Y-1871598D01*
X981717Y-1864326D01*
X903173Y-1817055D02*
G01*
X906807Y-1809783D01*
X914082Y-1802508D01*
X921354Y-1798873D01*
X935901Y-1798873D01*
X943173Y-1802508D01*
X950445Y-1809783D01*
X954082Y-1817055D01*
X957717Y-1827964D01*
X957717Y-1846145D01*
X954082Y-1857054D01*
X950445Y-1864326D01*
X943173Y-1871598D01*
X935901Y-1875236D01*
X921354Y-1875236D01*
X914082Y-1871598D01*
X906807Y-1864326D01*
X903173Y-1857054D01*
X879172Y-1798873D02*
G01*
X879172Y-1875236D01*
X836990Y-1824327D02*
G01*
X844262Y-1827964D01*
X851537Y-1835236D01*
X855172Y-1846145D01*
X855172Y-1853417D01*
X851537Y-1864326D01*
X844262Y-1871598D01*
X836990Y-1875236D01*
X826081Y-1875236D01*
X818809Y-1871598D01*
X811537Y-1864326D01*
X807900Y-1853417D01*
X807900Y-1846145D01*
X811537Y-1835236D01*
X818809Y-1827964D01*
X826081Y-1824327D01*
X836990Y-1824327D01*
X740262Y-1835236D02*
G01*
X747537Y-1827964D01*
X754809Y-1824327D01*
X765718Y-1824327D01*
X772990Y-1827964D01*
X780262Y-1835236D01*
X783899Y-1846145D01*
X783899Y-1853417D01*
X780262Y-1864326D01*
X772990Y-1871598D01*
X765718Y-1875236D01*
X754809Y-1875236D01*
X747537Y-1871598D01*
X740262Y-1864326D01*
X716264Y-1798873D02*
G01*
X716264Y-1875236D01*
X679899Y-1824327D02*
G01*
X716264Y-1860689D01*
X701718Y-1846145D02*
G01*
X676264Y-1875236D01*
X647700Y-1621127D02*
G01*
X647700Y-1672036D01*
X647700Y-1642945D02*
G01*
X644062Y-1632036D01*
X636790Y-1624764D01*
X629518Y-1621127D01*
X618609Y-1621127D01*
X587336Y-1595673D02*
G01*
X547336Y-1595673D01*
X569155Y-1624764D01*
X558246Y-1624764D01*
X550971Y-1628400D01*
X547336Y-1632036D01*
X543699Y-1642945D01*
X543699Y-1650217D01*
X547336Y-1661126D01*
X554609Y-1668400D01*
X565518Y-1672036D01*
X576427Y-1672036D01*
X587336Y-1668400D01*
X590971Y-1664764D01*
X594608Y-1657489D01*
D53*
X925842Y-675289D02*
G01*
X776538Y-748106D01*
X887600Y-786348D02*
G01*
X814669Y-636818D01*
D12*
X8458200Y-1078001D02*
G01*
X8534400Y-1078001D01*
D47*
X8398680Y-935380D02*
G01*
X8398680Y-1220622D01*
X8593919Y-935380D02*
G01*
X8569622Y-935380D01*
X8398680Y-935380D02*
G01*
X8422977Y-935380D01*
X8398680Y-1220622D02*
G01*
X8422977Y-1220622D01*
D12*
X8496300Y-1001801D02*
G01*
X8496300Y-1154201D01*
X8458200Y-1039901D02*
G01*
X8496300Y-1078001D01*
X8534400Y-1039901D01*
X8458200Y-1039901D01*
X8534400Y-1116101D02*
G01*
X8496300Y-1078001D01*
X8458200Y-1116101D01*
X8534400Y-1116101D01*
D47*
X8398680Y-1177907D02*
G01*
X8593919Y-1177907D01*
X8398680Y-976320D02*
G01*
X8593919Y-976320D01*
X8593919Y-935380D02*
G01*
X8593919Y-1220622D01*
X8593919Y-1220622D02*
G01*
X8569622Y-1220622D01*
D10*
X3380379Y-433026D02*
G01*
X2913405Y-900000D01*
X3416300Y-1402895D01*
X3919194Y-900000D01*
X3416300Y-397106D01*
X3380379Y-433026D01*
X2482496Y-1822599D02*
G01*
X2419703Y-1822599D01*
X2601099Y-1682600D02*
G01*
X2514699Y-1682600D01*
X2387500Y-1682600D02*
G01*
X2301100Y-1682600D01*
X2601099Y-1682600D02*
G01*
X2601099Y-1782602D01*
X2301100Y-1682600D02*
G01*
X2301100Y-1782602D01*
X8634666Y-1656877D02*
G01*
X8546277Y-1745267D01*
X8490422Y-1512633D02*
G01*
X8402032Y-1601022D01*
X8705377Y-1586166D02*
G01*
X8793767Y-1497777D01*
X8561133Y-1441922D02*
G01*
X8649522Y-1353532D01*
X8546277Y-1745269D02*
G01*
X8402032Y-1601022D01*
X8793767Y-1497777D02*
G01*
X8649522Y-1353532D01*
X5785203Y-996800D02*
G01*
X5847996Y-996800D01*
X5666600Y-1136799D02*
G01*
X5753000Y-1136799D01*
X5880199Y-1136799D02*
G01*
X5966599Y-1136799D01*
X5666600Y-1136799D02*
G01*
X5666600Y-1036797D01*
X5966599Y-1136799D02*
G01*
X5966599Y-1036797D01*
X6022596Y-974097D02*
G01*
X6022596Y-1134099D01*
X6372603Y-974097D02*
G01*
X6372600Y-1134102D01*
X6147600Y-1158100D02*
G01*
X6042601Y-1158100D01*
X6147600Y-950099D02*
G01*
X6042601Y-950099D01*
X6247599Y-1158100D02*
G01*
X6352598Y-1158100D01*
X6247599Y-950099D02*
G01*
X6352598Y-950099D01*
X6372603Y-972106D02*
G01*
X6372603Y-974097D01*
X6372603Y-970104D02*
G01*
X6372603Y-974097D01*
X6372600Y-1138097D02*
G01*
X6372600Y-1134102D01*
X6022596Y-970104D02*
G01*
X6022596Y-974097D01*
X6022596Y-1138095D02*
G01*
X6022596Y-1134099D01*
X6055677Y-1801726D02*
G01*
X5900737Y-1801726D01*
X5900737Y-1598526D01*
X6055677Y-1598526D01*
X6134417Y-1804266D02*
G01*
X6281737Y-1804266D01*
X6322377Y-1763626D01*
X6322377Y-1636626D01*
X6284277Y-1598526D01*
X6131877Y-1598526D01*
X6080000Y-1649999D02*
G01*
X6080000Y-1750024D01*
X6089992Y-1699999D02*
G01*
X6116891Y-1699999D01*
X5255676Y-1801726D02*
G01*
X5100736Y-1801726D01*
X5100736Y-1598526D01*
X5255676Y-1598526D01*
X5334416Y-1804266D02*
G01*
X5481736Y-1804266D01*
X5522376Y-1763626D01*
X5522376Y-1636626D01*
X5484276Y-1598526D01*
X5331876Y-1598526D01*
X5279999Y-1649999D02*
G01*
X5279999Y-1750024D01*
X5289991Y-1699999D02*
G01*
X5316890Y-1699999D01*
X4455678Y-1801726D02*
G01*
X4300738Y-1801726D01*
X4300738Y-1598526D01*
X4455678Y-1598526D01*
X4534418Y-1804266D02*
G01*
X4681738Y-1804266D01*
X4722378Y-1763626D01*
X4722378Y-1636626D01*
X4684278Y-1598526D01*
X4531878Y-1598526D01*
X4480001Y-1649999D02*
G01*
X4480001Y-1750024D01*
X4489993Y-1699999D02*
G01*
X4516892Y-1699999D01*
X3655677Y-1801726D02*
G01*
X3500737Y-1801726D01*
X3500737Y-1598526D01*
X3655677Y-1598526D01*
X3734417Y-1804266D02*
G01*
X3881737Y-1804266D01*
X3922377Y-1763626D01*
X3922377Y-1636626D01*
X3884277Y-1598526D01*
X3731877Y-1598526D01*
X3680000Y-1649999D02*
G01*
X3680000Y-1750024D01*
X3689992Y-1699999D02*
G01*
X3716891Y-1699999D01*
X2855676Y-1801726D02*
G01*
X2700736Y-1801726D01*
X2700736Y-1598526D01*
X2855676Y-1598526D01*
X2934416Y-1804266D02*
G01*
X3081736Y-1804266D01*
X3122376Y-1763626D01*
X3122376Y-1636626D01*
X3084276Y-1598526D01*
X2931876Y-1598526D01*
X2879999Y-1649999D02*
G01*
X2879999Y-1750024D01*
X2889991Y-1699999D02*
G01*
X2916890Y-1699999D01*
X5372900Y-1181496D02*
G01*
X5247899Y-1181496D01*
X5372900Y-977503D02*
G01*
X5247899Y-977503D01*
X5472899Y-1181496D02*
G01*
X5597900Y-1181496D01*
X5472899Y-977503D02*
G01*
X5597900Y-977503D01*
X5247896Y-1181496D02*
G01*
X5247899Y-977503D01*
X5597900Y-1181496D02*
G01*
X5597900Y-977503D01*
X6050000Y-1501995D02*
G01*
X5924999Y-1501995D01*
X6050000Y-1298003D02*
G01*
X5924999Y-1298003D01*
X6150000Y-1501995D02*
G01*
X6275001Y-1501995D01*
X6150000Y-1298003D02*
G01*
X6275001Y-1298003D01*
X5924997Y-1501995D02*
G01*
X5924999Y-1298003D01*
X6275001Y-1501995D02*
G01*
X6275001Y-1298003D01*
X5699998Y-1298003D02*
G01*
X5824999Y-1298003D01*
X5699998Y-1501995D02*
G01*
X5824999Y-1501995D01*
X5599998Y-1298003D02*
G01*
X5474997Y-1298003D01*
X5599998Y-1501995D02*
G01*
X5474997Y-1501995D01*
X5825002Y-1298003D02*
G01*
X5824999Y-1501995D01*
X5474997Y-1298003D02*
G01*
X5474997Y-1501995D01*
X5249999Y-1298003D02*
G01*
X5375000Y-1298003D01*
X5249999Y-1501995D02*
G01*
X5375000Y-1501995D01*
X5149999Y-1298003D02*
G01*
X5024998Y-1298003D01*
X5149999Y-1501995D02*
G01*
X5024998Y-1501995D01*
X5375003Y-1298003D02*
G01*
X5375000Y-1501995D01*
X5024998Y-1298003D02*
G01*
X5024998Y-1501995D01*
X4800000Y-1298003D02*
G01*
X4925001Y-1298003D01*
X4800000Y-1501995D02*
G01*
X4925001Y-1501995D01*
X4700000Y-1298003D02*
G01*
X4574999Y-1298003D01*
X4700000Y-1501995D02*
G01*
X4574999Y-1501995D01*
X4925004Y-1298003D02*
G01*
X4925001Y-1501995D01*
X4574999Y-1298003D02*
G01*
X4574999Y-1501995D01*
X4349998Y-1298003D02*
G01*
X4474999Y-1298003D01*
X4349998Y-1501995D02*
G01*
X4474999Y-1501995D01*
X4249999Y-1298003D02*
G01*
X4124998Y-1298003D01*
X4249999Y-1501995D02*
G01*
X4124998Y-1501995D01*
X4475002Y-1298003D02*
G01*
X4474999Y-1501995D01*
X4124998Y-1298003D02*
G01*
X4124998Y-1501995D01*
X5573699Y-156397D02*
G01*
X5373700Y-156397D01*
X5593699Y-506399D02*
G01*
X5593699Y-626399D01*
X5353700Y-506399D02*
G01*
X5353700Y-626399D01*
X5593699Y-306397D02*
G01*
X5593699Y-186400D01*
X5353700Y-306397D02*
G01*
X5353700Y-186400D01*
X5573699Y-656399D02*
G01*
X5373700Y-656399D01*
X5593699Y-636399D02*
G01*
X5593699Y-626399D01*
X5353700Y-636399D02*
G01*
X5353700Y-626399D01*
X5593699Y-176397D02*
G01*
X5593699Y-186400D01*
X5353700Y-176397D02*
G01*
X5353700Y-186400D01*
X5372900Y-927496D02*
G01*
X5247899Y-927496D01*
X5372900Y-723503D02*
G01*
X5247899Y-723503D01*
X5472899Y-927496D02*
G01*
X5597900Y-927496D01*
X5472899Y-723503D02*
G01*
X5597900Y-723503D01*
X5247896Y-927498D02*
G01*
X5247899Y-723503D01*
X5597900Y-927496D02*
G01*
X5597900Y-723503D01*
X1510499Y-63103D02*
G01*
X1635500Y-63103D01*
X1510499Y-267096D02*
G01*
X1635500Y-267096D01*
X1410500Y-63103D02*
G01*
X1285499Y-63103D01*
X1410500Y-267096D02*
G01*
X1285499Y-267096D01*
X1635503Y-63101D02*
G01*
X1635500Y-267096D01*
X1285499Y-63103D02*
G01*
X1285499Y-267096D01*
X939800Y-177800D02*
G01*
X1041400Y-218439D01*
X1041400Y-218439D02*
G01*
X1041400Y-137160D01*
X1041400Y-137160D02*
G01*
X939800Y-177800D01*
X840600Y-277799D02*
G01*
X1140602Y-277799D01*
X840597Y-77800D02*
G01*
X1140599Y-77800D01*
X939800Y-228600D02*
G01*
X939800Y-127000D01*
X914400Y-177800D02*
G01*
X1066800Y-177800D01*
X1845500Y-473100D02*
G01*
X1859912Y-473100D01*
X1950087Y-473100D02*
G01*
X1986912Y-473100D01*
X1845500Y-873099D02*
G01*
X1859912Y-873099D01*
X1950087Y-873099D02*
G01*
X1986912Y-873099D01*
X2077087Y-873099D02*
G01*
X2113912Y-873099D01*
X2204087Y-873099D02*
G01*
X2240912Y-873099D01*
X1845500Y-615101D02*
G01*
X1845500Y-473100D01*
X2077087Y-473100D02*
G01*
X2113912Y-473100D01*
X2204087Y-473100D02*
G01*
X2240912Y-473100D01*
X2331087Y-473100D02*
G01*
X2345499Y-473100D01*
X1845500Y-873099D02*
G01*
X1845500Y-733099D01*
X2345499Y-873102D02*
G01*
X2345499Y-473100D01*
X2331087Y-873102D02*
G01*
X2345499Y-873102D01*
X1840415Y-1533903D02*
G01*
X1840415Y-1461399D01*
X1810412Y-1498897D02*
G01*
X1880412Y-1498897D01*
X2190508Y-1806450D02*
G01*
X2190508Y-1816354D01*
X2190409Y-1936396D01*
X2070366Y-1936495D01*
X1670415Y-1936396D02*
G01*
X1670415Y-1916404D01*
X2190409Y-1416403D02*
G01*
X2190409Y-1436395D01*
X1670415Y-1416403D02*
G01*
X1670415Y-1436395D01*
X2190409Y-1806394D02*
G01*
X2190409Y-1576400D01*
X1670415Y-1416403D02*
G01*
X2190409Y-1416403D01*
X1670415Y-1936396D02*
G01*
X2070417Y-1936396D01*
X1980412Y-1498897D02*
G01*
X2030412Y-1498897D01*
X1670316Y-1776399D02*
G01*
X1670415Y-1576400D01*
X3864343Y-285831D02*
G01*
X3807772Y-229262D01*
X3707391Y-285831D02*
G01*
X3763959Y-229262D01*
X3763959Y-386214D02*
G01*
X3707389Y-329646D01*
X3905478Y-326141D02*
G01*
X3962044Y-382706D01*
X3805095Y-426524D02*
G01*
X3861661Y-483090D01*
X3905473Y-483090D02*
G01*
X3962044Y-426521D01*
X2533599Y-669632D02*
G01*
X2533599Y-589630D01*
X2422618Y-558650D02*
G01*
X2502618Y-558650D01*
X2391636Y-669632D02*
G01*
X2391633Y-589630D01*
X2534183Y-727222D02*
G01*
X2534183Y-807219D01*
X2392220Y-727222D02*
G01*
X2392220Y-807219D01*
X2423200Y-838197D02*
G01*
X2503203Y-838200D01*
D51*
X5945886Y-159765D02*
G01*
X5945886Y-829818D01*
X6270752Y-829818D01*
X6270752Y-159765D01*
X5945886Y-159765D01*
D52*
X2751696Y-503199D02*
G01*
X2751696Y-328218D01*
X3016694Y-328218D01*
X3016694Y-508203D01*
X2751696Y-508203D01*
X2751696Y-498195D01*
D10*
X4686696Y-583399D02*
G01*
X4686696Y-708400D01*
X4482703Y-583399D02*
G01*
X4482703Y-708400D01*
X4686696Y-483400D02*
G01*
X4686696Y-358399D01*
X4482703Y-483400D02*
G01*
X4482703Y-358399D01*
X4686698Y-708403D02*
G01*
X4482703Y-708400D01*
X4686696Y-358399D02*
G01*
X4482703Y-358399D01*
X2571800Y-511467D02*
G01*
X2571800Y-591469D01*
X2682781Y-622449D02*
G01*
X2602781Y-622449D01*
X2713763Y-511467D02*
G01*
X2713766Y-591469D01*
X2571216Y-453877D02*
G01*
X2571216Y-373880D01*
X2713179Y-453877D02*
G01*
X2713179Y-373880D01*
X2682199Y-342902D02*
G01*
X2602196Y-342900D01*
X3095256Y-1530268D02*
G01*
X3151827Y-1586837D01*
X3252208Y-1530268D02*
G01*
X3195640Y-1586837D01*
X3195640Y-1429885D02*
G01*
X3252210Y-1486453D01*
X3054121Y-1489958D02*
G01*
X2997555Y-1433393D01*
X3154504Y-1389575D02*
G01*
X3097938Y-1333009D01*
X3054126Y-1333009D02*
G01*
X2997555Y-1389578D01*
X4981867Y-1149299D02*
G01*
X5061869Y-1149299D01*
X5092849Y-1038318D02*
G01*
X5092849Y-1118318D01*
X4981867Y-1007336D02*
G01*
X5061869Y-1007333D01*
X4924277Y-1149883D02*
G01*
X4844280Y-1149883D01*
X4924277Y-1007920D02*
G01*
X4844280Y-1007920D01*
X4813302Y-1038900D02*
G01*
X4813300Y-1118903D01*
X1505422Y-532066D02*
G01*
X1417032Y-443677D01*
X1649666Y-387822D02*
G01*
X1561277Y-299432D01*
X1576133Y-602777D02*
G01*
X1664522Y-691167D01*
X1720377Y-458533D02*
G01*
X1808767Y-546922D01*
X1417030Y-443677D02*
G01*
X1561277Y-299432D01*
X1664522Y-691167D02*
G01*
X1808767Y-546922D01*
X2528633Y-1048222D02*
G01*
X2617022Y-959832D01*
X2672877Y-1192466D02*
G01*
X2761267Y-1104077D01*
X2457922Y-1118933D02*
G01*
X2369532Y-1207322D01*
X2602166Y-1263177D02*
G01*
X2513777Y-1351567D01*
X2617022Y-959830D02*
G01*
X2761267Y-1104077D01*
X2369532Y-1207322D02*
G01*
X2513777Y-1351567D01*
X2731833Y-1238722D02*
G01*
X2820222Y-1150332D01*
X2876077Y-1382966D02*
G01*
X2964467Y-1294577D01*
X2661122Y-1309433D02*
G01*
X2572732Y-1397822D01*
X2805366Y-1453677D02*
G01*
X2716977Y-1542067D01*
X2820222Y-1150330D02*
G01*
X2964467Y-1294577D01*
X2572732Y-1397822D02*
G01*
X2716977Y-1542067D01*
X1854596Y-1192999D02*
G01*
X1854596Y-1318000D01*
X1650603Y-1192999D02*
G01*
X1650603Y-1318000D01*
X1854596Y-1093000D02*
G01*
X1854596Y-967999D01*
X1650603Y-1093000D02*
G01*
X1650603Y-967999D01*
X1854598Y-1318003D02*
G01*
X1650603Y-1318000D01*
X1854596Y-967999D02*
G01*
X1650603Y-967999D01*
X4324299Y-504532D02*
G01*
X4324299Y-424530D01*
X4213318Y-393550D02*
G01*
X4293318Y-393550D01*
X4182336Y-504532D02*
G01*
X4182333Y-424530D01*
X4324883Y-562122D02*
G01*
X4324883Y-642119D01*
X4182920Y-562122D02*
G01*
X4182920Y-642119D01*
X4213900Y-673097D02*
G01*
X4293903Y-673100D01*
G75*
G01*
X6352598Y-950100D02*
G02*
X6372603Y-970105I0J-20005D01*
G75*
G01*
X6352598Y-1158100D02*
G03*
X6372601Y-1138098I0J20002D01*
G75*
G01*
X6042602Y-950100D02*
G03*
X6022597Y-970105I0J-20005D01*
G75*
G01*
X6042602Y-1158100D02*
G02*
X6022597Y-1138095I0J20005D01*
G75*
G01*
X5573700Y-656400D02*
G03*
X5593700Y-636400I0J20000D01*
G75*
G01*
X5373700Y-656400D02*
G02*
X5353700Y-636400I0J20000D01*
G75*
G01*
X5573700Y-156398D02*
G02*
X5593700Y-176398I0J-20000D01*
G75*
G01*
X5373700Y-156398D02*
G03*
X5353700Y-176398I0J-20000D01*
G75*
G01*
X1846501Y-733100D02*
G03*
X1846501Y-615099I4468J59001D01*
G75*
G01*
X3707389Y-285829D02*
G03*
X3707389Y-329646I21908J-21909D01*
G75*
G01*
X3807775Y-229260D02*
G03*
X3763957Y-229260I-21909J-21908D01*
G75*
G01*
X3861659Y-483090D02*
G03*
X3905474Y-483090I21907J21909D01*
G75*
G01*
X3962044Y-426522D02*
G03*
X3962044Y-382707I-21909J21908D01*
G75*
G01*
X2422619Y-558648D02*
G03*
X2391634Y-589631I-3J-30983D01*
G75*
G01*
X2533602Y-589631D02*
G03*
X2502619Y-558648I-30983J0D01*
G75*
G01*
X2392218Y-807217D02*
G03*
X2423201Y-838197I30983J2D01*
G75*
G01*
X2503203Y-838200D02*
G03*
X2534183Y-807220I-3J30983D01*
G75*
G01*
X2682781Y-622452D02*
G03*
X2713766Y-591469I3J30983D01*
G75*
G01*
X2571798Y-591469D02*
G03*
X2602781Y-622452I30983J0D01*
G75*
G01*
X2713182Y-373883D02*
G03*
X2682199Y-342903I-30983J-2D01*
G75*
G01*
X2602197Y-342900D02*
G03*
X2571217Y-373880I3J-30983D01*
G75*
G01*
X3252211Y-1530271D02*
G03*
X3252211Y-1486454I-21908J21909D01*
G75*
G01*
X3151825Y-1586840D02*
G03*
X3195643Y-1586840I21909J21908D01*
G75*
G01*
X3097941Y-1333010D02*
G03*
X3054126Y-1333010I-21907J-21909D01*
G75*
G01*
X2997556Y-1389578D02*
G03*
X2997556Y-1433393I21909J-21908D01*
G75*
G01*
X5092852Y-1038319D02*
G03*
X5061869Y-1007334I-30983J3D01*
G75*
G01*
X5061869Y-1149302D02*
G03*
X5092852Y-1118319I0J30983D01*
G75*
G01*
X4844283Y-1007918D02*
G03*
X4813303Y-1038901I2J-30983D01*
G75*
G01*
X4813300Y-1118903D02*
G03*
X4844280Y-1149883I30983J3D01*
G75*
G01*
X4213319Y-393548D02*
G03*
X4182334Y-424531I-3J-30983D01*
G75*
G01*
X4324302Y-424531D02*
G03*
X4293319Y-393548I-30983J0D01*
G75*
G01*
X4182918Y-642117D02*
G03*
X4213901Y-673097I30983J2D01*
G75*
G01*
X4293903Y-673100D02*
G03*
X4324883Y-642120I-3J30983D01*
G75*
G01
X3477616Y-350418D02*
G03X3477616Y-350418I-25400J0D01*
G75*
G01
X1847850Y-406400D02*
G03X1847850Y-406400I-19050J0D01*
G75*
G01
X1499997Y-999998D02*
G03X1499997Y-999998I-499999J0D01*
M02*
